%TF.GenerationSoftware,KiCad,Pcbnew,9.0.7*%
%TF.CreationDate,2026-01-14T19:54:00-05:00*%
%TF.ProjectId,SlimRhizz,536c696d-5268-4697-9a7a-2e6b69636164,rev?*%
%TF.SameCoordinates,Original*%
%TF.FileFunction,Copper,L2,Inr*%
%TF.FilePolarity,Positive*%
%FSLAX46Y46*%
G04 Gerber Fmt 4.6, Leading zero omitted, Abs format (unit mm)*
G04 Created by KiCad (PCBNEW 9.0.7) date 2026-01-14 19:54:00*
%MOMM*%
%LPD*%
G01*
G04 APERTURE LIST*
G04 Aperture macros list*
%AMRoundRect*
0 Rectangle with rounded corners*
0 $1 Rounding radius*
0 $2 $3 $4 $5 $6 $7 $8 $9 X,Y pos of 4 corners*
0 Add a 4 corners polygon primitive as box body*
4,1,4,$2,$3,$4,$5,$6,$7,$8,$9,$2,$3,0*
0 Add four circle primitives for the rounded corners*
1,1,$1+$1,$2,$3*
1,1,$1+$1,$4,$5*
1,1,$1+$1,$6,$7*
1,1,$1+$1,$8,$9*
0 Add four rect primitives between the rounded corners*
20,1,$1+$1,$2,$3,$4,$5,0*
20,1,$1+$1,$4,$5,$6,$7,0*
20,1,$1+$1,$6,$7,$8,$9,0*
20,1,$1+$1,$8,$9,$2,$3,0*%
G04 Aperture macros list end*
%TA.AperFunction,ComponentPad*%
%ADD10RoundRect,0.250000X0.725000X-0.600000X0.725000X0.600000X-0.725000X0.600000X-0.725000X-0.600000X0*%
%TD*%
%TA.AperFunction,ComponentPad*%
%ADD11O,1.950000X1.700000*%
%TD*%
%TA.AperFunction,ComponentPad*%
%ADD12RoundRect,0.250000X0.550000X0.550000X-0.550000X0.550000X-0.550000X-0.550000X0.550000X-0.550000X0*%
%TD*%
%TA.AperFunction,ComponentPad*%
%ADD13C,1.600000*%
%TD*%
%TA.AperFunction,ComponentPad*%
%ADD14RoundRect,0.250000X0.600000X0.725000X-0.600000X0.725000X-0.600000X-0.725000X0.600000X-0.725000X0*%
%TD*%
%TA.AperFunction,ComponentPad*%
%ADD15O,1.700000X1.950000*%
%TD*%
%TA.AperFunction,ComponentPad*%
%ADD16RoundRect,0.250000X-0.725000X0.600000X-0.725000X-0.600000X0.725000X-0.600000X0.725000X0.600000X0*%
%TD*%
%TA.AperFunction,ComponentPad*%
%ADD17RoundRect,0.250000X0.750000X-0.600000X0.750000X0.600000X-0.750000X0.600000X-0.750000X-0.600000X0*%
%TD*%
%TA.AperFunction,ComponentPad*%
%ADD18O,2.000000X1.700000*%
%TD*%
%TA.AperFunction,ComponentPad*%
%ADD19O,1.600000X3.000000*%
%TD*%
%TA.AperFunction,ViaPad*%
%ADD20C,0.600000*%
%TD*%
%TA.AperFunction,ViaPad*%
%ADD21C,1.000000*%
%TD*%
G04 APERTURE END LIST*
D10*
%TO.N,GND*%
%TO.C,J4*%
X159225000Y-133500000D03*
D11*
%TO.N,Net-(J4-Pin_2)*%
X159225000Y-131000000D03*
%TO.N,Net-(J4-Pin_3)*%
X159225000Y-128500000D03*
%TO.N,+5V*%
X159225000Y-126000000D03*
%TD*%
D12*
%TO.N,GND*%
%TO.C,U2*%
X136805000Y-131120000D03*
D13*
%TO.N,/APA_CLK_PRE*%
X136805000Y-128580000D03*
%TO.N,Net-(R1-Pad1)*%
X136805000Y-126040000D03*
%TO.N,GND*%
X136805000Y-123500000D03*
%TO.N,/APA_DATA_PRE*%
X136805000Y-120960000D03*
%TO.N,Net-(R2-Pad1)*%
X136805000Y-118420000D03*
%TO.N,GND*%
X136805000Y-115880000D03*
%TO.N,Net-(R3-Pad1)*%
X129185000Y-115880000D03*
%TO.N,/LED_TIP1*%
X129185000Y-118420000D03*
%TO.N,GND*%
X129185000Y-120960000D03*
%TO.N,Net-(R4-Pad1)*%
X129185000Y-123500000D03*
%TO.N,/LED_TIP2*%
X129185000Y-126040000D03*
%TO.N,GND*%
X129185000Y-128580000D03*
%TO.N,+5V*%
X129185000Y-131120000D03*
%TD*%
D10*
%TO.N,Net-(J6-Pin_1)*%
%TO.C,J6*%
X177000000Y-122750000D03*
D11*
%TO.N,Net-(J6-Pin_2)*%
X177000000Y-120250000D03*
%TO.N,GND*%
X177000000Y-117750000D03*
%TO.N,Net-(J5-Pin_4)*%
X177000000Y-115250000D03*
%TD*%
D14*
%TO.N,Net-(J8-Pin_1)*%
%TO.C,J8*%
X177750000Y-131000000D03*
D15*
%TO.N,Net-(J8-Pin_2)*%
X175250000Y-131000000D03*
%TO.N,GND*%
X172750000Y-131000000D03*
%TO.N,Net-(J8-Pin_4)*%
X170250000Y-131000000D03*
%TO.N,GND*%
X167750000Y-131000000D03*
%TD*%
D10*
%TO.N,GND*%
%TO.C,J3*%
X158750000Y-119750000D03*
D11*
%TO.N,Net-(J3-Pin_2)*%
X158750000Y-117250000D03*
%TO.N,+5V*%
X158750000Y-114750000D03*
%TD*%
D16*
%TO.N,GND*%
%TO.C,J2*%
X75500000Y-129000000D03*
D11*
%TO.N,Net-(J2-Pin_2)*%
X75500000Y-131500000D03*
%TO.N,+5V*%
X75500000Y-134000000D03*
%TD*%
D17*
%TO.N,+5V*%
%TO.C,J1*%
X65250000Y-117250000D03*
D18*
%TO.N,GND*%
X65250000Y-114750000D03*
%TD*%
D16*
%TO.N,Net-(J5-Pin_1)*%
%TO.C,J5*%
X76525000Y-115000000D03*
D11*
%TO.N,Net-(J5-Pin_2)*%
X76525000Y-117500000D03*
%TO.N,GND*%
X76525000Y-120000000D03*
%TO.N,Net-(J5-Pin_4)*%
X76525000Y-122500000D03*
%TD*%
D10*
%TO.N,GND*%
%TO.C,J7*%
X65250000Y-133750000D03*
D11*
%TO.N,Net-(J7-Pin_2)*%
X65250000Y-131250000D03*
%TO.N,GND*%
X65250000Y-128750000D03*
%TO.N,Net-(J7-Pin_4)*%
X65250000Y-126250000D03*
%TO.N,Net-(J7-Pin_5)*%
X65250000Y-123750000D03*
%TD*%
D19*
%TO.N,/LED_TIP2*%
%TO.C,u1*%
X123470000Y-117775000D03*
%TO.N,/LED_TIP1*%
X120930000Y-117775000D03*
%TO.N,Net-(R6-Pad1)*%
X118390000Y-117775000D03*
%TO.N,Net-(R7-Pad1)*%
X115850000Y-117775000D03*
%TO.N,Net-(J5-Pin_4)*%
X120930000Y-133225000D03*
%TO.N,Net-(R8-Pad1)*%
X113310000Y-117775000D03*
%TO.N,unconnected-(u1-Pad5)*%
X110770000Y-117775000D03*
%TO.N,Net-(J8-Pin_1)*%
X108230000Y-117775000D03*
%TO.N,Net-(J8-Pin_4)*%
X105690000Y-117775000D03*
%TO.N,Net-(J8-Pin_2)*%
X103150000Y-117775000D03*
%TO.N,unconnected-(u1-Pad9)*%
X100610000Y-117775000D03*
%TO.N,unconnected-(u1-10{slash}CS-Pad10)*%
X98070000Y-117775000D03*
%TO.N,unconnected-(u1-11{slash}MOSI-Pad11)*%
X95530000Y-117775000D03*
%TO.N,/APA_CLK_PRE*%
X92990000Y-117775000D03*
%TO.N,/APA_DATA_PRE*%
X92990000Y-133225000D03*
%TO.N,Net-(J7-Pin_4)*%
X95530000Y-133225000D03*
%TO.N,Net-(J7-Pin_2)*%
X98070000Y-133225000D03*
%TO.N,Net-(J6-Pin_1)*%
X100610000Y-133225000D03*
%TO.N,Net-(J6-Pin_2)*%
X103150000Y-133225000D03*
%TO.N,Net-(J5-Pin_2)*%
X105690000Y-133225000D03*
%TO.N,Net-(J5-Pin_1)*%
X108230000Y-133225000D03*
%TO.N,Net-(J7-Pin_5)*%
X110770000Y-133225000D03*
%TO.N,unconnected-(u1-21{slash}A7{slash}RX5-Pad21)*%
X113310000Y-133225000D03*
%TO.N,unconnected-(u1-22{slash}A8-Pad22)*%
X115850000Y-133225000D03*
%TO.N,unconnected-(u1-23{slash}A9-Pad23)*%
X118390000Y-133225000D03*
%TO.N,GND*%
X126010000Y-117775000D03*
X123470000Y-133225000D03*
%TO.N,+5V*%
X126010000Y-133225000D03*
%TD*%
D20*
%TO.N,/APA_DATA_PRE*%
X96400000Y-128800000D03*
X101800000Y-123400000D03*
%TO.N,Net-(J2-Pin_2)*%
X97800000Y-115000000D03*
X122200000Y-115000000D03*
%TO.N,Net-(R2-Pad1)*%
X140000000Y-127800000D03*
%TO.N,Net-(J4-Pin_2)*%
X144800000Y-131800000D03*
X156400000Y-131000000D03*
%TO.N,Net-(J8-Pin_1)*%
X179600000Y-112800000D03*
%TO.N,Net-(J8-Pin_2)*%
X177200000Y-112000000D03*
%TO.N,Net-(J6-Pin_1)*%
X169400000Y-128600000D03*
D21*
%TO.N,+5V*%
X157000000Y-126000000D03*
%TO.N,GND*%
X156800000Y-133600000D03*
X174600000Y-117800000D03*
%TO.N,+5V*%
X156400000Y-114600000D03*
%TO.N,GND*%
X156400000Y-119800000D03*
X121000000Y-114000000D03*
X78000000Y-128800000D03*
%TO.N,+5V*%
X77800000Y-134200000D03*
%TO.N,GND*%
X78600000Y-119800000D03*
%TO.N,+5V*%
X70800000Y-116000000D03*
%TO.N,GND*%
X70800000Y-112200000D03*
%TD*%
%TA.AperFunction,Conductor*%
%TO.N,GND*%
G36*
X176472871Y-111420185D02*
G01*
X176518626Y-111472989D01*
X176528570Y-111542147D01*
X176508933Y-111593392D01*
X176490610Y-111620812D01*
X176490602Y-111620827D01*
X176430264Y-111766498D01*
X176430261Y-111766510D01*
X176399500Y-111921153D01*
X176399500Y-112078846D01*
X176430261Y-112233489D01*
X176430264Y-112233501D01*
X176490602Y-112379172D01*
X176490609Y-112379185D01*
X176578210Y-112510288D01*
X176578213Y-112510292D01*
X176689707Y-112621786D01*
X176689711Y-112621789D01*
X176820814Y-112709390D01*
X176820827Y-112709397D01*
X176966498Y-112769735D01*
X176966503Y-112769737D01*
X177121153Y-112800499D01*
X177121156Y-112800500D01*
X177121158Y-112800500D01*
X177278844Y-112800500D01*
X177278845Y-112800499D01*
X177433497Y-112769737D01*
X177550790Y-112721153D01*
X178799500Y-112721153D01*
X178799500Y-112878846D01*
X178830261Y-113033489D01*
X178830264Y-113033501D01*
X178890602Y-113179172D01*
X178890609Y-113179185D01*
X178978210Y-113310288D01*
X178978213Y-113310292D01*
X179089707Y-113421786D01*
X179089711Y-113421789D01*
X179220814Y-113509390D01*
X179220827Y-113509397D01*
X179366498Y-113569735D01*
X179366503Y-113569737D01*
X179516131Y-113599500D01*
X179521153Y-113600499D01*
X179521156Y-113600500D01*
X179521158Y-113600500D01*
X179678844Y-113600500D01*
X179678845Y-113600499D01*
X179833497Y-113569737D01*
X179979179Y-113509394D01*
X180110289Y-113421789D01*
X180221789Y-113310289D01*
X180309394Y-113179179D01*
X180369737Y-113033497D01*
X180400500Y-112878842D01*
X180400500Y-112721158D01*
X180400500Y-112721155D01*
X180400499Y-112721153D01*
X180380734Y-112621788D01*
X180369737Y-112566503D01*
X180346452Y-112510288D01*
X180309397Y-112420827D01*
X180309390Y-112420814D01*
X180221789Y-112289711D01*
X180221786Y-112289707D01*
X180110292Y-112178213D01*
X180110288Y-112178210D01*
X179979185Y-112090609D01*
X179979172Y-112090602D01*
X179833501Y-112030264D01*
X179833489Y-112030261D01*
X179678845Y-111999500D01*
X179678842Y-111999500D01*
X179521158Y-111999500D01*
X179521155Y-111999500D01*
X179366510Y-112030261D01*
X179366498Y-112030264D01*
X179220827Y-112090602D01*
X179220814Y-112090609D01*
X179089711Y-112178210D01*
X179089707Y-112178213D01*
X178978213Y-112289707D01*
X178978210Y-112289711D01*
X178890609Y-112420814D01*
X178890602Y-112420827D01*
X178830264Y-112566498D01*
X178830261Y-112566510D01*
X178799500Y-112721153D01*
X177550790Y-112721153D01*
X177579179Y-112709394D01*
X177710289Y-112621789D01*
X177821789Y-112510289D01*
X177909394Y-112379179D01*
X177969737Y-112233497D01*
X178000500Y-112078842D01*
X178000500Y-111921158D01*
X178000500Y-111921155D01*
X178000499Y-111921153D01*
X177969738Y-111766510D01*
X177969737Y-111766503D01*
X177969735Y-111766498D01*
X177909397Y-111620827D01*
X177909389Y-111620812D01*
X177891067Y-111593392D01*
X177870188Y-111526715D01*
X177888672Y-111459334D01*
X177940650Y-111412644D01*
X177994168Y-111400500D01*
X182875500Y-111400500D01*
X182942539Y-111420185D01*
X182988294Y-111472989D01*
X182999500Y-111524500D01*
X182999500Y-136775500D01*
X182979815Y-136842539D01*
X182927011Y-136888294D01*
X182875500Y-136899500D01*
X61874500Y-136899500D01*
X61807461Y-136879815D01*
X61761706Y-136827011D01*
X61750500Y-136775500D01*
X61750500Y-123643713D01*
X63774500Y-123643713D01*
X63774500Y-123856286D01*
X63802775Y-124034812D01*
X63807754Y-124066243D01*
X63845239Y-124181610D01*
X63873444Y-124268414D01*
X63969951Y-124457820D01*
X64094890Y-124629786D01*
X64245209Y-124780105D01*
X64245214Y-124780109D01*
X64409793Y-124899682D01*
X64452459Y-124955011D01*
X64458438Y-125024625D01*
X64425833Y-125086420D01*
X64409793Y-125100318D01*
X64245214Y-125219890D01*
X64245209Y-125219894D01*
X64094890Y-125370213D01*
X63969951Y-125542179D01*
X63873444Y-125731585D01*
X63807753Y-125933760D01*
X63774500Y-126143713D01*
X63774500Y-126356286D01*
X63803473Y-126539219D01*
X63807754Y-126566243D01*
X63853755Y-126707820D01*
X63873444Y-126768414D01*
X63969951Y-126957820D01*
X64094890Y-127129786D01*
X64245209Y-127280105D01*
X64245214Y-127280109D01*
X64410218Y-127399991D01*
X64452884Y-127455320D01*
X64458863Y-127524934D01*
X64426258Y-127586729D01*
X64410218Y-127600627D01*
X64245540Y-127720272D01*
X64245535Y-127720276D01*
X64095276Y-127870535D01*
X64095272Y-127870540D01*
X63970379Y-128042442D01*
X63873904Y-128231782D01*
X63808242Y-128433870D01*
X63808242Y-128433873D01*
X63797769Y-128500000D01*
X64845854Y-128500000D01*
X64807370Y-128566657D01*
X64775000Y-128687465D01*
X64775000Y-128812535D01*
X64807370Y-128933343D01*
X64845854Y-129000000D01*
X63797769Y-129000000D01*
X63808242Y-129066126D01*
X63808242Y-129066129D01*
X63873904Y-129268217D01*
X63970379Y-129457557D01*
X64095272Y-129629459D01*
X64095276Y-129629464D01*
X64245535Y-129779723D01*
X64245540Y-129779727D01*
X64410218Y-129899372D01*
X64452884Y-129954701D01*
X64458863Y-130024315D01*
X64426258Y-130086110D01*
X64410218Y-130100008D01*
X64245214Y-130219890D01*
X64245209Y-130219894D01*
X64094890Y-130370213D01*
X63969951Y-130542179D01*
X63873444Y-130731585D01*
X63873443Y-130731587D01*
X63873443Y-130731588D01*
X63846190Y-130815465D01*
X63807753Y-130933760D01*
X63774500Y-131143713D01*
X63774500Y-131356286D01*
X63800178Y-131518414D01*
X63807754Y-131566243D01*
X63858089Y-131721158D01*
X63873444Y-131768414D01*
X63969951Y-131957820D01*
X64094890Y-132129786D01*
X64234068Y-132268964D01*
X64267553Y-132330287D01*
X64262569Y-132399979D01*
X64220697Y-132455912D01*
X64211484Y-132462183D01*
X64056659Y-132557680D01*
X64056655Y-132557683D01*
X63932684Y-132681654D01*
X63840643Y-132830875D01*
X63840641Y-132830880D01*
X63785494Y-132997302D01*
X63785493Y-132997309D01*
X63775000Y-133100013D01*
X63775000Y-133500000D01*
X64845854Y-133500000D01*
X64807370Y-133566657D01*
X64775000Y-133687465D01*
X64775000Y-133812535D01*
X64807370Y-133933343D01*
X64845854Y-134000000D01*
X63775001Y-134000000D01*
X63775001Y-134399986D01*
X63785494Y-134502697D01*
X63840641Y-134669119D01*
X63840643Y-134669124D01*
X63932684Y-134818345D01*
X64056654Y-134942315D01*
X64205875Y-135034356D01*
X64205880Y-135034358D01*
X64372302Y-135089505D01*
X64372309Y-135089506D01*
X64475019Y-135099999D01*
X64999999Y-135099999D01*
X65000000Y-135099998D01*
X65000000Y-134154145D01*
X65066657Y-134192630D01*
X65187465Y-134225000D01*
X65312535Y-134225000D01*
X65433343Y-134192630D01*
X65500000Y-134154145D01*
X65500000Y-135099999D01*
X66024972Y-135099999D01*
X66024986Y-135099998D01*
X66127697Y-135089505D01*
X66294119Y-135034358D01*
X66294124Y-135034356D01*
X66443345Y-134942315D01*
X66567315Y-134818345D01*
X66659356Y-134669124D01*
X66659358Y-134669119D01*
X66714505Y-134502697D01*
X66714506Y-134502690D01*
X66724999Y-134399986D01*
X66725000Y-134399973D01*
X66725000Y-134000000D01*
X65654146Y-134000000D01*
X65692630Y-133933343D01*
X65725000Y-133812535D01*
X65725000Y-133687465D01*
X65692630Y-133566657D01*
X65654146Y-133500000D01*
X66724999Y-133500000D01*
X66724999Y-133100028D01*
X66724998Y-133100013D01*
X66714505Y-132997302D01*
X66659358Y-132830880D01*
X66659356Y-132830875D01*
X66567315Y-132681654D01*
X66443345Y-132557684D01*
X66288515Y-132462184D01*
X66241791Y-132410236D01*
X66230568Y-132341273D01*
X66258412Y-132277191D01*
X66265909Y-132268986D01*
X66405104Y-132129792D01*
X66433090Y-132091273D01*
X66530048Y-131957820D01*
X66530047Y-131957820D01*
X66530051Y-131957816D01*
X66626557Y-131768412D01*
X66692246Y-131566243D01*
X66719572Y-131393713D01*
X74024500Y-131393713D01*
X74024500Y-131606286D01*
X74055436Y-131801613D01*
X74057754Y-131816243D01*
X74119015Y-132004785D01*
X74123444Y-132018414D01*
X74219951Y-132207820D01*
X74344890Y-132379786D01*
X74495209Y-132530105D01*
X74495214Y-132530109D01*
X74659793Y-132649682D01*
X74702459Y-132705011D01*
X74708438Y-132774625D01*
X74675833Y-132836420D01*
X74659793Y-132850318D01*
X74495214Y-132969890D01*
X74495209Y-132969894D01*
X74344890Y-133120213D01*
X74219951Y-133292179D01*
X74123444Y-133481585D01*
X74057753Y-133683760D01*
X74024500Y-133893713D01*
X74024500Y-134106286D01*
X74054950Y-134298543D01*
X74057754Y-134316243D01*
X74121804Y-134513369D01*
X74123444Y-134518414D01*
X74219951Y-134707820D01*
X74344890Y-134879786D01*
X74495213Y-135030109D01*
X74667179Y-135155048D01*
X74667181Y-135155049D01*
X74667184Y-135155051D01*
X74856588Y-135251557D01*
X75058757Y-135317246D01*
X75268713Y-135350500D01*
X75268714Y-135350500D01*
X75731286Y-135350500D01*
X75731287Y-135350500D01*
X75941243Y-135317246D01*
X76143412Y-135251557D01*
X76332816Y-135155051D01*
X76408589Y-135099999D01*
X76504786Y-135030109D01*
X76504788Y-135030106D01*
X76504792Y-135030104D01*
X76655104Y-134879792D01*
X76756723Y-134739923D01*
X76812052Y-134697259D01*
X76881665Y-134691280D01*
X76943461Y-134723885D01*
X76960143Y-134743919D01*
X77022860Y-134837781D01*
X77022863Y-134837785D01*
X77162214Y-134977136D01*
X77162218Y-134977139D01*
X77326079Y-135086628D01*
X77326092Y-135086635D01*
X77491258Y-135155048D01*
X77508165Y-135162051D01*
X77508169Y-135162051D01*
X77508170Y-135162052D01*
X77701456Y-135200500D01*
X77701459Y-135200500D01*
X77898543Y-135200500D01*
X78028582Y-135174632D01*
X78091835Y-135162051D01*
X78241645Y-135099998D01*
X78273907Y-135086635D01*
X78273907Y-135086634D01*
X78273914Y-135086632D01*
X78437782Y-134977139D01*
X78577139Y-134837782D01*
X78686632Y-134673914D01*
X78762051Y-134491835D01*
X78800500Y-134298541D01*
X78800500Y-134101459D01*
X78800500Y-134101456D01*
X78762052Y-133908170D01*
X78762051Y-133908169D01*
X78762051Y-133908165D01*
X78722440Y-133812535D01*
X78686635Y-133726092D01*
X78686628Y-133726079D01*
X78577139Y-133562218D01*
X78577136Y-133562214D01*
X78437785Y-133422863D01*
X78437781Y-133422860D01*
X78273920Y-133313371D01*
X78273907Y-133313364D01*
X78091839Y-133237950D01*
X78091829Y-133237947D01*
X77898543Y-133199500D01*
X77898541Y-133199500D01*
X77701459Y-133199500D01*
X77701457Y-133199500D01*
X77508170Y-133237947D01*
X77508160Y-133237950D01*
X77326092Y-133313364D01*
X77326079Y-133313371D01*
X77162218Y-133422860D01*
X77073839Y-133511239D01*
X77012515Y-133544723D01*
X76942824Y-133539739D01*
X76886890Y-133497867D01*
X76875673Y-133479852D01*
X76841507Y-133412798D01*
X76780051Y-133292184D01*
X76772023Y-133281134D01*
X76655109Y-133120213D01*
X76504792Y-132969896D01*
X76504784Y-132969890D01*
X76340204Y-132850316D01*
X76297540Y-132794989D01*
X76291561Y-132725376D01*
X76324166Y-132663580D01*
X76340199Y-132649686D01*
X76504792Y-132530104D01*
X76612248Y-132422648D01*
X91689500Y-132422648D01*
X91689500Y-134027351D01*
X91721522Y-134229534D01*
X91784781Y-134424223D01*
X91877715Y-134606613D01*
X91998028Y-134772213D01*
X92142786Y-134916971D01*
X92297749Y-135029556D01*
X92308390Y-135037287D01*
X92424607Y-135096503D01*
X92490776Y-135130218D01*
X92490778Y-135130218D01*
X92490781Y-135130220D01*
X92567194Y-135155048D01*
X92685465Y-135193477D01*
X92786557Y-135209488D01*
X92887648Y-135225500D01*
X92887649Y-135225500D01*
X93092351Y-135225500D01*
X93092352Y-135225500D01*
X93294534Y-135193477D01*
X93489219Y-135130220D01*
X93671610Y-135037287D01*
X93802329Y-134942315D01*
X93837213Y-134916971D01*
X93837215Y-134916968D01*
X93837219Y-134916966D01*
X93981966Y-134772219D01*
X93981968Y-134772215D01*
X93981971Y-134772213D01*
X94102284Y-134606614D01*
X94102286Y-134606611D01*
X94102287Y-134606610D01*
X94149516Y-134513917D01*
X94197489Y-134463123D01*
X94265310Y-134446328D01*
X94331445Y-134468865D01*
X94370483Y-134513917D01*
X94398216Y-134568345D01*
X94417715Y-134606614D01*
X94538028Y-134772213D01*
X94682786Y-134916971D01*
X94837749Y-135029556D01*
X94848390Y-135037287D01*
X94964607Y-135096503D01*
X95030776Y-135130218D01*
X95030778Y-135130218D01*
X95030781Y-135130220D01*
X95107194Y-135155048D01*
X95225465Y-135193477D01*
X95326557Y-135209488D01*
X95427648Y-135225500D01*
X95427649Y-135225500D01*
X95632351Y-135225500D01*
X95632352Y-135225500D01*
X95834534Y-135193477D01*
X96029219Y-135130220D01*
X96211610Y-135037287D01*
X96342329Y-134942315D01*
X96377213Y-134916971D01*
X96377215Y-134916968D01*
X96377219Y-134916966D01*
X96521966Y-134772219D01*
X96521968Y-134772215D01*
X96521971Y-134772213D01*
X96642284Y-134606614D01*
X96642286Y-134606611D01*
X96642287Y-134606610D01*
X96689516Y-134513917D01*
X96737489Y-134463123D01*
X96805310Y-134446328D01*
X96871445Y-134468865D01*
X96910483Y-134513917D01*
X96938216Y-134568345D01*
X96957715Y-134606614D01*
X97078028Y-134772213D01*
X97222786Y-134916971D01*
X97377749Y-135029556D01*
X97388390Y-135037287D01*
X97504607Y-135096503D01*
X97570776Y-135130218D01*
X97570778Y-135130218D01*
X97570781Y-135130220D01*
X97647194Y-135155048D01*
X97765465Y-135193477D01*
X97866557Y-135209488D01*
X97967648Y-135225500D01*
X97967649Y-135225500D01*
X98172351Y-135225500D01*
X98172352Y-135225500D01*
X98374534Y-135193477D01*
X98569219Y-135130220D01*
X98751610Y-135037287D01*
X98882329Y-134942315D01*
X98917213Y-134916971D01*
X98917215Y-134916968D01*
X98917219Y-134916966D01*
X99061966Y-134772219D01*
X99061968Y-134772215D01*
X99061971Y-134772213D01*
X99182284Y-134606614D01*
X99182286Y-134606611D01*
X99182287Y-134606610D01*
X99229516Y-134513917D01*
X99277489Y-134463123D01*
X99345310Y-134446328D01*
X99411445Y-134468865D01*
X99450483Y-134513917D01*
X99478216Y-134568345D01*
X99497715Y-134606614D01*
X99618028Y-134772213D01*
X99762786Y-134916971D01*
X99917749Y-135029556D01*
X99928390Y-135037287D01*
X100044607Y-135096503D01*
X100110776Y-135130218D01*
X100110778Y-135130218D01*
X100110781Y-135130220D01*
X100187194Y-135155048D01*
X100305465Y-135193477D01*
X100406557Y-135209488D01*
X100507648Y-135225500D01*
X100507649Y-135225500D01*
X100712351Y-135225500D01*
X100712352Y-135225500D01*
X100914534Y-135193477D01*
X101109219Y-135130220D01*
X101291610Y-135037287D01*
X101422329Y-134942315D01*
X101457213Y-134916971D01*
X101457215Y-134916968D01*
X101457219Y-134916966D01*
X101601966Y-134772219D01*
X101601968Y-134772215D01*
X101601971Y-134772213D01*
X101722284Y-134606614D01*
X101722286Y-134606611D01*
X101722287Y-134606610D01*
X101769516Y-134513917D01*
X101817489Y-134463123D01*
X101885310Y-134446328D01*
X101951445Y-134468865D01*
X101990483Y-134513917D01*
X102018216Y-134568345D01*
X102037715Y-134606614D01*
X102158028Y-134772213D01*
X102302786Y-134916971D01*
X102457749Y-135029556D01*
X102468390Y-135037287D01*
X102584607Y-135096503D01*
X102650776Y-135130218D01*
X102650778Y-135130218D01*
X102650781Y-135130220D01*
X102727194Y-135155048D01*
X102845465Y-135193477D01*
X102946557Y-135209488D01*
X103047648Y-135225500D01*
X103047649Y-135225500D01*
X103252351Y-135225500D01*
X103252352Y-135225500D01*
X103454534Y-135193477D01*
X103649219Y-135130220D01*
X103831610Y-135037287D01*
X103962329Y-134942315D01*
X103997213Y-134916971D01*
X103997215Y-134916968D01*
X103997219Y-134916966D01*
X104141966Y-134772219D01*
X104141968Y-134772215D01*
X104141971Y-134772213D01*
X104262284Y-134606614D01*
X104262286Y-134606611D01*
X104262287Y-134606610D01*
X104309516Y-134513917D01*
X104357489Y-134463123D01*
X104425310Y-134446328D01*
X104491445Y-134468865D01*
X104530483Y-134513917D01*
X104558216Y-134568345D01*
X104577715Y-134606614D01*
X104698028Y-134772213D01*
X104842786Y-134916971D01*
X104997749Y-135029556D01*
X105008390Y-135037287D01*
X105124607Y-135096503D01*
X105190776Y-135130218D01*
X105190778Y-135130218D01*
X105190781Y-135130220D01*
X105267194Y-135155048D01*
X105385465Y-135193477D01*
X105486557Y-135209488D01*
X105587648Y-135225500D01*
X105587649Y-135225500D01*
X105792351Y-135225500D01*
X105792352Y-135225500D01*
X105994534Y-135193477D01*
X106189219Y-135130220D01*
X106371610Y-135037287D01*
X106502329Y-134942315D01*
X106537213Y-134916971D01*
X106537215Y-134916968D01*
X106537219Y-134916966D01*
X106681966Y-134772219D01*
X106681968Y-134772215D01*
X106681971Y-134772213D01*
X106802284Y-134606614D01*
X106802286Y-134606611D01*
X106802287Y-134606610D01*
X106849516Y-134513917D01*
X106897489Y-134463123D01*
X106965310Y-134446328D01*
X107031445Y-134468865D01*
X107070483Y-134513917D01*
X107098216Y-134568345D01*
X107117715Y-134606614D01*
X107238028Y-134772213D01*
X107382786Y-134916971D01*
X107537749Y-135029556D01*
X107548390Y-135037287D01*
X107664607Y-135096503D01*
X107730776Y-135130218D01*
X107730778Y-135130218D01*
X107730781Y-135130220D01*
X107807194Y-135155048D01*
X107925465Y-135193477D01*
X108026557Y-135209488D01*
X108127648Y-135225500D01*
X108127649Y-135225500D01*
X108332351Y-135225500D01*
X108332352Y-135225500D01*
X108534534Y-135193477D01*
X108729219Y-135130220D01*
X108911610Y-135037287D01*
X109042329Y-134942315D01*
X109077213Y-134916971D01*
X109077215Y-134916968D01*
X109077219Y-134916966D01*
X109221966Y-134772219D01*
X109221968Y-134772215D01*
X109221971Y-134772213D01*
X109342284Y-134606614D01*
X109342286Y-134606611D01*
X109342287Y-134606610D01*
X109389516Y-134513917D01*
X109437489Y-134463123D01*
X109505310Y-134446328D01*
X109571445Y-134468865D01*
X109610483Y-134513917D01*
X109638216Y-134568345D01*
X109657715Y-134606614D01*
X109778028Y-134772213D01*
X109922786Y-134916971D01*
X110077749Y-135029556D01*
X110088390Y-135037287D01*
X110204607Y-135096503D01*
X110270776Y-135130218D01*
X110270778Y-135130218D01*
X110270781Y-135130220D01*
X110347194Y-135155048D01*
X110465465Y-135193477D01*
X110566557Y-135209488D01*
X110667648Y-135225500D01*
X110667649Y-135225500D01*
X110872351Y-135225500D01*
X110872352Y-135225500D01*
X111074534Y-135193477D01*
X111269219Y-135130220D01*
X111451610Y-135037287D01*
X111582329Y-134942315D01*
X111617213Y-134916971D01*
X111617215Y-134916968D01*
X111617219Y-134916966D01*
X111761966Y-134772219D01*
X111761968Y-134772215D01*
X111761971Y-134772213D01*
X111882284Y-134606614D01*
X111882286Y-134606611D01*
X111882287Y-134606610D01*
X111929516Y-134513917D01*
X111977489Y-134463123D01*
X112045310Y-134446328D01*
X112111445Y-134468865D01*
X112150483Y-134513917D01*
X112178216Y-134568345D01*
X112197715Y-134606614D01*
X112318028Y-134772213D01*
X112462786Y-134916971D01*
X112617749Y-135029556D01*
X112628390Y-135037287D01*
X112744607Y-135096503D01*
X112810776Y-135130218D01*
X112810778Y-135130218D01*
X112810781Y-135130220D01*
X112887194Y-135155048D01*
X113005465Y-135193477D01*
X113106557Y-135209488D01*
X113207648Y-135225500D01*
X113207649Y-135225500D01*
X113412351Y-135225500D01*
X113412352Y-135225500D01*
X113614534Y-135193477D01*
X113809219Y-135130220D01*
X113991610Y-135037287D01*
X114122329Y-134942315D01*
X114157213Y-134916971D01*
X114157215Y-134916968D01*
X114157219Y-134916966D01*
X114301966Y-134772219D01*
X114301968Y-134772215D01*
X114301971Y-134772213D01*
X114422284Y-134606614D01*
X114422286Y-134606611D01*
X114422287Y-134606610D01*
X114469516Y-134513917D01*
X114517489Y-134463123D01*
X114585310Y-134446328D01*
X114651445Y-134468865D01*
X114690483Y-134513917D01*
X114718216Y-134568345D01*
X114737715Y-134606614D01*
X114858028Y-134772213D01*
X115002786Y-134916971D01*
X115157749Y-135029556D01*
X115168390Y-135037287D01*
X115284607Y-135096503D01*
X115350776Y-135130218D01*
X115350778Y-135130218D01*
X115350781Y-135130220D01*
X115427194Y-135155048D01*
X115545465Y-135193477D01*
X115646557Y-135209488D01*
X115747648Y-135225500D01*
X115747649Y-135225500D01*
X115952351Y-135225500D01*
X115952352Y-135225500D01*
X116154534Y-135193477D01*
X116349219Y-135130220D01*
X116531610Y-135037287D01*
X116662329Y-134942315D01*
X116697213Y-134916971D01*
X116697215Y-134916968D01*
X116697219Y-134916966D01*
X116841966Y-134772219D01*
X116841968Y-134772215D01*
X116841971Y-134772213D01*
X116962284Y-134606614D01*
X116962286Y-134606611D01*
X116962287Y-134606610D01*
X117009516Y-134513917D01*
X117057489Y-134463123D01*
X117125310Y-134446328D01*
X117191445Y-134468865D01*
X117230483Y-134513917D01*
X117258216Y-134568345D01*
X117277715Y-134606614D01*
X117398028Y-134772213D01*
X117542786Y-134916971D01*
X117697749Y-135029556D01*
X117708390Y-135037287D01*
X117824607Y-135096503D01*
X117890776Y-135130218D01*
X117890778Y-135130218D01*
X117890781Y-135130220D01*
X117967194Y-135155048D01*
X118085465Y-135193477D01*
X118186557Y-135209488D01*
X118287648Y-135225500D01*
X118287649Y-135225500D01*
X118492351Y-135225500D01*
X118492352Y-135225500D01*
X118694534Y-135193477D01*
X118889219Y-135130220D01*
X119071610Y-135037287D01*
X119202329Y-134942315D01*
X119237213Y-134916971D01*
X119237215Y-134916968D01*
X119237219Y-134916966D01*
X119381966Y-134772219D01*
X119381968Y-134772215D01*
X119381971Y-134772213D01*
X119502284Y-134606614D01*
X119502286Y-134606611D01*
X119502287Y-134606610D01*
X119549516Y-134513917D01*
X119597489Y-134463123D01*
X119665310Y-134446328D01*
X119731445Y-134468865D01*
X119770483Y-134513917D01*
X119798216Y-134568345D01*
X119817715Y-134606614D01*
X119938028Y-134772213D01*
X120082786Y-134916971D01*
X120237749Y-135029556D01*
X120248390Y-135037287D01*
X120364607Y-135096503D01*
X120430776Y-135130218D01*
X120430778Y-135130218D01*
X120430781Y-135130220D01*
X120507194Y-135155048D01*
X120625465Y-135193477D01*
X120726557Y-135209488D01*
X120827648Y-135225500D01*
X120827649Y-135225500D01*
X121032351Y-135225500D01*
X121032352Y-135225500D01*
X121234534Y-135193477D01*
X121429219Y-135130220D01*
X121611610Y-135037287D01*
X121742329Y-134942315D01*
X121777213Y-134916971D01*
X121777215Y-134916968D01*
X121777219Y-134916966D01*
X121921966Y-134772219D01*
X121921968Y-134772215D01*
X121921971Y-134772213D01*
X122042284Y-134606614D01*
X122042286Y-134606611D01*
X122042287Y-134606610D01*
X122089795Y-134513369D01*
X122137770Y-134462574D01*
X122205591Y-134445779D01*
X122271725Y-134468316D01*
X122310765Y-134513370D01*
X122358140Y-134606349D01*
X122478417Y-134771894D01*
X122478417Y-134771895D01*
X122623104Y-134916582D01*
X122788650Y-135036859D01*
X122970968Y-135129754D01*
X123165578Y-135192988D01*
X123220000Y-135201607D01*
X123220000Y-133540686D01*
X123224394Y-133545080D01*
X123315606Y-133597741D01*
X123417339Y-133625000D01*
X123522661Y-133625000D01*
X123624394Y-133597741D01*
X123715606Y-133545080D01*
X123720000Y-133540686D01*
X123720000Y-135201606D01*
X123774421Y-135192988D01*
X123969031Y-135129754D01*
X124151349Y-135036859D01*
X124316894Y-134916582D01*
X124316895Y-134916582D01*
X124461582Y-134771895D01*
X124461582Y-134771894D01*
X124581861Y-134606347D01*
X124629234Y-134513371D01*
X124677208Y-134462575D01*
X124745028Y-134445779D01*
X124811164Y-134468316D01*
X124850203Y-134513369D01*
X124897713Y-134606611D01*
X125018028Y-134772213D01*
X125162786Y-134916971D01*
X125317749Y-135029556D01*
X125328390Y-135037287D01*
X125444607Y-135096503D01*
X125510776Y-135130218D01*
X125510778Y-135130218D01*
X125510781Y-135130220D01*
X125587194Y-135155048D01*
X125705465Y-135193477D01*
X125806557Y-135209488D01*
X125907648Y-135225500D01*
X125907649Y-135225500D01*
X126112351Y-135225500D01*
X126112352Y-135225500D01*
X126314534Y-135193477D01*
X126509219Y-135130220D01*
X126691610Y-135037287D01*
X126822329Y-134942315D01*
X126857213Y-134916971D01*
X126857215Y-134916968D01*
X126857219Y-134916966D01*
X127001966Y-134772219D01*
X127001968Y-134772215D01*
X127001971Y-134772213D01*
X127076872Y-134669119D01*
X127122287Y-134606610D01*
X127215220Y-134424219D01*
X127278477Y-134229534D01*
X127310500Y-134027352D01*
X127310500Y-132422648D01*
X127303200Y-132376557D01*
X127278477Y-132220465D01*
X127217724Y-132033489D01*
X127215220Y-132025781D01*
X127215218Y-132025778D01*
X127215218Y-132025776D01*
X127169515Y-131936080D01*
X127122287Y-131843390D01*
X127102561Y-131816239D01*
X127001971Y-131677786D01*
X126857213Y-131533028D01*
X126691613Y-131412715D01*
X126691612Y-131412714D01*
X126691610Y-131412713D01*
X126625782Y-131379172D01*
X126509223Y-131319781D01*
X126314534Y-131256522D01*
X126139995Y-131228878D01*
X126112352Y-131224500D01*
X125907648Y-131224500D01*
X125883329Y-131228351D01*
X125705465Y-131256522D01*
X125510776Y-131319781D01*
X125328386Y-131412715D01*
X125162786Y-131533028D01*
X125018028Y-131677786D01*
X124897713Y-131843388D01*
X124850203Y-131936630D01*
X124802228Y-131987426D01*
X124734407Y-132004220D01*
X124668272Y-131981682D01*
X124629234Y-131936628D01*
X124581861Y-131843652D01*
X124461582Y-131678105D01*
X124461582Y-131678104D01*
X124316895Y-131533417D01*
X124151349Y-131413140D01*
X123969029Y-131320244D01*
X123774413Y-131257009D01*
X123720000Y-131248390D01*
X123720000Y-132909314D01*
X123715606Y-132904920D01*
X123624394Y-132852259D01*
X123522661Y-132825000D01*
X123417339Y-132825000D01*
X123315606Y-132852259D01*
X123224394Y-132904920D01*
X123220000Y-132909314D01*
X123220000Y-131248390D01*
X123165586Y-131257009D01*
X122970970Y-131320244D01*
X122788650Y-131413140D01*
X122623105Y-131533417D01*
X122623104Y-131533417D01*
X122478417Y-131678104D01*
X122478417Y-131678105D01*
X122358140Y-131843650D01*
X122310765Y-131936629D01*
X122262790Y-131987425D01*
X122194969Y-132004220D01*
X122128834Y-131981682D01*
X122089795Y-131936629D01*
X122078990Y-131915424D01*
X122042287Y-131843390D01*
X122022561Y-131816239D01*
X121921971Y-131677786D01*
X121777213Y-131533028D01*
X121611613Y-131412715D01*
X121611612Y-131412714D01*
X121611610Y-131412713D01*
X121545782Y-131379172D01*
X121429223Y-131319781D01*
X121234534Y-131256522D01*
X121059995Y-131228878D01*
X121032352Y-131224500D01*
X120827648Y-131224500D01*
X120803329Y-131228351D01*
X120625465Y-131256522D01*
X120430776Y-131319781D01*
X120248386Y-131412715D01*
X120082786Y-131533028D01*
X119938028Y-131677786D01*
X119817715Y-131843386D01*
X119770485Y-131936080D01*
X119722510Y-131986876D01*
X119654689Y-132003671D01*
X119588554Y-131981134D01*
X119549515Y-131936080D01*
X119548883Y-131934840D01*
X119502287Y-131843390D01*
X119482561Y-131816239D01*
X119381971Y-131677786D01*
X119237213Y-131533028D01*
X119071613Y-131412715D01*
X119071612Y-131412714D01*
X119071610Y-131412713D01*
X119005782Y-131379172D01*
X118889223Y-131319781D01*
X118694534Y-131256522D01*
X118519995Y-131228878D01*
X118492352Y-131224500D01*
X118287648Y-131224500D01*
X118263329Y-131228351D01*
X118085465Y-131256522D01*
X117890776Y-131319781D01*
X117708386Y-131412715D01*
X117542786Y-131533028D01*
X117398028Y-131677786D01*
X117277715Y-131843386D01*
X117230485Y-131936080D01*
X117182510Y-131986876D01*
X117114689Y-132003671D01*
X117048554Y-131981134D01*
X117009515Y-131936080D01*
X117008883Y-131934840D01*
X116962287Y-131843390D01*
X116942561Y-131816239D01*
X116841971Y-131677786D01*
X116697213Y-131533028D01*
X116531613Y-131412715D01*
X116531612Y-131412714D01*
X116531610Y-131412713D01*
X116465782Y-131379172D01*
X116349223Y-131319781D01*
X116154534Y-131256522D01*
X115979995Y-131228878D01*
X115952352Y-131224500D01*
X115747648Y-131224500D01*
X115723329Y-131228351D01*
X115545465Y-131256522D01*
X115350776Y-131319781D01*
X115168386Y-131412715D01*
X115002786Y-131533028D01*
X114858028Y-131677786D01*
X114737715Y-131843386D01*
X114690485Y-131936080D01*
X114642510Y-131986876D01*
X114574689Y-132003671D01*
X114508554Y-131981134D01*
X114469515Y-131936080D01*
X114468883Y-131934840D01*
X114422287Y-131843390D01*
X114402561Y-131816239D01*
X114301971Y-131677786D01*
X114157213Y-131533028D01*
X113991613Y-131412715D01*
X113991612Y-131412714D01*
X113991610Y-131412713D01*
X113925782Y-131379172D01*
X113809223Y-131319781D01*
X113614534Y-131256522D01*
X113439995Y-131228878D01*
X113412352Y-131224500D01*
X113207648Y-131224500D01*
X113183329Y-131228351D01*
X113005465Y-131256522D01*
X112810776Y-131319781D01*
X112628386Y-131412715D01*
X112462786Y-131533028D01*
X112318028Y-131677786D01*
X112197715Y-131843386D01*
X112150485Y-131936080D01*
X112102510Y-131986876D01*
X112034689Y-132003671D01*
X111968554Y-131981134D01*
X111929515Y-131936080D01*
X111928883Y-131934840D01*
X111882287Y-131843390D01*
X111862561Y-131816239D01*
X111761971Y-131677786D01*
X111617213Y-131533028D01*
X111451613Y-131412715D01*
X111451612Y-131412714D01*
X111451610Y-131412713D01*
X111385782Y-131379172D01*
X111269223Y-131319781D01*
X111074534Y-131256522D01*
X110899995Y-131228878D01*
X110872352Y-131224500D01*
X110667648Y-131224500D01*
X110643329Y-131228351D01*
X110465465Y-131256522D01*
X110270776Y-131319781D01*
X110088386Y-131412715D01*
X109922786Y-131533028D01*
X109778028Y-131677786D01*
X109657715Y-131843386D01*
X109610485Y-131936080D01*
X109562510Y-131986876D01*
X109494689Y-132003671D01*
X109428554Y-131981134D01*
X109389515Y-131936080D01*
X109388883Y-131934840D01*
X109342287Y-131843390D01*
X109322561Y-131816239D01*
X109221971Y-131677786D01*
X109077213Y-131533028D01*
X108911613Y-131412715D01*
X108911612Y-131412714D01*
X108911610Y-131412713D01*
X108845782Y-131379172D01*
X108729223Y-131319781D01*
X108534534Y-131256522D01*
X108359995Y-131228878D01*
X108332352Y-131224500D01*
X108127648Y-131224500D01*
X108103329Y-131228351D01*
X107925465Y-131256522D01*
X107730776Y-131319781D01*
X107548386Y-131412715D01*
X107382786Y-131533028D01*
X107238028Y-131677786D01*
X107117715Y-131843386D01*
X107070485Y-131936080D01*
X107022510Y-131986876D01*
X106954689Y-132003671D01*
X106888554Y-131981134D01*
X106849515Y-131936080D01*
X106848883Y-131934840D01*
X106802287Y-131843390D01*
X106782561Y-131816239D01*
X106681971Y-131677786D01*
X106537213Y-131533028D01*
X106371613Y-131412715D01*
X106371612Y-131412714D01*
X106371610Y-131412713D01*
X106305782Y-131379172D01*
X106189223Y-131319781D01*
X105994534Y-131256522D01*
X105819995Y-131228878D01*
X105792352Y-131224500D01*
X105587648Y-131224500D01*
X105563329Y-131228351D01*
X105385465Y-131256522D01*
X105190776Y-131319781D01*
X105008386Y-131412715D01*
X104842786Y-131533028D01*
X104698028Y-131677786D01*
X104577715Y-131843386D01*
X104530485Y-131936080D01*
X104482510Y-131986876D01*
X104414689Y-132003671D01*
X104348554Y-131981134D01*
X104309515Y-131936080D01*
X104308883Y-131934840D01*
X104262287Y-131843390D01*
X104242561Y-131816239D01*
X104141971Y-131677786D01*
X103997213Y-131533028D01*
X103831613Y-131412715D01*
X103831612Y-131412714D01*
X103831610Y-131412713D01*
X103765782Y-131379172D01*
X103649223Y-131319781D01*
X103454534Y-131256522D01*
X103279995Y-131228878D01*
X103252352Y-131224500D01*
X103047648Y-131224500D01*
X103023329Y-131228351D01*
X102845465Y-131256522D01*
X102650776Y-131319781D01*
X102468386Y-131412715D01*
X102302786Y-131533028D01*
X102158028Y-131677786D01*
X102037715Y-131843386D01*
X101990485Y-131936080D01*
X101942510Y-131986876D01*
X101874689Y-132003671D01*
X101808554Y-131981134D01*
X101769515Y-131936080D01*
X101768883Y-131934840D01*
X101722287Y-131843390D01*
X101702561Y-131816239D01*
X101601971Y-131677786D01*
X101457213Y-131533028D01*
X101291613Y-131412715D01*
X101291612Y-131412714D01*
X101291610Y-131412713D01*
X101225782Y-131379172D01*
X101109223Y-131319781D01*
X100914534Y-131256522D01*
X100739995Y-131228878D01*
X100712352Y-131224500D01*
X100507648Y-131224500D01*
X100483329Y-131228351D01*
X100305465Y-131256522D01*
X100110776Y-131319781D01*
X99928386Y-131412715D01*
X99762786Y-131533028D01*
X99618028Y-131677786D01*
X99497715Y-131843386D01*
X99450485Y-131936080D01*
X99402510Y-131986876D01*
X99334689Y-132003671D01*
X99268554Y-131981134D01*
X99229515Y-131936080D01*
X99228883Y-131934840D01*
X99182287Y-131843390D01*
X99162561Y-131816239D01*
X99061971Y-131677786D01*
X98917213Y-131533028D01*
X98751613Y-131412715D01*
X98751612Y-131412714D01*
X98751610Y-131412713D01*
X98685782Y-131379172D01*
X98569223Y-131319781D01*
X98374534Y-131256522D01*
X98199995Y-131228878D01*
X98172352Y-131224500D01*
X97967648Y-131224500D01*
X97943329Y-131228351D01*
X97765465Y-131256522D01*
X97570776Y-131319781D01*
X97388386Y-131412715D01*
X97222786Y-131533028D01*
X97078028Y-131677786D01*
X96957715Y-131843386D01*
X96910485Y-131936080D01*
X96862510Y-131986876D01*
X96794689Y-132003671D01*
X96728554Y-131981134D01*
X96689515Y-131936080D01*
X96688883Y-131934840D01*
X96642287Y-131843390D01*
X96622561Y-131816239D01*
X96521971Y-131677786D01*
X96377213Y-131533028D01*
X96211613Y-131412715D01*
X96211612Y-131412714D01*
X96211610Y-131412713D01*
X96145782Y-131379172D01*
X96029223Y-131319781D01*
X95834534Y-131256522D01*
X95659995Y-131228878D01*
X95632352Y-131224500D01*
X95427648Y-131224500D01*
X95403329Y-131228351D01*
X95225465Y-131256522D01*
X95030776Y-131319781D01*
X94848386Y-131412715D01*
X94682786Y-131533028D01*
X94538028Y-131677786D01*
X94417715Y-131843386D01*
X94370485Y-131936080D01*
X94322510Y-131986876D01*
X94254689Y-132003671D01*
X94188554Y-131981134D01*
X94149515Y-131936080D01*
X94148883Y-131934840D01*
X94102287Y-131843390D01*
X94082561Y-131816239D01*
X93981971Y-131677786D01*
X93837213Y-131533028D01*
X93671613Y-131412715D01*
X93671612Y-131412714D01*
X93671610Y-131412713D01*
X93605782Y-131379172D01*
X93489223Y-131319781D01*
X93294534Y-131256522D01*
X93119995Y-131228878D01*
X93092352Y-131224500D01*
X92887648Y-131224500D01*
X92863329Y-131228351D01*
X92685465Y-131256522D01*
X92490776Y-131319781D01*
X92308386Y-131412715D01*
X92142786Y-131533028D01*
X91998028Y-131677786D01*
X91877715Y-131843386D01*
X91784781Y-132025776D01*
X91721522Y-132220465D01*
X91689500Y-132422648D01*
X76612248Y-132422648D01*
X76655104Y-132379792D01*
X76657790Y-132376095D01*
X76680462Y-132344891D01*
X76780048Y-132207820D01*
X76780047Y-132207820D01*
X76780051Y-132207816D01*
X76876557Y-132018412D01*
X76942246Y-131816243D01*
X76975500Y-131606287D01*
X76975500Y-131393713D01*
X76942246Y-131183757D01*
X76876557Y-130981588D01*
X76876555Y-130981585D01*
X76876555Y-130981583D01*
X76819700Y-130870000D01*
X76780051Y-130792184D01*
X76780049Y-130792181D01*
X76780048Y-130792179D01*
X76655109Y-130620213D01*
X76515931Y-130481035D01*
X76482446Y-130419712D01*
X76487430Y-130350020D01*
X76529302Y-130294087D01*
X76538516Y-130287815D01*
X76693343Y-130192317D01*
X76817315Y-130068345D01*
X76909356Y-129919124D01*
X76909358Y-129919119D01*
X76964505Y-129752697D01*
X76964506Y-129752690D01*
X76974999Y-129649986D01*
X76975000Y-129649973D01*
X76975000Y-129250000D01*
X75904146Y-129250000D01*
X75942630Y-129183343D01*
X75975000Y-129062535D01*
X75975000Y-128937465D01*
X75942630Y-128816657D01*
X75904146Y-128750000D01*
X76974999Y-128750000D01*
X76974999Y-128721153D01*
X95599500Y-128721153D01*
X95599500Y-128878846D01*
X95630261Y-129033489D01*
X95630264Y-129033501D01*
X95690602Y-129179172D01*
X95690609Y-129179185D01*
X95778210Y-129310288D01*
X95778213Y-129310292D01*
X95889707Y-129421786D01*
X95889711Y-129421789D01*
X96020814Y-129509390D01*
X96020827Y-129509397D01*
X96137573Y-129557754D01*
X96166503Y-129569737D01*
X96321153Y-129600499D01*
X96321156Y-129600500D01*
X96321158Y-129600500D01*
X96478844Y-129600500D01*
X96478845Y-129600499D01*
X96633497Y-129569737D01*
X96779179Y-129509394D01*
X96910289Y-129421789D01*
X97021789Y-129310289D01*
X97109394Y-129179179D01*
X97169737Y-129033497D01*
X97200500Y-128878842D01*
X97200500Y-128721158D01*
X97200500Y-128721155D01*
X97200499Y-128721153D01*
X97192774Y-128682317D01*
X97169737Y-128566503D01*
X97124936Y-128458343D01*
X97109397Y-128420827D01*
X97109390Y-128420814D01*
X97021789Y-128289711D01*
X97021786Y-128289707D01*
X96910292Y-128178213D01*
X96910288Y-128178210D01*
X96779185Y-128090609D01*
X96779172Y-128090602D01*
X96633501Y-128030264D01*
X96633489Y-128030261D01*
X96478845Y-127999500D01*
X96478842Y-127999500D01*
X96321158Y-127999500D01*
X96321155Y-127999500D01*
X96166510Y-128030261D01*
X96166498Y-128030264D01*
X96020827Y-128090602D01*
X96020814Y-128090609D01*
X95889711Y-128178210D01*
X95889707Y-128178213D01*
X95778213Y-128289707D01*
X95778210Y-128289711D01*
X95690609Y-128420814D01*
X95690602Y-128420827D01*
X95630264Y-128566498D01*
X95630261Y-128566510D01*
X95599500Y-128721153D01*
X76974999Y-128721153D01*
X76974999Y-128350028D01*
X76974998Y-128350013D01*
X76964505Y-128247302D01*
X76909358Y-128080880D01*
X76909356Y-128080875D01*
X76817315Y-127931654D01*
X76693345Y-127807684D01*
X76544124Y-127715643D01*
X76544119Y-127715641D01*
X76377697Y-127660494D01*
X76377690Y-127660493D01*
X76274986Y-127650000D01*
X75750000Y-127650000D01*
X75750000Y-128595854D01*
X75683343Y-128557370D01*
X75562535Y-128525000D01*
X75437465Y-128525000D01*
X75316657Y-128557370D01*
X75250000Y-128595854D01*
X75250000Y-127650000D01*
X74725028Y-127650000D01*
X74725012Y-127650001D01*
X74622302Y-127660494D01*
X74455880Y-127715641D01*
X74455875Y-127715643D01*
X74306654Y-127807684D01*
X74182684Y-127931654D01*
X74090643Y-128080875D01*
X74090641Y-128080880D01*
X74035494Y-128247302D01*
X74035493Y-128247309D01*
X74025000Y-128350013D01*
X74025000Y-128750000D01*
X75095854Y-128750000D01*
X75057370Y-128816657D01*
X75025000Y-128937465D01*
X75025000Y-129062535D01*
X75057370Y-129183343D01*
X75095854Y-129250000D01*
X74025001Y-129250000D01*
X74025001Y-129649986D01*
X74035494Y-129752697D01*
X74090641Y-129919119D01*
X74090643Y-129919124D01*
X74182684Y-130068345D01*
X74306654Y-130192315D01*
X74461484Y-130287815D01*
X74508208Y-130339763D01*
X74519431Y-130408726D01*
X74491587Y-130472808D01*
X74484069Y-130481035D01*
X74344889Y-130620215D01*
X74219951Y-130792179D01*
X74123444Y-130981585D01*
X74057753Y-131183760D01*
X74024500Y-131393713D01*
X66719572Y-131393713D01*
X66725500Y-131356287D01*
X66725500Y-131143713D01*
X66692246Y-130933757D01*
X66626557Y-130731588D01*
X66530051Y-130542184D01*
X66530049Y-130542181D01*
X66530048Y-130542179D01*
X66405109Y-130370213D01*
X66254790Y-130219894D01*
X66254785Y-130219890D01*
X66089781Y-130100008D01*
X66047115Y-130044678D01*
X66041136Y-129975065D01*
X66073741Y-129913270D01*
X66089781Y-129899371D01*
X66254466Y-129779721D01*
X66404723Y-129629464D01*
X66404727Y-129629459D01*
X66529620Y-129457557D01*
X66626095Y-129268217D01*
X66691757Y-129066129D01*
X66691757Y-129066126D01*
X66702231Y-129000000D01*
X65654146Y-129000000D01*
X65692630Y-128933343D01*
X65725000Y-128812535D01*
X65725000Y-128687465D01*
X65692630Y-128566657D01*
X65654146Y-128500000D01*
X66702231Y-128500000D01*
X66691757Y-128433873D01*
X66691756Y-128433866D01*
X66675938Y-128385181D01*
X66626095Y-128231782D01*
X66529620Y-128042442D01*
X66404727Y-127870540D01*
X66404723Y-127870535D01*
X66254464Y-127720276D01*
X66254459Y-127720272D01*
X66089781Y-127600627D01*
X66047115Y-127545297D01*
X66041136Y-127475684D01*
X66073741Y-127413889D01*
X66089776Y-127399994D01*
X66254792Y-127280104D01*
X66405104Y-127129792D01*
X66405106Y-127129788D01*
X66405109Y-127129786D01*
X66526974Y-126962051D01*
X66530051Y-126957816D01*
X66626557Y-126768412D01*
X66692246Y-126566243D01*
X66725500Y-126356287D01*
X66725500Y-126143713D01*
X66692246Y-125933757D01*
X66626557Y-125731588D01*
X66530051Y-125542184D01*
X66530049Y-125542181D01*
X66530048Y-125542179D01*
X66405109Y-125370213D01*
X66254792Y-125219896D01*
X66217471Y-125192781D01*
X66090204Y-125100316D01*
X66047540Y-125044989D01*
X66041561Y-124975376D01*
X66074166Y-124913580D01*
X66090199Y-124899686D01*
X66254792Y-124780104D01*
X66405104Y-124629792D01*
X66405106Y-124629788D01*
X66405109Y-124629786D01*
X66530048Y-124457820D01*
X66530047Y-124457820D01*
X66530051Y-124457816D01*
X66626557Y-124268412D01*
X66692246Y-124066243D01*
X66725500Y-123856287D01*
X66725500Y-123643713D01*
X66692246Y-123433757D01*
X66626557Y-123231588D01*
X66530051Y-123042184D01*
X66530049Y-123042181D01*
X66530048Y-123042179D01*
X66405109Y-122870213D01*
X66254786Y-122719890D01*
X66082820Y-122594951D01*
X65895145Y-122499326D01*
X65895144Y-122499325D01*
X65895143Y-122499325D01*
X65893413Y-122498443D01*
X65788241Y-122464270D01*
X65691243Y-122432754D01*
X65691241Y-122432753D01*
X65691240Y-122432753D01*
X65529957Y-122407208D01*
X65481287Y-122399500D01*
X65018713Y-122399500D01*
X64970042Y-122407208D01*
X64808760Y-122432753D01*
X64606585Y-122498444D01*
X64417179Y-122594951D01*
X64245213Y-122719890D01*
X64094890Y-122870213D01*
X63969951Y-123042179D01*
X63873444Y-123231585D01*
X63807753Y-123433760D01*
X63774500Y-123643713D01*
X61750500Y-123643713D01*
X61750500Y-116599983D01*
X63749500Y-116599983D01*
X63749500Y-117900001D01*
X63749501Y-117900018D01*
X63760000Y-118002796D01*
X63760001Y-118002799D01*
X63797336Y-118115466D01*
X63815186Y-118169334D01*
X63907288Y-118318656D01*
X64031344Y-118442712D01*
X64180666Y-118534814D01*
X64347203Y-118589999D01*
X64449991Y-118600500D01*
X66050008Y-118600499D01*
X66152797Y-118589999D01*
X66319334Y-118534814D01*
X66468656Y-118442712D01*
X66592712Y-118318656D01*
X66684814Y-118169334D01*
X66739999Y-118002797D01*
X66750500Y-117900009D01*
X66750499Y-116599992D01*
X66739999Y-116497203D01*
X66684814Y-116330666D01*
X66592712Y-116181344D01*
X66509911Y-116098543D01*
X69799499Y-116098543D01*
X69837947Y-116291829D01*
X69837950Y-116291839D01*
X69913364Y-116473907D01*
X69913371Y-116473920D01*
X70022860Y-116637781D01*
X70022863Y-116637785D01*
X70162214Y-116777136D01*
X70162218Y-116777139D01*
X70326079Y-116886628D01*
X70326092Y-116886635D01*
X70508160Y-116962049D01*
X70508165Y-116962051D01*
X70508169Y-116962051D01*
X70508170Y-116962052D01*
X70701456Y-117000500D01*
X70701459Y-117000500D01*
X70898543Y-117000500D01*
X71038561Y-116972648D01*
X71091835Y-116962051D01*
X71273914Y-116886632D01*
X71437782Y-116777139D01*
X71577139Y-116637782D01*
X71686632Y-116473914D01*
X71762051Y-116291835D01*
X71794285Y-116129786D01*
X71800500Y-116098543D01*
X71800500Y-115901456D01*
X71762052Y-115708170D01*
X71762051Y-115708169D01*
X71762051Y-115708165D01*
X71737959Y-115650001D01*
X71686635Y-115526092D01*
X71686628Y-115526079D01*
X71577139Y-115362218D01*
X71577136Y-115362214D01*
X71437785Y-115222863D01*
X71437781Y-115222860D01*
X71273920Y-115113371D01*
X71273907Y-115113364D01*
X71091839Y-115037950D01*
X71091829Y-115037947D01*
X70898543Y-114999500D01*
X70898541Y-114999500D01*
X70701459Y-114999500D01*
X70701457Y-114999500D01*
X70508170Y-115037947D01*
X70508160Y-115037950D01*
X70326092Y-115113364D01*
X70326079Y-115113371D01*
X70162218Y-115222860D01*
X70162214Y-115222863D01*
X70022863Y-115362214D01*
X70022860Y-115362218D01*
X69913371Y-115526079D01*
X69913364Y-115526092D01*
X69837950Y-115708160D01*
X69837947Y-115708170D01*
X69799500Y-115901456D01*
X69799500Y-115901459D01*
X69799500Y-116098541D01*
X69799500Y-116098543D01*
X69799499Y-116098543D01*
X66509911Y-116098543D01*
X66468656Y-116057288D01*
X66377245Y-116000905D01*
X66313441Y-115961551D01*
X66266716Y-115909603D01*
X66255493Y-115840641D01*
X66283337Y-115776558D01*
X66290856Y-115768330D01*
X66429728Y-115629458D01*
X66554620Y-115457557D01*
X66651095Y-115268217D01*
X66716757Y-115066129D01*
X66716757Y-115066126D01*
X66727231Y-115000000D01*
X65683012Y-115000000D01*
X65715925Y-114942993D01*
X65750000Y-114815826D01*
X65750000Y-114684174D01*
X65715925Y-114557007D01*
X65683012Y-114500000D01*
X66727231Y-114500000D01*
X66716757Y-114433873D01*
X66716756Y-114433866D01*
X66700928Y-114385151D01*
X66689501Y-114349983D01*
X75049500Y-114349983D01*
X75049500Y-115650001D01*
X75049501Y-115650018D01*
X75060000Y-115752796D01*
X75060001Y-115752799D01*
X75105623Y-115890476D01*
X75115186Y-115919334D01*
X75207288Y-116068656D01*
X75331344Y-116192712D01*
X75473031Y-116280105D01*
X75486120Y-116288178D01*
X75532845Y-116340126D01*
X75544068Y-116409088D01*
X75516224Y-116473171D01*
X75508706Y-116481398D01*
X75369889Y-116620215D01*
X75244951Y-116792179D01*
X75148444Y-116981585D01*
X75082753Y-117183760D01*
X75049500Y-117393713D01*
X75049500Y-117606286D01*
X75082166Y-117812535D01*
X75082754Y-117816243D01*
X75143369Y-118002797D01*
X75148444Y-118018414D01*
X75244951Y-118207820D01*
X75369890Y-118379786D01*
X75520209Y-118530105D01*
X75520214Y-118530109D01*
X75685218Y-118649991D01*
X75727884Y-118705320D01*
X75733863Y-118774934D01*
X75701258Y-118836729D01*
X75685218Y-118850627D01*
X75520540Y-118970272D01*
X75520535Y-118970276D01*
X75370276Y-119120535D01*
X75370272Y-119120540D01*
X75245379Y-119292442D01*
X75148904Y-119481782D01*
X75083242Y-119683870D01*
X75083242Y-119683873D01*
X75072769Y-119750000D01*
X76120854Y-119750000D01*
X76082370Y-119816657D01*
X76050000Y-119937465D01*
X76050000Y-120062535D01*
X76082370Y-120183343D01*
X76120854Y-120250000D01*
X75072769Y-120250000D01*
X75083242Y-120316126D01*
X75083242Y-120316129D01*
X75148904Y-120518217D01*
X75245379Y-120707557D01*
X75370272Y-120879459D01*
X75370276Y-120879464D01*
X75520535Y-121029723D01*
X75520540Y-121029727D01*
X75685218Y-121149372D01*
X75727884Y-121204701D01*
X75733863Y-121274315D01*
X75701258Y-121336110D01*
X75685218Y-121350008D01*
X75520214Y-121469890D01*
X75520209Y-121469894D01*
X75369890Y-121620213D01*
X75244951Y-121792179D01*
X75148444Y-121981585D01*
X75082753Y-122183760D01*
X75057975Y-122340203D01*
X75049500Y-122393713D01*
X75049500Y-122606287D01*
X75053298Y-122630264D01*
X75076730Y-122778213D01*
X75082754Y-122816243D01*
X75142714Y-123000781D01*
X75148444Y-123018414D01*
X75244951Y-123207820D01*
X75369890Y-123379786D01*
X75520213Y-123530109D01*
X75692179Y-123655048D01*
X75692181Y-123655049D01*
X75692184Y-123655051D01*
X75881588Y-123751557D01*
X76083757Y-123817246D01*
X76293713Y-123850500D01*
X76293714Y-123850500D01*
X76756286Y-123850500D01*
X76756287Y-123850500D01*
X76966243Y-123817246D01*
X77168412Y-123751557D01*
X77357816Y-123655051D01*
X77387494Y-123633489D01*
X77529786Y-123530109D01*
X77529788Y-123530106D01*
X77529792Y-123530104D01*
X77680104Y-123379792D01*
X77722707Y-123321153D01*
X100999500Y-123321153D01*
X100999500Y-123478846D01*
X101030261Y-123633489D01*
X101030264Y-123633501D01*
X101090602Y-123779172D01*
X101090609Y-123779185D01*
X101178210Y-123910288D01*
X101178213Y-123910292D01*
X101289707Y-124021786D01*
X101289711Y-124021789D01*
X101420814Y-124109390D01*
X101420827Y-124109397D01*
X101566498Y-124169735D01*
X101566503Y-124169737D01*
X101721153Y-124200499D01*
X101721156Y-124200500D01*
X101721158Y-124200500D01*
X101878844Y-124200500D01*
X101878845Y-124200499D01*
X102033497Y-124169737D01*
X102179179Y-124109394D01*
X102310289Y-124021789D01*
X102421789Y-123910289D01*
X102509394Y-123779179D01*
X102569737Y-123633497D01*
X102600500Y-123478842D01*
X102600500Y-123321158D01*
X102600500Y-123321155D01*
X102600499Y-123321153D01*
X102582683Y-123231588D01*
X102569737Y-123166503D01*
X102518241Y-123042179D01*
X102509397Y-123020827D01*
X102509390Y-123020814D01*
X102421789Y-122889711D01*
X102421786Y-122889707D01*
X102310292Y-122778213D01*
X102310288Y-122778210D01*
X102179185Y-122690609D01*
X102179172Y-122690602D01*
X102033501Y-122630264D01*
X102033489Y-122630261D01*
X101878845Y-122599500D01*
X101878842Y-122599500D01*
X101721158Y-122599500D01*
X101721155Y-122599500D01*
X101566510Y-122630261D01*
X101566498Y-122630264D01*
X101420827Y-122690602D01*
X101420814Y-122690609D01*
X101289711Y-122778210D01*
X101289707Y-122778213D01*
X101178213Y-122889707D01*
X101178210Y-122889711D01*
X101090609Y-123020814D01*
X101090602Y-123020827D01*
X101030264Y-123166498D01*
X101030261Y-123166510D01*
X100999500Y-123321153D01*
X77722707Y-123321153D01*
X77805051Y-123207816D01*
X77901557Y-123018412D01*
X77967246Y-122816243D01*
X78000500Y-122606287D01*
X78000500Y-122393713D01*
X77967246Y-122183757D01*
X77901557Y-121981588D01*
X77805051Y-121792184D01*
X77805049Y-121792181D01*
X77805048Y-121792179D01*
X77680109Y-121620213D01*
X77529790Y-121469894D01*
X77529785Y-121469890D01*
X77364781Y-121350008D01*
X77322115Y-121294678D01*
X77316136Y-121225065D01*
X77348741Y-121163270D01*
X77364781Y-121149371D01*
X77529466Y-121029721D01*
X77679723Y-120879464D01*
X77679727Y-120879459D01*
X77752039Y-120779931D01*
X77804620Y-120707557D01*
X77901095Y-120518217D01*
X77966757Y-120316129D01*
X77966757Y-120316126D01*
X77977231Y-120250000D01*
X76929146Y-120250000D01*
X76967630Y-120183343D01*
X77000000Y-120062535D01*
X77000000Y-119937465D01*
X76967630Y-119816657D01*
X76929146Y-119750000D01*
X77977231Y-119750000D01*
X77966757Y-119683873D01*
X77966757Y-119683870D01*
X77901095Y-119481782D01*
X77804620Y-119292442D01*
X77679727Y-119120540D01*
X77679723Y-119120535D01*
X77529464Y-118970276D01*
X77529459Y-118970272D01*
X77364781Y-118850627D01*
X77322115Y-118795297D01*
X77316136Y-118725684D01*
X77348741Y-118663889D01*
X77364776Y-118649994D01*
X77529792Y-118530104D01*
X77680104Y-118379792D01*
X77680106Y-118379788D01*
X77680109Y-118379786D01*
X77805048Y-118207820D01*
X77805047Y-118207820D01*
X77805051Y-118207816D01*
X77901557Y-118018412D01*
X77967246Y-117816243D01*
X78000500Y-117606287D01*
X78000500Y-117393713D01*
X77967246Y-117183757D01*
X77901557Y-116981588D01*
X77897002Y-116972648D01*
X91689500Y-116972648D01*
X91689500Y-118577351D01*
X91721522Y-118779534D01*
X91784781Y-118974223D01*
X91841791Y-119086110D01*
X91859334Y-119120540D01*
X91877715Y-119156613D01*
X91998028Y-119322213D01*
X92142786Y-119466971D01*
X92267212Y-119557370D01*
X92308390Y-119587287D01*
X92424607Y-119646503D01*
X92490776Y-119680218D01*
X92490778Y-119680218D01*
X92490781Y-119680220D01*
X92577335Y-119708343D01*
X92685465Y-119743477D01*
X92744265Y-119752790D01*
X92887648Y-119775500D01*
X92887649Y-119775500D01*
X93092351Y-119775500D01*
X93092352Y-119775500D01*
X93294534Y-119743477D01*
X93489219Y-119680220D01*
X93671610Y-119587287D01*
X93764590Y-119519732D01*
X93837213Y-119466971D01*
X93837215Y-119466968D01*
X93837219Y-119466966D01*
X93981966Y-119322219D01*
X93981968Y-119322215D01*
X93981971Y-119322213D01*
X94102284Y-119156614D01*
X94102285Y-119156613D01*
X94102287Y-119156610D01*
X94149516Y-119063917D01*
X94197489Y-119013123D01*
X94265310Y-118996328D01*
X94331445Y-119018865D01*
X94370483Y-119063917D01*
X94414348Y-119150006D01*
X94417715Y-119156614D01*
X94538028Y-119322213D01*
X94682786Y-119466971D01*
X94807212Y-119557370D01*
X94848390Y-119587287D01*
X94964607Y-119646503D01*
X95030776Y-119680218D01*
X95030778Y-119680218D01*
X95030781Y-119680220D01*
X95117335Y-119708343D01*
X95225465Y-119743477D01*
X95284265Y-119752790D01*
X95427648Y-119775500D01*
X95427649Y-119775500D01*
X95632351Y-119775500D01*
X95632352Y-119775500D01*
X95834534Y-119743477D01*
X96029219Y-119680220D01*
X96211610Y-119587287D01*
X96304590Y-119519732D01*
X96377213Y-119466971D01*
X96377215Y-119466968D01*
X96377219Y-119466966D01*
X96521966Y-119322219D01*
X96521968Y-119322215D01*
X96521971Y-119322213D01*
X96642284Y-119156614D01*
X96642285Y-119156613D01*
X96642287Y-119156610D01*
X96689516Y-119063917D01*
X96737489Y-119013123D01*
X96805310Y-118996328D01*
X96871445Y-119018865D01*
X96910483Y-119063917D01*
X96954348Y-119150006D01*
X96957715Y-119156614D01*
X97078028Y-119322213D01*
X97222786Y-119466971D01*
X97347212Y-119557370D01*
X97388390Y-119587287D01*
X97504607Y-119646503D01*
X97570776Y-119680218D01*
X97570778Y-119680218D01*
X97570781Y-119680220D01*
X97657335Y-119708343D01*
X97765465Y-119743477D01*
X97824265Y-119752790D01*
X97967648Y-119775500D01*
X97967649Y-119775500D01*
X98172351Y-119775500D01*
X98172352Y-119775500D01*
X98374534Y-119743477D01*
X98569219Y-119680220D01*
X98751610Y-119587287D01*
X98844590Y-119519732D01*
X98917213Y-119466971D01*
X98917215Y-119466968D01*
X98917219Y-119466966D01*
X99061966Y-119322219D01*
X99061968Y-119322215D01*
X99061971Y-119322213D01*
X99182284Y-119156614D01*
X99182285Y-119156613D01*
X99182287Y-119156610D01*
X99229516Y-119063917D01*
X99277489Y-119013123D01*
X99345310Y-118996328D01*
X99411445Y-119018865D01*
X99450483Y-119063917D01*
X99494348Y-119150006D01*
X99497715Y-119156614D01*
X99618028Y-119322213D01*
X99762786Y-119466971D01*
X99887212Y-119557370D01*
X99928390Y-119587287D01*
X100044607Y-119646503D01*
X100110776Y-119680218D01*
X100110778Y-119680218D01*
X100110781Y-119680220D01*
X100197335Y-119708343D01*
X100305465Y-119743477D01*
X100364265Y-119752790D01*
X100507648Y-119775500D01*
X100507649Y-119775500D01*
X100712351Y-119775500D01*
X100712352Y-119775500D01*
X100914534Y-119743477D01*
X101109219Y-119680220D01*
X101291610Y-119587287D01*
X101384590Y-119519732D01*
X101457213Y-119466971D01*
X101457215Y-119466968D01*
X101457219Y-119466966D01*
X101601966Y-119322219D01*
X101601968Y-119322215D01*
X101601971Y-119322213D01*
X101722284Y-119156614D01*
X101722285Y-119156613D01*
X101722287Y-119156610D01*
X101769516Y-119063917D01*
X101817489Y-119013123D01*
X101885310Y-118996328D01*
X101951445Y-119018865D01*
X101990483Y-119063917D01*
X102034348Y-119150006D01*
X102037715Y-119156614D01*
X102158028Y-119322213D01*
X102302786Y-119466971D01*
X102427212Y-119557370D01*
X102468390Y-119587287D01*
X102584607Y-119646503D01*
X102650776Y-119680218D01*
X102650778Y-119680218D01*
X102650781Y-119680220D01*
X102737335Y-119708343D01*
X102845465Y-119743477D01*
X102904265Y-119752790D01*
X103047648Y-119775500D01*
X103047649Y-119775500D01*
X103252351Y-119775500D01*
X103252352Y-119775500D01*
X103454534Y-119743477D01*
X103649219Y-119680220D01*
X103831610Y-119587287D01*
X103924590Y-119519732D01*
X103997213Y-119466971D01*
X103997215Y-119466968D01*
X103997219Y-119466966D01*
X104141966Y-119322219D01*
X104141968Y-119322215D01*
X104141971Y-119322213D01*
X104262284Y-119156614D01*
X104262285Y-119156613D01*
X104262287Y-119156610D01*
X104309516Y-119063917D01*
X104357489Y-119013123D01*
X104425310Y-118996328D01*
X104491445Y-119018865D01*
X104530483Y-119063917D01*
X104574348Y-119150006D01*
X104577715Y-119156614D01*
X104698028Y-119322213D01*
X104842786Y-119466971D01*
X104967212Y-119557370D01*
X105008390Y-119587287D01*
X105124607Y-119646503D01*
X105190776Y-119680218D01*
X105190778Y-119680218D01*
X105190781Y-119680220D01*
X105277335Y-119708343D01*
X105385465Y-119743477D01*
X105444265Y-119752790D01*
X105587648Y-119775500D01*
X105587649Y-119775500D01*
X105792351Y-119775500D01*
X105792352Y-119775500D01*
X105994534Y-119743477D01*
X106189219Y-119680220D01*
X106371610Y-119587287D01*
X106464590Y-119519732D01*
X106537213Y-119466971D01*
X106537215Y-119466968D01*
X106537219Y-119466966D01*
X106681966Y-119322219D01*
X106681968Y-119322215D01*
X106681971Y-119322213D01*
X106802284Y-119156614D01*
X106802285Y-119156613D01*
X106802287Y-119156610D01*
X106849516Y-119063917D01*
X106897489Y-119013123D01*
X106965310Y-118996328D01*
X107031445Y-119018865D01*
X107070483Y-119063917D01*
X107114348Y-119150006D01*
X107117715Y-119156614D01*
X107238028Y-119322213D01*
X107382786Y-119466971D01*
X107507212Y-119557370D01*
X107548390Y-119587287D01*
X107664607Y-119646503D01*
X107730776Y-119680218D01*
X107730778Y-119680218D01*
X107730781Y-119680220D01*
X107817335Y-119708343D01*
X107925465Y-119743477D01*
X107984265Y-119752790D01*
X108127648Y-119775500D01*
X108127649Y-119775500D01*
X108332351Y-119775500D01*
X108332352Y-119775500D01*
X108534534Y-119743477D01*
X108729219Y-119680220D01*
X108911610Y-119587287D01*
X109004590Y-119519732D01*
X109077213Y-119466971D01*
X109077215Y-119466968D01*
X109077219Y-119466966D01*
X109221966Y-119322219D01*
X109221968Y-119322215D01*
X109221971Y-119322213D01*
X109342284Y-119156614D01*
X109342285Y-119156613D01*
X109342287Y-119156610D01*
X109389516Y-119063917D01*
X109437489Y-119013123D01*
X109505310Y-118996328D01*
X109571445Y-119018865D01*
X109610483Y-119063917D01*
X109654348Y-119150006D01*
X109657715Y-119156614D01*
X109778028Y-119322213D01*
X109922786Y-119466971D01*
X110047212Y-119557370D01*
X110088390Y-119587287D01*
X110204607Y-119646503D01*
X110270776Y-119680218D01*
X110270778Y-119680218D01*
X110270781Y-119680220D01*
X110357335Y-119708343D01*
X110465465Y-119743477D01*
X110524265Y-119752790D01*
X110667648Y-119775500D01*
X110667649Y-119775500D01*
X110872351Y-119775500D01*
X110872352Y-119775500D01*
X111074534Y-119743477D01*
X111269219Y-119680220D01*
X111451610Y-119587287D01*
X111544590Y-119519732D01*
X111617213Y-119466971D01*
X111617215Y-119466968D01*
X111617219Y-119466966D01*
X111761966Y-119322219D01*
X111761968Y-119322215D01*
X111761971Y-119322213D01*
X111882284Y-119156614D01*
X111882285Y-119156613D01*
X111882287Y-119156610D01*
X111929516Y-119063917D01*
X111977489Y-119013123D01*
X112045310Y-118996328D01*
X112111445Y-119018865D01*
X112150483Y-119063917D01*
X112194348Y-119150006D01*
X112197715Y-119156614D01*
X112318028Y-119322213D01*
X112462786Y-119466971D01*
X112587212Y-119557370D01*
X112628390Y-119587287D01*
X112744607Y-119646503D01*
X112810776Y-119680218D01*
X112810778Y-119680218D01*
X112810781Y-119680220D01*
X112897335Y-119708343D01*
X113005465Y-119743477D01*
X113064265Y-119752790D01*
X113207648Y-119775500D01*
X113207649Y-119775500D01*
X113412351Y-119775500D01*
X113412352Y-119775500D01*
X113614534Y-119743477D01*
X113809219Y-119680220D01*
X113991610Y-119587287D01*
X114084590Y-119519732D01*
X114157213Y-119466971D01*
X114157215Y-119466968D01*
X114157219Y-119466966D01*
X114301966Y-119322219D01*
X114301968Y-119322215D01*
X114301971Y-119322213D01*
X114422284Y-119156614D01*
X114422285Y-119156613D01*
X114422287Y-119156610D01*
X114469516Y-119063917D01*
X114517489Y-119013123D01*
X114585310Y-118996328D01*
X114651445Y-119018865D01*
X114690483Y-119063917D01*
X114734348Y-119150006D01*
X114737715Y-119156614D01*
X114858028Y-119322213D01*
X115002786Y-119466971D01*
X115127212Y-119557370D01*
X115168390Y-119587287D01*
X115284607Y-119646503D01*
X115350776Y-119680218D01*
X115350778Y-119680218D01*
X115350781Y-119680220D01*
X115437335Y-119708343D01*
X115545465Y-119743477D01*
X115604265Y-119752790D01*
X115747648Y-119775500D01*
X115747649Y-119775500D01*
X115952351Y-119775500D01*
X115952352Y-119775500D01*
X116154534Y-119743477D01*
X116349219Y-119680220D01*
X116531610Y-119587287D01*
X116624590Y-119519732D01*
X116697213Y-119466971D01*
X116697215Y-119466968D01*
X116697219Y-119466966D01*
X116841966Y-119322219D01*
X116841968Y-119322215D01*
X116841971Y-119322213D01*
X116962284Y-119156614D01*
X116962285Y-119156613D01*
X116962287Y-119156610D01*
X117009516Y-119063917D01*
X117057489Y-119013123D01*
X117125310Y-118996328D01*
X117191445Y-119018865D01*
X117230483Y-119063917D01*
X117274348Y-119150006D01*
X117277715Y-119156614D01*
X117398028Y-119322213D01*
X117542786Y-119466971D01*
X117667212Y-119557370D01*
X117708390Y-119587287D01*
X117824607Y-119646503D01*
X117890776Y-119680218D01*
X117890778Y-119680218D01*
X117890781Y-119680220D01*
X117977335Y-119708343D01*
X118085465Y-119743477D01*
X118144265Y-119752790D01*
X118287648Y-119775500D01*
X118287649Y-119775500D01*
X118492351Y-119775500D01*
X118492352Y-119775500D01*
X118694534Y-119743477D01*
X118889219Y-119680220D01*
X119071610Y-119587287D01*
X119164590Y-119519732D01*
X119237213Y-119466971D01*
X119237215Y-119466968D01*
X119237219Y-119466966D01*
X119381966Y-119322219D01*
X119381968Y-119322215D01*
X119381971Y-119322213D01*
X119502284Y-119156614D01*
X119502285Y-119156613D01*
X119502287Y-119156610D01*
X119549516Y-119063917D01*
X119597489Y-119013123D01*
X119665310Y-118996328D01*
X119731445Y-119018865D01*
X119770483Y-119063917D01*
X119814348Y-119150006D01*
X119817715Y-119156614D01*
X119938028Y-119322213D01*
X120082786Y-119466971D01*
X120207212Y-119557370D01*
X120248390Y-119587287D01*
X120364607Y-119646503D01*
X120430776Y-119680218D01*
X120430778Y-119680218D01*
X120430781Y-119680220D01*
X120517335Y-119708343D01*
X120625465Y-119743477D01*
X120684265Y-119752790D01*
X120827648Y-119775500D01*
X120827649Y-119775500D01*
X121032351Y-119775500D01*
X121032352Y-119775500D01*
X121234534Y-119743477D01*
X121429219Y-119680220D01*
X121611610Y-119587287D01*
X121704590Y-119519732D01*
X121777213Y-119466971D01*
X121777215Y-119466968D01*
X121777219Y-119466966D01*
X121921966Y-119322219D01*
X121921968Y-119322215D01*
X121921971Y-119322213D01*
X122042284Y-119156614D01*
X122042285Y-119156613D01*
X122042287Y-119156610D01*
X122089516Y-119063917D01*
X122137489Y-119013123D01*
X122205310Y-118996328D01*
X122271445Y-119018865D01*
X122310483Y-119063917D01*
X122354348Y-119150006D01*
X122357715Y-119156614D01*
X122478028Y-119322213D01*
X122622786Y-119466971D01*
X122747212Y-119557370D01*
X122788390Y-119587287D01*
X122904607Y-119646503D01*
X122970776Y-119680218D01*
X122970778Y-119680218D01*
X122970781Y-119680220D01*
X123057335Y-119708343D01*
X123165465Y-119743477D01*
X123224265Y-119752790D01*
X123367648Y-119775500D01*
X123367649Y-119775500D01*
X123572351Y-119775500D01*
X123572352Y-119775500D01*
X123774534Y-119743477D01*
X123969219Y-119680220D01*
X124151610Y-119587287D01*
X124244590Y-119519732D01*
X124317213Y-119466971D01*
X124317215Y-119466968D01*
X124317219Y-119466966D01*
X124461966Y-119322219D01*
X124461968Y-119322215D01*
X124461971Y-119322213D01*
X124582284Y-119156614D01*
X124582285Y-119156613D01*
X124582287Y-119156610D01*
X124629795Y-119063369D01*
X124677770Y-119012574D01*
X124745591Y-118995779D01*
X124811725Y-119018316D01*
X124850765Y-119063370D01*
X124898140Y-119156349D01*
X125018417Y-119321894D01*
X125018417Y-119321895D01*
X125163104Y-119466582D01*
X125328650Y-119586859D01*
X125510968Y-119679754D01*
X125705578Y-119742988D01*
X125760000Y-119751607D01*
X125760000Y-118090686D01*
X125764394Y-118095080D01*
X125855606Y-118147741D01*
X125957339Y-118175000D01*
X126062661Y-118175000D01*
X126164394Y-118147741D01*
X126255606Y-118095080D01*
X126260000Y-118090686D01*
X126260000Y-119751606D01*
X126314421Y-119742988D01*
X126509031Y-119679754D01*
X126691349Y-119586859D01*
X126856894Y-119466582D01*
X126856895Y-119466582D01*
X127001582Y-119321895D01*
X127001582Y-119321894D01*
X127121859Y-119156349D01*
X127214755Y-118974031D01*
X127277990Y-118779417D01*
X127310000Y-118577317D01*
X127310000Y-118025000D01*
X126325686Y-118025000D01*
X126330080Y-118020606D01*
X126382741Y-117929394D01*
X126410000Y-117827661D01*
X126410000Y-117722339D01*
X126382741Y-117620606D01*
X126330080Y-117529394D01*
X126325686Y-117525000D01*
X127310000Y-117525000D01*
X127310000Y-116972682D01*
X127277990Y-116770582D01*
X127214755Y-116575968D01*
X127121859Y-116393650D01*
X127001582Y-116228105D01*
X127001582Y-116228104D01*
X126856895Y-116083417D01*
X126691349Y-115963140D01*
X126534577Y-115883261D01*
X126534575Y-115883259D01*
X126509032Y-115870245D01*
X126314413Y-115807009D01*
X126260000Y-115798390D01*
X126260000Y-117459314D01*
X126255606Y-117454920D01*
X126164394Y-117402259D01*
X126062661Y-117375000D01*
X125957339Y-117375000D01*
X125855606Y-117402259D01*
X125764394Y-117454920D01*
X125760000Y-117459314D01*
X125760000Y-115798390D01*
X125705586Y-115807009D01*
X125510970Y-115870244D01*
X125328650Y-115963140D01*
X125163105Y-116083417D01*
X125163104Y-116083417D01*
X125018417Y-116228104D01*
X125018417Y-116228105D01*
X124898140Y-116393650D01*
X124850765Y-116486629D01*
X124802790Y-116537425D01*
X124734969Y-116554220D01*
X124668834Y-116531682D01*
X124629795Y-116486629D01*
X124613842Y-116455320D01*
X124582287Y-116393390D01*
X124565448Y-116370213D01*
X124461971Y-116227786D01*
X124317213Y-116083028D01*
X124151613Y-115962715D01*
X124151612Y-115962714D01*
X124151610Y-115962713D01*
X124066478Y-115919336D01*
X123969223Y-115869781D01*
X123774534Y-115806522D01*
X123592227Y-115777648D01*
X127884500Y-115777648D01*
X127884500Y-115982351D01*
X127916522Y-116184534D01*
X127979781Y-116379223D01*
X128028931Y-116475684D01*
X128072585Y-116561359D01*
X128072715Y-116561613D01*
X128193028Y-116727213D01*
X128337786Y-116871971D01*
X128476359Y-116972648D01*
X128503390Y-116992287D01*
X128594840Y-117038883D01*
X128596080Y-117039515D01*
X128646876Y-117087490D01*
X128663671Y-117155311D01*
X128641134Y-117221446D01*
X128596080Y-117260485D01*
X128503386Y-117307715D01*
X128337786Y-117428028D01*
X128193028Y-117572786D01*
X128072715Y-117738386D01*
X127979781Y-117920776D01*
X127916522Y-118115465D01*
X127884500Y-118317648D01*
X127884500Y-118522351D01*
X127916522Y-118724534D01*
X127979781Y-118919223D01*
X128030552Y-119018865D01*
X128064815Y-119086110D01*
X128072715Y-119101613D01*
X128193028Y-119267213D01*
X128337786Y-119411971D01*
X128503385Y-119532284D01*
X128503387Y-119532285D01*
X128503390Y-119532287D01*
X128570845Y-119566657D01*
X128596630Y-119579795D01*
X128647426Y-119627770D01*
X128664221Y-119695591D01*
X128641684Y-119761725D01*
X128596630Y-119800765D01*
X128503644Y-119848143D01*
X128459077Y-119880523D01*
X128459077Y-119880524D01*
X129138554Y-120560000D01*
X129132339Y-120560000D01*
X129030606Y-120587259D01*
X128939394Y-120639920D01*
X128864920Y-120714394D01*
X128812259Y-120805606D01*
X128785000Y-120907339D01*
X128785000Y-120913553D01*
X128105524Y-120234077D01*
X128105523Y-120234077D01*
X128073143Y-120278644D01*
X127980244Y-120460968D01*
X127917009Y-120655582D01*
X127885000Y-120857682D01*
X127885000Y-121062317D01*
X127917009Y-121264417D01*
X127980244Y-121459031D01*
X128073141Y-121641350D01*
X128073147Y-121641359D01*
X128105523Y-121685921D01*
X128105524Y-121685922D01*
X128785000Y-121006446D01*
X128785000Y-121012661D01*
X128812259Y-121114394D01*
X128864920Y-121205606D01*
X128939394Y-121280080D01*
X129030606Y-121332741D01*
X129132339Y-121360000D01*
X129138553Y-121360000D01*
X128459076Y-122039474D01*
X128503652Y-122071861D01*
X128596628Y-122119234D01*
X128647425Y-122167208D01*
X128664220Y-122235029D01*
X128641683Y-122301164D01*
X128596630Y-122340203D01*
X128503388Y-122387713D01*
X128337786Y-122508028D01*
X128193028Y-122652786D01*
X128072715Y-122818386D01*
X127979781Y-123000776D01*
X127916522Y-123195465D01*
X127884500Y-123397648D01*
X127884500Y-123602351D01*
X127916522Y-123804534D01*
X127979781Y-123999223D01*
X128043691Y-124124653D01*
X128072585Y-124181359D01*
X128072715Y-124181613D01*
X128193028Y-124347213D01*
X128337786Y-124491971D01*
X128458226Y-124579474D01*
X128503390Y-124612287D01*
X128576425Y-124649500D01*
X128596080Y-124659515D01*
X128646876Y-124707490D01*
X128663671Y-124775311D01*
X128641134Y-124841446D01*
X128596080Y-124880485D01*
X128503386Y-124927715D01*
X128337786Y-125048028D01*
X128193028Y-125192786D01*
X128072715Y-125358386D01*
X127979781Y-125540776D01*
X127916522Y-125735465D01*
X127884500Y-125937648D01*
X127884500Y-126142351D01*
X127916522Y-126344534D01*
X127979781Y-126539223D01*
X127993547Y-126566239D01*
X128062884Y-126702320D01*
X128072715Y-126721613D01*
X128193028Y-126887213D01*
X128337786Y-127031971D01*
X128503385Y-127152284D01*
X128503387Y-127152285D01*
X128503390Y-127152287D01*
X128554267Y-127178210D01*
X128596630Y-127199795D01*
X128647426Y-127247770D01*
X128664221Y-127315591D01*
X128641684Y-127381725D01*
X128596630Y-127420765D01*
X128503644Y-127468143D01*
X128459077Y-127500523D01*
X128459077Y-127500524D01*
X129138554Y-128180000D01*
X129132339Y-128180000D01*
X129030606Y-128207259D01*
X128939394Y-128259920D01*
X128864920Y-128334394D01*
X128812259Y-128425606D01*
X128785000Y-128527339D01*
X128785000Y-128533553D01*
X128105524Y-127854077D01*
X128105523Y-127854077D01*
X128073143Y-127898644D01*
X127980244Y-128080968D01*
X127917009Y-128275582D01*
X127885000Y-128477682D01*
X127885000Y-128682317D01*
X127917009Y-128884417D01*
X127980244Y-129079031D01*
X128073141Y-129261350D01*
X128073147Y-129261359D01*
X128105523Y-129305921D01*
X128105524Y-129305922D01*
X128785000Y-128626446D01*
X128785000Y-128632661D01*
X128812259Y-128734394D01*
X128864920Y-128825606D01*
X128939394Y-128900080D01*
X129030606Y-128952741D01*
X129132339Y-128980000D01*
X129138553Y-128980000D01*
X128459076Y-129659474D01*
X128503652Y-129691861D01*
X128596628Y-129739234D01*
X128647425Y-129787208D01*
X128664220Y-129855029D01*
X128641683Y-129921164D01*
X128596630Y-129960203D01*
X128503388Y-130007713D01*
X128337786Y-130128028D01*
X128193028Y-130272786D01*
X128072715Y-130438386D01*
X127979781Y-130620776D01*
X127916522Y-130815465D01*
X127884500Y-131017648D01*
X127884500Y-131222351D01*
X127916522Y-131424534D01*
X127979781Y-131619223D01*
X128043691Y-131744653D01*
X128072147Y-131800500D01*
X128072715Y-131801613D01*
X128193028Y-131967213D01*
X128337786Y-132111971D01*
X128469708Y-132207816D01*
X128503390Y-132232287D01*
X128575371Y-132268963D01*
X128685776Y-132325218D01*
X128685778Y-132325218D01*
X128685781Y-132325220D01*
X128775459Y-132354358D01*
X128880465Y-132388477D01*
X128981557Y-132404488D01*
X129082648Y-132420500D01*
X129082649Y-132420500D01*
X129287351Y-132420500D01*
X129287352Y-132420500D01*
X129489534Y-132388477D01*
X129684219Y-132325220D01*
X129866610Y-132232287D01*
X129979898Y-132149979D01*
X130032213Y-132111971D01*
X130032215Y-132111968D01*
X130032219Y-132111966D01*
X130176966Y-131967219D01*
X130176968Y-131967215D01*
X130176971Y-131967213D01*
X130241936Y-131877795D01*
X130297287Y-131801610D01*
X130390220Y-131619219D01*
X130453477Y-131424534D01*
X130460662Y-131379172D01*
X130473322Y-131299240D01*
X130485500Y-131222351D01*
X130485500Y-131017648D01*
X130453477Y-130815465D01*
X130390233Y-130620821D01*
X130390220Y-130620781D01*
X130390218Y-130620778D01*
X130390218Y-130620776D01*
X130341417Y-130525000D01*
X130297287Y-130438390D01*
X130275735Y-130408726D01*
X130176971Y-130272786D01*
X130032213Y-130128028D01*
X129866611Y-130007713D01*
X129773369Y-129960203D01*
X129722574Y-129912229D01*
X129705779Y-129844407D01*
X129728317Y-129778273D01*
X129773371Y-129739234D01*
X129866346Y-129691861D01*
X129866347Y-129691861D01*
X129910921Y-129659474D01*
X129231447Y-128980000D01*
X129237661Y-128980000D01*
X129339394Y-128952741D01*
X129430606Y-128900080D01*
X129505080Y-128825606D01*
X129557741Y-128734394D01*
X129585000Y-128632661D01*
X129585000Y-128626447D01*
X130264474Y-129305921D01*
X130296859Y-129261349D01*
X130389755Y-129079031D01*
X130452990Y-128884417D01*
X130485000Y-128682317D01*
X130485000Y-128477682D01*
X130452990Y-128275582D01*
X130389755Y-128080968D01*
X130296859Y-127898650D01*
X130264474Y-127854077D01*
X130264474Y-127854076D01*
X129585000Y-128533551D01*
X129585000Y-128527339D01*
X129557741Y-128425606D01*
X129505080Y-128334394D01*
X129430606Y-128259920D01*
X129339394Y-128207259D01*
X129237661Y-128180000D01*
X129231446Y-128180000D01*
X129910922Y-127500524D01*
X129910921Y-127500523D01*
X129866359Y-127468147D01*
X129866350Y-127468141D01*
X129773369Y-127420765D01*
X129722573Y-127372790D01*
X129705778Y-127304969D01*
X129728315Y-127238835D01*
X129773370Y-127199795D01*
X129815733Y-127178210D01*
X129866610Y-127152287D01*
X129951503Y-127090609D01*
X130032213Y-127031971D01*
X130032215Y-127031968D01*
X130032219Y-127031966D01*
X130176966Y-126887219D01*
X130176968Y-126887215D01*
X130176971Y-126887213D01*
X130263282Y-126768414D01*
X130297287Y-126721610D01*
X130390220Y-126539219D01*
X130453477Y-126344534D01*
X130485500Y-126142352D01*
X130485500Y-125937648D01*
X130453477Y-125735466D01*
X130444606Y-125708165D01*
X130424127Y-125645137D01*
X130390220Y-125540781D01*
X130390218Y-125540778D01*
X130390218Y-125540776D01*
X130356401Y-125474407D01*
X130297287Y-125358390D01*
X130275979Y-125329062D01*
X130176971Y-125192786D01*
X130032213Y-125048028D01*
X129866614Y-124927715D01*
X129811594Y-124899681D01*
X129773917Y-124880483D01*
X129723123Y-124832511D01*
X129706328Y-124764690D01*
X129728865Y-124698555D01*
X129773917Y-124659516D01*
X129866610Y-124612287D01*
X129911774Y-124579474D01*
X130032213Y-124491971D01*
X130032215Y-124491968D01*
X130032219Y-124491966D01*
X130176966Y-124347219D01*
X130176968Y-124347215D01*
X130176971Y-124347213D01*
X130234222Y-124268412D01*
X130297287Y-124181610D01*
X130390220Y-123999219D01*
X130453477Y-123804534D01*
X130485500Y-123602352D01*
X130485500Y-123397648D01*
X130473384Y-123321153D01*
X130453477Y-123195465D01*
X130422458Y-123100000D01*
X130390220Y-123000781D01*
X130390218Y-123000778D01*
X130390218Y-123000776D01*
X130323692Y-122870213D01*
X130297287Y-122818390D01*
X130268097Y-122778213D01*
X130176971Y-122652786D01*
X130032213Y-122508028D01*
X129866611Y-122387713D01*
X129773369Y-122340203D01*
X129722574Y-122292229D01*
X129705779Y-122224407D01*
X129728317Y-122158273D01*
X129773371Y-122119234D01*
X129866346Y-122071861D01*
X129866347Y-122071861D01*
X129910921Y-122039474D01*
X129231447Y-121360000D01*
X129237661Y-121360000D01*
X129339394Y-121332741D01*
X129430606Y-121280080D01*
X129505080Y-121205606D01*
X129557741Y-121114394D01*
X129585000Y-121012661D01*
X129585000Y-121006447D01*
X130264474Y-121685921D01*
X130296859Y-121641349D01*
X130389755Y-121459031D01*
X130452990Y-121264417D01*
X130485000Y-121062317D01*
X130485000Y-120857682D01*
X130452990Y-120655582D01*
X130389755Y-120460968D01*
X130296859Y-120278650D01*
X130264474Y-120234077D01*
X130264474Y-120234076D01*
X129585000Y-120913551D01*
X129585000Y-120907339D01*
X129557741Y-120805606D01*
X129505080Y-120714394D01*
X129430606Y-120639920D01*
X129339394Y-120587259D01*
X129237661Y-120560000D01*
X129231446Y-120560000D01*
X129910922Y-119880524D01*
X129910921Y-119880523D01*
X129866359Y-119848147D01*
X129866350Y-119848141D01*
X129773369Y-119800765D01*
X129722573Y-119752790D01*
X129705778Y-119684969D01*
X129728315Y-119618835D01*
X129773370Y-119579795D01*
X129799155Y-119566657D01*
X129866610Y-119532287D01*
X129936125Y-119481782D01*
X130032213Y-119411971D01*
X130032215Y-119411968D01*
X130032219Y-119411966D01*
X130176966Y-119267219D01*
X130176968Y-119267215D01*
X130176971Y-119267213D01*
X130229732Y-119194590D01*
X130297287Y-119101610D01*
X130390220Y-118919219D01*
X130453477Y-118724534D01*
X130485500Y-118522352D01*
X130485500Y-118317648D01*
X135504500Y-118317648D01*
X135504500Y-118522351D01*
X135536522Y-118724534D01*
X135599781Y-118919223D01*
X135650552Y-119018865D01*
X135684815Y-119086110D01*
X135692715Y-119101613D01*
X135813028Y-119267213D01*
X135957786Y-119411971D01*
X136053875Y-119481782D01*
X136123390Y-119532287D01*
X136190845Y-119566657D01*
X136216080Y-119579515D01*
X136266876Y-119627490D01*
X136283671Y-119695311D01*
X136261134Y-119761446D01*
X136216080Y-119800485D01*
X136123386Y-119847715D01*
X135957786Y-119968028D01*
X135813028Y-120112786D01*
X135692715Y-120278386D01*
X135599781Y-120460776D01*
X135536522Y-120655465D01*
X135504500Y-120857648D01*
X135504500Y-121062351D01*
X135536522Y-121264534D01*
X135599781Y-121459223D01*
X135649749Y-121557288D01*
X135692585Y-121641359D01*
X135692715Y-121641613D01*
X135813028Y-121807213D01*
X135957786Y-121951971D01*
X136123385Y-122072284D01*
X136123387Y-122072285D01*
X136123390Y-122072287D01*
X136177776Y-122099998D01*
X136216630Y-122119795D01*
X136267426Y-122167770D01*
X136284221Y-122235591D01*
X136261684Y-122301725D01*
X136216630Y-122340765D01*
X136123644Y-122388143D01*
X136079077Y-122420523D01*
X136079077Y-122420524D01*
X136758554Y-123100000D01*
X136752339Y-123100000D01*
X136650606Y-123127259D01*
X136559394Y-123179920D01*
X136484920Y-123254394D01*
X136432259Y-123345606D01*
X136405000Y-123447339D01*
X136405000Y-123453553D01*
X135725524Y-122774077D01*
X135725523Y-122774077D01*
X135693143Y-122818644D01*
X135600244Y-123000968D01*
X135537009Y-123195582D01*
X135505000Y-123397682D01*
X135505000Y-123602317D01*
X135537009Y-123804417D01*
X135600244Y-123999031D01*
X135693141Y-124181350D01*
X135693147Y-124181359D01*
X135725523Y-124225921D01*
X135725524Y-124225922D01*
X136405000Y-123546446D01*
X136405000Y-123552661D01*
X136432259Y-123654394D01*
X136484920Y-123745606D01*
X136559394Y-123820080D01*
X136650606Y-123872741D01*
X136752339Y-123900000D01*
X136758553Y-123900000D01*
X136079076Y-124579474D01*
X136123652Y-124611861D01*
X136216628Y-124659234D01*
X136267425Y-124707208D01*
X136284220Y-124775029D01*
X136261683Y-124841164D01*
X136216630Y-124880203D01*
X136123388Y-124927713D01*
X135957786Y-125048028D01*
X135813028Y-125192786D01*
X135692715Y-125358386D01*
X135599781Y-125540776D01*
X135536522Y-125735465D01*
X135504500Y-125937648D01*
X135504500Y-126142351D01*
X135536522Y-126344534D01*
X135599781Y-126539223D01*
X135613547Y-126566239D01*
X135682884Y-126702320D01*
X135692715Y-126721613D01*
X135813028Y-126887213D01*
X135957786Y-127031971D01*
X136092420Y-127129786D01*
X136123390Y-127152287D01*
X136174269Y-127178211D01*
X136216080Y-127199515D01*
X136266876Y-127247490D01*
X136283671Y-127315311D01*
X136261134Y-127381446D01*
X136216080Y-127420485D01*
X136123386Y-127467715D01*
X135957786Y-127588028D01*
X135813028Y-127732786D01*
X135692715Y-127898386D01*
X135599781Y-128080776D01*
X135536522Y-128275465D01*
X135504500Y-128477648D01*
X135504500Y-128682351D01*
X135536522Y-128884534D01*
X135599781Y-129079223D01*
X135650712Y-129179179D01*
X135692585Y-129261359D01*
X135692715Y-129261613D01*
X135813028Y-129427213D01*
X135957782Y-129571967D01*
X135957787Y-129571971D01*
X136051948Y-129640383D01*
X136094614Y-129695713D01*
X136100593Y-129765326D01*
X136067988Y-129827121D01*
X136018068Y-129858407D01*
X135935878Y-129885642D01*
X135935875Y-129885643D01*
X135786654Y-129977684D01*
X135662684Y-130101654D01*
X135570643Y-130250875D01*
X135570641Y-130250880D01*
X135515494Y-130417302D01*
X135515493Y-130417309D01*
X135505000Y-130520013D01*
X135505000Y-130870000D01*
X136489314Y-130870000D01*
X136484920Y-130874394D01*
X136432259Y-130965606D01*
X136405000Y-131067339D01*
X136405000Y-131172661D01*
X136432259Y-131274394D01*
X136484920Y-131365606D01*
X136489314Y-131370000D01*
X135505001Y-131370000D01*
X135505001Y-131719986D01*
X135515494Y-131822697D01*
X135570641Y-131989119D01*
X135570643Y-131989124D01*
X135662684Y-132138345D01*
X135786654Y-132262315D01*
X135935875Y-132354356D01*
X135935880Y-132354358D01*
X136102302Y-132409505D01*
X136102309Y-132409506D01*
X136205019Y-132419999D01*
X136554999Y-132419999D01*
X136555000Y-132419998D01*
X136555000Y-131435686D01*
X136559394Y-131440080D01*
X136650606Y-131492741D01*
X136752339Y-131520000D01*
X136857661Y-131520000D01*
X136959394Y-131492741D01*
X137050606Y-131440080D01*
X137055000Y-131435686D01*
X137055000Y-132419999D01*
X137404972Y-132419999D01*
X137404986Y-132419998D01*
X137507697Y-132409505D01*
X137674119Y-132354358D01*
X137674124Y-132354356D01*
X137823345Y-132262315D01*
X137947315Y-132138345D01*
X138039356Y-131989124D01*
X138039358Y-131989119D01*
X138094505Y-131822697D01*
X138094506Y-131822690D01*
X138104880Y-131721153D01*
X143999500Y-131721153D01*
X143999500Y-131878846D01*
X144030261Y-132033489D01*
X144030264Y-132033501D01*
X144090602Y-132179172D01*
X144090609Y-132179185D01*
X144178210Y-132310288D01*
X144178213Y-132310292D01*
X144289707Y-132421786D01*
X144289711Y-132421789D01*
X144420814Y-132509390D01*
X144420827Y-132509397D01*
X144537404Y-132557684D01*
X144566503Y-132569737D01*
X144721153Y-132600499D01*
X144721156Y-132600500D01*
X144721158Y-132600500D01*
X144878844Y-132600500D01*
X144878845Y-132600499D01*
X145033497Y-132569737D01*
X145179179Y-132509394D01*
X145310289Y-132421789D01*
X145421789Y-132310289D01*
X145509394Y-132179179D01*
X145569737Y-132033497D01*
X145600500Y-131878842D01*
X145600500Y-131721158D01*
X145600500Y-131721155D01*
X145600499Y-131721153D01*
X145580734Y-131621789D01*
X145569737Y-131566503D01*
X145569628Y-131566239D01*
X145509397Y-131420827D01*
X145509390Y-131420814D01*
X145421789Y-131289711D01*
X145421786Y-131289707D01*
X145310292Y-131178213D01*
X145310288Y-131178210D01*
X145179185Y-131090609D01*
X145179172Y-131090602D01*
X145033501Y-131030264D01*
X145033489Y-131030261D01*
X144878845Y-130999500D01*
X144878842Y-130999500D01*
X144721158Y-130999500D01*
X144721155Y-130999500D01*
X144566510Y-131030261D01*
X144566498Y-131030264D01*
X144420827Y-131090602D01*
X144420814Y-131090609D01*
X144289711Y-131178210D01*
X144289707Y-131178213D01*
X144178213Y-131289707D01*
X144178210Y-131289711D01*
X144090609Y-131420814D01*
X144090602Y-131420827D01*
X144030264Y-131566498D01*
X144030261Y-131566510D01*
X143999500Y-131721153D01*
X138104880Y-131721153D01*
X138104999Y-131719986D01*
X138105000Y-131719973D01*
X138105000Y-131370000D01*
X137120686Y-131370000D01*
X137125080Y-131365606D01*
X137177741Y-131274394D01*
X137205000Y-131172661D01*
X137205000Y-131067339D01*
X137177741Y-130965606D01*
X137152076Y-130921153D01*
X155599500Y-130921153D01*
X155599500Y-131078846D01*
X155630261Y-131233489D01*
X155630264Y-131233501D01*
X155690602Y-131379172D01*
X155690609Y-131379185D01*
X155778210Y-131510288D01*
X155778213Y-131510292D01*
X155889707Y-131621786D01*
X155889711Y-131621789D01*
X156020814Y-131709390D01*
X156020827Y-131709397D01*
X156163304Y-131768412D01*
X156166503Y-131769737D01*
X156304141Y-131797115D01*
X156321153Y-131800499D01*
X156321156Y-131800500D01*
X156321158Y-131800500D01*
X156478844Y-131800500D01*
X156478845Y-131800499D01*
X156633497Y-131769737D01*
X156750790Y-131721153D01*
X156779172Y-131709397D01*
X156779172Y-131709396D01*
X156779179Y-131709394D01*
X156910289Y-131621789D01*
X157021789Y-131510289D01*
X157109394Y-131379179D01*
X157169737Y-131233497D01*
X157200500Y-131078842D01*
X157200500Y-130921158D01*
X157200500Y-130921155D01*
X157200499Y-130921153D01*
X157174844Y-130792179D01*
X157169737Y-130766503D01*
X157135463Y-130683757D01*
X157109397Y-130620827D01*
X157109390Y-130620814D01*
X157021789Y-130489711D01*
X157021786Y-130489707D01*
X156910292Y-130378213D01*
X156910288Y-130378210D01*
X156779185Y-130290609D01*
X156779172Y-130290602D01*
X156633501Y-130230264D01*
X156633489Y-130230261D01*
X156478845Y-130199500D01*
X156478842Y-130199500D01*
X156321158Y-130199500D01*
X156321155Y-130199500D01*
X156166510Y-130230261D01*
X156166498Y-130230264D01*
X156020827Y-130290602D01*
X156020814Y-130290609D01*
X155889711Y-130378210D01*
X155889707Y-130378213D01*
X155778213Y-130489707D01*
X155778210Y-130489711D01*
X155690609Y-130620814D01*
X155690602Y-130620827D01*
X155630264Y-130766498D01*
X155630261Y-130766510D01*
X155599500Y-130921153D01*
X137152076Y-130921153D01*
X137125080Y-130874394D01*
X137120686Y-130870000D01*
X138104999Y-130870000D01*
X138104999Y-130520028D01*
X138104998Y-130520013D01*
X138094505Y-130417302D01*
X138039358Y-130250880D01*
X138039356Y-130250875D01*
X137947315Y-130101654D01*
X137823345Y-129977684D01*
X137674124Y-129885643D01*
X137674119Y-129885641D01*
X137591931Y-129858407D01*
X137534486Y-129818634D01*
X137507663Y-129754119D01*
X137519978Y-129685343D01*
X137558049Y-129640383D01*
X137652219Y-129571966D01*
X137796966Y-129427219D01*
X137796968Y-129427215D01*
X137796971Y-129427213D01*
X137849732Y-129354590D01*
X137917287Y-129261610D01*
X138010220Y-129079219D01*
X138073477Y-128884534D01*
X138105500Y-128682352D01*
X138105500Y-128477648D01*
X138092206Y-128393713D01*
X138073477Y-128275465D01*
X138013411Y-128090602D01*
X138010220Y-128080781D01*
X138010218Y-128080778D01*
X138010218Y-128080776D01*
X137917284Y-127898385D01*
X137837050Y-127787951D01*
X137796971Y-127732786D01*
X137785338Y-127721153D01*
X139199500Y-127721153D01*
X139199500Y-127878846D01*
X139230261Y-128033489D01*
X139230264Y-128033501D01*
X139290602Y-128179172D01*
X139290609Y-128179185D01*
X139378210Y-128310288D01*
X139378213Y-128310292D01*
X139489707Y-128421786D01*
X139489711Y-128421789D01*
X139620814Y-128509390D01*
X139620827Y-128509397D01*
X139736646Y-128557370D01*
X139766503Y-128569737D01*
X139921153Y-128600499D01*
X139921156Y-128600500D01*
X139921158Y-128600500D01*
X140078844Y-128600500D01*
X140078845Y-128600499D01*
X140233497Y-128569737D01*
X140379179Y-128509394D01*
X140510289Y-128421789D01*
X140621789Y-128310289D01*
X140709394Y-128179179D01*
X140769737Y-128033497D01*
X140800500Y-127878842D01*
X140800500Y-127721158D01*
X140800500Y-127721155D01*
X140800499Y-127721153D01*
X140786346Y-127650000D01*
X140769737Y-127566503D01*
X140742408Y-127500524D01*
X140709397Y-127420827D01*
X140709390Y-127420814D01*
X140621789Y-127289711D01*
X140621786Y-127289707D01*
X140510292Y-127178213D01*
X140510288Y-127178210D01*
X140379185Y-127090609D01*
X140379172Y-127090602D01*
X140233501Y-127030264D01*
X140233489Y-127030261D01*
X140078845Y-126999500D01*
X140078842Y-126999500D01*
X139921158Y-126999500D01*
X139921155Y-126999500D01*
X139766510Y-127030261D01*
X139766498Y-127030264D01*
X139620827Y-127090602D01*
X139620814Y-127090609D01*
X139489711Y-127178210D01*
X139489707Y-127178213D01*
X139378213Y-127289707D01*
X139378210Y-127289711D01*
X139290609Y-127420814D01*
X139290602Y-127420827D01*
X139230264Y-127566498D01*
X139230261Y-127566510D01*
X139199500Y-127721153D01*
X137785338Y-127721153D01*
X137652213Y-127588028D01*
X137486614Y-127467715D01*
X137462287Y-127455320D01*
X137393917Y-127420483D01*
X137343123Y-127372511D01*
X137326328Y-127304690D01*
X137348865Y-127238555D01*
X137393917Y-127199516D01*
X137486610Y-127152287D01*
X137517580Y-127129786D01*
X137652213Y-127031971D01*
X137652215Y-127031968D01*
X137652219Y-127031966D01*
X137796966Y-126887219D01*
X137796968Y-126887215D01*
X137796971Y-126887213D01*
X137883282Y-126768414D01*
X137917287Y-126721610D01*
X138010220Y-126539219D01*
X138073477Y-126344534D01*
X138105500Y-126142352D01*
X138105500Y-126098543D01*
X155999499Y-126098543D01*
X156037947Y-126291829D01*
X156037950Y-126291839D01*
X156113364Y-126473907D01*
X156113371Y-126473920D01*
X156222860Y-126637781D01*
X156222863Y-126637785D01*
X156362214Y-126777136D01*
X156362218Y-126777139D01*
X156526079Y-126886628D01*
X156526092Y-126886635D01*
X156697950Y-126957820D01*
X156708165Y-126962051D01*
X156708169Y-126962051D01*
X156708170Y-126962052D01*
X156901456Y-127000500D01*
X156901459Y-127000500D01*
X157098543Y-127000500D01*
X157228582Y-126974632D01*
X157291835Y-126962051D01*
X157472497Y-126887219D01*
X157473907Y-126886635D01*
X157473907Y-126886634D01*
X157473914Y-126886632D01*
X157637782Y-126777139D01*
X157743985Y-126670935D01*
X157805306Y-126637452D01*
X157874998Y-126642436D01*
X157930932Y-126684307D01*
X157942148Y-126702320D01*
X157944949Y-126707817D01*
X158069890Y-126879786D01*
X158220209Y-127030105D01*
X158220214Y-127030109D01*
X158384793Y-127149682D01*
X158427459Y-127205011D01*
X158433438Y-127274625D01*
X158400833Y-127336420D01*
X158384793Y-127350318D01*
X158220214Y-127469890D01*
X158220209Y-127469894D01*
X158069890Y-127620213D01*
X157944951Y-127792179D01*
X157848444Y-127981585D01*
X157782753Y-128183760D01*
X157749500Y-128393713D01*
X157749500Y-128606286D01*
X157782166Y-128812535D01*
X157782754Y-128816243D01*
X157835697Y-128979185D01*
X157848444Y-129018414D01*
X157944951Y-129207820D01*
X158069890Y-129379786D01*
X158220209Y-129530105D01*
X158220214Y-129530109D01*
X158384793Y-129649682D01*
X158427459Y-129705011D01*
X158433438Y-129774625D01*
X158400833Y-129836420D01*
X158384793Y-129850318D01*
X158220214Y-129969890D01*
X158220209Y-129969894D01*
X158069890Y-130120213D01*
X157944951Y-130292179D01*
X157848444Y-130481585D01*
X157782753Y-130683760D01*
X157749500Y-130893713D01*
X157749500Y-131106286D01*
X157778551Y-131289711D01*
X157782754Y-131316243D01*
X157845803Y-131510288D01*
X157848444Y-131518414D01*
X157944951Y-131707820D01*
X158069890Y-131879786D01*
X158209068Y-132018964D01*
X158242553Y-132080287D01*
X158237569Y-132149979D01*
X158195697Y-132205912D01*
X158186484Y-132212183D01*
X158031659Y-132307680D01*
X158031655Y-132307683D01*
X157907684Y-132431654D01*
X157815643Y-132580875D01*
X157815641Y-132580880D01*
X157760494Y-132747302D01*
X157760493Y-132747309D01*
X157750000Y-132850013D01*
X157750000Y-133250000D01*
X158820854Y-133250000D01*
X158782370Y-133316657D01*
X158750000Y-133437465D01*
X158750000Y-133562535D01*
X158782370Y-133683343D01*
X158820854Y-133750000D01*
X157750001Y-133750000D01*
X157750001Y-134149986D01*
X157760494Y-134252697D01*
X157815641Y-134419119D01*
X157815643Y-134419124D01*
X157907684Y-134568345D01*
X158031654Y-134692315D01*
X158180875Y-134784356D01*
X158180880Y-134784358D01*
X158347302Y-134839505D01*
X158347309Y-134839506D01*
X158450019Y-134849999D01*
X158974999Y-134849999D01*
X158975000Y-134849998D01*
X158975000Y-133904145D01*
X159041657Y-133942630D01*
X159162465Y-133975000D01*
X159287535Y-133975000D01*
X159408343Y-133942630D01*
X159475000Y-133904145D01*
X159475000Y-134849999D01*
X159999972Y-134849999D01*
X159999986Y-134849998D01*
X160102697Y-134839505D01*
X160269119Y-134784358D01*
X160269124Y-134784356D01*
X160418345Y-134692315D01*
X160542315Y-134568345D01*
X160634356Y-134419124D01*
X160634358Y-134419119D01*
X160689505Y-134252697D01*
X160689506Y-134252690D01*
X160699999Y-134149986D01*
X160700000Y-134149973D01*
X160700000Y-133750000D01*
X159629146Y-133750000D01*
X159667630Y-133683343D01*
X159700000Y-133562535D01*
X159700000Y-133437465D01*
X159667630Y-133316657D01*
X159629146Y-133250000D01*
X160699999Y-133250000D01*
X160699999Y-132850028D01*
X160699998Y-132850013D01*
X160689505Y-132747302D01*
X160634358Y-132580880D01*
X160634356Y-132580875D01*
X160542315Y-132431654D01*
X160418345Y-132307684D01*
X160263515Y-132212184D01*
X160216791Y-132160236D01*
X160205568Y-132091273D01*
X160233412Y-132027191D01*
X160240909Y-132018986D01*
X160380104Y-131879792D01*
X160381554Y-131877797D01*
X160463402Y-131765141D01*
X160505051Y-131707816D01*
X160601557Y-131518412D01*
X160667246Y-131316243D01*
X160688230Y-131183760D01*
X160700500Y-131106287D01*
X160700500Y-130893712D01*
X160686681Y-130806460D01*
X160677738Y-130750000D01*
X166402970Y-130750000D01*
X167345854Y-130750000D01*
X167307370Y-130816657D01*
X167275000Y-130937465D01*
X167275000Y-131062535D01*
X167307370Y-131183343D01*
X167345854Y-131250000D01*
X166402970Y-131250000D01*
X166433242Y-131441127D01*
X166433242Y-131441130D01*
X166498904Y-131643217D01*
X166595379Y-131832557D01*
X166720272Y-132004459D01*
X166720276Y-132004464D01*
X166870535Y-132154723D01*
X166870540Y-132154727D01*
X167042442Y-132279620D01*
X167231782Y-132376095D01*
X167433871Y-132441757D01*
X167500000Y-132452231D01*
X167500000Y-131404145D01*
X167566657Y-131442630D01*
X167687465Y-131475000D01*
X167812535Y-131475000D01*
X167933343Y-131442630D01*
X168000000Y-131404145D01*
X168000000Y-132452230D01*
X168066126Y-132441757D01*
X168066129Y-132441757D01*
X168268217Y-132376095D01*
X168457557Y-132279620D01*
X168629459Y-132154727D01*
X168629464Y-132154723D01*
X168779721Y-132004466D01*
X168899371Y-131839781D01*
X168954701Y-131797115D01*
X169024314Y-131791136D01*
X169086110Y-131823741D01*
X169100008Y-131839781D01*
X169219890Y-132004785D01*
X169219894Y-132004790D01*
X169370213Y-132155109D01*
X169542179Y-132280048D01*
X169542181Y-132280049D01*
X169542184Y-132280051D01*
X169731588Y-132376557D01*
X169933757Y-132442246D01*
X170143713Y-132475500D01*
X170143714Y-132475500D01*
X170356286Y-132475500D01*
X170356287Y-132475500D01*
X170566243Y-132442246D01*
X170768412Y-132376557D01*
X170957816Y-132280051D01*
X171023562Y-132232284D01*
X171129786Y-132155109D01*
X171129788Y-132155106D01*
X171129792Y-132155104D01*
X171280104Y-132004792D01*
X171399991Y-131839779D01*
X171455320Y-131797115D01*
X171524933Y-131791136D01*
X171586729Y-131823741D01*
X171600627Y-131839781D01*
X171720272Y-132004459D01*
X171720276Y-132004464D01*
X171870535Y-132154723D01*
X171870540Y-132154727D01*
X172042442Y-132279620D01*
X172231782Y-132376095D01*
X172433871Y-132441757D01*
X172500000Y-132452231D01*
X172500000Y-131404145D01*
X172566657Y-131442630D01*
X172687465Y-131475000D01*
X172812535Y-131475000D01*
X172933343Y-131442630D01*
X173000000Y-131404145D01*
X173000000Y-132452230D01*
X173066126Y-132441757D01*
X173066129Y-132441757D01*
X173268217Y-132376095D01*
X173457557Y-132279620D01*
X173629459Y-132154727D01*
X173629464Y-132154723D01*
X173779721Y-132004466D01*
X173899371Y-131839781D01*
X173954701Y-131797115D01*
X174024314Y-131791136D01*
X174086110Y-131823741D01*
X174100008Y-131839781D01*
X174219890Y-132004785D01*
X174219894Y-132004790D01*
X174370213Y-132155109D01*
X174542179Y-132280048D01*
X174542181Y-132280049D01*
X174542184Y-132280051D01*
X174731588Y-132376557D01*
X174933757Y-132442246D01*
X175143713Y-132475500D01*
X175143714Y-132475500D01*
X175356286Y-132475500D01*
X175356287Y-132475500D01*
X175566243Y-132442246D01*
X175768412Y-132376557D01*
X175957816Y-132280051D01*
X176096647Y-132179185D01*
X176129784Y-132155110D01*
X176129784Y-132155109D01*
X176129792Y-132155104D01*
X176268604Y-132016291D01*
X176329923Y-131982809D01*
X176399615Y-131987793D01*
X176455549Y-132029664D01*
X176461821Y-132038878D01*
X176465185Y-132044333D01*
X176465186Y-132044334D01*
X176557288Y-132193656D01*
X176681344Y-132317712D01*
X176830666Y-132409814D01*
X176997203Y-132464999D01*
X177099991Y-132475500D01*
X178400008Y-132475499D01*
X178502797Y-132464999D01*
X178669334Y-132409814D01*
X178818656Y-132317712D01*
X178942712Y-132193656D01*
X179034814Y-132044334D01*
X179089999Y-131877797D01*
X179100500Y-131775009D01*
X179100499Y-130224992D01*
X179099978Y-130219896D01*
X179089999Y-130122203D01*
X179089998Y-130122200D01*
X179072152Y-130068345D01*
X179034814Y-129955666D01*
X178942712Y-129806344D01*
X178818656Y-129682288D01*
X178669334Y-129590186D01*
X178502797Y-129535001D01*
X178502795Y-129535000D01*
X178400010Y-129524500D01*
X177099998Y-129524500D01*
X177099981Y-129524501D01*
X176997203Y-129535000D01*
X176997200Y-129535001D01*
X176830668Y-129590185D01*
X176830663Y-129590187D01*
X176681342Y-129682289D01*
X176557289Y-129806342D01*
X176461821Y-129961121D01*
X176409873Y-130007845D01*
X176340910Y-130019068D01*
X176276828Y-129991224D01*
X176268601Y-129983705D01*
X176129786Y-129844890D01*
X175957820Y-129719951D01*
X175768414Y-129623444D01*
X175768413Y-129623443D01*
X175768412Y-129623443D01*
X175566243Y-129557754D01*
X175566241Y-129557753D01*
X175566240Y-129557753D01*
X175404957Y-129532208D01*
X175356287Y-129524500D01*
X175143713Y-129524500D01*
X175095042Y-129532208D01*
X174933760Y-129557753D01*
X174731585Y-129623444D01*
X174542179Y-129719951D01*
X174370213Y-129844890D01*
X174219894Y-129995209D01*
X174219890Y-129995214D01*
X174100008Y-130160218D01*
X174044678Y-130202884D01*
X173975065Y-130208863D01*
X173913270Y-130176257D01*
X173899372Y-130160218D01*
X173779727Y-129995540D01*
X173779723Y-129995535D01*
X173629464Y-129845276D01*
X173629459Y-129845272D01*
X173457557Y-129720379D01*
X173268215Y-129623903D01*
X173066124Y-129558241D01*
X173000000Y-129547768D01*
X173000000Y-130595854D01*
X172933343Y-130557370D01*
X172812535Y-130525000D01*
X172687465Y-130525000D01*
X172566657Y-130557370D01*
X172500000Y-130595854D01*
X172500000Y-129547768D01*
X172499999Y-129547768D01*
X172433875Y-129558241D01*
X172231784Y-129623903D01*
X172042442Y-129720379D01*
X171870540Y-129845272D01*
X171870535Y-129845276D01*
X171720276Y-129995535D01*
X171720272Y-129995540D01*
X171600627Y-130160218D01*
X171545297Y-130202884D01*
X171475684Y-130208863D01*
X171413889Y-130176257D01*
X171399991Y-130160218D01*
X171280109Y-129995214D01*
X171280105Y-129995209D01*
X171129786Y-129844890D01*
X170957820Y-129719951D01*
X170768414Y-129623444D01*
X170768413Y-129623443D01*
X170768412Y-129623443D01*
X170566243Y-129557754D01*
X170566241Y-129557753D01*
X170566240Y-129557753D01*
X170404957Y-129532208D01*
X170356287Y-129524500D01*
X170143713Y-129524500D01*
X170095042Y-129532208D01*
X169933760Y-129557753D01*
X169731585Y-129623444D01*
X169542179Y-129719951D01*
X169370213Y-129844890D01*
X169219894Y-129995209D01*
X169219890Y-129995214D01*
X169100008Y-130160218D01*
X169044678Y-130202884D01*
X168975065Y-130208863D01*
X168913270Y-130176257D01*
X168899372Y-130160218D01*
X168779727Y-129995540D01*
X168779723Y-129995535D01*
X168629464Y-129845276D01*
X168629459Y-129845272D01*
X168457557Y-129720379D01*
X168268215Y-129623903D01*
X168066124Y-129558241D01*
X168000000Y-129547768D01*
X168000000Y-130595854D01*
X167933343Y-130557370D01*
X167812535Y-130525000D01*
X167687465Y-130525000D01*
X167566657Y-130557370D01*
X167500000Y-130595854D01*
X167500000Y-129547768D01*
X167499999Y-129547768D01*
X167433875Y-129558241D01*
X167231784Y-129623903D01*
X167042442Y-129720379D01*
X166870540Y-129845272D01*
X166870535Y-129845276D01*
X166720276Y-129995535D01*
X166720272Y-129995540D01*
X166595379Y-130167442D01*
X166498904Y-130356782D01*
X166433242Y-130558869D01*
X166433242Y-130558872D01*
X166402970Y-130750000D01*
X160677738Y-130750000D01*
X160667246Y-130683760D01*
X160667246Y-130683757D01*
X160601557Y-130481588D01*
X160505051Y-130292184D01*
X160505049Y-130292181D01*
X160505048Y-130292179D01*
X160380109Y-130120213D01*
X160229792Y-129969896D01*
X160178670Y-129932754D01*
X160065204Y-129850316D01*
X160022540Y-129794989D01*
X160016561Y-129725376D01*
X160049166Y-129663580D01*
X160065199Y-129649686D01*
X160229792Y-129530104D01*
X160380104Y-129379792D01*
X160380106Y-129379788D01*
X160380109Y-129379786D01*
X160505048Y-129207820D01*
X160505047Y-129207820D01*
X160505051Y-129207816D01*
X160601557Y-129018412D01*
X160667246Y-128816243D01*
X160700500Y-128606287D01*
X160700500Y-128521153D01*
X168599500Y-128521153D01*
X168599500Y-128678846D01*
X168630261Y-128833489D01*
X168630264Y-128833501D01*
X168690602Y-128979172D01*
X168690609Y-128979185D01*
X168778210Y-129110288D01*
X168778213Y-129110292D01*
X168889707Y-129221786D01*
X168889711Y-129221789D01*
X169020814Y-129309390D01*
X169020827Y-129309397D01*
X169166498Y-129369735D01*
X169166503Y-129369737D01*
X169321153Y-129400499D01*
X169321156Y-129400500D01*
X169321158Y-129400500D01*
X169478844Y-129400500D01*
X169478845Y-129400499D01*
X169633497Y-129369737D01*
X169779179Y-129309394D01*
X169910289Y-129221789D01*
X170021789Y-129110289D01*
X170109394Y-128979179D01*
X170169737Y-128833497D01*
X170200500Y-128678842D01*
X170200500Y-128521158D01*
X170200500Y-128521155D01*
X170200499Y-128521153D01*
X170180734Y-128421789D01*
X170169737Y-128366503D01*
X170146452Y-128310288D01*
X170109397Y-128220827D01*
X170109390Y-128220814D01*
X170021789Y-128089711D01*
X170021786Y-128089707D01*
X169910292Y-127978213D01*
X169910288Y-127978210D01*
X169779185Y-127890609D01*
X169779172Y-127890602D01*
X169633501Y-127830264D01*
X169633489Y-127830261D01*
X169478845Y-127799500D01*
X169478842Y-127799500D01*
X169321158Y-127799500D01*
X169321155Y-127799500D01*
X169166510Y-127830261D01*
X169166498Y-127830264D01*
X169020827Y-127890602D01*
X169020814Y-127890609D01*
X168889711Y-127978210D01*
X168889707Y-127978213D01*
X168778213Y-128089707D01*
X168778210Y-128089711D01*
X168690609Y-128220814D01*
X168690602Y-128220827D01*
X168630264Y-128366498D01*
X168630261Y-128366510D01*
X168599500Y-128521153D01*
X160700500Y-128521153D01*
X160700500Y-128393713D01*
X160667246Y-128183757D01*
X160601557Y-127981588D01*
X160505051Y-127792184D01*
X160505049Y-127792181D01*
X160505048Y-127792179D01*
X160380109Y-127620213D01*
X160229792Y-127469896D01*
X160209730Y-127455320D01*
X160065204Y-127350316D01*
X160022540Y-127294989D01*
X160016561Y-127225376D01*
X160049166Y-127163580D01*
X160065199Y-127149686D01*
X160229792Y-127030104D01*
X160380104Y-126879792D01*
X160380106Y-126879788D01*
X160380109Y-126879786D01*
X160505048Y-126707820D01*
X160505050Y-126707817D01*
X160505051Y-126707816D01*
X160601557Y-126518412D01*
X160667246Y-126316243D01*
X160700500Y-126106287D01*
X160700500Y-125893713D01*
X160667246Y-125683757D01*
X160601557Y-125481588D01*
X160505051Y-125292184D01*
X160505049Y-125292181D01*
X160505048Y-125292179D01*
X160380109Y-125120213D01*
X160229786Y-124969890D01*
X160057820Y-124844951D01*
X159868414Y-124748444D01*
X159868413Y-124748443D01*
X159868412Y-124748443D01*
X159666243Y-124682754D01*
X159666241Y-124682753D01*
X159666240Y-124682753D01*
X159504957Y-124657208D01*
X159456287Y-124649500D01*
X158993713Y-124649500D01*
X158945042Y-124657208D01*
X158783760Y-124682753D01*
X158581585Y-124748444D01*
X158392179Y-124844951D01*
X158220213Y-124969890D01*
X158069890Y-125120213D01*
X157944948Y-125292183D01*
X157942146Y-125297683D01*
X157894168Y-125348476D01*
X157826346Y-125365267D01*
X157760213Y-125342725D01*
X157743984Y-125329062D01*
X157637785Y-125222863D01*
X157637781Y-125222860D01*
X157473920Y-125113371D01*
X157473907Y-125113364D01*
X157291839Y-125037950D01*
X157291829Y-125037947D01*
X157098543Y-124999500D01*
X157098541Y-124999500D01*
X156901459Y-124999500D01*
X156901457Y-124999500D01*
X156708170Y-125037947D01*
X156708160Y-125037950D01*
X156526092Y-125113364D01*
X156526079Y-125113371D01*
X156362218Y-125222860D01*
X156362214Y-125222863D01*
X156222863Y-125362214D01*
X156222860Y-125362218D01*
X156113371Y-125526079D01*
X156113364Y-125526092D01*
X156037950Y-125708160D01*
X156037947Y-125708170D01*
X155999500Y-125901456D01*
X155999500Y-125901459D01*
X155999500Y-126098541D01*
X155999500Y-126098543D01*
X155999499Y-126098543D01*
X138105500Y-126098543D01*
X138105500Y-125937648D01*
X138073477Y-125735466D01*
X138064606Y-125708165D01*
X138044127Y-125645137D01*
X138010220Y-125540781D01*
X138010218Y-125540778D01*
X138010218Y-125540776D01*
X137976401Y-125474407D01*
X137917287Y-125358390D01*
X137895979Y-125329062D01*
X137796971Y-125192786D01*
X137652213Y-125048028D01*
X137486611Y-124927713D01*
X137393369Y-124880203D01*
X137342574Y-124832229D01*
X137325779Y-124764407D01*
X137348317Y-124698273D01*
X137393371Y-124659234D01*
X137486346Y-124611861D01*
X137486347Y-124611861D01*
X137530921Y-124579474D01*
X136851447Y-123900000D01*
X136857661Y-123900000D01*
X136959394Y-123872741D01*
X137050606Y-123820080D01*
X137125080Y-123745606D01*
X137177741Y-123654394D01*
X137205000Y-123552661D01*
X137205000Y-123546447D01*
X137884474Y-124225921D01*
X137916859Y-124181349D01*
X138009755Y-123999031D01*
X138072990Y-123804417D01*
X138105000Y-123602317D01*
X138105000Y-123397682D01*
X138072990Y-123195582D01*
X138009755Y-123000968D01*
X137916859Y-122818650D01*
X137884474Y-122774077D01*
X137884474Y-122774076D01*
X137205000Y-123453551D01*
X137205000Y-123447339D01*
X137177741Y-123345606D01*
X137125080Y-123254394D01*
X137050606Y-123179920D01*
X136959394Y-123127259D01*
X136857661Y-123100000D01*
X136851446Y-123100000D01*
X137530922Y-122420524D01*
X137530921Y-122420523D01*
X137486359Y-122388147D01*
X137486350Y-122388141D01*
X137393369Y-122340765D01*
X137342573Y-122292790D01*
X137325778Y-122224969D01*
X137348315Y-122158835D01*
X137393370Y-122119795D01*
X137432224Y-122099998D01*
X137486610Y-122072287D01*
X137589954Y-121997204D01*
X137652213Y-121951971D01*
X137652215Y-121951968D01*
X137652219Y-121951966D01*
X137796966Y-121807219D01*
X137796968Y-121807215D01*
X137796971Y-121807213D01*
X137849732Y-121734590D01*
X137917287Y-121641610D01*
X138010220Y-121459219D01*
X138073477Y-121264534D01*
X138105500Y-121062352D01*
X138105500Y-120857648D01*
X138093191Y-120779931D01*
X138073477Y-120655465D01*
X138014840Y-120475000D01*
X138010220Y-120460781D01*
X138010218Y-120460778D01*
X138010218Y-120460776D01*
X137969108Y-120380095D01*
X137917287Y-120278390D01*
X137885092Y-120234077D01*
X137796971Y-120112786D01*
X137652213Y-119968028D01*
X137486614Y-119847715D01*
X137417569Y-119812535D01*
X137393917Y-119800483D01*
X137343123Y-119752511D01*
X137326328Y-119684690D01*
X137348865Y-119618555D01*
X137393917Y-119579516D01*
X137486610Y-119532287D01*
X137556125Y-119481782D01*
X137652213Y-119411971D01*
X137652215Y-119411968D01*
X137652219Y-119411966D01*
X137796966Y-119267219D01*
X137796968Y-119267215D01*
X137796971Y-119267213D01*
X137849732Y-119194590D01*
X137917287Y-119101610D01*
X138010220Y-118919219D01*
X138073477Y-118724534D01*
X138105500Y-118522352D01*
X138105500Y-118317648D01*
X138085699Y-118192630D01*
X138073477Y-118115465D01*
X138035960Y-118000000D01*
X138010220Y-117920781D01*
X138010218Y-117920778D01*
X138010218Y-117920776D01*
X137956953Y-117816239D01*
X137917287Y-117738390D01*
X137880288Y-117687465D01*
X137796971Y-117572786D01*
X137652213Y-117428028D01*
X137486611Y-117307713D01*
X137393369Y-117260203D01*
X137342574Y-117212229D01*
X137325779Y-117144407D01*
X137348317Y-117078273D01*
X137393371Y-117039234D01*
X137486346Y-116991861D01*
X137486347Y-116991861D01*
X137530921Y-116959474D01*
X136851447Y-116280000D01*
X136857661Y-116280000D01*
X136959394Y-116252741D01*
X137050606Y-116200080D01*
X137125080Y-116125606D01*
X137177741Y-116034394D01*
X137205000Y-115932661D01*
X137205000Y-115926447D01*
X137884474Y-116605921D01*
X137916859Y-116561349D01*
X138009755Y-116379031D01*
X138072990Y-116184417D01*
X138105000Y-115982317D01*
X138105000Y-115777682D01*
X138072990Y-115575582D01*
X138009755Y-115380968D01*
X137916859Y-115198650D01*
X137884474Y-115154077D01*
X137884474Y-115154076D01*
X137205000Y-115833551D01*
X137205000Y-115827339D01*
X137177741Y-115725606D01*
X137125080Y-115634394D01*
X137050606Y-115559920D01*
X136959394Y-115507259D01*
X136857661Y-115480000D01*
X136851446Y-115480000D01*
X137530922Y-114800524D01*
X137530921Y-114800523D01*
X137486359Y-114768147D01*
X137486350Y-114768141D01*
X137349757Y-114698543D01*
X155399499Y-114698543D01*
X155437947Y-114891829D01*
X155437950Y-114891839D01*
X155513364Y-115073907D01*
X155513371Y-115073920D01*
X155622860Y-115237781D01*
X155622863Y-115237785D01*
X155762214Y-115377136D01*
X155762218Y-115377139D01*
X155926079Y-115486628D01*
X155926092Y-115486635D01*
X156022206Y-115526446D01*
X156108165Y-115562051D01*
X156108169Y-115562051D01*
X156108170Y-115562052D01*
X156301456Y-115600500D01*
X156301459Y-115600500D01*
X156498543Y-115600500D01*
X156628582Y-115574632D01*
X156691835Y-115562051D01*
X156873914Y-115486632D01*
X157037782Y-115377139D01*
X157176161Y-115238759D01*
X157237482Y-115205276D01*
X157307174Y-115210260D01*
X157363108Y-115252131D01*
X157374326Y-115270147D01*
X157430695Y-115380776D01*
X157469817Y-115457557D01*
X157469951Y-115457819D01*
X157594890Y-115629786D01*
X157745209Y-115780105D01*
X157745214Y-115780109D01*
X157909793Y-115899682D01*
X157952459Y-115955011D01*
X157958438Y-116024625D01*
X157925833Y-116086420D01*
X157909793Y-116100318D01*
X157745214Y-116219890D01*
X157745209Y-116219894D01*
X157594890Y-116370213D01*
X157469951Y-116542179D01*
X157373444Y-116731585D01*
X157373443Y-116731587D01*
X157373443Y-116731588D01*
X157358643Y-116777139D01*
X157307753Y-116933760D01*
X157274500Y-117143713D01*
X157274500Y-117356286D01*
X157301917Y-117529394D01*
X157307754Y-117566243D01*
X157363688Y-117738390D01*
X157373444Y-117768414D01*
X157469951Y-117957820D01*
X157594890Y-118129786D01*
X157734068Y-118268964D01*
X157767553Y-118330287D01*
X157762569Y-118399979D01*
X157720697Y-118455912D01*
X157711484Y-118462183D01*
X157556659Y-118557680D01*
X157556655Y-118557683D01*
X157432684Y-118681654D01*
X157340643Y-118830875D01*
X157340641Y-118830880D01*
X157285494Y-118997302D01*
X157285493Y-118997309D01*
X157275001Y-119100008D01*
X157275000Y-119100026D01*
X157275000Y-119500000D01*
X158345854Y-119500000D01*
X158307370Y-119566657D01*
X158275000Y-119687465D01*
X158275000Y-119812535D01*
X158307370Y-119933343D01*
X158345854Y-120000000D01*
X157275001Y-120000000D01*
X157275001Y-120399986D01*
X157285494Y-120502697D01*
X157340641Y-120669119D01*
X157340643Y-120669124D01*
X157432684Y-120818345D01*
X157556654Y-120942315D01*
X157705875Y-121034356D01*
X157705880Y-121034358D01*
X157872302Y-121089505D01*
X157872309Y-121089506D01*
X157975019Y-121099999D01*
X158499999Y-121099999D01*
X158500000Y-121099998D01*
X158500000Y-120154145D01*
X158566657Y-120192630D01*
X158687465Y-120225000D01*
X158812535Y-120225000D01*
X158933343Y-120192630D01*
X159000000Y-120154145D01*
X159000000Y-121099999D01*
X159524972Y-121099999D01*
X159524986Y-121099998D01*
X159627697Y-121089505D01*
X159794119Y-121034358D01*
X159794124Y-121034356D01*
X159943345Y-120942315D01*
X160067315Y-120818345D01*
X160159356Y-120669124D01*
X160159358Y-120669119D01*
X160214505Y-120502697D01*
X160214506Y-120502690D01*
X160224999Y-120399986D01*
X160225000Y-120399973D01*
X160225000Y-120000000D01*
X159154146Y-120000000D01*
X159192630Y-119933343D01*
X159225000Y-119812535D01*
X159225000Y-119687465D01*
X159192630Y-119566657D01*
X159154146Y-119500000D01*
X160224999Y-119500000D01*
X160224999Y-119100028D01*
X160224998Y-119100008D01*
X160214505Y-118997302D01*
X160159358Y-118830880D01*
X160159356Y-118830875D01*
X160067315Y-118681654D01*
X159943345Y-118557684D01*
X159788515Y-118462184D01*
X159741791Y-118410236D01*
X159730568Y-118341273D01*
X159758412Y-118277191D01*
X159765909Y-118268986D01*
X159905104Y-118129792D01*
X159915513Y-118115466D01*
X160030048Y-117957820D01*
X160030047Y-117957820D01*
X160030051Y-117957816D01*
X160126557Y-117768412D01*
X160192246Y-117566243D01*
X160225500Y-117356287D01*
X160225500Y-117143713D01*
X160192246Y-116933757D01*
X160126557Y-116731588D01*
X160030051Y-116542184D01*
X160030049Y-116542181D01*
X160030048Y-116542179D01*
X159905109Y-116370213D01*
X159754792Y-116219896D01*
X159701729Y-116181344D01*
X159590204Y-116100316D01*
X159547540Y-116044989D01*
X159541561Y-115975376D01*
X159574166Y-115913580D01*
X159590199Y-115899686D01*
X159754792Y-115780104D01*
X159905104Y-115629792D01*
X159905106Y-115629788D01*
X159905109Y-115629786D01*
X160030048Y-115457820D01*
X160030049Y-115457819D01*
X160030051Y-115457816D01*
X160126557Y-115268412D01*
X160167074Y-115143713D01*
X175524500Y-115143713D01*
X175524500Y-115356287D01*
X175528409Y-115380968D01*
X175557089Y-115562049D01*
X175557754Y-115566243D01*
X175623416Y-115768330D01*
X175623444Y-115768414D01*
X175719951Y-115957820D01*
X175844890Y-116129786D01*
X175995209Y-116280105D01*
X175995214Y-116280109D01*
X176160218Y-116399991D01*
X176202884Y-116455320D01*
X176208863Y-116524934D01*
X176176258Y-116586729D01*
X176160218Y-116600627D01*
X175995540Y-116720272D01*
X175995535Y-116720276D01*
X175845276Y-116870535D01*
X175845272Y-116870540D01*
X175720379Y-117042442D01*
X175623904Y-117231782D01*
X175558242Y-117433870D01*
X175558242Y-117433873D01*
X175547769Y-117500000D01*
X176595854Y-117500000D01*
X176557370Y-117566657D01*
X176525000Y-117687465D01*
X176525000Y-117812535D01*
X176557370Y-117933343D01*
X176595854Y-118000000D01*
X175547769Y-118000000D01*
X175558242Y-118066126D01*
X175558242Y-118066129D01*
X175623904Y-118268217D01*
X175720379Y-118457557D01*
X175845272Y-118629459D01*
X175845276Y-118629464D01*
X175995535Y-118779723D01*
X175995540Y-118779727D01*
X176160218Y-118899372D01*
X176202884Y-118954701D01*
X176208863Y-119024315D01*
X176176258Y-119086110D01*
X176160218Y-119100008D01*
X175995214Y-119219890D01*
X175995209Y-119219894D01*
X175844890Y-119370213D01*
X175719951Y-119542179D01*
X175623444Y-119731585D01*
X175557753Y-119933760D01*
X175524500Y-120143713D01*
X175524500Y-120356286D01*
X175541049Y-120460776D01*
X175557754Y-120566243D01*
X175605891Y-120714394D01*
X175623444Y-120768414D01*
X175719951Y-120957820D01*
X175844890Y-121129786D01*
X175983705Y-121268601D01*
X176017190Y-121329924D01*
X176012206Y-121399616D01*
X175970334Y-121455549D01*
X175961121Y-121461821D01*
X175806342Y-121557289D01*
X175682289Y-121681342D01*
X175590187Y-121830663D01*
X175590186Y-121830666D01*
X175535001Y-121997203D01*
X175535001Y-121997204D01*
X175535000Y-121997204D01*
X175524500Y-122099983D01*
X175524500Y-123400001D01*
X175524501Y-123400018D01*
X175535000Y-123502796D01*
X175535001Y-123502799D01*
X175567990Y-123602351D01*
X175590186Y-123669334D01*
X175682288Y-123818656D01*
X175806344Y-123942712D01*
X175955666Y-124034814D01*
X176122203Y-124089999D01*
X176224991Y-124100500D01*
X177775008Y-124100499D01*
X177877797Y-124089999D01*
X178044334Y-124034814D01*
X178193656Y-123942712D01*
X178317712Y-123818656D01*
X178409814Y-123669334D01*
X178464999Y-123502797D01*
X178475500Y-123400009D01*
X178475499Y-122099992D01*
X178464999Y-121997203D01*
X178409814Y-121830666D01*
X178317712Y-121681344D01*
X178193656Y-121557288D01*
X178044334Y-121465186D01*
X178044333Y-121465185D01*
X178038878Y-121461821D01*
X177992154Y-121409873D01*
X177980931Y-121340910D01*
X178008775Y-121276828D01*
X178016272Y-121268623D01*
X178155104Y-121129792D01*
X178176751Y-121099998D01*
X178240204Y-121012661D01*
X178280051Y-120957816D01*
X178376557Y-120768412D01*
X178442246Y-120566243D01*
X178475500Y-120356287D01*
X178475500Y-120143713D01*
X178442246Y-119933757D01*
X178376557Y-119731588D01*
X178280051Y-119542184D01*
X178280049Y-119542181D01*
X178280048Y-119542179D01*
X178155109Y-119370213D01*
X178004790Y-119219894D01*
X178004785Y-119219890D01*
X177839781Y-119100008D01*
X177797115Y-119044678D01*
X177791136Y-118975065D01*
X177823741Y-118913270D01*
X177839781Y-118899371D01*
X178004466Y-118779721D01*
X178154723Y-118629464D01*
X178154727Y-118629459D01*
X178279620Y-118457557D01*
X178376095Y-118268217D01*
X178441757Y-118066129D01*
X178441757Y-118066126D01*
X178452231Y-118000000D01*
X177404146Y-118000000D01*
X177442630Y-117933343D01*
X177475000Y-117812535D01*
X177475000Y-117687465D01*
X177442630Y-117566657D01*
X177404146Y-117500000D01*
X178452231Y-117500000D01*
X178441757Y-117433873D01*
X178441757Y-117433870D01*
X178376095Y-117231782D01*
X178279620Y-117042442D01*
X178154727Y-116870540D01*
X178154723Y-116870535D01*
X178004464Y-116720276D01*
X178004459Y-116720272D01*
X177839781Y-116600627D01*
X177797115Y-116545297D01*
X177791136Y-116475684D01*
X177823741Y-116413889D01*
X177839776Y-116399994D01*
X178004792Y-116280104D01*
X178155104Y-116129792D01*
X178155106Y-116129788D01*
X178155109Y-116129786D01*
X178280048Y-115957820D01*
X178280047Y-115957820D01*
X178280051Y-115957816D01*
X178376557Y-115768412D01*
X178442246Y-115566243D01*
X178475500Y-115356287D01*
X178475500Y-115143713D01*
X178442246Y-114933757D01*
X178376557Y-114731588D01*
X178280051Y-114542184D01*
X178280049Y-114542181D01*
X178280048Y-114542179D01*
X178155109Y-114370213D01*
X178004786Y-114219890D01*
X177832820Y-114094951D01*
X177643414Y-113998444D01*
X177643413Y-113998443D01*
X177643412Y-113998443D01*
X177441243Y-113932754D01*
X177441241Y-113932753D01*
X177441240Y-113932753D01*
X177279957Y-113907208D01*
X177231287Y-113899500D01*
X176768713Y-113899500D01*
X176720042Y-113907208D01*
X176558760Y-113932753D01*
X176356585Y-113998444D01*
X176167179Y-114094951D01*
X175995213Y-114219890D01*
X175844890Y-114370213D01*
X175719951Y-114542179D01*
X175623444Y-114731585D01*
X175557753Y-114933760D01*
X175534774Y-115078844D01*
X175524500Y-115143713D01*
X160167074Y-115143713D01*
X160192246Y-115066243D01*
X160225500Y-114856287D01*
X160225500Y-114643713D01*
X160192246Y-114433757D01*
X160126557Y-114231588D01*
X160030051Y-114042184D01*
X160030049Y-114042181D01*
X160030048Y-114042179D01*
X159905109Y-113870213D01*
X159754786Y-113719890D01*
X159582820Y-113594951D01*
X159393414Y-113498444D01*
X159393413Y-113498443D01*
X159393412Y-113498443D01*
X159191243Y-113432754D01*
X159191241Y-113432753D01*
X159191240Y-113432753D01*
X159029957Y-113407208D01*
X158981287Y-113399500D01*
X158518713Y-113399500D01*
X158470042Y-113407208D01*
X158308760Y-113432753D01*
X158106585Y-113498444D01*
X157917179Y-113594951D01*
X157745213Y-113719890D01*
X157594890Y-113870213D01*
X157469948Y-114042183D01*
X157462428Y-114056942D01*
X157414451Y-114107736D01*
X157346630Y-114124528D01*
X157280496Y-114101987D01*
X157248845Y-114069534D01*
X157177139Y-113962218D01*
X157177137Y-113962215D01*
X157037785Y-113822863D01*
X157037781Y-113822860D01*
X156873920Y-113713371D01*
X156873907Y-113713364D01*
X156691839Y-113637950D01*
X156691829Y-113637947D01*
X156498543Y-113599500D01*
X156498541Y-113599500D01*
X156301459Y-113599500D01*
X156301457Y-113599500D01*
X156108170Y-113637947D01*
X156108160Y-113637950D01*
X155926092Y-113713364D01*
X155926079Y-113713371D01*
X155762218Y-113822860D01*
X155762214Y-113822863D01*
X155622863Y-113962214D01*
X155622860Y-113962218D01*
X155513371Y-114126079D01*
X155513364Y-114126092D01*
X155437950Y-114308160D01*
X155437947Y-114308170D01*
X155399500Y-114501456D01*
X155399500Y-114501459D01*
X155399500Y-114698541D01*
X155399500Y-114698543D01*
X155399499Y-114698543D01*
X137349757Y-114698543D01*
X137304031Y-114675244D01*
X137113382Y-114613298D01*
X137113381Y-114613297D01*
X137109419Y-114612010D01*
X136907317Y-114580000D01*
X136702683Y-114580000D01*
X136500582Y-114612009D01*
X136305968Y-114675244D01*
X136123644Y-114768143D01*
X136079077Y-114800523D01*
X136079077Y-114800524D01*
X136758554Y-115480000D01*
X136752339Y-115480000D01*
X136650606Y-115507259D01*
X136559394Y-115559920D01*
X136484920Y-115634394D01*
X136432259Y-115725606D01*
X136405000Y-115827339D01*
X136405000Y-115833553D01*
X135725524Y-115154077D01*
X135725523Y-115154077D01*
X135693143Y-115198644D01*
X135600244Y-115380968D01*
X135537009Y-115575582D01*
X135505000Y-115777682D01*
X135505000Y-115982317D01*
X135537009Y-116184417D01*
X135600244Y-116379031D01*
X135693141Y-116561350D01*
X135693147Y-116561359D01*
X135725523Y-116605921D01*
X135725524Y-116605922D01*
X136405000Y-115926446D01*
X136405000Y-115932661D01*
X136432259Y-116034394D01*
X136484920Y-116125606D01*
X136559394Y-116200080D01*
X136650606Y-116252741D01*
X136752339Y-116280000D01*
X136758553Y-116280000D01*
X136079076Y-116959474D01*
X136123652Y-116991861D01*
X136216628Y-117039234D01*
X136267425Y-117087208D01*
X136284220Y-117155029D01*
X136261683Y-117221164D01*
X136216630Y-117260203D01*
X136123388Y-117307713D01*
X135957786Y-117428028D01*
X135813028Y-117572786D01*
X135692715Y-117738386D01*
X135599781Y-117920776D01*
X135536522Y-118115465D01*
X135504500Y-118317648D01*
X130485500Y-118317648D01*
X130465699Y-118192630D01*
X130453477Y-118115465D01*
X130415960Y-118000000D01*
X130390220Y-117920781D01*
X130390218Y-117920778D01*
X130390218Y-117920776D01*
X130336953Y-117816239D01*
X130297287Y-117738390D01*
X130260288Y-117687465D01*
X130176971Y-117572786D01*
X130032213Y-117428028D01*
X129866614Y-117307715D01*
X129802407Y-117275000D01*
X129773917Y-117260483D01*
X129723123Y-117212511D01*
X129706328Y-117144690D01*
X129728865Y-117078555D01*
X129773917Y-117039516D01*
X129866610Y-116992287D01*
X129908227Y-116962051D01*
X130032213Y-116871971D01*
X130032215Y-116871968D01*
X130032219Y-116871966D01*
X130176966Y-116727219D01*
X130176968Y-116727215D01*
X130176971Y-116727213D01*
X130254708Y-116620215D01*
X130297287Y-116561610D01*
X130390220Y-116379219D01*
X130453477Y-116184534D01*
X130485500Y-115982352D01*
X130485500Y-115777648D01*
X130474690Y-115709397D01*
X130453477Y-115575465D01*
X130415166Y-115457557D01*
X130390220Y-115380781D01*
X130390218Y-115380778D01*
X130390218Y-115380776D01*
X130332965Y-115268412D01*
X130297287Y-115198390D01*
X130265092Y-115154077D01*
X130176971Y-115032786D01*
X130032213Y-114888028D01*
X129866613Y-114767715D01*
X129866612Y-114767714D01*
X129866610Y-114767713D01*
X129795705Y-114731585D01*
X129684223Y-114674781D01*
X129489534Y-114611522D01*
X129314995Y-114583878D01*
X129287352Y-114579500D01*
X129082648Y-114579500D01*
X129058329Y-114583351D01*
X128880465Y-114611522D01*
X128685776Y-114674781D01*
X128503386Y-114767715D01*
X128337786Y-114888028D01*
X128193028Y-115032786D01*
X128072715Y-115198386D01*
X127979781Y-115380776D01*
X127916522Y-115575465D01*
X127884500Y-115777648D01*
X123592227Y-115777648D01*
X123585345Y-115776558D01*
X123572352Y-115774500D01*
X123367648Y-115774500D01*
X123354655Y-115776558D01*
X123165465Y-115806522D01*
X122970776Y-115869781D01*
X122788386Y-115962715D01*
X122622786Y-116083028D01*
X122478028Y-116227786D01*
X122357715Y-116393386D01*
X122310485Y-116486080D01*
X122262510Y-116536876D01*
X122194689Y-116553671D01*
X122128554Y-116531134D01*
X122089515Y-116486080D01*
X122083316Y-116473914D01*
X122042287Y-116393390D01*
X122025448Y-116370213D01*
X121921971Y-116227786D01*
X121777213Y-116083028D01*
X121611613Y-115962715D01*
X121611612Y-115962714D01*
X121611610Y-115962713D01*
X121526478Y-115919336D01*
X121429223Y-115869781D01*
X121234534Y-115806522D01*
X121045345Y-115776558D01*
X121032352Y-115774500D01*
X120827648Y-115774500D01*
X120814655Y-115776558D01*
X120625465Y-115806522D01*
X120430776Y-115869781D01*
X120248386Y-115962715D01*
X120082786Y-116083028D01*
X119938028Y-116227786D01*
X119817715Y-116393386D01*
X119770485Y-116486080D01*
X119722510Y-116536876D01*
X119654689Y-116553671D01*
X119588554Y-116531134D01*
X119549515Y-116486080D01*
X119543316Y-116473914D01*
X119502287Y-116393390D01*
X119485448Y-116370213D01*
X119381971Y-116227786D01*
X119237213Y-116083028D01*
X119071613Y-115962715D01*
X119071612Y-115962714D01*
X119071610Y-115962713D01*
X118986478Y-115919336D01*
X118889223Y-115869781D01*
X118694534Y-115806522D01*
X118505345Y-115776558D01*
X118492352Y-115774500D01*
X118287648Y-115774500D01*
X118274655Y-115776558D01*
X118085465Y-115806522D01*
X117890776Y-115869781D01*
X117708386Y-115962715D01*
X117542786Y-116083028D01*
X117398028Y-116227786D01*
X117277715Y-116393386D01*
X117230485Y-116486080D01*
X117182510Y-116536876D01*
X117114689Y-116553671D01*
X117048554Y-116531134D01*
X117009515Y-116486080D01*
X117003316Y-116473914D01*
X116962287Y-116393390D01*
X116945448Y-116370213D01*
X116841971Y-116227786D01*
X116697213Y-116083028D01*
X116531613Y-115962715D01*
X116531612Y-115962714D01*
X116531610Y-115962713D01*
X116446478Y-115919336D01*
X116349223Y-115869781D01*
X116154534Y-115806522D01*
X115965345Y-115776558D01*
X115952352Y-115774500D01*
X115747648Y-115774500D01*
X115734655Y-115776558D01*
X115545465Y-115806522D01*
X115350776Y-115869781D01*
X115168386Y-115962715D01*
X115002786Y-116083028D01*
X114858028Y-116227786D01*
X114737715Y-116393386D01*
X114690485Y-116486080D01*
X114642510Y-116536876D01*
X114574689Y-116553671D01*
X114508554Y-116531134D01*
X114469515Y-116486080D01*
X114463316Y-116473914D01*
X114422287Y-116393390D01*
X114405448Y-116370213D01*
X114301971Y-116227786D01*
X114157213Y-116083028D01*
X113991613Y-115962715D01*
X113991612Y-115962714D01*
X113991610Y-115962713D01*
X113906478Y-115919336D01*
X113809223Y-115869781D01*
X113614534Y-115806522D01*
X113425345Y-115776558D01*
X113412352Y-115774500D01*
X113207648Y-115774500D01*
X113194655Y-115776558D01*
X113005465Y-115806522D01*
X112810776Y-115869781D01*
X112628386Y-115962715D01*
X112462786Y-116083028D01*
X112318028Y-116227786D01*
X112197715Y-116393386D01*
X112150485Y-116486080D01*
X112102510Y-116536876D01*
X112034689Y-116553671D01*
X111968554Y-116531134D01*
X111929515Y-116486080D01*
X111923316Y-116473914D01*
X111882287Y-116393390D01*
X111865448Y-116370213D01*
X111761971Y-116227786D01*
X111617213Y-116083028D01*
X111451613Y-115962715D01*
X111451612Y-115962714D01*
X111451610Y-115962713D01*
X111366478Y-115919336D01*
X111269223Y-115869781D01*
X111074534Y-115806522D01*
X110885345Y-115776558D01*
X110872352Y-115774500D01*
X110667648Y-115774500D01*
X110654655Y-115776558D01*
X110465465Y-115806522D01*
X110270776Y-115869781D01*
X110088386Y-115962715D01*
X109922786Y-116083028D01*
X109778028Y-116227786D01*
X109657715Y-116393386D01*
X109610485Y-116486080D01*
X109562510Y-116536876D01*
X109494689Y-116553671D01*
X109428554Y-116531134D01*
X109389515Y-116486080D01*
X109383316Y-116473914D01*
X109342287Y-116393390D01*
X109325448Y-116370213D01*
X109221971Y-116227786D01*
X109077213Y-116083028D01*
X108911613Y-115962715D01*
X108911612Y-115962714D01*
X108911610Y-115962713D01*
X108826478Y-115919336D01*
X108729223Y-115869781D01*
X108534534Y-115806522D01*
X108345345Y-115776558D01*
X108332352Y-115774500D01*
X108127648Y-115774500D01*
X108114655Y-115776558D01*
X107925465Y-115806522D01*
X107730776Y-115869781D01*
X107548386Y-115962715D01*
X107382786Y-116083028D01*
X107238028Y-116227786D01*
X107117715Y-116393386D01*
X107070485Y-116486080D01*
X107022510Y-116536876D01*
X106954689Y-116553671D01*
X106888554Y-116531134D01*
X106849515Y-116486080D01*
X106843316Y-116473914D01*
X106802287Y-116393390D01*
X106785448Y-116370213D01*
X106681971Y-116227786D01*
X106537213Y-116083028D01*
X106371613Y-115962715D01*
X106371612Y-115962714D01*
X106371610Y-115962713D01*
X106286478Y-115919336D01*
X106189223Y-115869781D01*
X105994534Y-115806522D01*
X105805345Y-115776558D01*
X105792352Y-115774500D01*
X105587648Y-115774500D01*
X105574655Y-115776558D01*
X105385465Y-115806522D01*
X105190776Y-115869781D01*
X105008386Y-115962715D01*
X104842786Y-116083028D01*
X104698028Y-116227786D01*
X104577715Y-116393386D01*
X104530485Y-116486080D01*
X104482510Y-116536876D01*
X104414689Y-116553671D01*
X104348554Y-116531134D01*
X104309515Y-116486080D01*
X104303316Y-116473914D01*
X104262287Y-116393390D01*
X104245448Y-116370213D01*
X104141971Y-116227786D01*
X103997213Y-116083028D01*
X103831613Y-115962715D01*
X103831612Y-115962714D01*
X103831610Y-115962713D01*
X103746478Y-115919336D01*
X103649223Y-115869781D01*
X103454534Y-115806522D01*
X103265345Y-115776558D01*
X103252352Y-115774500D01*
X103047648Y-115774500D01*
X103034655Y-115776558D01*
X102845465Y-115806522D01*
X102650776Y-115869781D01*
X102468386Y-115962715D01*
X102302786Y-116083028D01*
X102158028Y-116227786D01*
X102037715Y-116393386D01*
X101990485Y-116486080D01*
X101942510Y-116536876D01*
X101874689Y-116553671D01*
X101808554Y-116531134D01*
X101769515Y-116486080D01*
X101763316Y-116473914D01*
X101722287Y-116393390D01*
X101705448Y-116370213D01*
X101601971Y-116227786D01*
X101457213Y-116083028D01*
X101291613Y-115962715D01*
X101291612Y-115962714D01*
X101291610Y-115962713D01*
X101206478Y-115919336D01*
X101109223Y-115869781D01*
X100914534Y-115806522D01*
X100725345Y-115776558D01*
X100712352Y-115774500D01*
X100507648Y-115774500D01*
X100494655Y-115776558D01*
X100305465Y-115806522D01*
X100110776Y-115869781D01*
X99928386Y-115962715D01*
X99762786Y-116083028D01*
X99618028Y-116227786D01*
X99497715Y-116393386D01*
X99450485Y-116486080D01*
X99402510Y-116536876D01*
X99334689Y-116553671D01*
X99268554Y-116531134D01*
X99229515Y-116486080D01*
X99223316Y-116473914D01*
X99182287Y-116393390D01*
X99165448Y-116370213D01*
X99061971Y-116227786D01*
X98917213Y-116083028D01*
X98751613Y-115962715D01*
X98751612Y-115962714D01*
X98751610Y-115962713D01*
X98666478Y-115919336D01*
X98569223Y-115869781D01*
X98379059Y-115807993D01*
X98321384Y-115768555D01*
X98294186Y-115704196D01*
X98306101Y-115635350D01*
X98329694Y-115602383D01*
X98421789Y-115510289D01*
X98509394Y-115379179D01*
X98569737Y-115233497D01*
X98600500Y-115078842D01*
X98600500Y-114921158D01*
X98600500Y-114921155D01*
X98600499Y-114921153D01*
X121399500Y-114921153D01*
X121399500Y-115078846D01*
X121430261Y-115233489D01*
X121430264Y-115233501D01*
X121490602Y-115379172D01*
X121490609Y-115379185D01*
X121578210Y-115510288D01*
X121578213Y-115510292D01*
X121689707Y-115621786D01*
X121689711Y-115621789D01*
X121820814Y-115709390D01*
X121820827Y-115709397D01*
X121963304Y-115768412D01*
X121966503Y-115769737D01*
X122121153Y-115800499D01*
X122121156Y-115800500D01*
X122121158Y-115800500D01*
X122278844Y-115800500D01*
X122278845Y-115800499D01*
X122433497Y-115769737D01*
X122579179Y-115709394D01*
X122710289Y-115621789D01*
X122821789Y-115510289D01*
X122909394Y-115379179D01*
X122969737Y-115233497D01*
X123000500Y-115078842D01*
X123000500Y-114921158D01*
X123000500Y-114921155D01*
X123000499Y-114921153D01*
X122970063Y-114768143D01*
X122969737Y-114766503D01*
X122955274Y-114731585D01*
X122909397Y-114620827D01*
X122909390Y-114620814D01*
X122821789Y-114489711D01*
X122821786Y-114489707D01*
X122710292Y-114378213D01*
X122710288Y-114378210D01*
X122579185Y-114290609D01*
X122579172Y-114290602D01*
X122433501Y-114230264D01*
X122433489Y-114230261D01*
X122278845Y-114199500D01*
X122278842Y-114199500D01*
X122121158Y-114199500D01*
X122121155Y-114199500D01*
X121966510Y-114230261D01*
X121966498Y-114230264D01*
X121820827Y-114290602D01*
X121820814Y-114290609D01*
X121689711Y-114378210D01*
X121689707Y-114378213D01*
X121578213Y-114489707D01*
X121578210Y-114489711D01*
X121490609Y-114620814D01*
X121490602Y-114620827D01*
X121430264Y-114766498D01*
X121430261Y-114766510D01*
X121399500Y-114921153D01*
X98600499Y-114921153D01*
X98570063Y-114768143D01*
X98569737Y-114766503D01*
X98555274Y-114731585D01*
X98509397Y-114620827D01*
X98509390Y-114620814D01*
X98421789Y-114489711D01*
X98421786Y-114489707D01*
X98310292Y-114378213D01*
X98310288Y-114378210D01*
X98179185Y-114290609D01*
X98179172Y-114290602D01*
X98033501Y-114230264D01*
X98033489Y-114230261D01*
X97878845Y-114199500D01*
X97878842Y-114199500D01*
X97721158Y-114199500D01*
X97721155Y-114199500D01*
X97566510Y-114230261D01*
X97566498Y-114230264D01*
X97420827Y-114290602D01*
X97420814Y-114290609D01*
X97289711Y-114378210D01*
X97289707Y-114378213D01*
X97178213Y-114489707D01*
X97178210Y-114489711D01*
X97090609Y-114620814D01*
X97090602Y-114620827D01*
X97030264Y-114766498D01*
X97030261Y-114766510D01*
X96999500Y-114921153D01*
X96999500Y-115078846D01*
X97030261Y-115233489D01*
X97030264Y-115233501D01*
X97090602Y-115379172D01*
X97090609Y-115379185D01*
X97178210Y-115510288D01*
X97178213Y-115510292D01*
X97289707Y-115621786D01*
X97289711Y-115621789D01*
X97420814Y-115709390D01*
X97420827Y-115709397D01*
X97428661Y-115712642D01*
X97483065Y-115756483D01*
X97505130Y-115822777D01*
X97487851Y-115890476D01*
X97437504Y-115937688D01*
X97388386Y-115962715D01*
X97222786Y-116083028D01*
X97078028Y-116227786D01*
X96957715Y-116393386D01*
X96910485Y-116486080D01*
X96862510Y-116536876D01*
X96794689Y-116553671D01*
X96728554Y-116531134D01*
X96689515Y-116486080D01*
X96683316Y-116473914D01*
X96642287Y-116393390D01*
X96625448Y-116370213D01*
X96521971Y-116227786D01*
X96377213Y-116083028D01*
X96211613Y-115962715D01*
X96211612Y-115962714D01*
X96211610Y-115962713D01*
X96126478Y-115919336D01*
X96029223Y-115869781D01*
X95834534Y-115806522D01*
X95645345Y-115776558D01*
X95632352Y-115774500D01*
X95427648Y-115774500D01*
X95414655Y-115776558D01*
X95225465Y-115806522D01*
X95030776Y-115869781D01*
X94848386Y-115962715D01*
X94682786Y-116083028D01*
X94538028Y-116227786D01*
X94417715Y-116393386D01*
X94370485Y-116486080D01*
X94322510Y-116536876D01*
X94254689Y-116553671D01*
X94188554Y-116531134D01*
X94149515Y-116486080D01*
X94143316Y-116473914D01*
X94102287Y-116393390D01*
X94085448Y-116370213D01*
X93981971Y-116227786D01*
X93837213Y-116083028D01*
X93671613Y-115962715D01*
X93671612Y-115962714D01*
X93671610Y-115962713D01*
X93586478Y-115919336D01*
X93489223Y-115869781D01*
X93294534Y-115806522D01*
X93105345Y-115776558D01*
X93092352Y-115774500D01*
X92887648Y-115774500D01*
X92874655Y-115776558D01*
X92685465Y-115806522D01*
X92490776Y-115869781D01*
X92308386Y-115962715D01*
X92142786Y-116083028D01*
X91998028Y-116227786D01*
X91877715Y-116393386D01*
X91784781Y-116575776D01*
X91721522Y-116770465D01*
X91689500Y-116972648D01*
X77897002Y-116972648D01*
X77805051Y-116792184D01*
X77805049Y-116792181D01*
X77805048Y-116792179D01*
X77680109Y-116620213D01*
X77541294Y-116481398D01*
X77507809Y-116420075D01*
X77512793Y-116350383D01*
X77554665Y-116294450D01*
X77563879Y-116288178D01*
X77569331Y-116284814D01*
X77569334Y-116284814D01*
X77718656Y-116192712D01*
X77842712Y-116068656D01*
X77934814Y-115919334D01*
X77989999Y-115752797D01*
X78000500Y-115650009D01*
X78000499Y-114349992D01*
X77989999Y-114247203D01*
X77934814Y-114080666D01*
X77842712Y-113931344D01*
X77718656Y-113807288D01*
X77625888Y-113750069D01*
X77569336Y-113715187D01*
X77569331Y-113715185D01*
X77563836Y-113713364D01*
X77402797Y-113660001D01*
X77402795Y-113660000D01*
X77300010Y-113649500D01*
X75749998Y-113649500D01*
X75749981Y-113649501D01*
X75647203Y-113660000D01*
X75647200Y-113660001D01*
X75480668Y-113715185D01*
X75480663Y-113715187D01*
X75331342Y-113807289D01*
X75207289Y-113931342D01*
X75115187Y-114080663D01*
X75115185Y-114080668D01*
X75100135Y-114126086D01*
X75060001Y-114247203D01*
X75060001Y-114247204D01*
X75060000Y-114247204D01*
X75049500Y-114349983D01*
X66689501Y-114349983D01*
X66651095Y-114231782D01*
X66554620Y-114042442D01*
X66429727Y-113870540D01*
X66429723Y-113870535D01*
X66279464Y-113720276D01*
X66279459Y-113720272D01*
X66107557Y-113595379D01*
X65918217Y-113498904D01*
X65716129Y-113433242D01*
X65506246Y-113400000D01*
X65500000Y-113400000D01*
X65500000Y-114316988D01*
X65442993Y-114284075D01*
X65315826Y-114250000D01*
X65184174Y-114250000D01*
X65057007Y-114284075D01*
X65000000Y-114316988D01*
X65000000Y-113400000D01*
X64993754Y-113400000D01*
X64783872Y-113433242D01*
X64783869Y-113433242D01*
X64581782Y-113498904D01*
X64392442Y-113595379D01*
X64220540Y-113720272D01*
X64220535Y-113720276D01*
X64070276Y-113870535D01*
X64070272Y-113870540D01*
X63945379Y-114042442D01*
X63848904Y-114231782D01*
X63783242Y-114433870D01*
X63783242Y-114433873D01*
X63772769Y-114500000D01*
X64816988Y-114500000D01*
X64784075Y-114557007D01*
X64750000Y-114684174D01*
X64750000Y-114815826D01*
X64784075Y-114942993D01*
X64816988Y-115000000D01*
X63772769Y-115000000D01*
X63783242Y-115066126D01*
X63783242Y-115066129D01*
X63848904Y-115268217D01*
X63945379Y-115457557D01*
X64070272Y-115629459D01*
X64070276Y-115629464D01*
X64209143Y-115768331D01*
X64242628Y-115829654D01*
X64237644Y-115899346D01*
X64195772Y-115955279D01*
X64186559Y-115961551D01*
X64031342Y-116057289D01*
X63907289Y-116181342D01*
X63815187Y-116330663D01*
X63815186Y-116330666D01*
X63760001Y-116497203D01*
X63760001Y-116497204D01*
X63760000Y-116497204D01*
X63749500Y-116599983D01*
X61750500Y-116599983D01*
X61750500Y-111524500D01*
X61770185Y-111457461D01*
X61822989Y-111411706D01*
X61874500Y-111400500D01*
X176405832Y-111400500D01*
X176472871Y-111420185D01*
G37*
%TD.AperFunction*%
%TD*%
M02*
