%TF.GenerationSoftware,KiCad,Pcbnew,9.0.7*%
%TF.CreationDate,2026-01-14T19:54:00-05:00*%
%TF.ProjectId,SlimRhizz,536c696d-5268-4697-9a7a-2e6b69636164,rev?*%
%TF.SameCoordinates,Original*%
%TF.FileFunction,Copper,L3,Inr*%
%TF.FilePolarity,Positive*%
%FSLAX46Y46*%
G04 Gerber Fmt 4.6, Leading zero omitted, Abs format (unit mm)*
G04 Created by KiCad (PCBNEW 9.0.7) date 2026-01-14 19:54:00*
%MOMM*%
%LPD*%
G01*
G04 APERTURE LIST*
G04 Aperture macros list*
%AMRoundRect*
0 Rectangle with rounded corners*
0 $1 Rounding radius*
0 $2 $3 $4 $5 $6 $7 $8 $9 X,Y pos of 4 corners*
0 Add a 4 corners polygon primitive as box body*
4,1,4,$2,$3,$4,$5,$6,$7,$8,$9,$2,$3,0*
0 Add four circle primitives for the rounded corners*
1,1,$1+$1,$2,$3*
1,1,$1+$1,$4,$5*
1,1,$1+$1,$6,$7*
1,1,$1+$1,$8,$9*
0 Add four rect primitives between the rounded corners*
20,1,$1+$1,$2,$3,$4,$5,0*
20,1,$1+$1,$4,$5,$6,$7,0*
20,1,$1+$1,$6,$7,$8,$9,0*
20,1,$1+$1,$8,$9,$2,$3,0*%
G04 Aperture macros list end*
%TA.AperFunction,ComponentPad*%
%ADD10RoundRect,0.250000X0.725000X-0.600000X0.725000X0.600000X-0.725000X0.600000X-0.725000X-0.600000X0*%
%TD*%
%TA.AperFunction,ComponentPad*%
%ADD11O,1.950000X1.700000*%
%TD*%
%TA.AperFunction,ComponentPad*%
%ADD12RoundRect,0.250000X0.550000X0.550000X-0.550000X0.550000X-0.550000X-0.550000X0.550000X-0.550000X0*%
%TD*%
%TA.AperFunction,ComponentPad*%
%ADD13C,1.600000*%
%TD*%
%TA.AperFunction,ComponentPad*%
%ADD14RoundRect,0.250000X0.600000X0.725000X-0.600000X0.725000X-0.600000X-0.725000X0.600000X-0.725000X0*%
%TD*%
%TA.AperFunction,ComponentPad*%
%ADD15O,1.700000X1.950000*%
%TD*%
%TA.AperFunction,ComponentPad*%
%ADD16RoundRect,0.250000X-0.725000X0.600000X-0.725000X-0.600000X0.725000X-0.600000X0.725000X0.600000X0*%
%TD*%
%TA.AperFunction,ComponentPad*%
%ADD17RoundRect,0.250000X0.750000X-0.600000X0.750000X0.600000X-0.750000X0.600000X-0.750000X-0.600000X0*%
%TD*%
%TA.AperFunction,ComponentPad*%
%ADD18O,2.000000X1.700000*%
%TD*%
%TA.AperFunction,ComponentPad*%
%ADD19O,1.600000X3.000000*%
%TD*%
%TA.AperFunction,ViaPad*%
%ADD20C,0.600000*%
%TD*%
%TA.AperFunction,ViaPad*%
%ADD21C,1.000000*%
%TD*%
G04 APERTURE END LIST*
D10*
%TO.N,GND*%
%TO.C,J4*%
X159225000Y-133500000D03*
D11*
%TO.N,Net-(J4-Pin_2)*%
X159225000Y-131000000D03*
%TO.N,Net-(J4-Pin_3)*%
X159225000Y-128500000D03*
%TO.N,+5V*%
X159225000Y-126000000D03*
%TD*%
D12*
%TO.N,GND*%
%TO.C,U2*%
X136805000Y-131120000D03*
D13*
%TO.N,/APA_CLK_PRE*%
X136805000Y-128580000D03*
%TO.N,Net-(R1-Pad1)*%
X136805000Y-126040000D03*
%TO.N,GND*%
X136805000Y-123500000D03*
%TO.N,/APA_DATA_PRE*%
X136805000Y-120960000D03*
%TO.N,Net-(R2-Pad1)*%
X136805000Y-118420000D03*
%TO.N,GND*%
X136805000Y-115880000D03*
%TO.N,Net-(R3-Pad1)*%
X129185000Y-115880000D03*
%TO.N,/LED_TIP1*%
X129185000Y-118420000D03*
%TO.N,GND*%
X129185000Y-120960000D03*
%TO.N,Net-(R4-Pad1)*%
X129185000Y-123500000D03*
%TO.N,/LED_TIP2*%
X129185000Y-126040000D03*
%TO.N,GND*%
X129185000Y-128580000D03*
%TO.N,+5V*%
X129185000Y-131120000D03*
%TD*%
D10*
%TO.N,Net-(J6-Pin_1)*%
%TO.C,J6*%
X177000000Y-122750000D03*
D11*
%TO.N,Net-(J6-Pin_2)*%
X177000000Y-120250000D03*
%TO.N,GND*%
X177000000Y-117750000D03*
%TO.N,Net-(J5-Pin_4)*%
X177000000Y-115250000D03*
%TD*%
D14*
%TO.N,Net-(J8-Pin_1)*%
%TO.C,J8*%
X177750000Y-131000000D03*
D15*
%TO.N,Net-(J8-Pin_2)*%
X175250000Y-131000000D03*
%TO.N,GND*%
X172750000Y-131000000D03*
%TO.N,Net-(J8-Pin_4)*%
X170250000Y-131000000D03*
%TO.N,GND*%
X167750000Y-131000000D03*
%TD*%
D10*
%TO.N,GND*%
%TO.C,J3*%
X158750000Y-119750000D03*
D11*
%TO.N,Net-(J3-Pin_2)*%
X158750000Y-117250000D03*
%TO.N,+5V*%
X158750000Y-114750000D03*
%TD*%
D16*
%TO.N,GND*%
%TO.C,J2*%
X75500000Y-129000000D03*
D11*
%TO.N,Net-(J2-Pin_2)*%
X75500000Y-131500000D03*
%TO.N,+5V*%
X75500000Y-134000000D03*
%TD*%
D17*
%TO.N,+5V*%
%TO.C,J1*%
X65250000Y-117250000D03*
D18*
%TO.N,GND*%
X65250000Y-114750000D03*
%TD*%
D16*
%TO.N,Net-(J5-Pin_1)*%
%TO.C,J5*%
X76525000Y-115000000D03*
D11*
%TO.N,Net-(J5-Pin_2)*%
X76525000Y-117500000D03*
%TO.N,GND*%
X76525000Y-120000000D03*
%TO.N,Net-(J5-Pin_4)*%
X76525000Y-122500000D03*
%TD*%
D10*
%TO.N,GND*%
%TO.C,J7*%
X65250000Y-133750000D03*
D11*
%TO.N,Net-(J7-Pin_2)*%
X65250000Y-131250000D03*
%TO.N,GND*%
X65250000Y-128750000D03*
%TO.N,Net-(J7-Pin_4)*%
X65250000Y-126250000D03*
%TO.N,Net-(J7-Pin_5)*%
X65250000Y-123750000D03*
%TD*%
D19*
%TO.N,/LED_TIP2*%
%TO.C,u1*%
X123470000Y-117775000D03*
%TO.N,/LED_TIP1*%
X120930000Y-117775000D03*
%TO.N,Net-(R6-Pad1)*%
X118390000Y-117775000D03*
%TO.N,Net-(R7-Pad1)*%
X115850000Y-117775000D03*
%TO.N,Net-(J5-Pin_4)*%
X120930000Y-133225000D03*
%TO.N,Net-(R8-Pad1)*%
X113310000Y-117775000D03*
%TO.N,unconnected-(u1-Pad5)*%
X110770000Y-117775000D03*
%TO.N,Net-(J8-Pin_1)*%
X108230000Y-117775000D03*
%TO.N,Net-(J8-Pin_4)*%
X105690000Y-117775000D03*
%TO.N,Net-(J8-Pin_2)*%
X103150000Y-117775000D03*
%TO.N,unconnected-(u1-Pad9)*%
X100610000Y-117775000D03*
%TO.N,unconnected-(u1-10{slash}CS-Pad10)*%
X98070000Y-117775000D03*
%TO.N,unconnected-(u1-11{slash}MOSI-Pad11)*%
X95530000Y-117775000D03*
%TO.N,/APA_CLK_PRE*%
X92990000Y-117775000D03*
%TO.N,/APA_DATA_PRE*%
X92990000Y-133225000D03*
%TO.N,Net-(J7-Pin_4)*%
X95530000Y-133225000D03*
%TO.N,Net-(J7-Pin_2)*%
X98070000Y-133225000D03*
%TO.N,Net-(J6-Pin_1)*%
X100610000Y-133225000D03*
%TO.N,Net-(J6-Pin_2)*%
X103150000Y-133225000D03*
%TO.N,Net-(J5-Pin_2)*%
X105690000Y-133225000D03*
%TO.N,Net-(J5-Pin_1)*%
X108230000Y-133225000D03*
%TO.N,Net-(J7-Pin_5)*%
X110770000Y-133225000D03*
%TO.N,unconnected-(u1-21{slash}A7{slash}RX5-Pad21)*%
X113310000Y-133225000D03*
%TO.N,unconnected-(u1-22{slash}A8-Pad22)*%
X115850000Y-133225000D03*
%TO.N,unconnected-(u1-23{slash}A9-Pad23)*%
X118390000Y-133225000D03*
%TO.N,GND*%
X126010000Y-117775000D03*
X123470000Y-133225000D03*
%TO.N,+5V*%
X126010000Y-133225000D03*
%TD*%
D20*
%TO.N,/APA_DATA_PRE*%
X96400000Y-128800000D03*
X101800000Y-123400000D03*
%TO.N,Net-(J2-Pin_2)*%
X97800000Y-115000000D03*
X122200000Y-115000000D03*
%TO.N,Net-(R2-Pad1)*%
X140000000Y-127800000D03*
%TO.N,Net-(J4-Pin_2)*%
X144800000Y-131800000D03*
X156400000Y-131000000D03*
%TO.N,Net-(J8-Pin_1)*%
X179600000Y-112800000D03*
%TO.N,Net-(J8-Pin_2)*%
X177200000Y-112000000D03*
%TO.N,Net-(J6-Pin_1)*%
X169400000Y-128600000D03*
D21*
%TO.N,+5V*%
X157000000Y-126000000D03*
%TO.N,GND*%
X156800000Y-133600000D03*
X174600000Y-117800000D03*
%TO.N,+5V*%
X156400000Y-114600000D03*
%TO.N,GND*%
X156400000Y-119800000D03*
X121000000Y-114000000D03*
X78000000Y-128800000D03*
%TO.N,+5V*%
X77800000Y-134200000D03*
%TO.N,GND*%
X78600000Y-119800000D03*
%TO.N,+5V*%
X70800000Y-116000000D03*
%TO.N,GND*%
X70800000Y-112200000D03*
%TD*%
%TA.AperFunction,Conductor*%
%TO.N,+5V*%
G36*
X69965968Y-111420185D02*
G01*
X70011723Y-111472989D01*
X70021667Y-111542147D01*
X70002031Y-111593391D01*
X69913371Y-111726079D01*
X69913364Y-111726092D01*
X69837950Y-111908160D01*
X69837947Y-111908170D01*
X69799500Y-112101456D01*
X69799500Y-112101459D01*
X69799500Y-112298541D01*
X69799500Y-112298543D01*
X69799499Y-112298543D01*
X69837947Y-112491829D01*
X69837950Y-112491839D01*
X69913364Y-112673907D01*
X69913371Y-112673920D01*
X70022860Y-112837781D01*
X70022863Y-112837785D01*
X70162214Y-112977136D01*
X70162218Y-112977139D01*
X70326079Y-113086628D01*
X70326092Y-113086635D01*
X70508160Y-113162049D01*
X70508165Y-113162051D01*
X70508169Y-113162051D01*
X70508170Y-113162052D01*
X70701456Y-113200500D01*
X70701459Y-113200500D01*
X70898543Y-113200500D01*
X71028582Y-113174632D01*
X71091835Y-113162051D01*
X71273914Y-113086632D01*
X71437782Y-112977139D01*
X71577139Y-112837782D01*
X71686632Y-112673914D01*
X71762051Y-112491835D01*
X71800500Y-112298541D01*
X71800500Y-112101459D01*
X71800500Y-112101456D01*
X71762052Y-111908170D01*
X71762051Y-111908169D01*
X71762051Y-111908165D01*
X71703376Y-111766510D01*
X71686635Y-111726092D01*
X71686628Y-111726079D01*
X71597969Y-111593391D01*
X71577091Y-111526713D01*
X71595576Y-111459333D01*
X71647555Y-111412643D01*
X71701071Y-111400500D01*
X176405832Y-111400500D01*
X176472871Y-111420185D01*
X176518626Y-111472989D01*
X176528570Y-111542147D01*
X176508933Y-111593392D01*
X176490610Y-111620812D01*
X176490602Y-111620827D01*
X176430264Y-111766498D01*
X176430261Y-111766510D01*
X176399500Y-111921153D01*
X176399500Y-112078846D01*
X176430261Y-112233489D01*
X176430264Y-112233501D01*
X176490602Y-112379172D01*
X176490609Y-112379185D01*
X176578210Y-112510288D01*
X176578213Y-112510292D01*
X176689707Y-112621786D01*
X176689711Y-112621789D01*
X176820814Y-112709390D01*
X176820827Y-112709397D01*
X176966498Y-112769735D01*
X176966503Y-112769737D01*
X177121153Y-112800499D01*
X177121156Y-112800500D01*
X177121158Y-112800500D01*
X177278844Y-112800500D01*
X177278845Y-112800499D01*
X177433497Y-112769737D01*
X177550790Y-112721153D01*
X178799500Y-112721153D01*
X178799500Y-112878846D01*
X178830261Y-113033489D01*
X178830264Y-113033501D01*
X178890602Y-113179172D01*
X178890609Y-113179185D01*
X178978210Y-113310288D01*
X178978213Y-113310292D01*
X179089707Y-113421786D01*
X179089711Y-113421789D01*
X179220814Y-113509390D01*
X179220827Y-113509397D01*
X179366498Y-113569735D01*
X179366503Y-113569737D01*
X179521153Y-113600499D01*
X179521156Y-113600500D01*
X179521158Y-113600500D01*
X179678844Y-113600500D01*
X179678845Y-113600499D01*
X179833497Y-113569737D01*
X179979179Y-113509394D01*
X180110289Y-113421789D01*
X180221789Y-113310289D01*
X180309394Y-113179179D01*
X180369737Y-113033497D01*
X180400500Y-112878842D01*
X180400500Y-112721158D01*
X180400500Y-112721155D01*
X180400499Y-112721153D01*
X180391104Y-112673920D01*
X180369737Y-112566503D01*
X180346452Y-112510288D01*
X180309397Y-112420827D01*
X180309390Y-112420814D01*
X180221789Y-112289711D01*
X180221786Y-112289707D01*
X180110292Y-112178213D01*
X180110288Y-112178210D01*
X179979185Y-112090609D01*
X179979172Y-112090602D01*
X179833501Y-112030264D01*
X179833489Y-112030261D01*
X179678845Y-111999500D01*
X179678842Y-111999500D01*
X179521158Y-111999500D01*
X179521155Y-111999500D01*
X179366510Y-112030261D01*
X179366498Y-112030264D01*
X179220827Y-112090602D01*
X179220814Y-112090609D01*
X179089711Y-112178210D01*
X179089707Y-112178213D01*
X178978213Y-112289707D01*
X178978210Y-112289711D01*
X178890609Y-112420814D01*
X178890602Y-112420827D01*
X178830264Y-112566498D01*
X178830261Y-112566510D01*
X178799500Y-112721153D01*
X177550790Y-112721153D01*
X177579179Y-112709394D01*
X177710289Y-112621789D01*
X177821789Y-112510289D01*
X177909394Y-112379179D01*
X177969737Y-112233497D01*
X178000500Y-112078842D01*
X178000500Y-111921158D01*
X178000500Y-111921155D01*
X178000499Y-111921153D01*
X177969737Y-111766503D01*
X177969735Y-111766498D01*
X177909397Y-111620827D01*
X177909389Y-111620812D01*
X177891067Y-111593392D01*
X177870188Y-111526715D01*
X177888672Y-111459334D01*
X177940650Y-111412644D01*
X177994168Y-111400500D01*
X182875500Y-111400500D01*
X182942539Y-111420185D01*
X182988294Y-111472989D01*
X182999500Y-111524500D01*
X182999500Y-136775500D01*
X182979815Y-136842539D01*
X182927011Y-136888294D01*
X182875500Y-136899500D01*
X61874500Y-136899500D01*
X61807461Y-136879815D01*
X61761706Y-136827011D01*
X61750500Y-136775500D01*
X61750500Y-123643713D01*
X63774500Y-123643713D01*
X63774500Y-123856286D01*
X63802775Y-124034812D01*
X63807754Y-124066243D01*
X63845239Y-124181610D01*
X63873444Y-124268414D01*
X63969951Y-124457820D01*
X64094890Y-124629786D01*
X64245209Y-124780105D01*
X64245214Y-124780109D01*
X64409793Y-124899682D01*
X64452459Y-124955011D01*
X64458438Y-125024625D01*
X64425833Y-125086420D01*
X64409793Y-125100318D01*
X64245214Y-125219890D01*
X64245209Y-125219894D01*
X64094890Y-125370213D01*
X63969951Y-125542179D01*
X63873444Y-125731585D01*
X63807753Y-125933760D01*
X63774500Y-126143713D01*
X63774500Y-126356286D01*
X63807753Y-126566239D01*
X63873444Y-126768414D01*
X63969951Y-126957820D01*
X64094890Y-127129786D01*
X64245209Y-127280105D01*
X64245214Y-127280109D01*
X64409793Y-127399682D01*
X64452459Y-127455011D01*
X64458438Y-127524625D01*
X64425833Y-127586420D01*
X64409793Y-127600318D01*
X64245214Y-127719890D01*
X64245209Y-127719894D01*
X64094890Y-127870213D01*
X63969951Y-128042179D01*
X63873444Y-128231585D01*
X63807753Y-128433760D01*
X63774500Y-128643713D01*
X63774500Y-128856286D01*
X63802567Y-129033497D01*
X63807754Y-129066243D01*
X63858294Y-129221789D01*
X63873444Y-129268414D01*
X63969951Y-129457820D01*
X64094890Y-129629786D01*
X64245209Y-129780105D01*
X64245214Y-129780109D01*
X64409793Y-129899682D01*
X64452459Y-129955011D01*
X64458438Y-130024625D01*
X64425833Y-130086420D01*
X64409793Y-130100318D01*
X64245214Y-130219890D01*
X64245209Y-130219894D01*
X64094890Y-130370213D01*
X63969951Y-130542179D01*
X63873444Y-130731585D01*
X63807753Y-130933760D01*
X63774500Y-131143713D01*
X63774500Y-131356286D01*
X63800178Y-131518414D01*
X63807754Y-131566243D01*
X63858089Y-131721158D01*
X63873444Y-131768414D01*
X63969951Y-131957820D01*
X64094890Y-132129786D01*
X64233705Y-132268601D01*
X64267190Y-132329924D01*
X64262206Y-132399616D01*
X64220334Y-132455549D01*
X64211121Y-132461821D01*
X64056342Y-132557289D01*
X63932289Y-132681342D01*
X63840187Y-132830663D01*
X63840185Y-132830668D01*
X63833031Y-132852259D01*
X63785001Y-132997203D01*
X63785001Y-132997204D01*
X63785000Y-132997204D01*
X63774500Y-133099983D01*
X63774500Y-134400001D01*
X63774501Y-134400018D01*
X63785000Y-134502796D01*
X63785001Y-134502799D01*
X63840185Y-134669331D01*
X63840187Y-134669336D01*
X63863762Y-134707557D01*
X63932288Y-134818656D01*
X64056344Y-134942712D01*
X64205666Y-135034814D01*
X64372203Y-135089999D01*
X64474991Y-135100500D01*
X66025008Y-135100499D01*
X66127797Y-135089999D01*
X66294334Y-135034814D01*
X66443656Y-134942712D01*
X66567712Y-134818656D01*
X66659814Y-134669334D01*
X66714999Y-134502797D01*
X66725500Y-134400009D01*
X66725499Y-133750000D01*
X66725499Y-133099998D01*
X66725498Y-133099981D01*
X66714999Y-132997203D01*
X66714998Y-132997200D01*
X66666386Y-132850500D01*
X66659814Y-132830666D01*
X66567712Y-132681344D01*
X66443656Y-132557288D01*
X66294334Y-132465186D01*
X66294333Y-132465185D01*
X66288878Y-132461821D01*
X66242154Y-132409873D01*
X66230931Y-132340910D01*
X66258775Y-132276828D01*
X66266272Y-132268623D01*
X66405104Y-132129792D01*
X66530051Y-131957816D01*
X66626557Y-131768412D01*
X66692246Y-131566243D01*
X66725500Y-131356287D01*
X66725500Y-131143713D01*
X66692246Y-130933757D01*
X66626557Y-130731588D01*
X66530051Y-130542184D01*
X66530049Y-130542181D01*
X66530048Y-130542179D01*
X66405109Y-130370213D01*
X66254792Y-130219896D01*
X66194144Y-130175833D01*
X66090204Y-130100316D01*
X66047540Y-130044989D01*
X66041561Y-129975376D01*
X66074166Y-129913580D01*
X66090199Y-129899686D01*
X66254792Y-129780104D01*
X66405104Y-129629792D01*
X66405106Y-129629788D01*
X66405109Y-129629786D01*
X66530048Y-129457820D01*
X66530047Y-129457820D01*
X66530051Y-129457816D01*
X66626557Y-129268412D01*
X66692246Y-129066243D01*
X66725500Y-128856287D01*
X66725500Y-128643713D01*
X66692246Y-128433757D01*
X66665026Y-128349983D01*
X74024500Y-128349983D01*
X74024500Y-129650001D01*
X74024501Y-129650018D01*
X74035000Y-129752796D01*
X74035001Y-129752799D01*
X74088279Y-129913580D01*
X74090186Y-129919334D01*
X74182288Y-130068656D01*
X74306344Y-130192712D01*
X74322146Y-130202459D01*
X74461120Y-130288178D01*
X74507845Y-130340126D01*
X74519068Y-130409088D01*
X74491224Y-130473171D01*
X74483706Y-130481398D01*
X74344889Y-130620215D01*
X74219951Y-130792179D01*
X74123444Y-130981585D01*
X74057753Y-131183760D01*
X74050226Y-131231286D01*
X74024500Y-131393713D01*
X74024500Y-131606287D01*
X74026955Y-131621786D01*
X74055396Y-131801359D01*
X74057754Y-131816243D01*
X74118653Y-132003671D01*
X74123444Y-132018414D01*
X74219951Y-132207820D01*
X74344890Y-132379786D01*
X74495209Y-132530105D01*
X74495214Y-132530109D01*
X74660218Y-132649991D01*
X74702884Y-132705320D01*
X74708863Y-132774934D01*
X74676258Y-132836729D01*
X74660218Y-132850627D01*
X74495540Y-132970272D01*
X74495535Y-132970276D01*
X74345276Y-133120535D01*
X74345272Y-133120540D01*
X74220379Y-133292442D01*
X74123904Y-133481782D01*
X74058242Y-133683870D01*
X74058242Y-133683873D01*
X74047769Y-133750000D01*
X75095854Y-133750000D01*
X75057370Y-133816657D01*
X75025000Y-133937465D01*
X75025000Y-134062535D01*
X75057370Y-134183343D01*
X75095854Y-134250000D01*
X74047769Y-134250000D01*
X74058242Y-134316126D01*
X74058242Y-134316129D01*
X74123904Y-134518217D01*
X74220379Y-134707557D01*
X74345272Y-134879459D01*
X74345276Y-134879464D01*
X74495535Y-135029723D01*
X74495540Y-135029727D01*
X74667442Y-135154620D01*
X74856782Y-135251095D01*
X75058872Y-135316757D01*
X75250000Y-135347029D01*
X75250000Y-134404145D01*
X75316657Y-134442630D01*
X75437465Y-134475000D01*
X75562535Y-134475000D01*
X75683343Y-134442630D01*
X75750000Y-134404145D01*
X75750000Y-135347028D01*
X75941127Y-135316757D01*
X76143217Y-135251095D01*
X76332557Y-135154620D01*
X76504459Y-135029727D01*
X76504464Y-135029723D01*
X76654723Y-134879464D01*
X76654727Y-134879459D01*
X76779620Y-134707557D01*
X76876095Y-134518217D01*
X76941757Y-134316129D01*
X76941757Y-134316126D01*
X76952231Y-134250000D01*
X75904146Y-134250000D01*
X75942630Y-134183343D01*
X75975000Y-134062535D01*
X75975000Y-133937465D01*
X75942630Y-133816657D01*
X75904146Y-133750000D01*
X76952231Y-133750000D01*
X76941757Y-133683873D01*
X76941757Y-133683870D01*
X76876095Y-133481782D01*
X76779620Y-133292442D01*
X76654727Y-133120540D01*
X76654723Y-133120535D01*
X76504464Y-132970276D01*
X76504459Y-132970272D01*
X76339781Y-132850627D01*
X76297115Y-132795297D01*
X76291136Y-132725684D01*
X76323741Y-132663889D01*
X76339776Y-132649994D01*
X76504792Y-132530104D01*
X76612248Y-132422648D01*
X91689500Y-132422648D01*
X91689500Y-134027351D01*
X91721522Y-134229534D01*
X91784781Y-134424223D01*
X91832674Y-134518217D01*
X91858374Y-134568656D01*
X91877715Y-134606613D01*
X91998028Y-134772213D01*
X92142786Y-134916971D01*
X92297749Y-135029556D01*
X92308390Y-135037287D01*
X92411841Y-135089998D01*
X92490776Y-135130218D01*
X92490778Y-135130218D01*
X92490781Y-135130220D01*
X92595137Y-135164127D01*
X92685465Y-135193477D01*
X92786557Y-135209488D01*
X92887648Y-135225500D01*
X92887649Y-135225500D01*
X93092351Y-135225500D01*
X93092352Y-135225500D01*
X93294534Y-135193477D01*
X93489219Y-135130220D01*
X93671610Y-135037287D01*
X93764590Y-134969732D01*
X93837213Y-134916971D01*
X93837215Y-134916968D01*
X93837219Y-134916966D01*
X93981966Y-134772219D01*
X93981968Y-134772215D01*
X93981971Y-134772213D01*
X94102284Y-134606614D01*
X94102285Y-134606613D01*
X94102287Y-134606610D01*
X94149516Y-134513917D01*
X94197489Y-134463123D01*
X94265310Y-134446328D01*
X94331445Y-134468865D01*
X94370483Y-134513917D01*
X94398375Y-134568657D01*
X94417715Y-134606614D01*
X94538028Y-134772213D01*
X94682786Y-134916971D01*
X94837749Y-135029556D01*
X94848390Y-135037287D01*
X94951841Y-135089998D01*
X95030776Y-135130218D01*
X95030778Y-135130218D01*
X95030781Y-135130220D01*
X95135137Y-135164127D01*
X95225465Y-135193477D01*
X95326557Y-135209488D01*
X95427648Y-135225500D01*
X95427649Y-135225500D01*
X95632351Y-135225500D01*
X95632352Y-135225500D01*
X95834534Y-135193477D01*
X96029219Y-135130220D01*
X96211610Y-135037287D01*
X96304590Y-134969732D01*
X96377213Y-134916971D01*
X96377215Y-134916968D01*
X96377219Y-134916966D01*
X96521966Y-134772219D01*
X96521968Y-134772215D01*
X96521971Y-134772213D01*
X96642284Y-134606614D01*
X96642285Y-134606613D01*
X96642287Y-134606610D01*
X96689516Y-134513917D01*
X96737489Y-134463123D01*
X96805310Y-134446328D01*
X96871445Y-134468865D01*
X96910483Y-134513917D01*
X96938375Y-134568657D01*
X96957715Y-134606614D01*
X97078028Y-134772213D01*
X97222786Y-134916971D01*
X97377749Y-135029556D01*
X97388390Y-135037287D01*
X97491841Y-135089998D01*
X97570776Y-135130218D01*
X97570778Y-135130218D01*
X97570781Y-135130220D01*
X97675137Y-135164127D01*
X97765465Y-135193477D01*
X97866557Y-135209488D01*
X97967648Y-135225500D01*
X97967649Y-135225500D01*
X98172351Y-135225500D01*
X98172352Y-135225500D01*
X98374534Y-135193477D01*
X98569219Y-135130220D01*
X98751610Y-135037287D01*
X98844590Y-134969732D01*
X98917213Y-134916971D01*
X98917215Y-134916968D01*
X98917219Y-134916966D01*
X99061966Y-134772219D01*
X99061968Y-134772215D01*
X99061971Y-134772213D01*
X99182284Y-134606614D01*
X99182285Y-134606613D01*
X99182287Y-134606610D01*
X99229516Y-134513917D01*
X99277489Y-134463123D01*
X99345310Y-134446328D01*
X99411445Y-134468865D01*
X99450483Y-134513917D01*
X99478375Y-134568657D01*
X99497715Y-134606614D01*
X99618028Y-134772213D01*
X99762786Y-134916971D01*
X99917749Y-135029556D01*
X99928390Y-135037287D01*
X100031841Y-135089998D01*
X100110776Y-135130218D01*
X100110778Y-135130218D01*
X100110781Y-135130220D01*
X100215137Y-135164127D01*
X100305465Y-135193477D01*
X100406557Y-135209488D01*
X100507648Y-135225500D01*
X100507649Y-135225500D01*
X100712351Y-135225500D01*
X100712352Y-135225500D01*
X100914534Y-135193477D01*
X101109219Y-135130220D01*
X101291610Y-135037287D01*
X101384590Y-134969732D01*
X101457213Y-134916971D01*
X101457215Y-134916968D01*
X101457219Y-134916966D01*
X101601966Y-134772219D01*
X101601968Y-134772215D01*
X101601971Y-134772213D01*
X101722284Y-134606614D01*
X101722285Y-134606613D01*
X101722287Y-134606610D01*
X101769516Y-134513917D01*
X101817489Y-134463123D01*
X101885310Y-134446328D01*
X101951445Y-134468865D01*
X101990483Y-134513917D01*
X102018375Y-134568657D01*
X102037715Y-134606614D01*
X102158028Y-134772213D01*
X102302786Y-134916971D01*
X102457749Y-135029556D01*
X102468390Y-135037287D01*
X102571841Y-135089998D01*
X102650776Y-135130218D01*
X102650778Y-135130218D01*
X102650781Y-135130220D01*
X102755137Y-135164127D01*
X102845465Y-135193477D01*
X102946557Y-135209488D01*
X103047648Y-135225500D01*
X103047649Y-135225500D01*
X103252351Y-135225500D01*
X103252352Y-135225500D01*
X103454534Y-135193477D01*
X103649219Y-135130220D01*
X103831610Y-135037287D01*
X103924590Y-134969732D01*
X103997213Y-134916971D01*
X103997215Y-134916968D01*
X103997219Y-134916966D01*
X104141966Y-134772219D01*
X104141968Y-134772215D01*
X104141971Y-134772213D01*
X104262284Y-134606614D01*
X104262285Y-134606613D01*
X104262287Y-134606610D01*
X104309516Y-134513917D01*
X104357489Y-134463123D01*
X104425310Y-134446328D01*
X104491445Y-134468865D01*
X104530483Y-134513917D01*
X104558375Y-134568657D01*
X104577715Y-134606614D01*
X104698028Y-134772213D01*
X104842786Y-134916971D01*
X104997749Y-135029556D01*
X105008390Y-135037287D01*
X105111841Y-135089998D01*
X105190776Y-135130218D01*
X105190778Y-135130218D01*
X105190781Y-135130220D01*
X105295137Y-135164127D01*
X105385465Y-135193477D01*
X105486557Y-135209488D01*
X105587648Y-135225500D01*
X105587649Y-135225500D01*
X105792351Y-135225500D01*
X105792352Y-135225500D01*
X105994534Y-135193477D01*
X106189219Y-135130220D01*
X106371610Y-135037287D01*
X106464590Y-134969732D01*
X106537213Y-134916971D01*
X106537215Y-134916968D01*
X106537219Y-134916966D01*
X106681966Y-134772219D01*
X106681968Y-134772215D01*
X106681971Y-134772213D01*
X106802284Y-134606614D01*
X106802285Y-134606613D01*
X106802287Y-134606610D01*
X106849516Y-134513917D01*
X106897489Y-134463123D01*
X106965310Y-134446328D01*
X107031445Y-134468865D01*
X107070483Y-134513917D01*
X107098375Y-134568657D01*
X107117715Y-134606614D01*
X107238028Y-134772213D01*
X107382786Y-134916971D01*
X107537749Y-135029556D01*
X107548390Y-135037287D01*
X107651841Y-135089998D01*
X107730776Y-135130218D01*
X107730778Y-135130218D01*
X107730781Y-135130220D01*
X107835137Y-135164127D01*
X107925465Y-135193477D01*
X108026557Y-135209488D01*
X108127648Y-135225500D01*
X108127649Y-135225500D01*
X108332351Y-135225500D01*
X108332352Y-135225500D01*
X108534534Y-135193477D01*
X108729219Y-135130220D01*
X108911610Y-135037287D01*
X109004590Y-134969732D01*
X109077213Y-134916971D01*
X109077215Y-134916968D01*
X109077219Y-134916966D01*
X109221966Y-134772219D01*
X109221968Y-134772215D01*
X109221971Y-134772213D01*
X109342284Y-134606614D01*
X109342285Y-134606613D01*
X109342287Y-134606610D01*
X109389516Y-134513917D01*
X109437489Y-134463123D01*
X109505310Y-134446328D01*
X109571445Y-134468865D01*
X109610483Y-134513917D01*
X109638375Y-134568657D01*
X109657715Y-134606614D01*
X109778028Y-134772213D01*
X109922786Y-134916971D01*
X110077749Y-135029556D01*
X110088390Y-135037287D01*
X110191841Y-135089998D01*
X110270776Y-135130218D01*
X110270778Y-135130218D01*
X110270781Y-135130220D01*
X110375137Y-135164127D01*
X110465465Y-135193477D01*
X110566557Y-135209488D01*
X110667648Y-135225500D01*
X110667649Y-135225500D01*
X110872351Y-135225500D01*
X110872352Y-135225500D01*
X111074534Y-135193477D01*
X111269219Y-135130220D01*
X111451610Y-135037287D01*
X111544590Y-134969732D01*
X111617213Y-134916971D01*
X111617215Y-134916968D01*
X111617219Y-134916966D01*
X111761966Y-134772219D01*
X111761968Y-134772215D01*
X111761971Y-134772213D01*
X111882284Y-134606614D01*
X111882285Y-134606613D01*
X111882287Y-134606610D01*
X111929516Y-134513917D01*
X111977489Y-134463123D01*
X112045310Y-134446328D01*
X112111445Y-134468865D01*
X112150483Y-134513917D01*
X112178375Y-134568657D01*
X112197715Y-134606614D01*
X112318028Y-134772213D01*
X112462786Y-134916971D01*
X112617749Y-135029556D01*
X112628390Y-135037287D01*
X112731841Y-135089998D01*
X112810776Y-135130218D01*
X112810778Y-135130218D01*
X112810781Y-135130220D01*
X112915137Y-135164127D01*
X113005465Y-135193477D01*
X113106557Y-135209488D01*
X113207648Y-135225500D01*
X113207649Y-135225500D01*
X113412351Y-135225500D01*
X113412352Y-135225500D01*
X113614534Y-135193477D01*
X113809219Y-135130220D01*
X113991610Y-135037287D01*
X114084590Y-134969732D01*
X114157213Y-134916971D01*
X114157215Y-134916968D01*
X114157219Y-134916966D01*
X114301966Y-134772219D01*
X114301968Y-134772215D01*
X114301971Y-134772213D01*
X114422284Y-134606614D01*
X114422285Y-134606613D01*
X114422287Y-134606610D01*
X114469516Y-134513917D01*
X114517489Y-134463123D01*
X114585310Y-134446328D01*
X114651445Y-134468865D01*
X114690483Y-134513917D01*
X114718375Y-134568657D01*
X114737715Y-134606614D01*
X114858028Y-134772213D01*
X115002786Y-134916971D01*
X115157749Y-135029556D01*
X115168390Y-135037287D01*
X115271841Y-135089998D01*
X115350776Y-135130218D01*
X115350778Y-135130218D01*
X115350781Y-135130220D01*
X115455137Y-135164127D01*
X115545465Y-135193477D01*
X115646557Y-135209488D01*
X115747648Y-135225500D01*
X115747649Y-135225500D01*
X115952351Y-135225500D01*
X115952352Y-135225500D01*
X116154534Y-135193477D01*
X116349219Y-135130220D01*
X116531610Y-135037287D01*
X116624590Y-134969732D01*
X116697213Y-134916971D01*
X116697215Y-134916968D01*
X116697219Y-134916966D01*
X116841966Y-134772219D01*
X116841968Y-134772215D01*
X116841971Y-134772213D01*
X116962284Y-134606614D01*
X116962285Y-134606613D01*
X116962287Y-134606610D01*
X117009516Y-134513917D01*
X117057489Y-134463123D01*
X117125310Y-134446328D01*
X117191445Y-134468865D01*
X117230483Y-134513917D01*
X117258375Y-134568657D01*
X117277715Y-134606614D01*
X117398028Y-134772213D01*
X117542786Y-134916971D01*
X117697749Y-135029556D01*
X117708390Y-135037287D01*
X117811841Y-135089998D01*
X117890776Y-135130218D01*
X117890778Y-135130218D01*
X117890781Y-135130220D01*
X117995137Y-135164127D01*
X118085465Y-135193477D01*
X118186557Y-135209488D01*
X118287648Y-135225500D01*
X118287649Y-135225500D01*
X118492351Y-135225500D01*
X118492352Y-135225500D01*
X118694534Y-135193477D01*
X118889219Y-135130220D01*
X119071610Y-135037287D01*
X119164590Y-134969732D01*
X119237213Y-134916971D01*
X119237215Y-134916968D01*
X119237219Y-134916966D01*
X119381966Y-134772219D01*
X119381968Y-134772215D01*
X119381971Y-134772213D01*
X119502284Y-134606614D01*
X119502285Y-134606613D01*
X119502287Y-134606610D01*
X119549516Y-134513917D01*
X119597489Y-134463123D01*
X119665310Y-134446328D01*
X119731445Y-134468865D01*
X119770483Y-134513917D01*
X119798375Y-134568657D01*
X119817715Y-134606614D01*
X119938028Y-134772213D01*
X120082786Y-134916971D01*
X120237749Y-135029556D01*
X120248390Y-135037287D01*
X120351841Y-135089998D01*
X120430776Y-135130218D01*
X120430778Y-135130218D01*
X120430781Y-135130220D01*
X120535137Y-135164127D01*
X120625465Y-135193477D01*
X120726557Y-135209488D01*
X120827648Y-135225500D01*
X120827649Y-135225500D01*
X121032351Y-135225500D01*
X121032352Y-135225500D01*
X121234534Y-135193477D01*
X121429219Y-135130220D01*
X121611610Y-135037287D01*
X121704590Y-134969732D01*
X121777213Y-134916971D01*
X121777215Y-134916968D01*
X121777219Y-134916966D01*
X121921966Y-134772219D01*
X121921968Y-134772215D01*
X121921971Y-134772213D01*
X122042284Y-134606614D01*
X122042285Y-134606613D01*
X122042287Y-134606610D01*
X122089516Y-134513917D01*
X122137489Y-134463123D01*
X122205310Y-134446328D01*
X122271445Y-134468865D01*
X122310483Y-134513917D01*
X122338375Y-134568657D01*
X122357715Y-134606614D01*
X122478028Y-134772213D01*
X122622786Y-134916971D01*
X122777749Y-135029556D01*
X122788390Y-135037287D01*
X122891841Y-135089998D01*
X122970776Y-135130218D01*
X122970778Y-135130218D01*
X122970781Y-135130220D01*
X123075137Y-135164127D01*
X123165465Y-135193477D01*
X123266557Y-135209488D01*
X123367648Y-135225500D01*
X123367649Y-135225500D01*
X123572351Y-135225500D01*
X123572352Y-135225500D01*
X123774534Y-135193477D01*
X123969219Y-135130220D01*
X124151610Y-135037287D01*
X124244590Y-134969732D01*
X124317213Y-134916971D01*
X124317215Y-134916968D01*
X124317219Y-134916966D01*
X124461966Y-134772219D01*
X124461968Y-134772215D01*
X124461971Y-134772213D01*
X124582284Y-134606614D01*
X124582285Y-134606613D01*
X124582287Y-134606610D01*
X124629795Y-134513369D01*
X124677770Y-134462574D01*
X124745591Y-134445779D01*
X124811725Y-134468316D01*
X124850765Y-134513370D01*
X124898140Y-134606349D01*
X125018417Y-134771894D01*
X125018417Y-134771895D01*
X125163104Y-134916582D01*
X125328650Y-135036859D01*
X125510968Y-135129754D01*
X125705578Y-135192988D01*
X125760000Y-135201607D01*
X125760000Y-133540686D01*
X125764394Y-133545080D01*
X125855606Y-133597741D01*
X125957339Y-133625000D01*
X126062661Y-133625000D01*
X126164394Y-133597741D01*
X126255606Y-133545080D01*
X126260000Y-133540686D01*
X126260000Y-135201606D01*
X126314421Y-135192988D01*
X126509031Y-135129754D01*
X126691349Y-135036859D01*
X126856894Y-134916582D01*
X126856895Y-134916582D01*
X127001582Y-134771895D01*
X127001582Y-134771894D01*
X127121859Y-134606349D01*
X127214755Y-134424031D01*
X127277990Y-134229417D01*
X127310000Y-134027317D01*
X127310000Y-133698543D01*
X155799499Y-133698543D01*
X155837947Y-133891829D01*
X155837950Y-133891839D01*
X155913364Y-134073907D01*
X155913371Y-134073920D01*
X156022860Y-134237781D01*
X156022863Y-134237785D01*
X156162214Y-134377136D01*
X156162218Y-134377139D01*
X156326079Y-134486628D01*
X156326092Y-134486635D01*
X156508160Y-134562049D01*
X156508165Y-134562051D01*
X156508169Y-134562051D01*
X156508170Y-134562052D01*
X156701456Y-134600500D01*
X156701459Y-134600500D01*
X156898543Y-134600500D01*
X157028582Y-134574632D01*
X157091835Y-134562051D01*
X157273914Y-134486632D01*
X157437782Y-134377139D01*
X157568599Y-134246321D01*
X157629920Y-134212838D01*
X157699612Y-134217822D01*
X157755546Y-134259693D01*
X157773985Y-134294999D01*
X157808785Y-134400018D01*
X157815186Y-134419333D01*
X157815187Y-134419336D01*
X157829555Y-134442630D01*
X157907288Y-134568656D01*
X158031344Y-134692712D01*
X158180666Y-134784814D01*
X158347203Y-134839999D01*
X158449991Y-134850500D01*
X160000008Y-134850499D01*
X160102797Y-134839999D01*
X160269334Y-134784814D01*
X160418656Y-134692712D01*
X160542712Y-134568656D01*
X160634814Y-134419334D01*
X160689999Y-134252797D01*
X160700500Y-134150009D01*
X160700499Y-132849992D01*
X160697727Y-132822860D01*
X160689999Y-132747203D01*
X160689998Y-132747200D01*
X160662391Y-132663889D01*
X160634814Y-132580666D01*
X160542712Y-132431344D01*
X160418656Y-132307288D01*
X160269334Y-132215186D01*
X160269333Y-132215185D01*
X160263878Y-132211821D01*
X160217154Y-132159873D01*
X160205931Y-132090910D01*
X160233775Y-132026828D01*
X160241272Y-132018623D01*
X160380104Y-131879792D01*
X160381554Y-131877797D01*
X160463402Y-131765141D01*
X160505051Y-131707816D01*
X160601557Y-131518412D01*
X160667246Y-131316243D01*
X160700500Y-131106287D01*
X160700500Y-130893713D01*
X160697440Y-130874394D01*
X160683003Y-130783238D01*
X160680702Y-130768713D01*
X166399500Y-130768713D01*
X166399500Y-131231286D01*
X166432569Y-131440080D01*
X166432754Y-131441243D01*
X166491417Y-131621789D01*
X166498444Y-131643414D01*
X166594951Y-131832820D01*
X166719890Y-132004786D01*
X166870213Y-132155109D01*
X167042179Y-132280048D01*
X167042181Y-132280049D01*
X167042184Y-132280051D01*
X167231588Y-132376557D01*
X167433757Y-132442246D01*
X167643713Y-132475500D01*
X167643714Y-132475500D01*
X167856286Y-132475500D01*
X167856287Y-132475500D01*
X168066243Y-132442246D01*
X168268412Y-132376557D01*
X168457816Y-132280051D01*
X168524147Y-132231859D01*
X168629786Y-132155109D01*
X168629788Y-132155106D01*
X168629792Y-132155104D01*
X168780104Y-132004792D01*
X168899683Y-131840204D01*
X168955011Y-131797540D01*
X169024624Y-131791561D01*
X169086420Y-131824166D01*
X169100313Y-131840199D01*
X169170373Y-131936629D01*
X169219896Y-132004792D01*
X169370213Y-132155109D01*
X169542179Y-132280048D01*
X169542181Y-132280049D01*
X169542184Y-132280051D01*
X169731588Y-132376557D01*
X169933757Y-132442246D01*
X170143713Y-132475500D01*
X170143714Y-132475500D01*
X170356286Y-132475500D01*
X170356287Y-132475500D01*
X170566243Y-132442246D01*
X170768412Y-132376557D01*
X170957816Y-132280051D01*
X171024147Y-132231859D01*
X171129786Y-132155109D01*
X171129788Y-132155106D01*
X171129792Y-132155104D01*
X171280104Y-132004792D01*
X171399683Y-131840204D01*
X171455011Y-131797540D01*
X171524624Y-131791561D01*
X171586420Y-131824166D01*
X171600313Y-131840199D01*
X171670373Y-131936629D01*
X171719896Y-132004792D01*
X171870213Y-132155109D01*
X172042179Y-132280048D01*
X172042181Y-132280049D01*
X172042184Y-132280051D01*
X172231588Y-132376557D01*
X172433757Y-132442246D01*
X172643713Y-132475500D01*
X172643714Y-132475500D01*
X172856286Y-132475500D01*
X172856287Y-132475500D01*
X173066243Y-132442246D01*
X173268412Y-132376557D01*
X173457816Y-132280051D01*
X173524147Y-132231859D01*
X173629786Y-132155109D01*
X173629788Y-132155106D01*
X173629792Y-132155104D01*
X173780104Y-132004792D01*
X173899683Y-131840204D01*
X173955011Y-131797540D01*
X174024624Y-131791561D01*
X174086420Y-131824166D01*
X174100313Y-131840199D01*
X174170373Y-131936629D01*
X174219896Y-132004792D01*
X174370213Y-132155109D01*
X174542179Y-132280048D01*
X174542181Y-132280049D01*
X174542184Y-132280051D01*
X174731588Y-132376557D01*
X174933757Y-132442246D01*
X175143713Y-132475500D01*
X175143714Y-132475500D01*
X175356286Y-132475500D01*
X175356287Y-132475500D01*
X175566243Y-132442246D01*
X175768412Y-132376557D01*
X175957816Y-132280051D01*
X176096647Y-132179185D01*
X176129784Y-132155110D01*
X176129784Y-132155109D01*
X176129792Y-132155104D01*
X176268604Y-132016291D01*
X176329923Y-131982809D01*
X176399615Y-131987793D01*
X176455549Y-132029664D01*
X176461821Y-132038878D01*
X176465185Y-132044333D01*
X176465186Y-132044334D01*
X176557288Y-132193656D01*
X176681344Y-132317712D01*
X176830666Y-132409814D01*
X176997203Y-132464999D01*
X177099991Y-132475500D01*
X178400008Y-132475499D01*
X178502797Y-132464999D01*
X178669334Y-132409814D01*
X178818656Y-132317712D01*
X178942712Y-132193656D01*
X179034814Y-132044334D01*
X179089999Y-131877797D01*
X179100500Y-131775009D01*
X179100499Y-130224992D01*
X179099978Y-130219896D01*
X179089999Y-130122203D01*
X179089998Y-130122200D01*
X179078142Y-130086420D01*
X179034814Y-129955666D01*
X178942712Y-129806344D01*
X178818656Y-129682288D01*
X178669334Y-129590186D01*
X178502797Y-129535001D01*
X178502795Y-129535000D01*
X178400010Y-129524500D01*
X177099998Y-129524500D01*
X177099981Y-129524501D01*
X176997203Y-129535000D01*
X176997200Y-129535001D01*
X176830668Y-129590185D01*
X176830663Y-129590187D01*
X176681342Y-129682289D01*
X176557289Y-129806342D01*
X176461821Y-129961121D01*
X176409873Y-130007845D01*
X176340910Y-130019068D01*
X176276828Y-129991224D01*
X176268601Y-129983705D01*
X176129786Y-129844890D01*
X175957820Y-129719951D01*
X175768414Y-129623444D01*
X175768413Y-129623443D01*
X175768412Y-129623443D01*
X175566243Y-129557754D01*
X175566241Y-129557753D01*
X175566240Y-129557753D01*
X175404957Y-129532208D01*
X175356287Y-129524500D01*
X175143713Y-129524500D01*
X175095042Y-129532208D01*
X174933760Y-129557753D01*
X174731585Y-129623444D01*
X174542179Y-129719951D01*
X174370213Y-129844890D01*
X174219894Y-129995209D01*
X174219890Y-129995214D01*
X174100318Y-130159793D01*
X174044989Y-130202459D01*
X173975375Y-130208438D01*
X173913580Y-130175833D01*
X173899682Y-130159793D01*
X173780109Y-129995214D01*
X173780105Y-129995209D01*
X173629786Y-129844890D01*
X173457820Y-129719951D01*
X173268414Y-129623444D01*
X173268413Y-129623443D01*
X173268412Y-129623443D01*
X173066243Y-129557754D01*
X173066241Y-129557753D01*
X173066240Y-129557753D01*
X172904957Y-129532208D01*
X172856287Y-129524500D01*
X172643713Y-129524500D01*
X172595042Y-129532208D01*
X172433760Y-129557753D01*
X172231585Y-129623444D01*
X172042179Y-129719951D01*
X171870213Y-129844890D01*
X171719894Y-129995209D01*
X171719890Y-129995214D01*
X171600318Y-130159793D01*
X171544989Y-130202459D01*
X171475375Y-130208438D01*
X171413580Y-130175833D01*
X171399682Y-130159793D01*
X171280109Y-129995214D01*
X171280105Y-129995209D01*
X171129786Y-129844890D01*
X170957820Y-129719951D01*
X170768414Y-129623444D01*
X170768413Y-129623443D01*
X170768412Y-129623443D01*
X170566243Y-129557754D01*
X170566241Y-129557753D01*
X170566240Y-129557753D01*
X170404957Y-129532208D01*
X170356287Y-129524500D01*
X170143713Y-129524500D01*
X170095042Y-129532208D01*
X169933760Y-129557753D01*
X169731585Y-129623444D01*
X169542179Y-129719951D01*
X169370213Y-129844890D01*
X169219894Y-129995209D01*
X169219890Y-129995214D01*
X169100318Y-130159793D01*
X169044989Y-130202459D01*
X168975375Y-130208438D01*
X168913580Y-130175833D01*
X168899682Y-130159793D01*
X168780109Y-129995214D01*
X168780105Y-129995209D01*
X168629786Y-129844890D01*
X168457820Y-129719951D01*
X168268414Y-129623444D01*
X168268413Y-129623443D01*
X168268412Y-129623443D01*
X168066243Y-129557754D01*
X168066241Y-129557753D01*
X168066240Y-129557753D01*
X167904957Y-129532208D01*
X167856287Y-129524500D01*
X167643713Y-129524500D01*
X167595042Y-129532208D01*
X167433760Y-129557753D01*
X167231585Y-129623444D01*
X167042179Y-129719951D01*
X166870213Y-129844890D01*
X166719890Y-129995213D01*
X166594951Y-130167179D01*
X166498444Y-130356585D01*
X166432753Y-130558760D01*
X166399500Y-130768713D01*
X160680702Y-130768713D01*
X160667246Y-130683760D01*
X160667246Y-130683757D01*
X160601557Y-130481588D01*
X160505051Y-130292184D01*
X160505049Y-130292181D01*
X160505048Y-130292179D01*
X160380109Y-130120213D01*
X160229792Y-129969896D01*
X160209304Y-129955011D01*
X160065204Y-129850316D01*
X160022540Y-129794989D01*
X160016561Y-129725376D01*
X160049166Y-129663580D01*
X160065199Y-129649686D01*
X160229792Y-129530104D01*
X160380104Y-129379792D01*
X160380106Y-129379788D01*
X160380109Y-129379786D01*
X160505048Y-129207820D01*
X160505047Y-129207820D01*
X160505051Y-129207816D01*
X160601557Y-129018412D01*
X160667246Y-128816243D01*
X160700500Y-128606287D01*
X160700500Y-128521153D01*
X168599500Y-128521153D01*
X168599500Y-128678846D01*
X168630261Y-128833489D01*
X168630264Y-128833501D01*
X168690602Y-128979172D01*
X168690609Y-128979185D01*
X168778210Y-129110288D01*
X168778213Y-129110292D01*
X168889707Y-129221786D01*
X168889711Y-129221789D01*
X169020814Y-129309390D01*
X169020827Y-129309397D01*
X169151588Y-129363559D01*
X169166503Y-129369737D01*
X169321153Y-129400499D01*
X169321156Y-129400500D01*
X169321158Y-129400500D01*
X169478844Y-129400500D01*
X169478845Y-129400499D01*
X169633497Y-129369737D01*
X169779179Y-129309394D01*
X169910289Y-129221789D01*
X170021789Y-129110289D01*
X170109394Y-128979179D01*
X170169737Y-128833497D01*
X170200500Y-128678842D01*
X170200500Y-128521158D01*
X170200500Y-128521155D01*
X170200499Y-128521153D01*
X170198159Y-128509390D01*
X170169737Y-128366503D01*
X170162894Y-128349983D01*
X170109397Y-128220827D01*
X170109390Y-128220814D01*
X170021789Y-128089711D01*
X170021786Y-128089707D01*
X169910292Y-127978213D01*
X169910288Y-127978210D01*
X169779185Y-127890609D01*
X169779172Y-127890602D01*
X169633501Y-127830264D01*
X169633489Y-127830261D01*
X169478845Y-127799500D01*
X169478842Y-127799500D01*
X169321158Y-127799500D01*
X169321155Y-127799500D01*
X169166510Y-127830261D01*
X169166498Y-127830264D01*
X169020827Y-127890602D01*
X169020814Y-127890609D01*
X168889711Y-127978210D01*
X168889707Y-127978213D01*
X168778213Y-128089707D01*
X168778210Y-128089711D01*
X168690609Y-128220814D01*
X168690602Y-128220827D01*
X168630264Y-128366498D01*
X168630261Y-128366510D01*
X168599500Y-128521153D01*
X160700500Y-128521153D01*
X160700500Y-128393713D01*
X160667246Y-128183757D01*
X160601557Y-127981588D01*
X160505051Y-127792184D01*
X160505049Y-127792181D01*
X160505048Y-127792179D01*
X160380109Y-127620213D01*
X160229790Y-127469894D01*
X160229785Y-127469890D01*
X160064781Y-127350008D01*
X160022115Y-127294678D01*
X160016136Y-127225065D01*
X160048741Y-127163270D01*
X160064781Y-127149371D01*
X160229466Y-127029721D01*
X160379723Y-126879464D01*
X160379727Y-126879459D01*
X160504620Y-126707557D01*
X160601095Y-126518217D01*
X160666757Y-126316129D01*
X160666757Y-126316126D01*
X160677231Y-126250000D01*
X159629146Y-126250000D01*
X159667630Y-126183343D01*
X159700000Y-126062535D01*
X159700000Y-125937465D01*
X159667630Y-125816657D01*
X159629146Y-125750000D01*
X160677231Y-125750000D01*
X160666757Y-125683873D01*
X160666757Y-125683870D01*
X160601095Y-125481782D01*
X160504620Y-125292442D01*
X160379727Y-125120540D01*
X160379723Y-125120535D01*
X160229464Y-124970276D01*
X160229459Y-124970272D01*
X160057557Y-124845379D01*
X159868217Y-124748904D01*
X159666128Y-124683242D01*
X159475000Y-124652969D01*
X159475000Y-125595854D01*
X159408343Y-125557370D01*
X159287535Y-125525000D01*
X159162465Y-125525000D01*
X159041657Y-125557370D01*
X158975000Y-125595854D01*
X158975000Y-124652969D01*
X158783872Y-124683242D01*
X158783869Y-124683242D01*
X158581782Y-124748904D01*
X158392442Y-124845379D01*
X158220540Y-124970272D01*
X158220535Y-124970276D01*
X158070276Y-125120535D01*
X158070272Y-125120540D01*
X157945379Y-125292442D01*
X157848904Y-125481782D01*
X157783242Y-125683870D01*
X157783242Y-125683873D01*
X157772769Y-125750000D01*
X158820854Y-125750000D01*
X158782370Y-125816657D01*
X158750000Y-125937465D01*
X158750000Y-126062535D01*
X158782370Y-126183343D01*
X158820854Y-126250000D01*
X157772769Y-126250000D01*
X157783242Y-126316126D01*
X157783242Y-126316129D01*
X157848904Y-126518217D01*
X157945379Y-126707557D01*
X158070272Y-126879459D01*
X158070276Y-126879464D01*
X158220535Y-127029723D01*
X158220540Y-127029727D01*
X158385218Y-127149372D01*
X158427884Y-127204701D01*
X158433863Y-127274315D01*
X158401258Y-127336110D01*
X158385218Y-127350008D01*
X158220214Y-127469890D01*
X158220209Y-127469894D01*
X158069890Y-127620213D01*
X157944951Y-127792179D01*
X157848444Y-127981585D01*
X157782753Y-128183760D01*
X157750856Y-128385152D01*
X157749500Y-128393713D01*
X157749500Y-128606287D01*
X157782754Y-128816243D01*
X157835697Y-128979185D01*
X157848444Y-129018414D01*
X157944951Y-129207820D01*
X158069890Y-129379786D01*
X158220209Y-129530105D01*
X158220214Y-129530109D01*
X158384793Y-129649682D01*
X158427459Y-129705011D01*
X158433438Y-129774625D01*
X158400833Y-129836420D01*
X158384793Y-129850318D01*
X158220214Y-129969890D01*
X158220209Y-129969894D01*
X158069890Y-130120213D01*
X157944951Y-130292179D01*
X157848444Y-130481585D01*
X157782753Y-130683760D01*
X157749500Y-130893713D01*
X157749500Y-131106286D01*
X157778551Y-131289711D01*
X157782754Y-131316243D01*
X157845803Y-131510288D01*
X157848444Y-131518414D01*
X157944951Y-131707820D01*
X158069890Y-131879786D01*
X158208705Y-132018601D01*
X158242190Y-132079924D01*
X158237206Y-132149616D01*
X158195334Y-132205549D01*
X158186121Y-132211821D01*
X158031342Y-132307289D01*
X157907289Y-132431342D01*
X157815187Y-132580663D01*
X157815185Y-132580668D01*
X157796205Y-132637947D01*
X157760001Y-132747203D01*
X157760001Y-132747204D01*
X157760000Y-132747204D01*
X157749641Y-132848603D01*
X157723244Y-132913294D01*
X157666063Y-132953445D01*
X157596252Y-132956308D01*
X157538602Y-132923680D01*
X157437785Y-132822863D01*
X157437781Y-132822860D01*
X157273920Y-132713371D01*
X157273907Y-132713364D01*
X157091839Y-132637950D01*
X157091829Y-132637947D01*
X156898543Y-132599500D01*
X156898541Y-132599500D01*
X156701459Y-132599500D01*
X156701457Y-132599500D01*
X156508170Y-132637947D01*
X156508160Y-132637950D01*
X156326092Y-132713364D01*
X156326079Y-132713371D01*
X156162218Y-132822860D01*
X156162214Y-132822863D01*
X156022863Y-132962214D01*
X156022860Y-132962218D01*
X155913371Y-133126079D01*
X155913364Y-133126092D01*
X155837950Y-133308160D01*
X155837947Y-133308170D01*
X155799500Y-133501456D01*
X155799500Y-133501459D01*
X155799500Y-133698541D01*
X155799500Y-133698543D01*
X155799499Y-133698543D01*
X127310000Y-133698543D01*
X127310000Y-133475000D01*
X126325686Y-133475000D01*
X126330080Y-133470606D01*
X126382741Y-133379394D01*
X126410000Y-133277661D01*
X126410000Y-133172339D01*
X126382741Y-133070606D01*
X126330080Y-132979394D01*
X126325686Y-132975000D01*
X127310000Y-132975000D01*
X127310000Y-132422682D01*
X127277989Y-132220581D01*
X127277989Y-132220578D01*
X127268227Y-132190533D01*
X127214755Y-132025968D01*
X127121859Y-131843650D01*
X127001582Y-131678105D01*
X127001582Y-131678104D01*
X126856895Y-131533417D01*
X126691349Y-131413140D01*
X126509029Y-131320244D01*
X126314413Y-131257009D01*
X126260000Y-131248390D01*
X126260000Y-132909314D01*
X126255606Y-132904920D01*
X126164394Y-132852259D01*
X126062661Y-132825000D01*
X125957339Y-132825000D01*
X125855606Y-132852259D01*
X125764394Y-132904920D01*
X125760000Y-132909314D01*
X125760000Y-131248390D01*
X125705586Y-131257009D01*
X125510970Y-131320244D01*
X125328650Y-131413140D01*
X125163105Y-131533417D01*
X125163104Y-131533417D01*
X125018417Y-131678104D01*
X125018417Y-131678105D01*
X124898140Y-131843650D01*
X124850765Y-131936629D01*
X124802790Y-131987425D01*
X124734969Y-132004220D01*
X124668834Y-131981682D01*
X124629795Y-131936629D01*
X124618990Y-131915424D01*
X124582287Y-131843390D01*
X124567327Y-131822799D01*
X124461971Y-131677786D01*
X124317213Y-131533028D01*
X124151613Y-131412715D01*
X124151612Y-131412714D01*
X124151610Y-131412713D01*
X124085782Y-131379172D01*
X123969223Y-131319781D01*
X123774534Y-131256522D01*
X123599995Y-131228878D01*
X123572352Y-131224500D01*
X123367648Y-131224500D01*
X123343329Y-131228351D01*
X123165465Y-131256522D01*
X122970776Y-131319781D01*
X122788386Y-131412715D01*
X122622786Y-131533028D01*
X122478028Y-131677786D01*
X122357715Y-131843386D01*
X122310485Y-131936080D01*
X122262510Y-131986876D01*
X122194689Y-132003671D01*
X122128554Y-131981134D01*
X122089515Y-131936080D01*
X122088883Y-131934840D01*
X122042287Y-131843390D01*
X122027327Y-131822799D01*
X121921971Y-131677786D01*
X121777213Y-131533028D01*
X121611613Y-131412715D01*
X121611612Y-131412714D01*
X121611610Y-131412713D01*
X121545782Y-131379172D01*
X121429223Y-131319781D01*
X121234534Y-131256522D01*
X121059995Y-131228878D01*
X121032352Y-131224500D01*
X120827648Y-131224500D01*
X120803329Y-131228351D01*
X120625465Y-131256522D01*
X120430776Y-131319781D01*
X120248386Y-131412715D01*
X120082786Y-131533028D01*
X119938028Y-131677786D01*
X119817715Y-131843386D01*
X119770485Y-131936080D01*
X119722510Y-131986876D01*
X119654689Y-132003671D01*
X119588554Y-131981134D01*
X119549515Y-131936080D01*
X119548883Y-131934840D01*
X119502287Y-131843390D01*
X119487327Y-131822799D01*
X119381971Y-131677786D01*
X119237213Y-131533028D01*
X119071613Y-131412715D01*
X119071612Y-131412714D01*
X119071610Y-131412713D01*
X119005782Y-131379172D01*
X118889223Y-131319781D01*
X118694534Y-131256522D01*
X118519995Y-131228878D01*
X118492352Y-131224500D01*
X118287648Y-131224500D01*
X118263329Y-131228351D01*
X118085465Y-131256522D01*
X117890776Y-131319781D01*
X117708386Y-131412715D01*
X117542786Y-131533028D01*
X117398028Y-131677786D01*
X117277715Y-131843386D01*
X117230485Y-131936080D01*
X117182510Y-131986876D01*
X117114689Y-132003671D01*
X117048554Y-131981134D01*
X117009515Y-131936080D01*
X117008883Y-131934840D01*
X116962287Y-131843390D01*
X116947327Y-131822799D01*
X116841971Y-131677786D01*
X116697213Y-131533028D01*
X116531613Y-131412715D01*
X116531612Y-131412714D01*
X116531610Y-131412713D01*
X116465782Y-131379172D01*
X116349223Y-131319781D01*
X116154534Y-131256522D01*
X115979995Y-131228878D01*
X115952352Y-131224500D01*
X115747648Y-131224500D01*
X115723329Y-131228351D01*
X115545465Y-131256522D01*
X115350776Y-131319781D01*
X115168386Y-131412715D01*
X115002786Y-131533028D01*
X114858028Y-131677786D01*
X114737715Y-131843386D01*
X114690485Y-131936080D01*
X114642510Y-131986876D01*
X114574689Y-132003671D01*
X114508554Y-131981134D01*
X114469515Y-131936080D01*
X114468883Y-131934840D01*
X114422287Y-131843390D01*
X114407327Y-131822799D01*
X114301971Y-131677786D01*
X114157213Y-131533028D01*
X113991613Y-131412715D01*
X113991612Y-131412714D01*
X113991610Y-131412713D01*
X113925782Y-131379172D01*
X113809223Y-131319781D01*
X113614534Y-131256522D01*
X113439995Y-131228878D01*
X113412352Y-131224500D01*
X113207648Y-131224500D01*
X113183329Y-131228351D01*
X113005465Y-131256522D01*
X112810776Y-131319781D01*
X112628386Y-131412715D01*
X112462786Y-131533028D01*
X112318028Y-131677786D01*
X112197715Y-131843386D01*
X112150485Y-131936080D01*
X112102510Y-131986876D01*
X112034689Y-132003671D01*
X111968554Y-131981134D01*
X111929515Y-131936080D01*
X111928883Y-131934840D01*
X111882287Y-131843390D01*
X111867327Y-131822799D01*
X111761971Y-131677786D01*
X111617213Y-131533028D01*
X111451613Y-131412715D01*
X111451612Y-131412714D01*
X111451610Y-131412713D01*
X111385782Y-131379172D01*
X111269223Y-131319781D01*
X111074534Y-131256522D01*
X110899995Y-131228878D01*
X110872352Y-131224500D01*
X110667648Y-131224500D01*
X110643329Y-131228351D01*
X110465465Y-131256522D01*
X110270776Y-131319781D01*
X110088386Y-131412715D01*
X109922786Y-131533028D01*
X109778028Y-131677786D01*
X109657715Y-131843386D01*
X109610485Y-131936080D01*
X109562510Y-131986876D01*
X109494689Y-132003671D01*
X109428554Y-131981134D01*
X109389515Y-131936080D01*
X109388883Y-131934840D01*
X109342287Y-131843390D01*
X109327327Y-131822799D01*
X109221971Y-131677786D01*
X109077213Y-131533028D01*
X108911613Y-131412715D01*
X108911612Y-131412714D01*
X108911610Y-131412713D01*
X108845782Y-131379172D01*
X108729223Y-131319781D01*
X108534534Y-131256522D01*
X108359995Y-131228878D01*
X108332352Y-131224500D01*
X108127648Y-131224500D01*
X108103329Y-131228351D01*
X107925465Y-131256522D01*
X107730776Y-131319781D01*
X107548386Y-131412715D01*
X107382786Y-131533028D01*
X107238028Y-131677786D01*
X107117715Y-131843386D01*
X107070485Y-131936080D01*
X107022510Y-131986876D01*
X106954689Y-132003671D01*
X106888554Y-131981134D01*
X106849515Y-131936080D01*
X106848883Y-131934840D01*
X106802287Y-131843390D01*
X106787327Y-131822799D01*
X106681971Y-131677786D01*
X106537213Y-131533028D01*
X106371613Y-131412715D01*
X106371612Y-131412714D01*
X106371610Y-131412713D01*
X106305782Y-131379172D01*
X106189223Y-131319781D01*
X105994534Y-131256522D01*
X105819995Y-131228878D01*
X105792352Y-131224500D01*
X105587648Y-131224500D01*
X105563329Y-131228351D01*
X105385465Y-131256522D01*
X105190776Y-131319781D01*
X105008386Y-131412715D01*
X104842786Y-131533028D01*
X104698028Y-131677786D01*
X104577715Y-131843386D01*
X104530485Y-131936080D01*
X104482510Y-131986876D01*
X104414689Y-132003671D01*
X104348554Y-131981134D01*
X104309515Y-131936080D01*
X104308883Y-131934840D01*
X104262287Y-131843390D01*
X104247327Y-131822799D01*
X104141971Y-131677786D01*
X103997213Y-131533028D01*
X103831613Y-131412715D01*
X103831612Y-131412714D01*
X103831610Y-131412713D01*
X103765782Y-131379172D01*
X103649223Y-131319781D01*
X103454534Y-131256522D01*
X103279995Y-131228878D01*
X103252352Y-131224500D01*
X103047648Y-131224500D01*
X103023329Y-131228351D01*
X102845465Y-131256522D01*
X102650776Y-131319781D01*
X102468386Y-131412715D01*
X102302786Y-131533028D01*
X102158028Y-131677786D01*
X102037715Y-131843386D01*
X101990485Y-131936080D01*
X101942510Y-131986876D01*
X101874689Y-132003671D01*
X101808554Y-131981134D01*
X101769515Y-131936080D01*
X101768883Y-131934840D01*
X101722287Y-131843390D01*
X101707327Y-131822799D01*
X101601971Y-131677786D01*
X101457213Y-131533028D01*
X101291613Y-131412715D01*
X101291612Y-131412714D01*
X101291610Y-131412713D01*
X101225782Y-131379172D01*
X101109223Y-131319781D01*
X100914534Y-131256522D01*
X100739995Y-131228878D01*
X100712352Y-131224500D01*
X100507648Y-131224500D01*
X100483329Y-131228351D01*
X100305465Y-131256522D01*
X100110776Y-131319781D01*
X99928386Y-131412715D01*
X99762786Y-131533028D01*
X99618028Y-131677786D01*
X99497715Y-131843386D01*
X99450485Y-131936080D01*
X99402510Y-131986876D01*
X99334689Y-132003671D01*
X99268554Y-131981134D01*
X99229515Y-131936080D01*
X99228883Y-131934840D01*
X99182287Y-131843390D01*
X99167327Y-131822799D01*
X99061971Y-131677786D01*
X98917213Y-131533028D01*
X98751613Y-131412715D01*
X98751612Y-131412714D01*
X98751610Y-131412713D01*
X98685782Y-131379172D01*
X98569223Y-131319781D01*
X98374534Y-131256522D01*
X98199995Y-131228878D01*
X98172352Y-131224500D01*
X97967648Y-131224500D01*
X97943329Y-131228351D01*
X97765465Y-131256522D01*
X97570776Y-131319781D01*
X97388386Y-131412715D01*
X97222786Y-131533028D01*
X97078028Y-131677786D01*
X96957715Y-131843386D01*
X96910485Y-131936080D01*
X96862510Y-131986876D01*
X96794689Y-132003671D01*
X96728554Y-131981134D01*
X96689515Y-131936080D01*
X96688883Y-131934840D01*
X96642287Y-131843390D01*
X96627327Y-131822799D01*
X96521971Y-131677786D01*
X96377213Y-131533028D01*
X96211613Y-131412715D01*
X96211612Y-131412714D01*
X96211610Y-131412713D01*
X96145782Y-131379172D01*
X96029223Y-131319781D01*
X95834534Y-131256522D01*
X95659995Y-131228878D01*
X95632352Y-131224500D01*
X95427648Y-131224500D01*
X95403329Y-131228351D01*
X95225465Y-131256522D01*
X95030776Y-131319781D01*
X94848386Y-131412715D01*
X94682786Y-131533028D01*
X94538028Y-131677786D01*
X94417715Y-131843386D01*
X94370485Y-131936080D01*
X94322510Y-131986876D01*
X94254689Y-132003671D01*
X94188554Y-131981134D01*
X94149515Y-131936080D01*
X94148883Y-131934840D01*
X94102287Y-131843390D01*
X94087327Y-131822799D01*
X93981971Y-131677786D01*
X93837213Y-131533028D01*
X93671613Y-131412715D01*
X93671612Y-131412714D01*
X93671610Y-131412713D01*
X93605782Y-131379172D01*
X93489223Y-131319781D01*
X93294534Y-131256522D01*
X93119995Y-131228878D01*
X93092352Y-131224500D01*
X92887648Y-131224500D01*
X92863329Y-131228351D01*
X92685465Y-131256522D01*
X92490776Y-131319781D01*
X92308386Y-131412715D01*
X92142786Y-131533028D01*
X91998028Y-131677786D01*
X91877715Y-131843386D01*
X91784781Y-132025776D01*
X91721522Y-132220465D01*
X91689500Y-132422648D01*
X76612248Y-132422648D01*
X76655104Y-132379792D01*
X76657456Y-132376555D01*
X76680462Y-132344891D01*
X76780048Y-132207820D01*
X76780047Y-132207820D01*
X76780051Y-132207816D01*
X76876557Y-132018412D01*
X76942246Y-131816243D01*
X76975500Y-131606287D01*
X76975500Y-131393713D01*
X76942246Y-131183757D01*
X76876557Y-130981588D01*
X76876555Y-130981585D01*
X76876555Y-130981583D01*
X76791973Y-130815582D01*
X76780051Y-130792184D01*
X76780049Y-130792181D01*
X76780048Y-130792179D01*
X76655109Y-130620213D01*
X76516294Y-130481398D01*
X76482809Y-130420075D01*
X76487793Y-130350383D01*
X76529665Y-130294450D01*
X76538879Y-130288178D01*
X76544331Y-130284814D01*
X76544334Y-130284814D01*
X76693656Y-130192712D01*
X76817712Y-130068656D01*
X76909814Y-129919334D01*
X76964999Y-129752797D01*
X76975500Y-129650009D01*
X76975499Y-129476351D01*
X76995183Y-129409314D01*
X77047987Y-129363559D01*
X77117145Y-129353615D01*
X77180701Y-129382640D01*
X77202601Y-129407461D01*
X77222863Y-129437785D01*
X77362214Y-129577136D01*
X77362218Y-129577139D01*
X77526079Y-129686628D01*
X77526092Y-129686635D01*
X77688139Y-129753756D01*
X77708165Y-129762051D01*
X77708169Y-129762051D01*
X77708170Y-129762052D01*
X77901456Y-129800500D01*
X77901459Y-129800500D01*
X78098543Y-129800500D01*
X78228622Y-129774625D01*
X78291835Y-129762051D01*
X78473914Y-129686632D01*
X78637782Y-129577139D01*
X78777139Y-129437782D01*
X78886632Y-129273914D01*
X78891729Y-129261610D01*
X78954407Y-129110289D01*
X78962051Y-129091835D01*
X79000500Y-128898541D01*
X79000500Y-128721153D01*
X95599500Y-128721153D01*
X95599500Y-128878846D01*
X95630261Y-129033489D01*
X95630264Y-129033501D01*
X95690602Y-129179172D01*
X95690609Y-129179185D01*
X95778210Y-129310288D01*
X95778213Y-129310292D01*
X95889707Y-129421786D01*
X95889711Y-129421789D01*
X96020814Y-129509390D01*
X96020827Y-129509397D01*
X96137573Y-129557754D01*
X96166503Y-129569737D01*
X96321153Y-129600499D01*
X96321156Y-129600500D01*
X96321158Y-129600500D01*
X96478844Y-129600500D01*
X96478845Y-129600499D01*
X96633497Y-129569737D01*
X96779179Y-129509394D01*
X96910289Y-129421789D01*
X97021789Y-129310289D01*
X97109394Y-129179179D01*
X97169737Y-129033497D01*
X97200500Y-128878842D01*
X97200500Y-128721158D01*
X97200500Y-128721155D01*
X97200499Y-128721153D01*
X97192781Y-128682351D01*
X97169737Y-128566503D01*
X97150955Y-128521158D01*
X97109397Y-128420827D01*
X97109390Y-128420814D01*
X97021789Y-128289711D01*
X97021786Y-128289707D01*
X96910292Y-128178213D01*
X96910288Y-128178210D01*
X96779185Y-128090609D01*
X96779172Y-128090602D01*
X96633501Y-128030264D01*
X96633489Y-128030261D01*
X96478845Y-127999500D01*
X96478842Y-127999500D01*
X96321158Y-127999500D01*
X96321155Y-127999500D01*
X96166510Y-128030261D01*
X96166498Y-128030264D01*
X96020827Y-128090602D01*
X96020814Y-128090609D01*
X95889711Y-128178210D01*
X95889707Y-128178213D01*
X95778213Y-128289707D01*
X95778210Y-128289711D01*
X95690609Y-128420814D01*
X95690602Y-128420827D01*
X95630264Y-128566498D01*
X95630261Y-128566510D01*
X95599500Y-128721153D01*
X79000500Y-128721153D01*
X79000500Y-128701459D01*
X79000500Y-128701456D01*
X78962052Y-128508170D01*
X78962051Y-128508169D01*
X78962051Y-128508165D01*
X78931232Y-128433760D01*
X78886635Y-128326092D01*
X78886628Y-128326079D01*
X78777139Y-128162218D01*
X78777136Y-128162214D01*
X78637785Y-128022863D01*
X78637781Y-128022860D01*
X78473920Y-127913371D01*
X78473907Y-127913364D01*
X78291839Y-127837950D01*
X78291829Y-127837947D01*
X78098543Y-127799500D01*
X78098541Y-127799500D01*
X77901459Y-127799500D01*
X77901457Y-127799500D01*
X77708170Y-127837947D01*
X77708160Y-127837950D01*
X77526092Y-127913364D01*
X77526079Y-127913371D01*
X77362218Y-128022860D01*
X77362214Y-128022863D01*
X77222863Y-128162214D01*
X77222860Y-128162218D01*
X77172645Y-128237370D01*
X77119032Y-128282175D01*
X77049707Y-128290882D01*
X76986680Y-128260727D01*
X76951837Y-128207483D01*
X76942137Y-128178210D01*
X76909814Y-128080666D01*
X76817712Y-127931344D01*
X76693656Y-127807288D01*
X76572860Y-127732781D01*
X76544336Y-127715187D01*
X76544331Y-127715185D01*
X76542862Y-127714698D01*
X76377797Y-127660001D01*
X76377795Y-127660000D01*
X76275010Y-127649500D01*
X74724998Y-127649500D01*
X74724981Y-127649501D01*
X74622203Y-127660000D01*
X74622200Y-127660001D01*
X74455668Y-127715185D01*
X74455663Y-127715187D01*
X74306342Y-127807289D01*
X74182289Y-127931342D01*
X74090187Y-128080663D01*
X74090185Y-128080668D01*
X74086892Y-128090606D01*
X74035001Y-128247203D01*
X74035001Y-128247204D01*
X74035000Y-128247204D01*
X74024500Y-128349983D01*
X66665026Y-128349983D01*
X66626557Y-128231588D01*
X66530051Y-128042184D01*
X66530049Y-128042181D01*
X66530048Y-128042179D01*
X66405109Y-127870213D01*
X66254792Y-127719896D01*
X66248308Y-127715185D01*
X66090204Y-127600316D01*
X66047540Y-127544989D01*
X66041561Y-127475376D01*
X66074166Y-127413580D01*
X66090199Y-127399686D01*
X66254792Y-127280104D01*
X66405104Y-127129792D01*
X66405106Y-127129788D01*
X66405109Y-127129786D01*
X66530048Y-126957820D01*
X66530047Y-126957820D01*
X66530051Y-126957816D01*
X66626557Y-126768412D01*
X66692246Y-126566243D01*
X66725500Y-126356287D01*
X66725500Y-126143713D01*
X66692246Y-125933757D01*
X66626557Y-125731588D01*
X66530051Y-125542184D01*
X66530049Y-125542181D01*
X66530048Y-125542179D01*
X66405109Y-125370213D01*
X66254792Y-125219896D01*
X66217471Y-125192781D01*
X66090204Y-125100316D01*
X66047540Y-125044989D01*
X66041561Y-124975376D01*
X66074166Y-124913580D01*
X66090199Y-124899686D01*
X66254792Y-124780104D01*
X66405104Y-124629792D01*
X66405106Y-124629788D01*
X66405109Y-124629786D01*
X66530048Y-124457820D01*
X66530047Y-124457820D01*
X66530051Y-124457816D01*
X66626557Y-124268412D01*
X66692246Y-124066243D01*
X66725500Y-123856287D01*
X66725500Y-123643713D01*
X66692246Y-123433757D01*
X66626557Y-123231588D01*
X66530051Y-123042184D01*
X66530049Y-123042181D01*
X66530048Y-123042179D01*
X66405109Y-122870213D01*
X66254786Y-122719890D01*
X66082820Y-122594951D01*
X65893414Y-122498444D01*
X65893413Y-122498443D01*
X65893412Y-122498443D01*
X65691243Y-122432754D01*
X65691241Y-122432753D01*
X65691240Y-122432753D01*
X65529957Y-122407208D01*
X65481287Y-122399500D01*
X65018713Y-122399500D01*
X64970042Y-122407208D01*
X64808760Y-122432753D01*
X64606585Y-122498444D01*
X64417179Y-122594951D01*
X64245213Y-122719890D01*
X64094890Y-122870213D01*
X63969951Y-123042179D01*
X63873444Y-123231585D01*
X63807753Y-123433760D01*
X63774500Y-123643713D01*
X61750500Y-123643713D01*
X61750500Y-114643713D01*
X63749500Y-114643713D01*
X63749500Y-114856287D01*
X63782754Y-115066243D01*
X63837098Y-115233497D01*
X63848444Y-115268414D01*
X63944951Y-115457820D01*
X64069890Y-115629786D01*
X64209068Y-115768964D01*
X64242553Y-115830287D01*
X64237569Y-115899979D01*
X64195697Y-115955912D01*
X64186484Y-115962183D01*
X64031659Y-116057680D01*
X64031655Y-116057683D01*
X63907684Y-116181654D01*
X63815643Y-116330875D01*
X63815641Y-116330880D01*
X63760494Y-116497302D01*
X63760493Y-116497309D01*
X63750000Y-116600013D01*
X63750000Y-117000000D01*
X64816988Y-117000000D01*
X64784075Y-117057007D01*
X64750000Y-117184174D01*
X64750000Y-117315826D01*
X64784075Y-117442993D01*
X64816988Y-117500000D01*
X63750001Y-117500000D01*
X63750001Y-117899986D01*
X63760494Y-118002697D01*
X63815641Y-118169119D01*
X63815643Y-118169124D01*
X63907684Y-118318345D01*
X64031654Y-118442315D01*
X64180875Y-118534356D01*
X64180880Y-118534358D01*
X64347302Y-118589505D01*
X64347309Y-118589506D01*
X64450019Y-118599999D01*
X64999999Y-118599999D01*
X65000000Y-118599998D01*
X65000000Y-117683012D01*
X65057007Y-117715925D01*
X65184174Y-117750000D01*
X65315826Y-117750000D01*
X65442993Y-117715925D01*
X65500000Y-117683012D01*
X65500000Y-118599999D01*
X66049972Y-118599999D01*
X66049986Y-118599998D01*
X66152697Y-118589505D01*
X66319119Y-118534358D01*
X66319124Y-118534356D01*
X66468345Y-118442315D01*
X66592315Y-118318345D01*
X66684356Y-118169124D01*
X66684358Y-118169119D01*
X66739505Y-118002697D01*
X66739506Y-118002690D01*
X66749999Y-117899986D01*
X66750000Y-117899973D01*
X66750000Y-117500000D01*
X65683012Y-117500000D01*
X65715925Y-117442993D01*
X65750000Y-117315826D01*
X65750000Y-117184174D01*
X65715925Y-117057007D01*
X65683012Y-117000000D01*
X66749999Y-117000000D01*
X66749999Y-116600028D01*
X66749998Y-116600013D01*
X66739505Y-116497302D01*
X66684358Y-116330880D01*
X66684356Y-116330875D01*
X66592315Y-116181654D01*
X66468345Y-116057684D01*
X66313515Y-115962184D01*
X66266791Y-115910236D01*
X66255568Y-115841273D01*
X66283412Y-115777191D01*
X66290909Y-115768986D01*
X66430104Y-115629792D01*
X66435919Y-115621789D01*
X66555048Y-115457820D01*
X66555047Y-115457820D01*
X66555051Y-115457816D01*
X66651557Y-115268412D01*
X66717246Y-115066243D01*
X66750500Y-114856287D01*
X66750500Y-114643713D01*
X66717246Y-114433757D01*
X66690026Y-114349983D01*
X75049500Y-114349983D01*
X75049500Y-115650001D01*
X75049501Y-115650018D01*
X75060000Y-115752796D01*
X75060001Y-115752799D01*
X75105623Y-115890476D01*
X75115186Y-115919334D01*
X75207288Y-116068656D01*
X75331344Y-116192712D01*
X75473031Y-116280105D01*
X75486120Y-116288178D01*
X75532845Y-116340126D01*
X75544068Y-116409088D01*
X75516224Y-116473171D01*
X75508706Y-116481398D01*
X75369889Y-116620215D01*
X75244951Y-116792179D01*
X75148444Y-116981585D01*
X75082753Y-117183760D01*
X75049500Y-117393713D01*
X75049500Y-117606286D01*
X75075178Y-117768414D01*
X75082754Y-117816243D01*
X75128755Y-117957820D01*
X75148444Y-118018414D01*
X75244951Y-118207820D01*
X75369890Y-118379786D01*
X75520209Y-118530105D01*
X75520214Y-118530109D01*
X75684793Y-118649682D01*
X75727459Y-118705011D01*
X75733438Y-118774625D01*
X75700833Y-118836420D01*
X75684793Y-118850318D01*
X75520214Y-118969890D01*
X75520209Y-118969894D01*
X75369890Y-119120213D01*
X75244951Y-119292179D01*
X75148444Y-119481585D01*
X75082753Y-119683760D01*
X75049500Y-119893713D01*
X75049500Y-120106286D01*
X75076758Y-120278390D01*
X75082754Y-120316243D01*
X75143369Y-120502797D01*
X75148444Y-120518414D01*
X75244951Y-120707820D01*
X75369890Y-120879786D01*
X75520209Y-121030105D01*
X75520214Y-121030109D01*
X75684793Y-121149682D01*
X75727459Y-121205011D01*
X75733438Y-121274625D01*
X75700833Y-121336420D01*
X75684793Y-121350318D01*
X75520214Y-121469890D01*
X75520209Y-121469894D01*
X75369890Y-121620213D01*
X75244951Y-121792179D01*
X75148444Y-121981585D01*
X75082753Y-122183760D01*
X75050450Y-122387713D01*
X75049500Y-122393713D01*
X75049500Y-122606287D01*
X75053298Y-122630264D01*
X75076730Y-122778213D01*
X75082754Y-122816243D01*
X75142714Y-123000781D01*
X75148444Y-123018414D01*
X75244951Y-123207820D01*
X75369890Y-123379786D01*
X75520213Y-123530109D01*
X75692179Y-123655048D01*
X75692181Y-123655049D01*
X75692184Y-123655051D01*
X75881588Y-123751557D01*
X76083757Y-123817246D01*
X76293713Y-123850500D01*
X76293714Y-123850500D01*
X76756286Y-123850500D01*
X76756287Y-123850500D01*
X76966243Y-123817246D01*
X77168412Y-123751557D01*
X77357816Y-123655051D01*
X77387494Y-123633489D01*
X77529786Y-123530109D01*
X77529788Y-123530106D01*
X77529792Y-123530104D01*
X77680104Y-123379792D01*
X77722707Y-123321153D01*
X100999500Y-123321153D01*
X100999500Y-123478846D01*
X101030261Y-123633489D01*
X101030264Y-123633501D01*
X101090602Y-123779172D01*
X101090609Y-123779185D01*
X101178210Y-123910288D01*
X101178213Y-123910292D01*
X101289707Y-124021786D01*
X101289711Y-124021789D01*
X101420814Y-124109390D01*
X101420827Y-124109397D01*
X101566498Y-124169735D01*
X101566503Y-124169737D01*
X101721153Y-124200499D01*
X101721156Y-124200500D01*
X101721158Y-124200500D01*
X101878844Y-124200500D01*
X101878845Y-124200499D01*
X102033497Y-124169737D01*
X102179179Y-124109394D01*
X102310289Y-124021789D01*
X102421789Y-123910289D01*
X102509394Y-123779179D01*
X102569737Y-123633497D01*
X102600500Y-123478842D01*
X102600500Y-123321158D01*
X102600500Y-123321155D01*
X102600499Y-123321153D01*
X102582683Y-123231588D01*
X102569737Y-123166503D01*
X102518241Y-123042179D01*
X102509397Y-123020827D01*
X102509390Y-123020814D01*
X102421789Y-122889711D01*
X102421786Y-122889707D01*
X102310292Y-122778213D01*
X102310288Y-122778210D01*
X102179185Y-122690609D01*
X102179172Y-122690602D01*
X102033501Y-122630264D01*
X102033489Y-122630261D01*
X101878845Y-122599500D01*
X101878842Y-122599500D01*
X101721158Y-122599500D01*
X101721155Y-122599500D01*
X101566510Y-122630261D01*
X101566498Y-122630264D01*
X101420827Y-122690602D01*
X101420814Y-122690609D01*
X101289711Y-122778210D01*
X101289707Y-122778213D01*
X101178213Y-122889707D01*
X101178210Y-122889711D01*
X101090609Y-123020814D01*
X101090602Y-123020827D01*
X101030264Y-123166498D01*
X101030261Y-123166510D01*
X100999500Y-123321153D01*
X77722707Y-123321153D01*
X77805051Y-123207816D01*
X77901557Y-123018412D01*
X77967246Y-122816243D01*
X78000500Y-122606287D01*
X78000500Y-122393713D01*
X77967246Y-122183757D01*
X77901557Y-121981588D01*
X77805051Y-121792184D01*
X77805049Y-121792181D01*
X77805048Y-121792179D01*
X77680109Y-121620213D01*
X77529792Y-121469896D01*
X77510045Y-121455549D01*
X77365204Y-121350316D01*
X77322540Y-121294989D01*
X77316561Y-121225376D01*
X77349166Y-121163580D01*
X77365199Y-121149686D01*
X77529792Y-121030104D01*
X77680104Y-120879792D01*
X77680106Y-120879788D01*
X77680109Y-120879786D01*
X77805050Y-120707817D01*
X77815845Y-120686632D01*
X77831290Y-120656319D01*
X77879264Y-120605523D01*
X77947085Y-120588727D01*
X78010666Y-120609511D01*
X78126079Y-120686628D01*
X78126092Y-120686635D01*
X78308160Y-120762049D01*
X78308165Y-120762051D01*
X78308169Y-120762051D01*
X78308170Y-120762052D01*
X78501456Y-120800500D01*
X78501459Y-120800500D01*
X78698543Y-120800500D01*
X78859856Y-120768412D01*
X78891835Y-120762051D01*
X79073914Y-120686632D01*
X79237782Y-120577139D01*
X79377139Y-120437782D01*
X79486632Y-120273914D01*
X79562051Y-120091835D01*
X79586678Y-119968028D01*
X79600500Y-119898543D01*
X79600500Y-119701456D01*
X79562052Y-119508170D01*
X79562051Y-119508169D01*
X79562051Y-119508165D01*
X79544986Y-119466966D01*
X79486635Y-119326092D01*
X79486628Y-119326079D01*
X79377139Y-119162218D01*
X79377136Y-119162214D01*
X79237785Y-119022863D01*
X79237781Y-119022860D01*
X79073920Y-118913371D01*
X79073907Y-118913364D01*
X78891839Y-118837950D01*
X78891829Y-118837947D01*
X78698543Y-118799500D01*
X78698541Y-118799500D01*
X78501459Y-118799500D01*
X78501457Y-118799500D01*
X78308170Y-118837947D01*
X78308160Y-118837950D01*
X78126092Y-118913364D01*
X78126079Y-118913371D01*
X77962218Y-119022860D01*
X77860069Y-119125009D01*
X77798746Y-119158493D01*
X77729054Y-119153509D01*
X77684707Y-119122494D01*
X77683549Y-119123653D01*
X77529792Y-118969896D01*
X77460046Y-118919223D01*
X77365204Y-118850316D01*
X77322540Y-118794989D01*
X77316561Y-118725376D01*
X77349166Y-118663580D01*
X77365199Y-118649686D01*
X77529792Y-118530104D01*
X77680104Y-118379792D01*
X77680106Y-118379788D01*
X77680109Y-118379786D01*
X77805048Y-118207820D01*
X77805047Y-118207820D01*
X77805051Y-118207816D01*
X77901557Y-118018412D01*
X77967246Y-117816243D01*
X78000500Y-117606287D01*
X78000500Y-117393713D01*
X77967246Y-117183757D01*
X77901557Y-116981588D01*
X77897002Y-116972648D01*
X91689500Y-116972648D01*
X91689500Y-118577351D01*
X91721522Y-118779534D01*
X91784781Y-118974223D01*
X91846295Y-119094949D01*
X91861611Y-119125009D01*
X91877715Y-119156613D01*
X91998028Y-119322213D01*
X92142786Y-119466971D01*
X92297693Y-119579515D01*
X92308390Y-119587287D01*
X92382838Y-119625220D01*
X92490776Y-119680218D01*
X92490778Y-119680218D01*
X92490781Y-119680220D01*
X92556139Y-119701456D01*
X92685465Y-119743477D01*
X92756829Y-119754780D01*
X92887648Y-119775500D01*
X92887649Y-119775500D01*
X93092351Y-119775500D01*
X93092352Y-119775500D01*
X93294534Y-119743477D01*
X93489219Y-119680220D01*
X93671610Y-119587287D01*
X93780520Y-119508160D01*
X93837213Y-119466971D01*
X93837215Y-119466968D01*
X93837219Y-119466966D01*
X93981966Y-119322219D01*
X93981968Y-119322215D01*
X93981971Y-119322213D01*
X94102284Y-119156614D01*
X94102285Y-119156613D01*
X94102287Y-119156610D01*
X94149516Y-119063917D01*
X94197489Y-119013123D01*
X94265310Y-118996328D01*
X94331445Y-119018865D01*
X94370483Y-119063917D01*
X94414348Y-119150006D01*
X94417715Y-119156614D01*
X94538028Y-119322213D01*
X94682786Y-119466971D01*
X94837693Y-119579515D01*
X94848390Y-119587287D01*
X94922838Y-119625220D01*
X95030776Y-119680218D01*
X95030778Y-119680218D01*
X95030781Y-119680220D01*
X95096139Y-119701456D01*
X95225465Y-119743477D01*
X95296829Y-119754780D01*
X95427648Y-119775500D01*
X95427649Y-119775500D01*
X95632351Y-119775500D01*
X95632352Y-119775500D01*
X95834534Y-119743477D01*
X96029219Y-119680220D01*
X96211610Y-119587287D01*
X96320520Y-119508160D01*
X96377213Y-119466971D01*
X96377215Y-119466968D01*
X96377219Y-119466966D01*
X96521966Y-119322219D01*
X96521968Y-119322215D01*
X96521971Y-119322213D01*
X96642284Y-119156614D01*
X96642285Y-119156613D01*
X96642287Y-119156610D01*
X96689516Y-119063917D01*
X96737489Y-119013123D01*
X96805310Y-118996328D01*
X96871445Y-119018865D01*
X96910483Y-119063917D01*
X96954348Y-119150006D01*
X96957715Y-119156614D01*
X97078028Y-119322213D01*
X97222786Y-119466971D01*
X97377693Y-119579515D01*
X97388390Y-119587287D01*
X97462838Y-119625220D01*
X97570776Y-119680218D01*
X97570778Y-119680218D01*
X97570781Y-119680220D01*
X97636139Y-119701456D01*
X97765465Y-119743477D01*
X97836829Y-119754780D01*
X97967648Y-119775500D01*
X97967649Y-119775500D01*
X98172351Y-119775500D01*
X98172352Y-119775500D01*
X98374534Y-119743477D01*
X98569219Y-119680220D01*
X98751610Y-119587287D01*
X98860520Y-119508160D01*
X98917213Y-119466971D01*
X98917215Y-119466968D01*
X98917219Y-119466966D01*
X99061966Y-119322219D01*
X99061968Y-119322215D01*
X99061971Y-119322213D01*
X99182284Y-119156614D01*
X99182285Y-119156613D01*
X99182287Y-119156610D01*
X99229516Y-119063917D01*
X99277489Y-119013123D01*
X99345310Y-118996328D01*
X99411445Y-119018865D01*
X99450483Y-119063917D01*
X99494348Y-119150006D01*
X99497715Y-119156614D01*
X99618028Y-119322213D01*
X99762786Y-119466971D01*
X99917693Y-119579515D01*
X99928390Y-119587287D01*
X100002838Y-119625220D01*
X100110776Y-119680218D01*
X100110778Y-119680218D01*
X100110781Y-119680220D01*
X100176139Y-119701456D01*
X100305465Y-119743477D01*
X100376829Y-119754780D01*
X100507648Y-119775500D01*
X100507649Y-119775500D01*
X100712351Y-119775500D01*
X100712352Y-119775500D01*
X100914534Y-119743477D01*
X101109219Y-119680220D01*
X101291610Y-119587287D01*
X101400520Y-119508160D01*
X101457213Y-119466971D01*
X101457215Y-119466968D01*
X101457219Y-119466966D01*
X101601966Y-119322219D01*
X101601968Y-119322215D01*
X101601971Y-119322213D01*
X101722284Y-119156614D01*
X101722285Y-119156613D01*
X101722287Y-119156610D01*
X101769516Y-119063917D01*
X101817489Y-119013123D01*
X101885310Y-118996328D01*
X101951445Y-119018865D01*
X101990483Y-119063917D01*
X102034348Y-119150006D01*
X102037715Y-119156614D01*
X102158028Y-119322213D01*
X102302786Y-119466971D01*
X102457693Y-119579515D01*
X102468390Y-119587287D01*
X102542838Y-119625220D01*
X102650776Y-119680218D01*
X102650778Y-119680218D01*
X102650781Y-119680220D01*
X102716139Y-119701456D01*
X102845465Y-119743477D01*
X102916829Y-119754780D01*
X103047648Y-119775500D01*
X103047649Y-119775500D01*
X103252351Y-119775500D01*
X103252352Y-119775500D01*
X103454534Y-119743477D01*
X103649219Y-119680220D01*
X103831610Y-119587287D01*
X103940520Y-119508160D01*
X103997213Y-119466971D01*
X103997215Y-119466968D01*
X103997219Y-119466966D01*
X104141966Y-119322219D01*
X104141968Y-119322215D01*
X104141971Y-119322213D01*
X104262284Y-119156614D01*
X104262285Y-119156613D01*
X104262287Y-119156610D01*
X104309516Y-119063917D01*
X104357489Y-119013123D01*
X104425310Y-118996328D01*
X104491445Y-119018865D01*
X104530483Y-119063917D01*
X104574348Y-119150006D01*
X104577715Y-119156614D01*
X104698028Y-119322213D01*
X104842786Y-119466971D01*
X104997693Y-119579515D01*
X105008390Y-119587287D01*
X105082838Y-119625220D01*
X105190776Y-119680218D01*
X105190778Y-119680218D01*
X105190781Y-119680220D01*
X105256139Y-119701456D01*
X105385465Y-119743477D01*
X105456829Y-119754780D01*
X105587648Y-119775500D01*
X105587649Y-119775500D01*
X105792351Y-119775500D01*
X105792352Y-119775500D01*
X105994534Y-119743477D01*
X106189219Y-119680220D01*
X106371610Y-119587287D01*
X106480520Y-119508160D01*
X106537213Y-119466971D01*
X106537215Y-119466968D01*
X106537219Y-119466966D01*
X106681966Y-119322219D01*
X106681968Y-119322215D01*
X106681971Y-119322213D01*
X106802284Y-119156614D01*
X106802285Y-119156613D01*
X106802287Y-119156610D01*
X106849516Y-119063917D01*
X106897489Y-119013123D01*
X106965310Y-118996328D01*
X107031445Y-119018865D01*
X107070483Y-119063917D01*
X107114348Y-119150006D01*
X107117715Y-119156614D01*
X107238028Y-119322213D01*
X107382786Y-119466971D01*
X107537693Y-119579515D01*
X107548390Y-119587287D01*
X107622838Y-119625220D01*
X107730776Y-119680218D01*
X107730778Y-119680218D01*
X107730781Y-119680220D01*
X107796139Y-119701456D01*
X107925465Y-119743477D01*
X107996829Y-119754780D01*
X108127648Y-119775500D01*
X108127649Y-119775500D01*
X108332351Y-119775500D01*
X108332352Y-119775500D01*
X108534534Y-119743477D01*
X108729219Y-119680220D01*
X108911610Y-119587287D01*
X109020520Y-119508160D01*
X109077213Y-119466971D01*
X109077215Y-119466968D01*
X109077219Y-119466966D01*
X109221966Y-119322219D01*
X109221968Y-119322215D01*
X109221971Y-119322213D01*
X109342284Y-119156614D01*
X109342285Y-119156613D01*
X109342287Y-119156610D01*
X109389516Y-119063917D01*
X109437489Y-119013123D01*
X109505310Y-118996328D01*
X109571445Y-119018865D01*
X109610483Y-119063917D01*
X109654348Y-119150006D01*
X109657715Y-119156614D01*
X109778028Y-119322213D01*
X109922786Y-119466971D01*
X110077693Y-119579515D01*
X110088390Y-119587287D01*
X110162838Y-119625220D01*
X110270776Y-119680218D01*
X110270778Y-119680218D01*
X110270781Y-119680220D01*
X110336139Y-119701456D01*
X110465465Y-119743477D01*
X110536829Y-119754780D01*
X110667648Y-119775500D01*
X110667649Y-119775500D01*
X110872351Y-119775500D01*
X110872352Y-119775500D01*
X111074534Y-119743477D01*
X111269219Y-119680220D01*
X111451610Y-119587287D01*
X111560520Y-119508160D01*
X111617213Y-119466971D01*
X111617215Y-119466968D01*
X111617219Y-119466966D01*
X111761966Y-119322219D01*
X111761968Y-119322215D01*
X111761971Y-119322213D01*
X111882284Y-119156614D01*
X111882285Y-119156613D01*
X111882287Y-119156610D01*
X111929516Y-119063917D01*
X111977489Y-119013123D01*
X112045310Y-118996328D01*
X112111445Y-119018865D01*
X112150483Y-119063917D01*
X112194348Y-119150006D01*
X112197715Y-119156614D01*
X112318028Y-119322213D01*
X112462786Y-119466971D01*
X112617693Y-119579515D01*
X112628390Y-119587287D01*
X112702838Y-119625220D01*
X112810776Y-119680218D01*
X112810778Y-119680218D01*
X112810781Y-119680220D01*
X112876139Y-119701456D01*
X113005465Y-119743477D01*
X113076829Y-119754780D01*
X113207648Y-119775500D01*
X113207649Y-119775500D01*
X113412351Y-119775500D01*
X113412352Y-119775500D01*
X113614534Y-119743477D01*
X113809219Y-119680220D01*
X113991610Y-119587287D01*
X114100520Y-119508160D01*
X114157213Y-119466971D01*
X114157215Y-119466968D01*
X114157219Y-119466966D01*
X114301966Y-119322219D01*
X114301968Y-119322215D01*
X114301971Y-119322213D01*
X114422284Y-119156614D01*
X114422285Y-119156613D01*
X114422287Y-119156610D01*
X114469516Y-119063917D01*
X114517489Y-119013123D01*
X114585310Y-118996328D01*
X114651445Y-119018865D01*
X114690483Y-119063917D01*
X114734348Y-119150006D01*
X114737715Y-119156614D01*
X114858028Y-119322213D01*
X115002786Y-119466971D01*
X115157693Y-119579515D01*
X115168390Y-119587287D01*
X115242838Y-119625220D01*
X115350776Y-119680218D01*
X115350778Y-119680218D01*
X115350781Y-119680220D01*
X115416139Y-119701456D01*
X115545465Y-119743477D01*
X115616829Y-119754780D01*
X115747648Y-119775500D01*
X115747649Y-119775500D01*
X115952351Y-119775500D01*
X115952352Y-119775500D01*
X116154534Y-119743477D01*
X116349219Y-119680220D01*
X116531610Y-119587287D01*
X116640520Y-119508160D01*
X116697213Y-119466971D01*
X116697215Y-119466968D01*
X116697219Y-119466966D01*
X116841966Y-119322219D01*
X116841968Y-119322215D01*
X116841971Y-119322213D01*
X116962284Y-119156614D01*
X116962285Y-119156613D01*
X116962287Y-119156610D01*
X117009516Y-119063917D01*
X117057489Y-119013123D01*
X117125310Y-118996328D01*
X117191445Y-119018865D01*
X117230483Y-119063917D01*
X117274348Y-119150006D01*
X117277715Y-119156614D01*
X117398028Y-119322213D01*
X117542786Y-119466971D01*
X117697693Y-119579515D01*
X117708390Y-119587287D01*
X117782838Y-119625220D01*
X117890776Y-119680218D01*
X117890778Y-119680218D01*
X117890781Y-119680220D01*
X117956139Y-119701456D01*
X118085465Y-119743477D01*
X118156829Y-119754780D01*
X118287648Y-119775500D01*
X118287649Y-119775500D01*
X118492351Y-119775500D01*
X118492352Y-119775500D01*
X118694534Y-119743477D01*
X118889219Y-119680220D01*
X119071610Y-119587287D01*
X119180520Y-119508160D01*
X119237213Y-119466971D01*
X119237215Y-119466968D01*
X119237219Y-119466966D01*
X119381966Y-119322219D01*
X119381968Y-119322215D01*
X119381971Y-119322213D01*
X119502284Y-119156614D01*
X119502285Y-119156613D01*
X119502287Y-119156610D01*
X119549516Y-119063917D01*
X119597489Y-119013123D01*
X119665310Y-118996328D01*
X119731445Y-119018865D01*
X119770483Y-119063917D01*
X119814348Y-119150006D01*
X119817715Y-119156614D01*
X119938028Y-119322213D01*
X120082786Y-119466971D01*
X120237693Y-119579515D01*
X120248390Y-119587287D01*
X120322838Y-119625220D01*
X120430776Y-119680218D01*
X120430778Y-119680218D01*
X120430781Y-119680220D01*
X120496139Y-119701456D01*
X120625465Y-119743477D01*
X120696829Y-119754780D01*
X120827648Y-119775500D01*
X120827649Y-119775500D01*
X121032351Y-119775500D01*
X121032352Y-119775500D01*
X121234534Y-119743477D01*
X121429219Y-119680220D01*
X121611610Y-119587287D01*
X121720520Y-119508160D01*
X121777213Y-119466971D01*
X121777215Y-119466968D01*
X121777219Y-119466966D01*
X121921966Y-119322219D01*
X121921968Y-119322215D01*
X121921971Y-119322213D01*
X122042284Y-119156614D01*
X122042285Y-119156613D01*
X122042287Y-119156610D01*
X122089516Y-119063917D01*
X122137489Y-119013123D01*
X122205310Y-118996328D01*
X122271445Y-119018865D01*
X122310483Y-119063917D01*
X122354348Y-119150006D01*
X122357715Y-119156614D01*
X122478028Y-119322213D01*
X122622786Y-119466971D01*
X122777693Y-119579515D01*
X122788390Y-119587287D01*
X122862838Y-119625220D01*
X122970776Y-119680218D01*
X122970778Y-119680218D01*
X122970781Y-119680220D01*
X123036139Y-119701456D01*
X123165465Y-119743477D01*
X123236829Y-119754780D01*
X123367648Y-119775500D01*
X123367649Y-119775500D01*
X123572351Y-119775500D01*
X123572352Y-119775500D01*
X123774534Y-119743477D01*
X123969219Y-119680220D01*
X124151610Y-119587287D01*
X124260520Y-119508160D01*
X124317213Y-119466971D01*
X124317215Y-119466968D01*
X124317219Y-119466966D01*
X124461966Y-119322219D01*
X124461968Y-119322215D01*
X124461971Y-119322213D01*
X124582284Y-119156614D01*
X124582285Y-119156613D01*
X124582287Y-119156610D01*
X124629516Y-119063917D01*
X124677489Y-119013123D01*
X124745310Y-118996328D01*
X124811445Y-119018865D01*
X124850483Y-119063917D01*
X124894348Y-119150006D01*
X124897715Y-119156614D01*
X125018028Y-119322213D01*
X125162786Y-119466971D01*
X125317693Y-119579515D01*
X125328390Y-119587287D01*
X125402838Y-119625220D01*
X125510776Y-119680218D01*
X125510778Y-119680218D01*
X125510781Y-119680220D01*
X125576139Y-119701456D01*
X125705465Y-119743477D01*
X125776829Y-119754780D01*
X125907648Y-119775500D01*
X125907649Y-119775500D01*
X126112351Y-119775500D01*
X126112352Y-119775500D01*
X126314534Y-119743477D01*
X126509219Y-119680220D01*
X126691610Y-119587287D01*
X126800520Y-119508160D01*
X126857213Y-119466971D01*
X126857215Y-119466968D01*
X126857219Y-119466966D01*
X127001966Y-119322219D01*
X127001968Y-119322215D01*
X127001971Y-119322213D01*
X127076312Y-119219890D01*
X127122287Y-119156610D01*
X127212872Y-118978827D01*
X127215218Y-118974223D01*
X127215218Y-118974222D01*
X127215220Y-118974219D01*
X127278477Y-118779534D01*
X127310500Y-118577352D01*
X127310500Y-116972648D01*
X127294275Y-116870208D01*
X127278477Y-116770465D01*
X127223193Y-116600319D01*
X127215220Y-116575781D01*
X127215218Y-116575778D01*
X127215218Y-116575776D01*
X127164061Y-116475376D01*
X127122287Y-116393390D01*
X127105448Y-116370213D01*
X127001971Y-116227786D01*
X126857213Y-116083028D01*
X126691613Y-115962715D01*
X126691612Y-115962714D01*
X126691610Y-115962713D01*
X126535677Y-115883261D01*
X126509223Y-115869781D01*
X126314534Y-115806522D01*
X126132227Y-115777648D01*
X127884500Y-115777648D01*
X127884500Y-115982351D01*
X127916522Y-116184534D01*
X127979781Y-116379223D01*
X128031843Y-116481398D01*
X128062812Y-116542179D01*
X128072715Y-116561613D01*
X128193028Y-116727213D01*
X128337786Y-116871971D01*
X128476359Y-116972648D01*
X128503390Y-116992287D01*
X128563393Y-117022860D01*
X128596080Y-117039515D01*
X128646876Y-117087490D01*
X128663671Y-117155311D01*
X128641134Y-117221446D01*
X128596080Y-117260485D01*
X128503386Y-117307715D01*
X128337786Y-117428028D01*
X128193028Y-117572786D01*
X128072715Y-117738386D01*
X127979781Y-117920776D01*
X127916522Y-118115465D01*
X127884500Y-118317648D01*
X127884500Y-118522351D01*
X127916522Y-118724534D01*
X127979781Y-118919223D01*
X128030552Y-119018865D01*
X128072055Y-119100319D01*
X128072715Y-119101613D01*
X128193028Y-119267213D01*
X128337786Y-119411971D01*
X128492749Y-119524556D01*
X128503390Y-119532287D01*
X128594840Y-119578883D01*
X128596080Y-119579515D01*
X128646876Y-119627490D01*
X128663671Y-119695311D01*
X128641134Y-119761446D01*
X128596080Y-119800485D01*
X128503386Y-119847715D01*
X128337786Y-119968028D01*
X128193028Y-120112786D01*
X128072715Y-120278386D01*
X127979781Y-120460776D01*
X127916522Y-120655465D01*
X127884500Y-120857648D01*
X127884500Y-121062351D01*
X127916522Y-121264534D01*
X127979781Y-121459223D01*
X128072715Y-121641613D01*
X128193028Y-121807213D01*
X128337786Y-121951971D01*
X128492749Y-122064556D01*
X128503390Y-122072287D01*
X128594840Y-122118883D01*
X128596080Y-122119515D01*
X128646876Y-122167490D01*
X128663671Y-122235311D01*
X128641134Y-122301446D01*
X128596080Y-122340485D01*
X128503386Y-122387715D01*
X128337786Y-122508028D01*
X128193028Y-122652786D01*
X128072715Y-122818386D01*
X127979781Y-123000776D01*
X127916522Y-123195465D01*
X127884500Y-123397648D01*
X127884500Y-123602351D01*
X127916522Y-123804534D01*
X127979781Y-123999223D01*
X128043691Y-124124653D01*
X128066663Y-124169737D01*
X128072715Y-124181613D01*
X128193028Y-124347213D01*
X128337786Y-124491971D01*
X128492749Y-124604556D01*
X128503390Y-124612287D01*
X128583233Y-124652969D01*
X128596080Y-124659515D01*
X128646876Y-124707490D01*
X128663671Y-124775311D01*
X128641134Y-124841446D01*
X128596080Y-124880485D01*
X128503386Y-124927715D01*
X128337786Y-125048028D01*
X128193028Y-125192786D01*
X128072715Y-125358386D01*
X127979781Y-125540776D01*
X127916522Y-125735465D01*
X127884500Y-125937648D01*
X127884500Y-126142351D01*
X127916522Y-126344534D01*
X127979781Y-126539223D01*
X128072715Y-126721613D01*
X128193028Y-126887213D01*
X128337786Y-127031971D01*
X128472420Y-127129786D01*
X128503390Y-127152287D01*
X128554269Y-127178211D01*
X128596080Y-127199515D01*
X128646876Y-127247490D01*
X128663671Y-127315311D01*
X128641134Y-127381446D01*
X128596080Y-127420485D01*
X128503386Y-127467715D01*
X128337786Y-127588028D01*
X128193028Y-127732786D01*
X128072715Y-127898386D01*
X127979781Y-128080776D01*
X127916522Y-128275465D01*
X127884500Y-128477648D01*
X127884500Y-128682351D01*
X127916522Y-128884534D01*
X127979781Y-129079223D01*
X128072715Y-129261613D01*
X128193028Y-129427213D01*
X128337786Y-129571971D01*
X128503385Y-129692284D01*
X128503387Y-129692285D01*
X128503390Y-129692287D01*
X128557680Y-129719949D01*
X128596630Y-129739795D01*
X128647426Y-129787770D01*
X128664221Y-129855591D01*
X128641684Y-129921725D01*
X128596630Y-129960765D01*
X128503644Y-130008143D01*
X128459077Y-130040523D01*
X128459077Y-130040524D01*
X129138554Y-130720000D01*
X129132339Y-130720000D01*
X129030606Y-130747259D01*
X128939394Y-130799920D01*
X128864920Y-130874394D01*
X128812259Y-130965606D01*
X128785000Y-131067339D01*
X128785000Y-131073553D01*
X128105524Y-130394077D01*
X128105523Y-130394077D01*
X128073143Y-130438644D01*
X127980244Y-130620968D01*
X127917009Y-130815582D01*
X127885000Y-131017682D01*
X127885000Y-131222317D01*
X127917009Y-131424417D01*
X127980244Y-131619031D01*
X128073141Y-131801350D01*
X128073147Y-131801359D01*
X128105523Y-131845921D01*
X128105524Y-131845922D01*
X128785000Y-131166446D01*
X128785000Y-131172661D01*
X128812259Y-131274394D01*
X128864920Y-131365606D01*
X128939394Y-131440080D01*
X129030606Y-131492741D01*
X129132339Y-131520000D01*
X129138553Y-131520000D01*
X128459076Y-132199474D01*
X128503650Y-132231859D01*
X128685968Y-132324755D01*
X128880582Y-132387990D01*
X129082683Y-132420000D01*
X129287317Y-132420000D01*
X129489417Y-132387990D01*
X129684031Y-132324755D01*
X129866349Y-132231859D01*
X129910921Y-132199474D01*
X129231447Y-131520000D01*
X129237661Y-131520000D01*
X129339394Y-131492741D01*
X129430606Y-131440080D01*
X129505080Y-131365606D01*
X129557741Y-131274394D01*
X129585000Y-131172661D01*
X129585000Y-131166447D01*
X130264474Y-131845921D01*
X130296859Y-131801349D01*
X130389755Y-131619031D01*
X130452990Y-131424417D01*
X130485000Y-131222317D01*
X130485000Y-131017682D01*
X130452990Y-130815582D01*
X130389755Y-130620968D01*
X130296859Y-130438650D01*
X130264474Y-130394077D01*
X130264474Y-130394076D01*
X129585000Y-131073551D01*
X129585000Y-131067339D01*
X129557741Y-130965606D01*
X129505080Y-130874394D01*
X129430606Y-130799920D01*
X129339394Y-130747259D01*
X129237661Y-130720000D01*
X129231446Y-130720000D01*
X129910922Y-130040524D01*
X129910921Y-130040523D01*
X129866359Y-130008147D01*
X129866350Y-130008141D01*
X129773369Y-129960765D01*
X129722573Y-129912790D01*
X129705778Y-129844969D01*
X129728315Y-129778835D01*
X129773370Y-129739795D01*
X129812320Y-129719949D01*
X129866610Y-129692287D01*
X129961365Y-129623444D01*
X130032213Y-129571971D01*
X130032215Y-129571968D01*
X130032219Y-129571966D01*
X130176966Y-129427219D01*
X130176968Y-129427215D01*
X130176971Y-129427213D01*
X130230442Y-129353615D01*
X130297287Y-129261610D01*
X130390220Y-129079219D01*
X130453477Y-128884534D01*
X130485500Y-128682352D01*
X130485500Y-128477648D01*
X130461495Y-128326086D01*
X130453477Y-128275465D01*
X130393411Y-128090602D01*
X130390220Y-128080781D01*
X130390218Y-128080778D01*
X130390218Y-128080776D01*
X130348805Y-127999500D01*
X130297287Y-127898390D01*
X130283085Y-127878842D01*
X130176971Y-127732786D01*
X130032213Y-127588028D01*
X129866614Y-127467715D01*
X129841681Y-127455011D01*
X129773917Y-127420483D01*
X129723123Y-127372511D01*
X129706328Y-127304690D01*
X129728865Y-127238555D01*
X129773917Y-127199516D01*
X129866610Y-127152287D01*
X129897580Y-127129786D01*
X130032213Y-127031971D01*
X130032215Y-127031968D01*
X130032219Y-127031966D01*
X130176966Y-126887219D01*
X130176968Y-126887215D01*
X130176971Y-126887213D01*
X130263282Y-126768414D01*
X130297287Y-126721610D01*
X130390220Y-126539219D01*
X130453477Y-126344534D01*
X130485500Y-126142352D01*
X130485500Y-125937648D01*
X130453477Y-125735466D01*
X130436713Y-125683873D01*
X130395610Y-125557370D01*
X130390220Y-125540781D01*
X130390218Y-125540778D01*
X130390218Y-125540776D01*
X130356503Y-125474607D01*
X130297287Y-125358390D01*
X130289556Y-125347749D01*
X130176971Y-125192786D01*
X130032213Y-125048028D01*
X129866614Y-124927715D01*
X129811594Y-124899681D01*
X129773917Y-124880483D01*
X129723123Y-124832511D01*
X129706328Y-124764690D01*
X129728865Y-124698555D01*
X129773917Y-124659516D01*
X129866610Y-124612287D01*
X129887770Y-124596913D01*
X130032213Y-124491971D01*
X130032215Y-124491968D01*
X130032219Y-124491966D01*
X130176966Y-124347219D01*
X130176968Y-124347215D01*
X130176971Y-124347213D01*
X130234222Y-124268412D01*
X130297287Y-124181610D01*
X130390220Y-123999219D01*
X130453477Y-123804534D01*
X130485500Y-123602352D01*
X130485500Y-123397648D01*
X130453477Y-123195466D01*
X130444066Y-123166503D01*
X130424127Y-123105137D01*
X130390220Y-123000781D01*
X130390218Y-123000778D01*
X130390218Y-123000776D01*
X130323692Y-122870213D01*
X130297287Y-122818390D01*
X130268097Y-122778213D01*
X130176971Y-122652786D01*
X130032213Y-122508028D01*
X129866614Y-122387715D01*
X129860006Y-122384348D01*
X129773917Y-122340483D01*
X129723123Y-122292511D01*
X129706328Y-122224690D01*
X129728865Y-122158555D01*
X129773917Y-122119516D01*
X129866610Y-122072287D01*
X129969954Y-121997204D01*
X130032213Y-121951971D01*
X130032215Y-121951968D01*
X130032219Y-121951966D01*
X130176966Y-121807219D01*
X130176968Y-121807215D01*
X130176971Y-121807213D01*
X130229732Y-121734590D01*
X130297287Y-121641610D01*
X130390220Y-121459219D01*
X130453477Y-121264534D01*
X130485500Y-121062352D01*
X130485500Y-120857648D01*
X130479324Y-120818656D01*
X130453477Y-120655465D01*
X130403871Y-120502795D01*
X130390220Y-120460781D01*
X130390218Y-120460778D01*
X130390218Y-120460776D01*
X130356503Y-120394607D01*
X130297287Y-120278390D01*
X130289556Y-120267749D01*
X130176971Y-120112786D01*
X130032213Y-119968028D01*
X129866614Y-119847715D01*
X129860006Y-119844348D01*
X129773917Y-119800483D01*
X129723123Y-119752511D01*
X129706328Y-119684690D01*
X129728865Y-119618555D01*
X129773917Y-119579516D01*
X129866610Y-119532287D01*
X129887770Y-119516913D01*
X130032213Y-119411971D01*
X130032215Y-119411968D01*
X130032219Y-119411966D01*
X130176966Y-119267219D01*
X130176968Y-119267215D01*
X130176971Y-119267213D01*
X130255959Y-119158493D01*
X130297287Y-119101610D01*
X130390220Y-118919219D01*
X130453477Y-118724534D01*
X130485500Y-118522352D01*
X130485500Y-118317648D01*
X130453477Y-118115466D01*
X130437483Y-118066243D01*
X130416834Y-118002690D01*
X130390220Y-117920781D01*
X130390218Y-117920778D01*
X130390218Y-117920776D01*
X130336953Y-117816239D01*
X130297287Y-117738390D01*
X130280965Y-117715925D01*
X130176971Y-117572786D01*
X130032213Y-117428028D01*
X129866614Y-117307715D01*
X129813111Y-117280454D01*
X129773917Y-117260483D01*
X129723123Y-117212511D01*
X129706328Y-117144690D01*
X129728865Y-117078555D01*
X129773917Y-117039516D01*
X129866610Y-116992287D01*
X129934458Y-116942993D01*
X130032213Y-116871971D01*
X130032215Y-116871968D01*
X130032219Y-116871966D01*
X130176966Y-116727219D01*
X130176968Y-116727215D01*
X130176971Y-116727213D01*
X130254708Y-116620215D01*
X130297287Y-116561610D01*
X130390220Y-116379219D01*
X130453477Y-116184534D01*
X130485500Y-115982352D01*
X130485500Y-115777648D01*
X135504500Y-115777648D01*
X135504500Y-115982351D01*
X135536522Y-116184534D01*
X135599781Y-116379223D01*
X135651843Y-116481398D01*
X135682812Y-116542179D01*
X135692715Y-116561613D01*
X135813028Y-116727213D01*
X135957786Y-116871971D01*
X136096359Y-116972648D01*
X136123390Y-116992287D01*
X136183393Y-117022860D01*
X136216080Y-117039515D01*
X136266876Y-117087490D01*
X136283671Y-117155311D01*
X136261134Y-117221446D01*
X136216080Y-117260485D01*
X136123386Y-117307715D01*
X135957786Y-117428028D01*
X135813028Y-117572786D01*
X135692715Y-117738386D01*
X135599781Y-117920776D01*
X135536522Y-118115465D01*
X135504500Y-118317648D01*
X135504500Y-118522351D01*
X135536522Y-118724534D01*
X135599781Y-118919223D01*
X135650552Y-119018865D01*
X135692055Y-119100319D01*
X135692715Y-119101613D01*
X135813028Y-119267213D01*
X135957786Y-119411971D01*
X136112749Y-119524556D01*
X136123390Y-119532287D01*
X136214840Y-119578883D01*
X136216080Y-119579515D01*
X136266876Y-119627490D01*
X136283671Y-119695311D01*
X136261134Y-119761446D01*
X136216080Y-119800485D01*
X136123386Y-119847715D01*
X135957786Y-119968028D01*
X135813028Y-120112786D01*
X135692715Y-120278386D01*
X135599781Y-120460776D01*
X135536522Y-120655465D01*
X135504500Y-120857648D01*
X135504500Y-121062351D01*
X135536522Y-121264534D01*
X135599781Y-121459223D01*
X135692715Y-121641613D01*
X135813028Y-121807213D01*
X135957786Y-121951971D01*
X136112749Y-122064556D01*
X136123390Y-122072287D01*
X136214840Y-122118883D01*
X136216080Y-122119515D01*
X136266876Y-122167490D01*
X136283671Y-122235311D01*
X136261134Y-122301446D01*
X136216080Y-122340485D01*
X136123386Y-122387715D01*
X135957786Y-122508028D01*
X135813028Y-122652786D01*
X135692715Y-122818386D01*
X135599781Y-123000776D01*
X135536522Y-123195465D01*
X135504500Y-123397648D01*
X135504500Y-123602351D01*
X135536522Y-123804534D01*
X135599781Y-123999223D01*
X135663691Y-124124653D01*
X135686663Y-124169737D01*
X135692715Y-124181613D01*
X135813028Y-124347213D01*
X135957786Y-124491971D01*
X136112749Y-124604556D01*
X136123390Y-124612287D01*
X136203233Y-124652969D01*
X136216080Y-124659515D01*
X136266876Y-124707490D01*
X136283671Y-124775311D01*
X136261134Y-124841446D01*
X136216080Y-124880485D01*
X136123386Y-124927715D01*
X135957786Y-125048028D01*
X135813028Y-125192786D01*
X135692715Y-125358386D01*
X135599781Y-125540776D01*
X135536522Y-125735465D01*
X135504500Y-125937648D01*
X135504500Y-126142351D01*
X135536522Y-126344534D01*
X135599781Y-126539223D01*
X135692715Y-126721613D01*
X135813028Y-126887213D01*
X135957786Y-127031971D01*
X136092420Y-127129786D01*
X136123390Y-127152287D01*
X136174269Y-127178211D01*
X136216080Y-127199515D01*
X136266876Y-127247490D01*
X136283671Y-127315311D01*
X136261134Y-127381446D01*
X136216080Y-127420485D01*
X136123386Y-127467715D01*
X135957786Y-127588028D01*
X135813028Y-127732786D01*
X135692715Y-127898386D01*
X135599781Y-128080776D01*
X135536522Y-128275465D01*
X135504500Y-128477648D01*
X135504500Y-128682351D01*
X135536522Y-128884534D01*
X135599781Y-129079223D01*
X135692715Y-129261613D01*
X135813028Y-129427213D01*
X135813034Y-129427219D01*
X135957781Y-129571966D01*
X136051452Y-129640021D01*
X136094117Y-129695350D01*
X136100096Y-129764963D01*
X136067491Y-129826759D01*
X136017571Y-129858045D01*
X135935666Y-129885186D01*
X135935663Y-129885187D01*
X135786342Y-129977289D01*
X135662289Y-130101342D01*
X135570187Y-130250663D01*
X135570186Y-130250666D01*
X135515001Y-130417203D01*
X135515001Y-130417204D01*
X135515000Y-130417204D01*
X135504500Y-130519983D01*
X135504500Y-131720001D01*
X135504501Y-131720018D01*
X135515000Y-131822796D01*
X135515001Y-131822799D01*
X135570185Y-131989331D01*
X135570187Y-131989336D01*
X135592782Y-132025968D01*
X135662288Y-132138656D01*
X135786344Y-132262712D01*
X135935666Y-132354814D01*
X136102203Y-132409999D01*
X136204991Y-132420500D01*
X137405008Y-132420499D01*
X137507797Y-132409999D01*
X137674334Y-132354814D01*
X137823656Y-132262712D01*
X137947712Y-132138656D01*
X138039814Y-131989334D01*
X138094999Y-131822797D01*
X138105383Y-131721153D01*
X143999500Y-131721153D01*
X143999500Y-131878846D01*
X144030261Y-132033489D01*
X144030264Y-132033501D01*
X144090602Y-132179172D01*
X144090609Y-132179185D01*
X144178210Y-132310288D01*
X144178213Y-132310292D01*
X144289707Y-132421786D01*
X144289711Y-132421789D01*
X144420814Y-132509390D01*
X144420827Y-132509397D01*
X144566498Y-132569735D01*
X144566503Y-132569737D01*
X144716131Y-132599500D01*
X144721153Y-132600499D01*
X144721156Y-132600500D01*
X144721158Y-132600500D01*
X144878844Y-132600500D01*
X144878845Y-132600499D01*
X145033497Y-132569737D01*
X145179179Y-132509394D01*
X145310289Y-132421789D01*
X145421789Y-132310289D01*
X145509394Y-132179179D01*
X145569737Y-132033497D01*
X145600500Y-131878842D01*
X145600500Y-131721158D01*
X145600500Y-131721155D01*
X145600499Y-131721153D01*
X145585643Y-131646467D01*
X145569737Y-131566503D01*
X145569628Y-131566239D01*
X145509397Y-131420827D01*
X145509390Y-131420814D01*
X145421789Y-131289711D01*
X145421786Y-131289707D01*
X145310292Y-131178213D01*
X145310288Y-131178210D01*
X145179185Y-131090609D01*
X145179172Y-131090602D01*
X145033501Y-131030264D01*
X145033489Y-131030261D01*
X144878845Y-130999500D01*
X144878842Y-130999500D01*
X144721158Y-130999500D01*
X144721155Y-130999500D01*
X144566510Y-131030261D01*
X144566498Y-131030264D01*
X144420827Y-131090602D01*
X144420814Y-131090609D01*
X144289711Y-131178210D01*
X144289707Y-131178213D01*
X144178213Y-131289707D01*
X144178210Y-131289711D01*
X144090609Y-131420814D01*
X144090602Y-131420827D01*
X144030264Y-131566498D01*
X144030261Y-131566510D01*
X143999500Y-131721153D01*
X138105383Y-131721153D01*
X138105500Y-131720009D01*
X138105499Y-131120000D01*
X138105499Y-130921153D01*
X155599500Y-130921153D01*
X155599500Y-131078846D01*
X155630261Y-131233489D01*
X155630264Y-131233501D01*
X155690602Y-131379172D01*
X155690609Y-131379185D01*
X155778210Y-131510288D01*
X155778213Y-131510292D01*
X155889707Y-131621786D01*
X155889711Y-131621789D01*
X156020814Y-131709390D01*
X156020827Y-131709397D01*
X156163304Y-131768412D01*
X156166503Y-131769737D01*
X156306277Y-131797540D01*
X156321153Y-131800499D01*
X156321156Y-131800500D01*
X156321158Y-131800500D01*
X156478844Y-131800500D01*
X156478845Y-131800499D01*
X156633497Y-131769737D01*
X156753571Y-131720001D01*
X156779172Y-131709397D01*
X156779172Y-131709396D01*
X156779179Y-131709394D01*
X156910289Y-131621789D01*
X157021789Y-131510289D01*
X157109394Y-131379179D01*
X157169737Y-131233497D01*
X157200500Y-131078842D01*
X157200500Y-130921158D01*
X157200500Y-130921155D01*
X157200499Y-130921153D01*
X157174844Y-130792179D01*
X157169737Y-130766503D01*
X157109455Y-130620968D01*
X157109397Y-130620827D01*
X157109390Y-130620814D01*
X157021789Y-130489711D01*
X157021786Y-130489707D01*
X156910292Y-130378213D01*
X156910288Y-130378210D01*
X156779185Y-130290609D01*
X156779172Y-130290602D01*
X156633501Y-130230264D01*
X156633489Y-130230261D01*
X156478845Y-130199500D01*
X156478842Y-130199500D01*
X156321158Y-130199500D01*
X156321155Y-130199500D01*
X156166510Y-130230261D01*
X156166498Y-130230264D01*
X156020827Y-130290602D01*
X156020814Y-130290609D01*
X155889711Y-130378210D01*
X155889707Y-130378213D01*
X155778213Y-130489707D01*
X155778210Y-130489711D01*
X155690609Y-130620814D01*
X155690602Y-130620827D01*
X155630264Y-130766498D01*
X155630261Y-130766510D01*
X155599500Y-130921153D01*
X138105499Y-130921153D01*
X138105499Y-130519998D01*
X138105498Y-130519981D01*
X138094999Y-130417203D01*
X138094998Y-130417200D01*
X138069416Y-130339999D01*
X138039814Y-130250666D01*
X137947712Y-130101344D01*
X137823656Y-129977288D01*
X137720368Y-129913580D01*
X137674336Y-129885187D01*
X137674335Y-129885186D01*
X137674334Y-129885186D01*
X137592427Y-129858044D01*
X137534984Y-129818272D01*
X137508161Y-129753756D01*
X137520476Y-129684980D01*
X137558547Y-129640021D01*
X137652219Y-129571966D01*
X137796966Y-129427219D01*
X137796968Y-129427215D01*
X137796971Y-129427213D01*
X137850442Y-129353615D01*
X137917287Y-129261610D01*
X138010220Y-129079219D01*
X138073477Y-128884534D01*
X138105500Y-128682352D01*
X138105500Y-128477648D01*
X138081495Y-128326086D01*
X138073477Y-128275465D01*
X138013411Y-128090602D01*
X138010220Y-128080781D01*
X138010218Y-128080778D01*
X138010218Y-128080776D01*
X137924920Y-127913371D01*
X137917287Y-127898390D01*
X137917285Y-127898387D01*
X137917284Y-127898385D01*
X137837050Y-127787951D01*
X137796971Y-127732786D01*
X137785338Y-127721153D01*
X139199500Y-127721153D01*
X139199500Y-127878846D01*
X139230261Y-128033489D01*
X139230264Y-128033501D01*
X139290602Y-128179172D01*
X139290609Y-128179185D01*
X139378210Y-128310288D01*
X139378213Y-128310292D01*
X139489707Y-128421786D01*
X139489711Y-128421789D01*
X139620814Y-128509390D01*
X139620827Y-128509397D01*
X139758683Y-128566498D01*
X139766503Y-128569737D01*
X139921153Y-128600499D01*
X139921156Y-128600500D01*
X139921158Y-128600500D01*
X140078844Y-128600500D01*
X140078845Y-128600499D01*
X140233497Y-128569737D01*
X140379179Y-128509394D01*
X140510289Y-128421789D01*
X140621789Y-128310289D01*
X140709394Y-128179179D01*
X140769737Y-128033497D01*
X140800500Y-127878842D01*
X140800500Y-127721158D01*
X140800500Y-127721155D01*
X140800499Y-127721153D01*
X140786246Y-127649500D01*
X140769737Y-127566503D01*
X140742191Y-127500000D01*
X140709397Y-127420827D01*
X140709390Y-127420814D01*
X140621789Y-127289711D01*
X140621786Y-127289707D01*
X140510292Y-127178213D01*
X140510288Y-127178210D01*
X140379185Y-127090609D01*
X140379172Y-127090602D01*
X140233501Y-127030264D01*
X140233489Y-127030261D01*
X140078845Y-126999500D01*
X140078842Y-126999500D01*
X139921158Y-126999500D01*
X139921155Y-126999500D01*
X139766510Y-127030261D01*
X139766498Y-127030264D01*
X139620827Y-127090602D01*
X139620814Y-127090609D01*
X139489711Y-127178210D01*
X139489707Y-127178213D01*
X139378213Y-127289707D01*
X139378210Y-127289711D01*
X139290609Y-127420814D01*
X139290602Y-127420827D01*
X139230264Y-127566498D01*
X139230261Y-127566510D01*
X139199500Y-127721153D01*
X137785338Y-127721153D01*
X137652213Y-127588028D01*
X137486614Y-127467715D01*
X137461681Y-127455011D01*
X137393917Y-127420483D01*
X137343123Y-127372511D01*
X137326328Y-127304690D01*
X137348865Y-127238555D01*
X137393917Y-127199516D01*
X137486610Y-127152287D01*
X137517580Y-127129786D01*
X137652213Y-127031971D01*
X137652215Y-127031968D01*
X137652219Y-127031966D01*
X137796966Y-126887219D01*
X137796968Y-126887215D01*
X137796971Y-126887213D01*
X137883282Y-126768414D01*
X137917287Y-126721610D01*
X138010220Y-126539219D01*
X138073477Y-126344534D01*
X138105500Y-126142352D01*
X138105500Y-125937648D01*
X138073477Y-125735466D01*
X138056713Y-125683873D01*
X138015610Y-125557370D01*
X138010220Y-125540781D01*
X138010218Y-125540778D01*
X138010218Y-125540776D01*
X137976503Y-125474607D01*
X137917287Y-125358390D01*
X137909556Y-125347749D01*
X137796971Y-125192786D01*
X137652213Y-125048028D01*
X137486614Y-124927715D01*
X137431594Y-124899681D01*
X137393917Y-124880483D01*
X137343123Y-124832511D01*
X137326328Y-124764690D01*
X137348865Y-124698555D01*
X137393917Y-124659516D01*
X137486610Y-124612287D01*
X137507770Y-124596913D01*
X137652213Y-124491971D01*
X137652215Y-124491968D01*
X137652219Y-124491966D01*
X137796966Y-124347219D01*
X137796968Y-124347215D01*
X137796971Y-124347213D01*
X137854222Y-124268412D01*
X137917287Y-124181610D01*
X138010220Y-123999219D01*
X138073477Y-123804534D01*
X138105500Y-123602352D01*
X138105500Y-123397648D01*
X138073477Y-123195466D01*
X138064066Y-123166503D01*
X138044127Y-123105137D01*
X138010220Y-123000781D01*
X138010218Y-123000778D01*
X138010218Y-123000776D01*
X137943692Y-122870213D01*
X137917287Y-122818390D01*
X137888097Y-122778213D01*
X137796971Y-122652786D01*
X137652213Y-122508028D01*
X137486614Y-122387715D01*
X137480006Y-122384348D01*
X137393917Y-122340483D01*
X137343123Y-122292511D01*
X137326328Y-122224690D01*
X137348865Y-122158555D01*
X137393917Y-122119516D01*
X137486610Y-122072287D01*
X137589954Y-121997204D01*
X137652213Y-121951971D01*
X137652215Y-121951968D01*
X137652219Y-121951966D01*
X137796966Y-121807219D01*
X137796968Y-121807215D01*
X137796971Y-121807213D01*
X137849732Y-121734590D01*
X137917287Y-121641610D01*
X138010220Y-121459219D01*
X138073477Y-121264534D01*
X138105500Y-121062352D01*
X138105500Y-120857648D01*
X138099324Y-120818656D01*
X138073477Y-120655465D01*
X138023871Y-120502795D01*
X138010220Y-120460781D01*
X138010218Y-120460778D01*
X138010218Y-120460776D01*
X137976503Y-120394607D01*
X137917287Y-120278390D01*
X137909556Y-120267749D01*
X137796971Y-120112786D01*
X137652213Y-119968028D01*
X137556574Y-119898543D01*
X155399499Y-119898543D01*
X155437947Y-120091829D01*
X155437950Y-120091839D01*
X155513364Y-120273907D01*
X155513371Y-120273920D01*
X155622860Y-120437781D01*
X155622863Y-120437785D01*
X155762214Y-120577136D01*
X155762218Y-120577139D01*
X155926079Y-120686628D01*
X155926092Y-120686635D01*
X156108160Y-120762049D01*
X156108165Y-120762051D01*
X156108169Y-120762051D01*
X156108170Y-120762052D01*
X156301456Y-120800500D01*
X156301459Y-120800500D01*
X156498543Y-120800500D01*
X156659856Y-120768412D01*
X156691835Y-120762051D01*
X156873914Y-120686632D01*
X157037782Y-120577139D01*
X157099822Y-120515098D01*
X157161143Y-120481615D01*
X157230835Y-120486599D01*
X157286769Y-120528470D01*
X157305207Y-120563775D01*
X157340186Y-120669334D01*
X157432288Y-120818656D01*
X157556344Y-120942712D01*
X157705666Y-121034814D01*
X157872203Y-121089999D01*
X157974991Y-121100500D01*
X159525008Y-121100499D01*
X159627797Y-121089999D01*
X159794334Y-121034814D01*
X159943656Y-120942712D01*
X160067712Y-120818656D01*
X160159814Y-120669334D01*
X160214999Y-120502797D01*
X160225500Y-120400009D01*
X160225499Y-119099992D01*
X160214999Y-118997203D01*
X160159814Y-118830666D01*
X160067712Y-118681344D01*
X159943656Y-118557288D01*
X159794334Y-118465186D01*
X159794333Y-118465185D01*
X159788878Y-118461821D01*
X159742154Y-118409873D01*
X159730931Y-118340910D01*
X159758775Y-118276828D01*
X159766272Y-118268623D01*
X159905104Y-118129792D01*
X159915513Y-118115466D01*
X160030048Y-117957820D01*
X160030047Y-117957820D01*
X160030051Y-117957816D01*
X160060252Y-117898543D01*
X173599499Y-117898543D01*
X173637947Y-118091829D01*
X173637950Y-118091839D01*
X173713364Y-118273907D01*
X173713371Y-118273920D01*
X173822860Y-118437781D01*
X173822863Y-118437785D01*
X173962214Y-118577136D01*
X173962218Y-118577139D01*
X174126079Y-118686628D01*
X174126092Y-118686635D01*
X174279071Y-118750000D01*
X174308165Y-118762051D01*
X174308169Y-118762051D01*
X174308170Y-118762052D01*
X174501456Y-118800500D01*
X174501459Y-118800500D01*
X174698543Y-118800500D01*
X174852285Y-118769918D01*
X174891835Y-118762051D01*
X175073914Y-118686632D01*
X175237782Y-118577139D01*
X175377139Y-118437782D01*
X175448305Y-118331274D01*
X175501915Y-118286470D01*
X175571240Y-118277763D01*
X175634268Y-118307917D01*
X175661891Y-118343871D01*
X175709742Y-118437784D01*
X175719951Y-118457819D01*
X175844890Y-118629786D01*
X175995209Y-118780105D01*
X175995214Y-118780109D01*
X176159793Y-118899682D01*
X176202459Y-118955011D01*
X176208438Y-119024625D01*
X176175833Y-119086420D01*
X176159793Y-119100318D01*
X175995214Y-119219890D01*
X175995209Y-119219894D01*
X175844890Y-119370213D01*
X175719951Y-119542179D01*
X175623444Y-119731585D01*
X175557753Y-119933760D01*
X175524500Y-120143713D01*
X175524500Y-120356286D01*
X175550178Y-120518414D01*
X175557754Y-120566243D01*
X175621376Y-120762051D01*
X175623444Y-120768414D01*
X175719951Y-120957820D01*
X175844890Y-121129786D01*
X175983705Y-121268601D01*
X176017190Y-121329924D01*
X176012206Y-121399616D01*
X175970334Y-121455549D01*
X175961121Y-121461821D01*
X175806342Y-121557289D01*
X175682289Y-121681342D01*
X175590187Y-121830663D01*
X175590186Y-121830666D01*
X175535001Y-121997203D01*
X175535001Y-121997204D01*
X175535000Y-121997204D01*
X175524500Y-122099983D01*
X175524500Y-123400001D01*
X175524501Y-123400018D01*
X175535000Y-123502796D01*
X175535001Y-123502799D01*
X175544051Y-123530109D01*
X175590186Y-123669334D01*
X175682288Y-123818656D01*
X175806344Y-123942712D01*
X175955666Y-124034814D01*
X176122203Y-124089999D01*
X176224991Y-124100500D01*
X177775008Y-124100499D01*
X177877797Y-124089999D01*
X178044334Y-124034814D01*
X178193656Y-123942712D01*
X178317712Y-123818656D01*
X178409814Y-123669334D01*
X178464999Y-123502797D01*
X178475500Y-123400009D01*
X178475499Y-122099992D01*
X178464999Y-121997203D01*
X178409814Y-121830666D01*
X178317712Y-121681344D01*
X178193656Y-121557288D01*
X178044334Y-121465186D01*
X178044333Y-121465185D01*
X178038878Y-121461821D01*
X177992154Y-121409873D01*
X177980931Y-121340910D01*
X178008775Y-121276828D01*
X178016272Y-121268623D01*
X178155104Y-121129792D01*
X178176387Y-121100499D01*
X178280048Y-120957820D01*
X178280047Y-120957820D01*
X178280051Y-120957816D01*
X178376557Y-120768412D01*
X178442246Y-120566243D01*
X178475500Y-120356287D01*
X178475500Y-120143713D01*
X178442246Y-119933757D01*
X178376557Y-119731588D01*
X178280051Y-119542184D01*
X178280049Y-119542181D01*
X178280048Y-119542179D01*
X178155109Y-119370213D01*
X178004792Y-119219896D01*
X177925404Y-119162218D01*
X177840204Y-119100316D01*
X177797540Y-119044989D01*
X177791561Y-118975376D01*
X177824166Y-118913580D01*
X177840199Y-118899686D01*
X178004792Y-118780104D01*
X178155104Y-118629792D01*
X178155106Y-118629788D01*
X178155109Y-118629786D01*
X178280048Y-118457820D01*
X178280049Y-118457819D01*
X178280051Y-118457816D01*
X178376557Y-118268412D01*
X178442246Y-118066243D01*
X178475500Y-117856287D01*
X178475500Y-117643713D01*
X178442246Y-117433757D01*
X178376557Y-117231588D01*
X178280051Y-117042184D01*
X178280049Y-117042181D01*
X178280048Y-117042179D01*
X178155109Y-116870213D01*
X178004792Y-116719896D01*
X178004784Y-116719890D01*
X177840204Y-116600316D01*
X177797540Y-116544989D01*
X177791561Y-116475376D01*
X177824166Y-116413580D01*
X177840199Y-116399686D01*
X178004792Y-116280104D01*
X178155104Y-116129792D01*
X178155106Y-116129788D01*
X178155109Y-116129786D01*
X178280048Y-115957820D01*
X178280047Y-115957820D01*
X178280051Y-115957816D01*
X178376557Y-115768412D01*
X178442246Y-115566243D01*
X178475500Y-115356287D01*
X178475500Y-115143713D01*
X178442246Y-114933757D01*
X178376557Y-114731588D01*
X178280051Y-114542184D01*
X178280049Y-114542181D01*
X178280048Y-114542179D01*
X178155109Y-114370213D01*
X178004786Y-114219890D01*
X177832820Y-114094951D01*
X177643414Y-113998444D01*
X177643413Y-113998443D01*
X177643412Y-113998443D01*
X177441243Y-113932754D01*
X177441241Y-113932753D01*
X177441240Y-113932753D01*
X177279957Y-113907208D01*
X177231287Y-113899500D01*
X176768713Y-113899500D01*
X176720042Y-113907208D01*
X176558760Y-113932753D01*
X176356585Y-113998444D01*
X176167179Y-114094951D01*
X175995213Y-114219890D01*
X175844890Y-114370213D01*
X175719951Y-114542179D01*
X175623444Y-114731585D01*
X175623443Y-114731587D01*
X175623443Y-114731588D01*
X175608643Y-114777139D01*
X175557753Y-114933760D01*
X175534774Y-115078844D01*
X175524500Y-115143713D01*
X175524500Y-115356287D01*
X175534534Y-115419644D01*
X175548891Y-115510289D01*
X175557754Y-115566243D01*
X175618369Y-115752797D01*
X175623444Y-115768414D01*
X175719951Y-115957820D01*
X175844890Y-116129786D01*
X175995209Y-116280105D01*
X175995214Y-116280109D01*
X176159793Y-116399682D01*
X176202459Y-116455011D01*
X176208438Y-116524625D01*
X176175833Y-116586420D01*
X176159793Y-116600318D01*
X175995214Y-116719890D01*
X175995209Y-116719894D01*
X175844890Y-116870213D01*
X175719951Y-117042180D01*
X175632983Y-117212863D01*
X175585008Y-117263659D01*
X175517187Y-117280454D01*
X175451052Y-117257916D01*
X175419396Y-117225459D01*
X175377139Y-117162218D01*
X175377136Y-117162214D01*
X175237785Y-117022863D01*
X175237781Y-117022860D01*
X175073920Y-116913371D01*
X175073907Y-116913364D01*
X174891839Y-116837950D01*
X174891829Y-116837947D01*
X174698543Y-116799500D01*
X174698541Y-116799500D01*
X174501459Y-116799500D01*
X174501457Y-116799500D01*
X174308170Y-116837947D01*
X174308160Y-116837950D01*
X174126092Y-116913364D01*
X174126079Y-116913371D01*
X173962218Y-117022860D01*
X173962214Y-117022863D01*
X173822863Y-117162214D01*
X173822860Y-117162218D01*
X173713371Y-117326079D01*
X173713364Y-117326092D01*
X173637950Y-117508160D01*
X173637947Y-117508170D01*
X173599500Y-117701456D01*
X173599500Y-117701459D01*
X173599500Y-117898541D01*
X173599500Y-117898543D01*
X173599499Y-117898543D01*
X160060252Y-117898543D01*
X160126557Y-117768412D01*
X160192246Y-117566243D01*
X160225500Y-117356287D01*
X160225500Y-117143713D01*
X160192246Y-116933757D01*
X160126557Y-116731588D01*
X160030051Y-116542184D01*
X160030049Y-116542181D01*
X160030048Y-116542179D01*
X159905109Y-116370213D01*
X159754790Y-116219894D01*
X159754785Y-116219890D01*
X159589781Y-116100008D01*
X159547115Y-116044678D01*
X159541136Y-115975065D01*
X159573741Y-115913270D01*
X159589781Y-115899371D01*
X159754466Y-115779721D01*
X159904723Y-115629464D01*
X159904727Y-115629459D01*
X160029620Y-115457557D01*
X160126095Y-115268217D01*
X160191757Y-115066129D01*
X160191757Y-115066126D01*
X160202231Y-115000000D01*
X159154146Y-115000000D01*
X159192630Y-114933343D01*
X159225000Y-114812535D01*
X159225000Y-114687465D01*
X159192630Y-114566657D01*
X159154146Y-114500000D01*
X160202231Y-114500000D01*
X160191757Y-114433873D01*
X160191757Y-114433870D01*
X160126095Y-114231782D01*
X160029620Y-114042442D01*
X159904727Y-113870540D01*
X159904723Y-113870535D01*
X159754464Y-113720276D01*
X159754459Y-113720272D01*
X159582557Y-113595379D01*
X159393217Y-113498904D01*
X159191128Y-113433242D01*
X159000000Y-113402969D01*
X159000000Y-114345854D01*
X158933343Y-114307370D01*
X158812535Y-114275000D01*
X158687465Y-114275000D01*
X158566657Y-114307370D01*
X158500000Y-114345854D01*
X158500000Y-113402969D01*
X158308872Y-113433242D01*
X158308869Y-113433242D01*
X158106782Y-113498904D01*
X157917442Y-113595379D01*
X157745540Y-113720272D01*
X157745535Y-113720276D01*
X157595276Y-113870535D01*
X157595272Y-113870540D01*
X157470379Y-114042442D01*
X157373904Y-114231782D01*
X157308242Y-114433870D01*
X157308242Y-114433873D01*
X157297769Y-114500000D01*
X158345854Y-114500000D01*
X158307370Y-114566657D01*
X158275000Y-114687465D01*
X158275000Y-114812535D01*
X158307370Y-114933343D01*
X158345854Y-115000000D01*
X157297769Y-115000000D01*
X157308242Y-115066126D01*
X157308242Y-115066129D01*
X157373904Y-115268217D01*
X157470379Y-115457557D01*
X157595272Y-115629459D01*
X157595276Y-115629464D01*
X157745535Y-115779723D01*
X157745540Y-115779727D01*
X157910218Y-115899372D01*
X157952884Y-115954701D01*
X157958863Y-116024315D01*
X157926258Y-116086110D01*
X157910218Y-116100008D01*
X157745214Y-116219890D01*
X157745209Y-116219894D01*
X157594890Y-116370213D01*
X157469951Y-116542179D01*
X157373444Y-116731585D01*
X157307753Y-116933760D01*
X157274500Y-117143713D01*
X157274500Y-117356286D01*
X157307753Y-117566239D01*
X157307753Y-117566241D01*
X157307754Y-117566243D01*
X157363688Y-117738390D01*
X157373444Y-117768414D01*
X157469951Y-117957820D01*
X157594890Y-118129786D01*
X157733705Y-118268601D01*
X157767190Y-118329924D01*
X157762206Y-118399616D01*
X157720334Y-118455549D01*
X157711121Y-118461821D01*
X157556342Y-118557289D01*
X157432289Y-118681342D01*
X157340187Y-118830663D01*
X157340185Y-118830668D01*
X157284999Y-118997208D01*
X157284608Y-118999037D01*
X157284056Y-119000055D01*
X157282872Y-119003629D01*
X157282234Y-119003417D01*
X157251323Y-119060469D01*
X157190109Y-119094153D01*
X157120401Y-119089395D01*
X157075676Y-119060754D01*
X157037785Y-119022863D01*
X157037781Y-119022860D01*
X156873920Y-118913371D01*
X156873907Y-118913364D01*
X156691839Y-118837950D01*
X156691829Y-118837947D01*
X156498543Y-118799500D01*
X156498541Y-118799500D01*
X156301459Y-118799500D01*
X156301457Y-118799500D01*
X156108170Y-118837947D01*
X156108160Y-118837950D01*
X155926092Y-118913364D01*
X155926079Y-118913371D01*
X155762218Y-119022860D01*
X155762214Y-119022863D01*
X155622863Y-119162214D01*
X155622860Y-119162218D01*
X155513371Y-119326079D01*
X155513364Y-119326092D01*
X155437950Y-119508160D01*
X155437947Y-119508170D01*
X155399500Y-119701456D01*
X155399500Y-119701459D01*
X155399500Y-119898541D01*
X155399500Y-119898543D01*
X155399499Y-119898543D01*
X137556574Y-119898543D01*
X137486611Y-119847713D01*
X137404453Y-119805852D01*
X137404451Y-119805851D01*
X137393918Y-119800484D01*
X137343122Y-119752509D01*
X137326328Y-119684688D01*
X137348866Y-119618553D01*
X137393917Y-119579516D01*
X137486610Y-119532287D01*
X137507770Y-119516913D01*
X137652213Y-119411971D01*
X137652215Y-119411968D01*
X137652219Y-119411966D01*
X137796966Y-119267219D01*
X137796968Y-119267215D01*
X137796971Y-119267213D01*
X137875959Y-119158493D01*
X137917287Y-119101610D01*
X138010220Y-118919219D01*
X138073477Y-118724534D01*
X138105500Y-118522352D01*
X138105500Y-118317648D01*
X138073477Y-118115466D01*
X138057483Y-118066243D01*
X138036834Y-118002690D01*
X138010220Y-117920781D01*
X138010218Y-117920778D01*
X138010218Y-117920776D01*
X137956953Y-117816239D01*
X137917287Y-117738390D01*
X137900965Y-117715925D01*
X137796971Y-117572786D01*
X137652213Y-117428028D01*
X137486614Y-117307715D01*
X137433111Y-117280454D01*
X137393917Y-117260483D01*
X137343123Y-117212511D01*
X137326328Y-117144690D01*
X137348865Y-117078555D01*
X137393917Y-117039516D01*
X137486610Y-116992287D01*
X137554458Y-116942993D01*
X137652213Y-116871971D01*
X137652215Y-116871968D01*
X137652219Y-116871966D01*
X137796966Y-116727219D01*
X137796968Y-116727215D01*
X137796971Y-116727213D01*
X137874708Y-116620215D01*
X137917287Y-116561610D01*
X138010220Y-116379219D01*
X138073477Y-116184534D01*
X138105500Y-115982352D01*
X138105500Y-115777648D01*
X138094690Y-115709397D01*
X138073477Y-115575465D01*
X138010218Y-115380776D01*
X137952965Y-115268412D01*
X137917287Y-115198390D01*
X137909556Y-115187749D01*
X137796971Y-115032786D01*
X137652213Y-114888028D01*
X137486613Y-114767715D01*
X137486612Y-114767714D01*
X137486610Y-114767713D01*
X137415705Y-114731585D01*
X137304223Y-114674781D01*
X137275597Y-114665480D01*
X137208605Y-114643713D01*
X137109534Y-114611522D01*
X136934995Y-114583878D01*
X136907352Y-114579500D01*
X136702648Y-114579500D01*
X136678329Y-114583351D01*
X136500465Y-114611522D01*
X136305776Y-114674781D01*
X136123386Y-114767715D01*
X135957786Y-114888028D01*
X135813028Y-115032786D01*
X135692715Y-115198386D01*
X135599781Y-115380776D01*
X135536522Y-115575465D01*
X135504500Y-115777648D01*
X130485500Y-115777648D01*
X130474690Y-115709397D01*
X130453477Y-115575465D01*
X130390218Y-115380776D01*
X130332965Y-115268412D01*
X130297287Y-115198390D01*
X130289556Y-115187749D01*
X130176971Y-115032786D01*
X130032213Y-114888028D01*
X129866613Y-114767715D01*
X129866612Y-114767714D01*
X129866610Y-114767713D01*
X129795705Y-114731585D01*
X129684223Y-114674781D01*
X129489534Y-114611522D01*
X129314995Y-114583878D01*
X129287352Y-114579500D01*
X129082648Y-114579500D01*
X129058329Y-114583351D01*
X128880465Y-114611522D01*
X128685776Y-114674781D01*
X128503386Y-114767715D01*
X128337786Y-114888028D01*
X128193028Y-115032786D01*
X128072715Y-115198386D01*
X127979781Y-115380776D01*
X127916522Y-115575465D01*
X127884500Y-115777648D01*
X126132227Y-115777648D01*
X126129342Y-115777191D01*
X126112352Y-115774500D01*
X125907648Y-115774500D01*
X125890658Y-115777191D01*
X125705465Y-115806522D01*
X125510776Y-115869781D01*
X125328386Y-115962715D01*
X125162786Y-116083028D01*
X125018028Y-116227786D01*
X124897715Y-116393386D01*
X124850485Y-116486080D01*
X124802510Y-116536876D01*
X124734689Y-116553671D01*
X124668554Y-116531134D01*
X124629515Y-116486080D01*
X124624061Y-116475376D01*
X124582287Y-116393390D01*
X124565448Y-116370213D01*
X124461971Y-116227786D01*
X124317213Y-116083028D01*
X124151613Y-115962715D01*
X124151612Y-115962714D01*
X124151610Y-115962713D01*
X124066478Y-115919336D01*
X123969223Y-115869781D01*
X123774534Y-115806522D01*
X123589342Y-115777191D01*
X123572352Y-115774500D01*
X123367648Y-115774500D01*
X123350658Y-115777191D01*
X123165465Y-115806522D01*
X122970776Y-115869781D01*
X122788386Y-115962715D01*
X122622786Y-116083028D01*
X122478028Y-116227786D01*
X122357715Y-116393386D01*
X122310485Y-116486080D01*
X122262510Y-116536876D01*
X122194689Y-116553671D01*
X122128554Y-116531134D01*
X122089515Y-116486080D01*
X122084061Y-116475376D01*
X122042287Y-116393390D01*
X122025448Y-116370213D01*
X121921971Y-116227786D01*
X121777213Y-116083028D01*
X121611613Y-115962715D01*
X121611612Y-115962714D01*
X121611610Y-115962713D01*
X121526478Y-115919336D01*
X121429223Y-115869781D01*
X121234534Y-115806522D01*
X121049342Y-115777191D01*
X121032352Y-115774500D01*
X120827648Y-115774500D01*
X120810658Y-115777191D01*
X120625465Y-115806522D01*
X120430776Y-115869781D01*
X120248386Y-115962715D01*
X120082786Y-116083028D01*
X119938028Y-116227786D01*
X119817715Y-116393386D01*
X119770485Y-116486080D01*
X119722510Y-116536876D01*
X119654689Y-116553671D01*
X119588554Y-116531134D01*
X119549515Y-116486080D01*
X119544061Y-116475376D01*
X119502287Y-116393390D01*
X119485448Y-116370213D01*
X119381971Y-116227786D01*
X119237213Y-116083028D01*
X119071613Y-115962715D01*
X119071612Y-115962714D01*
X119071610Y-115962713D01*
X118986478Y-115919336D01*
X118889223Y-115869781D01*
X118694534Y-115806522D01*
X118509342Y-115777191D01*
X118492352Y-115774500D01*
X118287648Y-115774500D01*
X118270658Y-115777191D01*
X118085465Y-115806522D01*
X117890776Y-115869781D01*
X117708386Y-115962715D01*
X117542786Y-116083028D01*
X117398028Y-116227786D01*
X117277715Y-116393386D01*
X117230485Y-116486080D01*
X117182510Y-116536876D01*
X117114689Y-116553671D01*
X117048554Y-116531134D01*
X117009515Y-116486080D01*
X117004061Y-116475376D01*
X116962287Y-116393390D01*
X116945448Y-116370213D01*
X116841971Y-116227786D01*
X116697213Y-116083028D01*
X116531613Y-115962715D01*
X116531612Y-115962714D01*
X116531610Y-115962713D01*
X116446478Y-115919336D01*
X116349223Y-115869781D01*
X116154534Y-115806522D01*
X115969342Y-115777191D01*
X115952352Y-115774500D01*
X115747648Y-115774500D01*
X115730658Y-115777191D01*
X115545465Y-115806522D01*
X115350776Y-115869781D01*
X115168386Y-115962715D01*
X115002786Y-116083028D01*
X114858028Y-116227786D01*
X114737715Y-116393386D01*
X114690485Y-116486080D01*
X114642510Y-116536876D01*
X114574689Y-116553671D01*
X114508554Y-116531134D01*
X114469515Y-116486080D01*
X114464061Y-116475376D01*
X114422287Y-116393390D01*
X114405448Y-116370213D01*
X114301971Y-116227786D01*
X114157213Y-116083028D01*
X113991613Y-115962715D01*
X113991612Y-115962714D01*
X113991610Y-115962713D01*
X113906478Y-115919336D01*
X113809223Y-115869781D01*
X113614534Y-115806522D01*
X113429342Y-115777191D01*
X113412352Y-115774500D01*
X113207648Y-115774500D01*
X113190658Y-115777191D01*
X113005465Y-115806522D01*
X112810776Y-115869781D01*
X112628386Y-115962715D01*
X112462786Y-116083028D01*
X112318028Y-116227786D01*
X112197715Y-116393386D01*
X112150485Y-116486080D01*
X112102510Y-116536876D01*
X112034689Y-116553671D01*
X111968554Y-116531134D01*
X111929515Y-116486080D01*
X111924061Y-116475376D01*
X111882287Y-116393390D01*
X111865448Y-116370213D01*
X111761971Y-116227786D01*
X111617213Y-116083028D01*
X111451613Y-115962715D01*
X111451612Y-115962714D01*
X111451610Y-115962713D01*
X111366478Y-115919336D01*
X111269223Y-115869781D01*
X111074534Y-115806522D01*
X110889342Y-115777191D01*
X110872352Y-115774500D01*
X110667648Y-115774500D01*
X110650658Y-115777191D01*
X110465465Y-115806522D01*
X110270776Y-115869781D01*
X110088386Y-115962715D01*
X109922786Y-116083028D01*
X109778028Y-116227786D01*
X109657715Y-116393386D01*
X109610485Y-116486080D01*
X109562510Y-116536876D01*
X109494689Y-116553671D01*
X109428554Y-116531134D01*
X109389515Y-116486080D01*
X109384061Y-116475376D01*
X109342287Y-116393390D01*
X109325448Y-116370213D01*
X109221971Y-116227786D01*
X109077213Y-116083028D01*
X108911613Y-115962715D01*
X108911612Y-115962714D01*
X108911610Y-115962713D01*
X108826478Y-115919336D01*
X108729223Y-115869781D01*
X108534534Y-115806522D01*
X108349342Y-115777191D01*
X108332352Y-115774500D01*
X108127648Y-115774500D01*
X108110658Y-115777191D01*
X107925465Y-115806522D01*
X107730776Y-115869781D01*
X107548386Y-115962715D01*
X107382786Y-116083028D01*
X107238028Y-116227786D01*
X107117715Y-116393386D01*
X107070485Y-116486080D01*
X107022510Y-116536876D01*
X106954689Y-116553671D01*
X106888554Y-116531134D01*
X106849515Y-116486080D01*
X106844061Y-116475376D01*
X106802287Y-116393390D01*
X106785448Y-116370213D01*
X106681971Y-116227786D01*
X106537213Y-116083028D01*
X106371613Y-115962715D01*
X106371612Y-115962714D01*
X106371610Y-115962713D01*
X106286478Y-115919336D01*
X106189223Y-115869781D01*
X105994534Y-115806522D01*
X105809342Y-115777191D01*
X105792352Y-115774500D01*
X105587648Y-115774500D01*
X105570658Y-115777191D01*
X105385465Y-115806522D01*
X105190776Y-115869781D01*
X105008386Y-115962715D01*
X104842786Y-116083028D01*
X104698028Y-116227786D01*
X104577715Y-116393386D01*
X104530485Y-116486080D01*
X104482510Y-116536876D01*
X104414689Y-116553671D01*
X104348554Y-116531134D01*
X104309515Y-116486080D01*
X104304061Y-116475376D01*
X104262287Y-116393390D01*
X104245448Y-116370213D01*
X104141971Y-116227786D01*
X103997213Y-116083028D01*
X103831613Y-115962715D01*
X103831612Y-115962714D01*
X103831610Y-115962713D01*
X103746478Y-115919336D01*
X103649223Y-115869781D01*
X103454534Y-115806522D01*
X103269342Y-115777191D01*
X103252352Y-115774500D01*
X103047648Y-115774500D01*
X103030658Y-115777191D01*
X102845465Y-115806522D01*
X102650776Y-115869781D01*
X102468386Y-115962715D01*
X102302786Y-116083028D01*
X102158028Y-116227786D01*
X102037715Y-116393386D01*
X101990485Y-116486080D01*
X101942510Y-116536876D01*
X101874689Y-116553671D01*
X101808554Y-116531134D01*
X101769515Y-116486080D01*
X101764061Y-116475376D01*
X101722287Y-116393390D01*
X101705448Y-116370213D01*
X101601971Y-116227786D01*
X101457213Y-116083028D01*
X101291613Y-115962715D01*
X101291612Y-115962714D01*
X101291610Y-115962713D01*
X101206478Y-115919336D01*
X101109223Y-115869781D01*
X100914534Y-115806522D01*
X100729342Y-115777191D01*
X100712352Y-115774500D01*
X100507648Y-115774500D01*
X100490658Y-115777191D01*
X100305465Y-115806522D01*
X100110776Y-115869781D01*
X99928386Y-115962715D01*
X99762786Y-116083028D01*
X99618028Y-116227786D01*
X99497715Y-116393386D01*
X99450485Y-116486080D01*
X99402510Y-116536876D01*
X99334689Y-116553671D01*
X99268554Y-116531134D01*
X99229515Y-116486080D01*
X99224061Y-116475376D01*
X99182287Y-116393390D01*
X99165448Y-116370213D01*
X99061971Y-116227786D01*
X98917213Y-116083028D01*
X98751613Y-115962715D01*
X98751612Y-115962714D01*
X98751610Y-115962713D01*
X98666478Y-115919336D01*
X98569223Y-115869781D01*
X98379059Y-115807993D01*
X98321384Y-115768555D01*
X98294186Y-115704196D01*
X98306101Y-115635350D01*
X98329694Y-115602383D01*
X98421789Y-115510289D01*
X98509394Y-115379179D01*
X98569737Y-115233497D01*
X98600500Y-115078842D01*
X98600500Y-114921158D01*
X98600500Y-114921155D01*
X98600499Y-114921153D01*
X98593632Y-114886632D01*
X98569737Y-114766503D01*
X98531745Y-114674781D01*
X98509397Y-114620827D01*
X98509390Y-114620814D01*
X98421789Y-114489711D01*
X98421786Y-114489707D01*
X98310292Y-114378213D01*
X98310288Y-114378210D01*
X98179185Y-114290609D01*
X98179172Y-114290602D01*
X98033501Y-114230264D01*
X98033489Y-114230261D01*
X97878845Y-114199500D01*
X97878842Y-114199500D01*
X97721158Y-114199500D01*
X97721155Y-114199500D01*
X97566510Y-114230261D01*
X97566498Y-114230264D01*
X97420827Y-114290602D01*
X97420814Y-114290609D01*
X97289711Y-114378210D01*
X97289707Y-114378213D01*
X97178213Y-114489707D01*
X97178210Y-114489711D01*
X97090609Y-114620814D01*
X97090602Y-114620827D01*
X97030264Y-114766498D01*
X97030261Y-114766510D01*
X96999500Y-114921153D01*
X96999500Y-115078846D01*
X97030261Y-115233489D01*
X97030264Y-115233501D01*
X97090602Y-115379172D01*
X97090609Y-115379185D01*
X97178210Y-115510288D01*
X97178213Y-115510292D01*
X97289707Y-115621786D01*
X97289711Y-115621789D01*
X97420814Y-115709390D01*
X97420827Y-115709397D01*
X97428661Y-115712642D01*
X97483065Y-115756483D01*
X97505130Y-115822777D01*
X97487851Y-115890476D01*
X97437504Y-115937688D01*
X97388386Y-115962715D01*
X97222786Y-116083028D01*
X97078028Y-116227786D01*
X96957715Y-116393386D01*
X96910485Y-116486080D01*
X96862510Y-116536876D01*
X96794689Y-116553671D01*
X96728554Y-116531134D01*
X96689515Y-116486080D01*
X96684061Y-116475376D01*
X96642287Y-116393390D01*
X96625448Y-116370213D01*
X96521971Y-116227786D01*
X96377213Y-116083028D01*
X96211613Y-115962715D01*
X96211612Y-115962714D01*
X96211610Y-115962713D01*
X96126478Y-115919336D01*
X96029223Y-115869781D01*
X95834534Y-115806522D01*
X95649342Y-115777191D01*
X95632352Y-115774500D01*
X95427648Y-115774500D01*
X95410658Y-115777191D01*
X95225465Y-115806522D01*
X95030776Y-115869781D01*
X94848386Y-115962715D01*
X94682786Y-116083028D01*
X94538028Y-116227786D01*
X94417715Y-116393386D01*
X94370485Y-116486080D01*
X94322510Y-116536876D01*
X94254689Y-116553671D01*
X94188554Y-116531134D01*
X94149515Y-116486080D01*
X94144061Y-116475376D01*
X94102287Y-116393390D01*
X94085448Y-116370213D01*
X93981971Y-116227786D01*
X93837213Y-116083028D01*
X93671613Y-115962715D01*
X93671612Y-115962714D01*
X93671610Y-115962713D01*
X93586478Y-115919336D01*
X93489223Y-115869781D01*
X93294534Y-115806522D01*
X93109342Y-115777191D01*
X93092352Y-115774500D01*
X92887648Y-115774500D01*
X92870658Y-115777191D01*
X92685465Y-115806522D01*
X92490776Y-115869781D01*
X92308386Y-115962715D01*
X92142786Y-116083028D01*
X91998028Y-116227786D01*
X91877715Y-116393386D01*
X91784781Y-116575776D01*
X91721522Y-116770465D01*
X91689500Y-116972648D01*
X77897002Y-116972648D01*
X77805051Y-116792184D01*
X77805049Y-116792181D01*
X77805048Y-116792179D01*
X77680109Y-116620213D01*
X77541294Y-116481398D01*
X77507809Y-116420075D01*
X77512793Y-116350383D01*
X77554665Y-116294450D01*
X77563879Y-116288178D01*
X77569331Y-116284814D01*
X77569334Y-116284814D01*
X77718656Y-116192712D01*
X77842712Y-116068656D01*
X77934814Y-115919334D01*
X77989999Y-115752797D01*
X78000500Y-115650009D01*
X78000499Y-114349992D01*
X77992838Y-114275000D01*
X77989999Y-114247203D01*
X77989998Y-114247200D01*
X77950171Y-114127011D01*
X77940738Y-114098543D01*
X119999499Y-114098543D01*
X120037947Y-114291829D01*
X120037950Y-114291839D01*
X120113364Y-114473907D01*
X120113371Y-114473920D01*
X120222860Y-114637781D01*
X120222863Y-114637785D01*
X120362214Y-114777136D01*
X120362218Y-114777139D01*
X120526079Y-114886628D01*
X120526092Y-114886635D01*
X120708160Y-114962049D01*
X120708165Y-114962051D01*
X120708169Y-114962051D01*
X120708170Y-114962052D01*
X120901456Y-115000500D01*
X120901459Y-115000500D01*
X121098543Y-115000500D01*
X121251964Y-114969982D01*
X121321556Y-114976209D01*
X121376733Y-115019072D01*
X121397159Y-115073097D01*
X121398311Y-115072868D01*
X121430261Y-115233489D01*
X121430264Y-115233501D01*
X121490602Y-115379172D01*
X121490609Y-115379185D01*
X121578210Y-115510288D01*
X121578213Y-115510292D01*
X121689707Y-115621786D01*
X121689711Y-115621789D01*
X121820814Y-115709390D01*
X121820827Y-115709397D01*
X121963304Y-115768412D01*
X121966503Y-115769737D01*
X122121153Y-115800499D01*
X122121156Y-115800500D01*
X122121158Y-115800500D01*
X122278844Y-115800500D01*
X122278845Y-115800499D01*
X122433497Y-115769737D01*
X122579179Y-115709394D01*
X122710289Y-115621789D01*
X122821789Y-115510289D01*
X122909394Y-115379179D01*
X122969737Y-115233497D01*
X123000500Y-115078842D01*
X123000500Y-114921158D01*
X123000500Y-114921155D01*
X123000499Y-114921153D01*
X122993632Y-114886632D01*
X122969737Y-114766503D01*
X122931745Y-114674781D01*
X122909397Y-114620827D01*
X122909390Y-114620814D01*
X122821789Y-114489711D01*
X122821786Y-114489707D01*
X122710292Y-114378213D01*
X122710288Y-114378210D01*
X122579185Y-114290609D01*
X122579172Y-114290602D01*
X122433501Y-114230264D01*
X122433489Y-114230261D01*
X122278845Y-114199500D01*
X122278842Y-114199500D01*
X122124500Y-114199500D01*
X122057461Y-114179815D01*
X122011706Y-114127011D01*
X122000500Y-114075500D01*
X122000500Y-113901456D01*
X121962052Y-113708170D01*
X121962051Y-113708169D01*
X121962051Y-113708165D01*
X121937752Y-113649501D01*
X121886635Y-113526092D01*
X121886628Y-113526079D01*
X121777139Y-113362218D01*
X121777136Y-113362214D01*
X121637785Y-113222863D01*
X121637781Y-113222860D01*
X121473920Y-113113371D01*
X121473907Y-113113364D01*
X121291839Y-113037950D01*
X121291829Y-113037947D01*
X121098543Y-112999500D01*
X121098541Y-112999500D01*
X120901459Y-112999500D01*
X120901457Y-112999500D01*
X120708170Y-113037947D01*
X120708160Y-113037950D01*
X120526092Y-113113364D01*
X120526079Y-113113371D01*
X120362218Y-113222860D01*
X120362214Y-113222863D01*
X120222863Y-113362214D01*
X120222860Y-113362218D01*
X120113371Y-113526079D01*
X120113364Y-113526092D01*
X120037950Y-113708160D01*
X120037947Y-113708170D01*
X119999500Y-113901456D01*
X119999500Y-113901459D01*
X119999500Y-114098541D01*
X119999500Y-114098543D01*
X119999499Y-114098543D01*
X77940738Y-114098543D01*
X77934814Y-114080666D01*
X77931628Y-114075500D01*
X77860673Y-113960463D01*
X77860672Y-113960461D01*
X77842714Y-113931347D01*
X77842711Y-113931343D01*
X77718657Y-113807289D01*
X77718656Y-113807288D01*
X77625888Y-113750069D01*
X77569336Y-113715187D01*
X77569331Y-113715185D01*
X77548131Y-113708160D01*
X77402797Y-113660001D01*
X77402795Y-113660000D01*
X77300010Y-113649500D01*
X75749998Y-113649500D01*
X75749981Y-113649501D01*
X75647203Y-113660000D01*
X75647200Y-113660001D01*
X75480668Y-113715185D01*
X75480663Y-113715187D01*
X75331342Y-113807289D01*
X75207289Y-113931342D01*
X75115187Y-114080663D01*
X75115186Y-114080666D01*
X75060001Y-114247203D01*
X75060001Y-114247204D01*
X75060000Y-114247204D01*
X75049500Y-114349983D01*
X66690026Y-114349983D01*
X66651557Y-114231588D01*
X66555051Y-114042184D01*
X66555049Y-114042181D01*
X66555048Y-114042179D01*
X66430109Y-113870213D01*
X66279786Y-113719890D01*
X66107820Y-113594951D01*
X65918414Y-113498444D01*
X65918413Y-113498443D01*
X65918412Y-113498443D01*
X65716243Y-113432754D01*
X65716241Y-113432753D01*
X65716240Y-113432753D01*
X65528189Y-113402969D01*
X65506287Y-113399500D01*
X64993713Y-113399500D01*
X64971811Y-113402969D01*
X64783760Y-113432753D01*
X64581585Y-113498444D01*
X64392179Y-113594951D01*
X64220213Y-113719890D01*
X64069890Y-113870213D01*
X63944951Y-114042179D01*
X63848444Y-114231585D01*
X63782753Y-114433760D01*
X63759670Y-114579500D01*
X63749500Y-114643713D01*
X61750500Y-114643713D01*
X61750500Y-111524500D01*
X61770185Y-111457461D01*
X61822989Y-111411706D01*
X61874500Y-111400500D01*
X69898929Y-111400500D01*
X69965968Y-111420185D01*
G37*
%TD.AperFunction*%
%TD*%
M02*
