%TF.GenerationSoftware,KiCad,Pcbnew,9.0.7*%
%TF.CreationDate,2026-01-14T19:54:00-05:00*%
%TF.ProjectId,SlimRhizz,536c696d-5268-4697-9a7a-2e6b69636164,rev?*%
%TF.SameCoordinates,Original*%
%TF.FileFunction,Copper,L1,Top*%
%TF.FilePolarity,Positive*%
%FSLAX46Y46*%
G04 Gerber Fmt 4.6, Leading zero omitted, Abs format (unit mm)*
G04 Created by KiCad (PCBNEW 9.0.7) date 2026-01-14 19:54:00*
%MOMM*%
%LPD*%
G01*
G04 APERTURE LIST*
G04 Aperture macros list*
%AMRoundRect*
0 Rectangle with rounded corners*
0 $1 Rounding radius*
0 $2 $3 $4 $5 $6 $7 $8 $9 X,Y pos of 4 corners*
0 Add a 4 corners polygon primitive as box body*
4,1,4,$2,$3,$4,$5,$6,$7,$8,$9,$2,$3,0*
0 Add four circle primitives for the rounded corners*
1,1,$1+$1,$2,$3*
1,1,$1+$1,$4,$5*
1,1,$1+$1,$6,$7*
1,1,$1+$1,$8,$9*
0 Add four rect primitives between the rounded corners*
20,1,$1+$1,$2,$3,$4,$5,0*
20,1,$1+$1,$4,$5,$6,$7,0*
20,1,$1+$1,$6,$7,$8,$9,0*
20,1,$1+$1,$8,$9,$2,$3,0*%
G04 Aperture macros list end*
%TA.AperFunction,SMDPad,CuDef*%
%ADD10RoundRect,0.250000X-1.950000X-1.000000X1.950000X-1.000000X1.950000X1.000000X-1.950000X1.000000X0*%
%TD*%
%TA.AperFunction,SMDPad,CuDef*%
%ADD11RoundRect,0.147500X0.147500X0.172500X-0.147500X0.172500X-0.147500X-0.172500X0.147500X-0.172500X0*%
%TD*%
%TA.AperFunction,SMDPad,CuDef*%
%ADD12RoundRect,0.135000X0.135000X0.185000X-0.135000X0.185000X-0.135000X-0.185000X0.135000X-0.185000X0*%
%TD*%
%TA.AperFunction,SMDPad,CuDef*%
%ADD13RoundRect,0.147500X-0.147500X-0.172500X0.147500X-0.172500X0.147500X0.172500X-0.147500X0.172500X0*%
%TD*%
%TA.AperFunction,SMDPad,CuDef*%
%ADD14RoundRect,0.250000X-0.262500X-0.450000X0.262500X-0.450000X0.262500X0.450000X-0.262500X0.450000X0*%
%TD*%
%TA.AperFunction,ComponentPad*%
%ADD15RoundRect,0.250000X0.725000X-0.600000X0.725000X0.600000X-0.725000X0.600000X-0.725000X-0.600000X0*%
%TD*%
%TA.AperFunction,ComponentPad*%
%ADD16O,1.950000X1.700000*%
%TD*%
%TA.AperFunction,SMDPad,CuDef*%
%ADD17RoundRect,0.250000X-0.550000X1.500000X-0.550000X-1.500000X0.550000X-1.500000X0.550000X1.500000X0*%
%TD*%
%TA.AperFunction,ComponentPad*%
%ADD18RoundRect,0.250000X0.550000X0.550000X-0.550000X0.550000X-0.550000X-0.550000X0.550000X-0.550000X0*%
%TD*%
%TA.AperFunction,ComponentPad*%
%ADD19C,1.600000*%
%TD*%
%TA.AperFunction,SMDPad,CuDef*%
%ADD20RoundRect,0.250000X0.262500X0.450000X-0.262500X0.450000X-0.262500X-0.450000X0.262500X-0.450000X0*%
%TD*%
%TA.AperFunction,ComponentPad*%
%ADD21RoundRect,0.250000X0.600000X0.725000X-0.600000X0.725000X-0.600000X-0.725000X0.600000X-0.725000X0*%
%TD*%
%TA.AperFunction,ComponentPad*%
%ADD22O,1.700000X1.950000*%
%TD*%
%TA.AperFunction,SMDPad,CuDef*%
%ADD23RoundRect,0.250000X1.000000X-1.950000X1.000000X1.950000X-1.000000X1.950000X-1.000000X-1.950000X0*%
%TD*%
%TA.AperFunction,ComponentPad*%
%ADD24RoundRect,0.250000X-0.725000X0.600000X-0.725000X-0.600000X0.725000X-0.600000X0.725000X0.600000X0*%
%TD*%
%TA.AperFunction,ComponentPad*%
%ADD25RoundRect,0.250000X0.750000X-0.600000X0.750000X0.600000X-0.750000X0.600000X-0.750000X-0.600000X0*%
%TD*%
%TA.AperFunction,ComponentPad*%
%ADD26O,2.000000X1.700000*%
%TD*%
%TA.AperFunction,ComponentPad*%
%ADD27O,1.600000X3.000000*%
%TD*%
%TA.AperFunction,SMDPad,CuDef*%
%ADD28RoundRect,0.250000X0.550000X-1.500000X0.550000X1.500000X-0.550000X1.500000X-0.550000X-1.500000X0*%
%TD*%
%TA.AperFunction,ViaPad*%
%ADD29C,0.600000*%
%TD*%
%TA.AperFunction,ViaPad*%
%ADD30C,1.000000*%
%TD*%
%TA.AperFunction,Conductor*%
%ADD31C,0.400000*%
%TD*%
%TA.AperFunction,Conductor*%
%ADD32C,0.800000*%
%TD*%
G04 APERTURE END LIST*
D10*
%TO.P,C1,2*%
%TO.N,GND*%
X153200000Y-129000000D03*
%TO.P,C1,1*%
%TO.N,+5V*%
X144800000Y-129000000D03*
%TD*%
%TO.P,C3,1*%
%TO.N,+5V*%
X144200000Y-117400000D03*
%TO.P,C3,2*%
%TO.N,GND*%
X152600000Y-117400000D03*
%TD*%
D11*
%TO.P,RCon,2,A*%
%TO.N,Net-(D4-A)*%
X111515000Y-113750000D03*
%TO.P,RCon,1,K*%
%TO.N,GND*%
X112485000Y-113750000D03*
%TD*%
D12*
%TO.P,PWR,2*%
%TO.N,+5V*%
X70690000Y-114500000D03*
%TO.P,PWR,1*%
%TO.N,Net-(D1-A)*%
X71710000Y-114500000D03*
%TD*%
D13*
%TO.P,D1,2,A*%
%TO.N,Net-(D1-A)*%
X71685000Y-113250000D03*
%TO.P,D1,1,K*%
%TO.N,GND*%
X70715000Y-113250000D03*
%TD*%
D11*
%TO.P,LCon,1,K*%
%TO.N,GND*%
X115985000Y-113750000D03*
%TO.P,LCon,2,A*%
%TO.N,Net-(D3-A)*%
X115015000Y-113750000D03*
%TD*%
D12*
%TO.P,R8,1*%
%TO.N,Net-(R8-Pad1)*%
X112510000Y-114750000D03*
%TO.P,R8,2*%
%TO.N,Net-(D4-A)*%
X111490000Y-114750000D03*
%TD*%
%TO.P,R7,1*%
%TO.N,Net-(R7-Pad1)*%
X116010000Y-114750000D03*
%TO.P,R7,2*%
%TO.N,Net-(D3-A)*%
X114990000Y-114750000D03*
%TD*%
%TO.P,R6,1*%
%TO.N,Net-(R6-Pad1)*%
X119260000Y-114750000D03*
%TO.P,R6,2*%
%TO.N,Net-(D2-A)*%
X118240000Y-114750000D03*
%TD*%
D11*
%TO.P,HBT,1,K*%
%TO.N,GND*%
X119250000Y-113750000D03*
%TO.P,HBT,2,A*%
%TO.N,Net-(D2-A)*%
X118280000Y-113750000D03*
%TD*%
D14*
%TO.P,R1,1*%
%TO.N,Net-(R1-Pad1)*%
X139277500Y-126000000D03*
%TO.P,R1,2*%
%TO.N,Net-(J4-Pin_3)*%
X141102500Y-126000000D03*
%TD*%
D15*
%TO.P,J4,1,Pin_1*%
%TO.N,GND*%
X159225000Y-133500000D03*
D16*
%TO.P,J4,2,Pin_2*%
%TO.N,Net-(J4-Pin_2)*%
X159225000Y-131000000D03*
%TO.P,J4,3,Pin_3*%
%TO.N,Net-(J4-Pin_3)*%
X159225000Y-128500000D03*
%TO.P,J4,4,Pin_4*%
%TO.N,+5V*%
X159225000Y-126000000D03*
%TD*%
D17*
%TO.P,C5,1*%
%TO.N,Net-(J5-Pin_4)*%
X168750000Y-115750000D03*
%TO.P,C5,2*%
%TO.N,GND*%
X168750000Y-121350000D03*
%TD*%
D18*
%TO.P,U2,1*%
%TO.N,GND*%
X136805000Y-131120000D03*
D19*
%TO.P,U2,2*%
%TO.N,/APA_CLK_PRE*%
X136805000Y-128580000D03*
%TO.P,U2,3*%
%TO.N,Net-(R1-Pad1)*%
X136805000Y-126040000D03*
%TO.P,U2,4*%
%TO.N,GND*%
X136805000Y-123500000D03*
%TO.P,U2,5*%
%TO.N,/APA_DATA_PRE*%
X136805000Y-120960000D03*
%TO.P,U2,6*%
%TO.N,Net-(R2-Pad1)*%
X136805000Y-118420000D03*
%TO.P,U2,7,GND*%
%TO.N,GND*%
X136805000Y-115880000D03*
%TO.P,U2,8*%
%TO.N,Net-(R3-Pad1)*%
X129185000Y-115880000D03*
%TO.P,U2,9*%
%TO.N,/LED_TIP1*%
X129185000Y-118420000D03*
%TO.P,U2,10*%
%TO.N,GND*%
X129185000Y-120960000D03*
%TO.P,U2,11*%
%TO.N,Net-(R4-Pad1)*%
X129185000Y-123500000D03*
%TO.P,U2,12*%
%TO.N,/LED_TIP2*%
X129185000Y-126040000D03*
%TO.P,U2,13*%
%TO.N,GND*%
X129185000Y-128580000D03*
%TO.P,U2,14,VCC*%
%TO.N,+5V*%
X129185000Y-131120000D03*
%TD*%
D20*
%TO.P,R3,1*%
%TO.N,Net-(R3-Pad1)*%
X126512500Y-114000000D03*
%TO.P,R3,2*%
%TO.N,Net-(J2-Pin_2)*%
X124687500Y-114000000D03*
%TD*%
D15*
%TO.P,J6,1,Pin_1*%
%TO.N,Net-(J6-Pin_1)*%
X177000000Y-122750000D03*
D16*
%TO.P,J6,2,Pin_2*%
%TO.N,Net-(J6-Pin_2)*%
X177000000Y-120250000D03*
%TO.P,J6,3,Pin_3*%
%TO.N,GND*%
X177000000Y-117750000D03*
%TO.P,J6,4,Pin_4*%
%TO.N,Net-(J5-Pin_4)*%
X177000000Y-115250000D03*
%TD*%
D14*
%TO.P,R2,1*%
%TO.N,Net-(R2-Pad1)*%
X139277500Y-130500000D03*
%TO.P,R2,2*%
%TO.N,Net-(J4-Pin_2)*%
X141102500Y-130500000D03*
%TD*%
D21*
%TO.P,J8,1,Pin_1*%
%TO.N,Net-(J8-Pin_1)*%
X177750000Y-131000000D03*
D22*
%TO.P,J8,2,Pin_2*%
%TO.N,Net-(J8-Pin_2)*%
X175250000Y-131000000D03*
%TO.P,J8,3,Pin_3*%
%TO.N,GND*%
X172750000Y-131000000D03*
%TO.P,J8,4,Pin_4*%
%TO.N,Net-(J8-Pin_4)*%
X170250000Y-131000000D03*
%TO.P,J8,5,Pin_5*%
%TO.N,GND*%
X167750000Y-131000000D03*
%TD*%
D15*
%TO.P,J3,1,Pin_1*%
%TO.N,GND*%
X158750000Y-119750000D03*
D16*
%TO.P,J3,2,Pin_2*%
%TO.N,Net-(J3-Pin_2)*%
X158750000Y-117250000D03*
%TO.P,J3,3,Pin_3*%
%TO.N,+5V*%
X158750000Y-114750000D03*
%TD*%
D23*
%TO.P,C2,1*%
%TO.N,+5V*%
X85250000Y-133950000D03*
%TO.P,C2,2*%
%TO.N,GND*%
X85250000Y-125550000D03*
%TD*%
D24*
%TO.P,J2,1,Pin_1*%
%TO.N,GND*%
X75500000Y-129000000D03*
D16*
%TO.P,J2,2,Pin_2*%
%TO.N,Net-(J2-Pin_2)*%
X75500000Y-131500000D03*
%TO.P,J2,3,Pin_3*%
%TO.N,+5V*%
X75500000Y-134000000D03*
%TD*%
D25*
%TO.P,J1,1,Pin_1*%
%TO.N,+5V*%
X65250000Y-117250000D03*
D26*
%TO.P,J1,2,Pin_2*%
%TO.N,GND*%
X65250000Y-114750000D03*
%TD*%
D24*
%TO.P,J5,1,Pin_1*%
%TO.N,Net-(J5-Pin_1)*%
X76525000Y-115000000D03*
D16*
%TO.P,J5,2,Pin_2*%
%TO.N,Net-(J5-Pin_2)*%
X76525000Y-117500000D03*
%TO.P,J5,3,Pin_3*%
%TO.N,GND*%
X76525000Y-120000000D03*
%TO.P,J5,4,Pin_4*%
%TO.N,Net-(J5-Pin_4)*%
X76525000Y-122500000D03*
%TD*%
D15*
%TO.P,J7,1,Pin_1*%
%TO.N,GND*%
X65250000Y-133750000D03*
D16*
%TO.P,J7,2,Pin_2*%
%TO.N,Net-(J7-Pin_2)*%
X65250000Y-131250000D03*
%TO.P,J7,3,Pin_3*%
%TO.N,GND*%
X65250000Y-128750000D03*
%TO.P,J7,4,Pin_4*%
%TO.N,Net-(J7-Pin_4)*%
X65250000Y-126250000D03*
%TO.P,J7,5,Pin_5*%
%TO.N,Net-(J7-Pin_5)*%
X65250000Y-123750000D03*
%TD*%
D27*
%TO.P,u1,0,0/RX1*%
%TO.N,/LED_TIP2*%
X123470000Y-117775000D03*
%TO.P,u1,1,1/TX1*%
%TO.N,/LED_TIP1*%
X120930000Y-117775000D03*
%TO.P,u1,2,2*%
%TO.N,Net-(R6-Pad1)*%
X118390000Y-117775000D03*
%TO.P,u1,3,3*%
%TO.N,Net-(R7-Pad1)*%
X115850000Y-117775000D03*
%TO.P,u1,3.3V,3V3_LO*%
%TO.N,Net-(J5-Pin_4)*%
X120930000Y-133225000D03*
%TO.P,u1,4,4*%
%TO.N,Net-(R8-Pad1)*%
X113310000Y-117775000D03*
%TO.P,u1,5,5*%
%TO.N,unconnected-(u1-Pad5)*%
X110770000Y-117775000D03*
%TO.P,u1,6,6*%
%TO.N,Net-(J8-Pin_1)*%
X108230000Y-117775000D03*
%TO.P,u1,7,7/RX2*%
%TO.N,Net-(J8-Pin_4)*%
X105690000Y-117775000D03*
%TO.P,u1,8,8/TX2*%
%TO.N,Net-(J8-Pin_2)*%
X103150000Y-117775000D03*
%TO.P,u1,9,9*%
%TO.N,unconnected-(u1-Pad9)*%
X100610000Y-117775000D03*
%TO.P,u1,10,10/CS*%
%TO.N,unconnected-(u1-10{slash}CS-Pad10)*%
X98070000Y-117775000D03*
%TO.P,u1,11,11/MOSI*%
%TO.N,unconnected-(u1-11{slash}MOSI-Pad11)*%
X95530000Y-117775000D03*
%TO.P,u1,12,12/MISO*%
%TO.N,/APA_CLK_PRE*%
X92990000Y-117775000D03*
%TO.P,u1,13,13/SCK*%
%TO.N,/APA_DATA_PRE*%
X92990000Y-133225000D03*
%TO.P,u1,14,14/A0/TX3*%
%TO.N,Net-(J7-Pin_4)*%
X95530000Y-133225000D03*
%TO.P,u1,15,15/A1/RX3*%
%TO.N,Net-(J7-Pin_2)*%
X98070000Y-133225000D03*
%TO.P,u1,16,16/A2/RX4*%
%TO.N,Net-(J6-Pin_1)*%
X100610000Y-133225000D03*
%TO.P,u1,17,17/A3/TX4*%
%TO.N,Net-(J6-Pin_2)*%
X103150000Y-133225000D03*
%TO.P,u1,18,18/A4/SDA*%
%TO.N,Net-(J5-Pin_2)*%
X105690000Y-133225000D03*
%TO.P,u1,19,19/A5/SCL*%
%TO.N,Net-(J5-Pin_1)*%
X108230000Y-133225000D03*
%TO.P,u1,20,20/A6/TX5*%
%TO.N,Net-(J7-Pin_5)*%
X110770000Y-133225000D03*
%TO.P,u1,21,21/A7/RX5*%
%TO.N,unconnected-(u1-21{slash}A7{slash}RX5-Pad21)*%
X113310000Y-133225000D03*
%TO.P,u1,22,22/A8*%
%TO.N,unconnected-(u1-22{slash}A8-Pad22)*%
X115850000Y-133225000D03*
%TO.P,u1,23,23/A9*%
%TO.N,unconnected-(u1-23{slash}A9-Pad23)*%
X118390000Y-133225000D03*
%TO.P,u1,GND,GND*%
%TO.N,GND*%
X126010000Y-117775000D03*
X123470000Y-133225000D03*
%TO.P,u1,VIN,VIN*%
%TO.N,+5V*%
X126010000Y-133225000D03*
%TD*%
D14*
%TO.P,R4,1*%
%TO.N,Net-(R4-Pad1)*%
X139277500Y-121500000D03*
%TO.P,R4,2*%
%TO.N,Net-(J3-Pin_2)*%
X141102500Y-121500000D03*
%TD*%
D28*
%TO.P,C4,1*%
%TO.N,Net-(J5-Pin_4)*%
X84750000Y-120550000D03*
%TO.P,C4,2*%
%TO.N,GND*%
X84750000Y-114950000D03*
%TD*%
D29*
%TO.N,/APA_DATA_PRE*%
X96400000Y-128800000D03*
X101800000Y-123400000D03*
%TO.N,Net-(J2-Pin_2)*%
X97800000Y-115000000D03*
X122200000Y-115000000D03*
%TO.N,Net-(R2-Pad1)*%
X140000000Y-127800000D03*
%TO.N,Net-(J4-Pin_2)*%
X144800000Y-131800000D03*
X156400000Y-131000000D03*
%TO.N,Net-(J8-Pin_1)*%
X179600000Y-112800000D03*
%TO.N,Net-(J8-Pin_2)*%
X177200000Y-112000000D03*
%TO.N,Net-(J6-Pin_1)*%
X169400000Y-128600000D03*
D30*
%TO.N,+5V*%
X157000000Y-126000000D03*
%TO.N,GND*%
X156800000Y-133600000D03*
X174600000Y-117800000D03*
%TO.N,+5V*%
X156400000Y-114600000D03*
%TO.N,GND*%
X156400000Y-119800000D03*
X121000000Y-114000000D03*
X78000000Y-128800000D03*
%TO.N,+5V*%
X77800000Y-134200000D03*
%TO.N,GND*%
X78600000Y-119800000D03*
%TO.N,+5V*%
X70800000Y-116000000D03*
%TO.N,GND*%
X70800000Y-112200000D03*
%TD*%
D31*
%TO.N,Net-(R3-Pad1)*%
X128392500Y-115880000D02*
X126512500Y-114000000D01*
X129185000Y-115880000D02*
X128392500Y-115880000D01*
%TO.N,/APA_DATA_PRE*%
X101800000Y-123400000D02*
X96400000Y-128800000D01*
%TO.N,Net-(J2-Pin_2)*%
X76473420Y-112799000D02*
X95599000Y-112799000D01*
X75149000Y-114123420D02*
X76473420Y-112799000D01*
X75149000Y-123018181D02*
X75149000Y-114123420D01*
X95599000Y-112799000D02*
X97800000Y-115000000D01*
X75500000Y-131500000D02*
X76876000Y-130124000D01*
X76876000Y-124745181D02*
X75149000Y-123018181D01*
X76876000Y-130124000D02*
X76876000Y-124745181D01*
%TO.N,Net-(J7-Pin_5)*%
X108268000Y-130723000D02*
X110770000Y-133225000D01*
X77125851Y-132750000D02*
X79152851Y-130723000D01*
X79152851Y-130723000D02*
X108268000Y-130723000D01*
X74250000Y-132750000D02*
X77125851Y-132750000D01*
X65250000Y-123750000D02*
X74250000Y-132750000D01*
%TO.N,Net-(J7-Pin_4)*%
X76876000Y-133849793D02*
X79401793Y-131324000D01*
X76876000Y-134518181D02*
X76876000Y-133849793D01*
X76143181Y-135251000D02*
X76876000Y-134518181D01*
X93629000Y-131324000D02*
X95530000Y-133225000D01*
X74251000Y-135251000D02*
X76143181Y-135251000D01*
X65250000Y-126250000D02*
X74251000Y-135251000D01*
X79401793Y-131324000D02*
X93629000Y-131324000D01*
%TO.N,Net-(J7-Pin_2)*%
X94744000Y-136551000D02*
X98070000Y-133225000D01*
X70551000Y-136551000D02*
X94744000Y-136551000D01*
X65250000Y-131250000D02*
X70551000Y-136551000D01*
%TO.N,/APA_CLK_PRE*%
X128687529Y-127379000D02*
X135604000Y-127379000D01*
X120984529Y-119676000D02*
X128687529Y-127379000D01*
X94891000Y-119676000D02*
X120984529Y-119676000D01*
X92990000Y-117775000D02*
X94891000Y-119676000D01*
X135604000Y-127379000D02*
X136805000Y-128580000D01*
%TO.N,Net-(J2-Pin_2)*%
X123200000Y-114000000D02*
X122200000Y-115000000D01*
X124687500Y-114000000D02*
X123200000Y-114000000D01*
%TO.N,/LED_TIP2*%
X123470000Y-120325000D02*
X123470000Y-117775000D01*
X129185000Y-126040000D02*
X123470000Y-120325000D01*
%TO.N,Net-(R4-Pad1)*%
X138616500Y-122161000D02*
X139277500Y-121500000D01*
X130524000Y-122161000D02*
X138616500Y-122161000D01*
X129185000Y-123500000D02*
X130524000Y-122161000D01*
%TO.N,Net-(R2-Pad1)*%
X139277500Y-128522500D02*
X140000000Y-127800000D01*
X139277500Y-130500000D02*
X139277500Y-128522500D01*
%TO.N,Net-(R1-Pad1)*%
X136845000Y-126000000D02*
X136805000Y-126040000D01*
X139277500Y-126000000D02*
X136845000Y-126000000D01*
%TO.N,Net-(J4-Pin_2)*%
X142402500Y-131800000D02*
X141102500Y-130500000D01*
X144800000Y-131800000D02*
X142402500Y-131800000D01*
X159225000Y-131000000D02*
X156400000Y-131000000D01*
%TO.N,Net-(J4-Pin_3)*%
X142016000Y-130200000D02*
X142016000Y-126913500D01*
X142016000Y-126913500D02*
X141102500Y-126000000D01*
X150876580Y-126801000D02*
X147026580Y-130651000D01*
X156151000Y-126801000D02*
X150876580Y-126801000D01*
X147026580Y-130651000D02*
X142467000Y-130651000D01*
X157850000Y-128500000D02*
X156151000Y-126801000D01*
X142467000Y-130651000D02*
X142016000Y-130200000D01*
X159225000Y-128500000D02*
X157850000Y-128500000D01*
%TO.N,Net-(J3-Pin_2)*%
X157374000Y-120100207D02*
X155974207Y-121500000D01*
X157374000Y-118626000D02*
X157374000Y-120100207D01*
X155974207Y-121500000D02*
X141102500Y-121500000D01*
X158750000Y-117250000D02*
X157374000Y-118626000D01*
%TO.N,Net-(J8-Pin_1)*%
X179600000Y-129150000D02*
X179600000Y-112800000D01*
X177750000Y-131000000D02*
X179600000Y-129150000D01*
%TO.N,Net-(J8-Pin_2)*%
X178977000Y-113777000D02*
X177200000Y-112000000D01*
X178977000Y-127273000D02*
X178977000Y-113777000D01*
X175250000Y-131000000D02*
X178977000Y-127273000D01*
%TO.N,Net-(J6-Pin_1)*%
X175250000Y-122750000D02*
X169400000Y-128600000D01*
X177000000Y-122750000D02*
X175250000Y-122750000D01*
%TO.N,Net-(J6-Pin_2)*%
X106052000Y-136127000D02*
X103150000Y-133225000D01*
X160266210Y-136127000D02*
X106052000Y-136127000D01*
X176143209Y-120250000D02*
X160266210Y-136127000D01*
X177000000Y-120250000D02*
X176143209Y-120250000D01*
%TO.N,Net-(J8-Pin_4)*%
X178376000Y-114731819D02*
X175672181Y-112028000D01*
X111437000Y-112028000D02*
X105690000Y-117775000D01*
X178376000Y-123626580D02*
X178376000Y-114731819D01*
X178001580Y-124001000D02*
X178376000Y-123626580D01*
X175672181Y-112028000D02*
X111437000Y-112028000D01*
X177249000Y-124001000D02*
X178001580Y-124001000D01*
X170250000Y-131000000D02*
X177249000Y-124001000D01*
D32*
%TO.N,+5V*%
X147800000Y-126000000D02*
X157000000Y-126000000D01*
X144800000Y-129000000D02*
X147800000Y-126000000D01*
%TO.N,GND*%
X153200000Y-130000000D02*
X156800000Y-133600000D01*
X153200000Y-129000000D02*
X153200000Y-130000000D01*
%TO.N,Net-(J5-Pin_4)*%
X108396313Y-120550000D02*
X84750000Y-120550000D01*
X120930000Y-133083687D02*
X108396313Y-120550000D01*
X120930000Y-133225000D02*
X120930000Y-133083687D01*
X122131000Y-135326000D02*
X120930000Y-134125000D01*
X159934424Y-135326000D02*
X122131000Y-135326000D01*
X120930000Y-134125000D02*
X120930000Y-133225000D01*
X160801000Y-134459424D02*
X159934424Y-135326000D01*
X160801000Y-123699000D02*
X160801000Y-134459424D01*
X168750000Y-115750000D02*
X160801000Y-123699000D01*
X176500000Y-115750000D02*
X177000000Y-115250000D01*
X168750000Y-115750000D02*
X176500000Y-115750000D01*
%TO.N,GND*%
X171050000Y-121350000D02*
X174600000Y-117800000D01*
X168750000Y-121350000D02*
X171050000Y-121350000D01*
%TO.N,+5V*%
X147000000Y-114600000D02*
X156400000Y-114600000D01*
X144200000Y-117400000D02*
X147000000Y-114600000D01*
%TO.N,GND*%
X154000000Y-117400000D02*
X156400000Y-119800000D01*
X152600000Y-117400000D02*
X154000000Y-117400000D01*
X115985000Y-113244000D02*
X116400000Y-112829000D01*
X116400000Y-112829000D02*
X119829000Y-112829000D01*
X115985000Y-113750000D02*
X115985000Y-113244000D01*
X119250000Y-113750000D02*
X120750000Y-113750000D01*
X120750000Y-113750000D02*
X121000000Y-114000000D01*
X119829000Y-112829000D02*
X121000000Y-114000000D01*
X113406000Y-112829000D02*
X116400000Y-112829000D01*
X112485000Y-113750000D02*
X113406000Y-112829000D01*
%TO.N,Net-(R6-Pad1)*%
X118390000Y-117775000D02*
X119260000Y-116905000D01*
X119260000Y-116905000D02*
X119260000Y-114750000D01*
%TO.N,Net-(R7-Pad1)*%
X115850000Y-117775000D02*
X116010000Y-117615000D01*
X116010000Y-117615000D02*
X116010000Y-114750000D01*
%TO.N,Net-(R8-Pad1)*%
X113310000Y-115550000D02*
X112510000Y-114750000D01*
X113310000Y-117775000D02*
X113310000Y-115550000D01*
%TO.N,GND*%
X82000000Y-128800000D02*
X78000000Y-128800000D01*
X85250000Y-125550000D02*
X82000000Y-128800000D01*
%TO.N,+5V*%
X78050000Y-133950000D02*
X77800000Y-134200000D01*
X85250000Y-133950000D02*
X78050000Y-133950000D01*
%TO.N,Net-(J5-Pin_4)*%
X82800000Y-122500000D02*
X76525000Y-122500000D01*
X84750000Y-120550000D02*
X82800000Y-122500000D01*
%TO.N,GND*%
X79900000Y-119800000D02*
X78600000Y-119800000D01*
X84750000Y-114950000D02*
X79900000Y-119800000D01*
%TO.N,+5V*%
X70690000Y-115890000D02*
X70800000Y-116000000D01*
X70690000Y-114500000D02*
X70690000Y-115890000D01*
%TO.N,GND*%
X70715000Y-112285000D02*
X70800000Y-112200000D01*
X70715000Y-113250000D02*
X70715000Y-112285000D01*
D31*
%TO.N,Net-(D2-A)*%
X118240000Y-113790000D02*
X118280000Y-113750000D01*
X118240000Y-114750000D02*
X118240000Y-113790000D01*
%TO.N,Net-(D3-A)*%
X114990000Y-113775000D02*
X115015000Y-113750000D01*
X114990000Y-114750000D02*
X114990000Y-113775000D01*
%TO.N,Net-(D4-A)*%
X111490000Y-113775000D02*
X111515000Y-113750000D01*
X111490000Y-114750000D02*
X111490000Y-113775000D01*
%TO.N,Net-(D1-A)*%
X71710000Y-114500000D02*
X71710000Y-113275000D01*
X71710000Y-113275000D02*
X71685000Y-113250000D01*
%TO.N,/LED_TIP1*%
X122831000Y-115874000D02*
X120930000Y-117775000D01*
X126639000Y-115874000D02*
X122831000Y-115874000D01*
X129185000Y-118420000D02*
X126639000Y-115874000D01*
%TD*%
M02*
