%TF.GenerationSoftware,KiCad,Pcbnew,9.0.7*%
%TF.CreationDate,2026-01-14T19:54:00-05:00*%
%TF.ProjectId,SlimRhizz,536c696d-5268-4697-9a7a-2e6b69636164,rev?*%
%TF.SameCoordinates,Original*%
%TF.FileFunction,Legend,Top*%
%TF.FilePolarity,Positive*%
%FSLAX46Y46*%
G04 Gerber Fmt 4.6, Leading zero omitted, Abs format (unit mm)*
G04 Created by KiCad (PCBNEW 9.0.7) date 2026-01-14 19:54:00*
%MOMM*%
%LPD*%
G01*
G04 APERTURE LIST*
%ADD10C,0.100000*%
%ADD11C,0.150000*%
%ADD12C,0.120000*%
G04 APERTURE END LIST*
D10*
G36*
X114710839Y-129656816D02*
G01*
X114781173Y-129664501D01*
X114828916Y-129675202D01*
X114873180Y-129693407D01*
X114912598Y-129719452D01*
X114947801Y-129753909D01*
X114974844Y-129794399D01*
X114991074Y-129839529D01*
X114996650Y-129890685D01*
X114990373Y-129945114D01*
X114971965Y-129993715D01*
X114940963Y-130037964D01*
X114899983Y-130073528D01*
X114843764Y-130103196D01*
X114768466Y-130126135D01*
X114959769Y-130393642D01*
X115006329Y-130454050D01*
X115043299Y-130493083D01*
X115072487Y-130516130D01*
X115105175Y-130533050D01*
X115145655Y-130546077D01*
X115195464Y-130554598D01*
X115195464Y-130580000D01*
X114948168Y-130580000D01*
X114634621Y-130143904D01*
X114577896Y-130145247D01*
X114558784Y-130144942D01*
X114537595Y-130143904D01*
X114537595Y-130414952D01*
X114540669Y-130474837D01*
X114547816Y-130508040D01*
X114556707Y-130524312D01*
X114575989Y-130540600D01*
X114601322Y-130550861D01*
X114634621Y-130554598D01*
X114670830Y-130554598D01*
X114670830Y-130580000D01*
X114273935Y-130580000D01*
X114273935Y-130554598D01*
X114308740Y-130554598D01*
X114345897Y-130549876D01*
X114373045Y-130537002D01*
X114392759Y-130516374D01*
X114402388Y-130487754D01*
X114407109Y-130415990D01*
X114407109Y-129817840D01*
X114404038Y-129758430D01*
X114396895Y-129725458D01*
X114392966Y-129718311D01*
X114537595Y-129718311D01*
X114537595Y-130102566D01*
X114560127Y-130102932D01*
X114575819Y-130103237D01*
X114643125Y-130099006D01*
X114697388Y-130087372D01*
X114740932Y-130069529D01*
X114775671Y-130046085D01*
X114805398Y-130015148D01*
X114826127Y-129981063D01*
X114838650Y-129943143D01*
X114842960Y-129900333D01*
X114836598Y-129844953D01*
X114818447Y-129798791D01*
X114788616Y-129759771D01*
X114749431Y-129730188D01*
X114702260Y-129712025D01*
X114644818Y-129705610D01*
X114601962Y-129708355D01*
X114537595Y-129718311D01*
X114392966Y-129718311D01*
X114387997Y-129709274D01*
X114368315Y-129693135D01*
X114342532Y-129682945D01*
X114308740Y-129679232D01*
X114273935Y-129679232D01*
X114273935Y-129653831D01*
X114611357Y-129653831D01*
X114710839Y-129656816D01*
G37*
G36*
X115540699Y-129938687D02*
G01*
X115585665Y-129948334D01*
X115622278Y-129963225D01*
X115646616Y-129979851D01*
X115666305Y-130001679D01*
X115681690Y-130029476D01*
X115690024Y-130066506D01*
X115693963Y-130149766D01*
X115693963Y-130362257D01*
X115697383Y-130471922D01*
X115702423Y-130489948D01*
X115708618Y-130498911D01*
X115726753Y-130505750D01*
X115745926Y-130500926D01*
X115801247Y-130451100D01*
X115801247Y-130489324D01*
X115758244Y-130539323D01*
X115720340Y-130570231D01*
X115686415Y-130586652D01*
X115655068Y-130591723D01*
X115624648Y-130585777D01*
X115601762Y-130568520D01*
X115587613Y-130540296D01*
X115581245Y-130489263D01*
X115492745Y-130555154D01*
X115460345Y-130575359D01*
X115422424Y-130587601D01*
X115381821Y-130591723D01*
X115340448Y-130586644D01*
X115305302Y-130571985D01*
X115274904Y-130547515D01*
X115252002Y-130515738D01*
X115237885Y-130477540D01*
X115232894Y-130431133D01*
X115236962Y-130397978D01*
X115347627Y-130397978D01*
X115351050Y-130429234D01*
X115360862Y-130455777D01*
X115376997Y-130478639D01*
X115398180Y-130496815D01*
X115420483Y-130507188D01*
X115444652Y-130510635D01*
X115477624Y-130504925D01*
X115521800Y-130484591D01*
X115581245Y-130443162D01*
X115581245Y-130207773D01*
X115448072Y-130265109D01*
X115399580Y-130297257D01*
X115370830Y-130327208D01*
X115353375Y-130361242D01*
X115347627Y-130397978D01*
X115236962Y-130397978D01*
X115238207Y-130387830D01*
X115253349Y-130352182D01*
X115274771Y-130323954D01*
X115306421Y-130294990D01*
X115350680Y-130265109D01*
X115432424Y-130224455D01*
X115581245Y-130165764D01*
X115581245Y-130141095D01*
X115576999Y-130078506D01*
X115566341Y-130037632D01*
X115551509Y-130012196D01*
X115529495Y-129993231D01*
X115501330Y-129981450D01*
X115465108Y-129977208D01*
X115425543Y-129983324D01*
X115396842Y-130000289D01*
X115377122Y-130025641D01*
X115370891Y-130053290D01*
X115372234Y-130092735D01*
X115367907Y-130121341D01*
X115356175Y-130140973D01*
X115337930Y-130153588D01*
X115314166Y-130157948D01*
X115291041Y-130153456D01*
X115272827Y-130140240D01*
X115261047Y-130120075D01*
X115256769Y-130091880D01*
X115262894Y-130055425D01*
X115281964Y-130019982D01*
X115316852Y-129984230D01*
X115359606Y-129958182D01*
X115414728Y-129941355D01*
X115485624Y-129935198D01*
X115540699Y-129938687D01*
G37*
G36*
X116029797Y-129743712D02*
G01*
X116029797Y-129950830D01*
X116175976Y-129950830D01*
X116175976Y-129998702D01*
X116029797Y-129998702D01*
X116029797Y-130406892D01*
X116035134Y-130462378D01*
X116047199Y-130489324D01*
X116067107Y-130505315D01*
X116091957Y-130510635D01*
X116113826Y-130507242D01*
X116135676Y-130496652D01*
X116154149Y-130479695D01*
X116168466Y-130455314D01*
X116195088Y-130455314D01*
X116176051Y-130498188D01*
X116153471Y-130531632D01*
X116127494Y-130557163D01*
X116096999Y-130576897D01*
X116067170Y-130588085D01*
X116037308Y-130591723D01*
X116006597Y-130587451D01*
X115975819Y-130574199D01*
X115949774Y-130552910D01*
X115931428Y-130523885D01*
X115921307Y-130486541D01*
X115917079Y-130422951D01*
X115917079Y-129998702D01*
X115818039Y-129998702D01*
X115818039Y-129976109D01*
X115854648Y-129956637D01*
X115894853Y-129924879D01*
X115931647Y-129885893D01*
X115964890Y-129839272D01*
X116008609Y-129743712D01*
X116029797Y-129743712D01*
G37*
G36*
X116611670Y-129942203D02*
G01*
X116671463Y-129962418D01*
X116724218Y-129995693D01*
X116771135Y-130043276D01*
X116803217Y-130091369D01*
X116825877Y-130142281D01*
X116839565Y-130196677D01*
X116844225Y-130255401D01*
X116839911Y-130310679D01*
X116826706Y-130367256D01*
X116803925Y-130425760D01*
X116772816Y-130479751D01*
X116735891Y-130522604D01*
X116692916Y-130555758D01*
X116644206Y-130579999D01*
X116592032Y-130594579D01*
X116535441Y-130599539D01*
X116467376Y-130592261D01*
X116408426Y-130571256D01*
X116356592Y-130536560D01*
X116310676Y-130486638D01*
X116279743Y-130437340D01*
X116257925Y-130385750D01*
X116244788Y-130331273D01*
X116240334Y-130273169D01*
X116244941Y-130216632D01*
X116245032Y-130216261D01*
X116367402Y-130216261D01*
X116373854Y-130306185D01*
X116392246Y-130384275D01*
X116421685Y-130452444D01*
X116453188Y-130498388D01*
X116487063Y-130528507D01*
X116523816Y-130545844D01*
X116564811Y-130551667D01*
X116606358Y-130545595D01*
X116642270Y-130527727D01*
X116674110Y-130496896D01*
X116695826Y-130457572D01*
X116711151Y-130397409D01*
X116717158Y-130308707D01*
X116712008Y-130224306D01*
X116697628Y-130153782D01*
X116675223Y-130094913D01*
X116645411Y-130045840D01*
X116609242Y-130008671D01*
X116568629Y-129987347D01*
X116521763Y-129980139D01*
X116486188Y-129985315D01*
X116448979Y-130001693D01*
X116427298Y-130018566D01*
X116407602Y-130043179D01*
X116389933Y-130077348D01*
X116373599Y-130135719D01*
X116367402Y-130216261D01*
X116245032Y-130216261D01*
X116258957Y-130159721D01*
X116283016Y-130101772D01*
X116315541Y-130048482D01*
X116352924Y-130007068D01*
X116395368Y-129975926D01*
X116443170Y-129953145D01*
X116492127Y-129939692D01*
X116542951Y-129935198D01*
X116611670Y-129942203D01*
G37*
G36*
X117118815Y-130067761D02*
G01*
X117179791Y-130003748D01*
X117234039Y-129963583D01*
X117283036Y-129941941D01*
X117328558Y-129935198D01*
X117376929Y-129941824D01*
X117416669Y-129960844D01*
X117438431Y-129980272D01*
X117458061Y-130007754D01*
X117475409Y-130045169D01*
X117485994Y-130091692D01*
X117490430Y-130170832D01*
X117490430Y-130437850D01*
X117493444Y-130492436D01*
X117500017Y-130518389D01*
X117509784Y-130533555D01*
X117524258Y-130545073D01*
X117544691Y-130551652D01*
X117586051Y-130554598D01*
X117586051Y-130580000D01*
X117276596Y-130580000D01*
X117276596Y-130554598D01*
X117289602Y-130554598D01*
X117329531Y-130550640D01*
X117350724Y-130541348D01*
X117365204Y-130525377D01*
X117374965Y-130502086D01*
X117377712Y-130438033D01*
X117377712Y-130182433D01*
X117374623Y-130125374D01*
X117366686Y-130085559D01*
X117355486Y-130058724D01*
X117337759Y-130037662D01*
X117313586Y-130024838D01*
X117280748Y-130020195D01*
X117242793Y-130025029D01*
X117203795Y-130040108D01*
X117162736Y-130067135D01*
X117118815Y-130108794D01*
X117118815Y-130438033D01*
X117121366Y-130495488D01*
X117126325Y-130516435D01*
X117137932Y-130533834D01*
X117152643Y-130545439D01*
X117173773Y-130551682D01*
X117220603Y-130554598D01*
X117220603Y-130580000D01*
X116911147Y-130580000D01*
X116911147Y-130554598D01*
X116924825Y-130554598D01*
X116955656Y-130551352D01*
X116976172Y-130542952D01*
X116989366Y-130530357D01*
X117000923Y-130500160D01*
X117006097Y-130437850D01*
X117006097Y-130205636D01*
X117004321Y-130103548D01*
X117000968Y-130068372D01*
X116993838Y-130046378D01*
X116985275Y-130034911D01*
X116973369Y-130028372D01*
X116956943Y-130025996D01*
X116937106Y-130028298D01*
X116911147Y-130036254D01*
X116900889Y-130011707D01*
X117089445Y-129935198D01*
X117118815Y-129935198D01*
X117118815Y-130067761D01*
G37*
G36*
X117950828Y-129950830D02*
G01*
X118213145Y-129950830D01*
X118213145Y-129976231D01*
X118180549Y-129981653D01*
X118165701Y-129989298D01*
X118157402Y-130001403D01*
X118154405Y-130018852D01*
X118157006Y-130040967D01*
X118166067Y-130070387D01*
X118299912Y-130432538D01*
X118434490Y-130137737D01*
X118398953Y-130044924D01*
X118379008Y-130008732D01*
X118355966Y-129987894D01*
X118337458Y-129980852D01*
X118299912Y-129976231D01*
X118299912Y-129950830D01*
X118597766Y-129950830D01*
X118597766Y-129976231D01*
X118552829Y-129982537D01*
X118528096Y-129994122D01*
X118518134Y-130007642D01*
X118514419Y-130029171D01*
X118519914Y-130057320D01*
X118662002Y-130418799D01*
X118793832Y-130070387D01*
X118804601Y-130034777D01*
X118807510Y-130011280D01*
X118804392Y-129999315D01*
X118794138Y-129987955D01*
X118777274Y-129980549D01*
X118741931Y-129976231D01*
X118741931Y-129950830D01*
X118939340Y-129950830D01*
X118939340Y-129976231D01*
X118904355Y-129988502D01*
X118875526Y-130014305D01*
X118851901Y-130057320D01*
X118642829Y-130599539D01*
X118614863Y-130599539D01*
X118458426Y-130197515D01*
X118276038Y-130599539D01*
X118250758Y-130599539D01*
X118049930Y-130070387D01*
X118028382Y-130025158D01*
X118010973Y-130002670D01*
X117988281Y-129988153D01*
X117950828Y-129976231D01*
X117950828Y-129950830D01*
G37*
G36*
X119309855Y-129938687D02*
G01*
X119354820Y-129948334D01*
X119391434Y-129963225D01*
X119415772Y-129979851D01*
X119435461Y-130001679D01*
X119450846Y-130029476D01*
X119459180Y-130066506D01*
X119463119Y-130149766D01*
X119463119Y-130362257D01*
X119466538Y-130471922D01*
X119471578Y-130489948D01*
X119477773Y-130498911D01*
X119495908Y-130505750D01*
X119515081Y-130500926D01*
X119570403Y-130451100D01*
X119570403Y-130489324D01*
X119527400Y-130539323D01*
X119489496Y-130570231D01*
X119455570Y-130586652D01*
X119424223Y-130591723D01*
X119393804Y-130585777D01*
X119370917Y-130568520D01*
X119356769Y-130540296D01*
X119350401Y-130489263D01*
X119261901Y-130555154D01*
X119229501Y-130575359D01*
X119191580Y-130587601D01*
X119150976Y-130591723D01*
X119109604Y-130586644D01*
X119074458Y-130571985D01*
X119044059Y-130547515D01*
X119021157Y-130515738D01*
X119007041Y-130477540D01*
X119002049Y-130431133D01*
X119006117Y-130397978D01*
X119116782Y-130397978D01*
X119120205Y-130429234D01*
X119130018Y-130455777D01*
X119146153Y-130478639D01*
X119167336Y-130496815D01*
X119189639Y-130507188D01*
X119213808Y-130510635D01*
X119246779Y-130504925D01*
X119290956Y-130484591D01*
X119350401Y-130443162D01*
X119350401Y-130207773D01*
X119217227Y-130265109D01*
X119168736Y-130297257D01*
X119139986Y-130327208D01*
X119122531Y-130361242D01*
X119116782Y-130397978D01*
X119006117Y-130397978D01*
X119007362Y-130387830D01*
X119022505Y-130352182D01*
X119043927Y-130323954D01*
X119075576Y-130294990D01*
X119119836Y-130265109D01*
X119201579Y-130224455D01*
X119350401Y-130165764D01*
X119350401Y-130141095D01*
X119346155Y-130078506D01*
X119335497Y-130037632D01*
X119320664Y-130012196D01*
X119298650Y-129993231D01*
X119270486Y-129981450D01*
X119234263Y-129977208D01*
X119194699Y-129983324D01*
X119165997Y-130000289D01*
X119146277Y-130025641D01*
X119140047Y-130053290D01*
X119141390Y-130092735D01*
X119137063Y-130121341D01*
X119125331Y-130140973D01*
X119107085Y-130153588D01*
X119083321Y-130157948D01*
X119060197Y-130153456D01*
X119041983Y-130140240D01*
X119030203Y-130120075D01*
X119025924Y-130091880D01*
X119032049Y-130055425D01*
X119051119Y-130019982D01*
X119086008Y-129984230D01*
X119128762Y-129958182D01*
X119183883Y-129941355D01*
X119254780Y-129935198D01*
X119309855Y-129938687D01*
G37*
G36*
X120021641Y-129935198D02*
G01*
X120021641Y-130150132D01*
X119999110Y-130150132D01*
X119977697Y-130083359D01*
X119955267Y-130039256D01*
X119932493Y-130011891D01*
X119903512Y-129991840D01*
X119869474Y-129979561D01*
X119828995Y-129975254D01*
X119784757Y-129981935D01*
X119751814Y-130000594D01*
X119729343Y-130028155D01*
X119722444Y-130056709D01*
X119728035Y-130092685D01*
X119744303Y-130122411D01*
X119772421Y-130148523D01*
X119830399Y-130182006D01*
X119930111Y-130230610D01*
X119984408Y-130262491D01*
X120022945Y-130295980D01*
X120048725Y-130331117D01*
X120063738Y-130368493D01*
X120068780Y-130409213D01*
X120064597Y-130450649D01*
X120052519Y-130486783D01*
X120032640Y-130518732D01*
X120004239Y-130547210D01*
X119959001Y-130576532D01*
X119911232Y-130593751D01*
X119859769Y-130599539D01*
X119800824Y-130594307D01*
X119728611Y-130576885D01*
X119691669Y-130570047D01*
X119678094Y-130574200D01*
X119667123Y-130587815D01*
X119644591Y-130587815D01*
X119644591Y-130365066D01*
X119667123Y-130365066D01*
X119684891Y-130427119D01*
X119709461Y-130474696D01*
X119740212Y-130510573D01*
X119778392Y-130538166D01*
X119818328Y-130554150D01*
X119861113Y-130559483D01*
X119891446Y-130556210D01*
X119916682Y-130546911D01*
X119937927Y-130531762D01*
X119960309Y-130501038D01*
X119967663Y-130465022D01*
X119963905Y-130434915D01*
X119952956Y-130408786D01*
X119934508Y-130385643D01*
X119892038Y-130353646D01*
X119802372Y-130304188D01*
X119736949Y-130268079D01*
X119695929Y-130238809D01*
X119672557Y-130215162D01*
X119655860Y-130187683D01*
X119645499Y-130155246D01*
X119641844Y-130116610D01*
X119647880Y-130067252D01*
X119665401Y-130024670D01*
X119694783Y-129987222D01*
X119732870Y-129958684D01*
X119777861Y-129941295D01*
X119831742Y-129935198D01*
X119870202Y-129938719D01*
X119921196Y-129950891D01*
X119967663Y-129961149D01*
X119984760Y-129956386D01*
X119999110Y-129935198D01*
X120021641Y-129935198D01*
G37*
G36*
X120692882Y-129743712D02*
G01*
X120692882Y-129950830D01*
X120839061Y-129950830D01*
X120839061Y-129998702D01*
X120692882Y-129998702D01*
X120692882Y-130406892D01*
X120698218Y-130462378D01*
X120710284Y-130489324D01*
X120730191Y-130505315D01*
X120755041Y-130510635D01*
X120776910Y-130507242D01*
X120798761Y-130496652D01*
X120817233Y-130479695D01*
X120831550Y-130455314D01*
X120858173Y-130455314D01*
X120839135Y-130498188D01*
X120816555Y-130531632D01*
X120790579Y-130557163D01*
X120760083Y-130576897D01*
X120730254Y-130588085D01*
X120700392Y-130591723D01*
X120669681Y-130587451D01*
X120638904Y-130574199D01*
X120612858Y-130552910D01*
X120594513Y-130523885D01*
X120584391Y-130486541D01*
X120580163Y-130422951D01*
X120580163Y-129998702D01*
X120481123Y-129998702D01*
X120481123Y-129976109D01*
X120517733Y-129956637D01*
X120557937Y-129924879D01*
X120594732Y-129885893D01*
X120627974Y-129839272D01*
X120671693Y-129743712D01*
X120692882Y-129743712D01*
G37*
G36*
X121083731Y-129606936D02*
G01*
X121083731Y-130065685D01*
X121157872Y-129991886D01*
X121203960Y-129958768D01*
X121249087Y-129940909D01*
X121292803Y-129935198D01*
X121327295Y-129938598D01*
X121357488Y-129948419D01*
X121384272Y-129964569D01*
X121406560Y-129986556D01*
X121425573Y-130016665D01*
X121441058Y-130056770D01*
X121449966Y-130109487D01*
X121454003Y-130216566D01*
X121454003Y-130437850D01*
X121456999Y-130492521D01*
X121463590Y-130519061D01*
X121472717Y-130533672D01*
X121486793Y-130545073D01*
X121506805Y-130551662D01*
X121546938Y-130554598D01*
X121546938Y-130580000D01*
X121239497Y-130580000D01*
X121239497Y-130554598D01*
X121253846Y-130554598D01*
X121293724Y-130550612D01*
X121314663Y-130541287D01*
X121328848Y-130525283D01*
X121338538Y-130501842D01*
X121340614Y-130437484D01*
X121340614Y-130215589D01*
X121337178Y-130121590D01*
X121329989Y-130080706D01*
X121315856Y-130051952D01*
X121296161Y-130032407D01*
X121271087Y-130020470D01*
X121240169Y-130016287D01*
X121206841Y-130020537D01*
X121170498Y-130034117D01*
X121134158Y-130058145D01*
X121083731Y-130105985D01*
X121083731Y-130437484D01*
X121086147Y-130495897D01*
X121090875Y-130517595D01*
X121100728Y-130531646D01*
X121117559Y-130543974D01*
X121140769Y-130551374D01*
X121184848Y-130554598D01*
X121184848Y-130580000D01*
X120874720Y-130580000D01*
X120874720Y-130554598D01*
X120913804Y-130550969D01*
X120940300Y-130541592D01*
X120952163Y-130532200D01*
X120962159Y-130515642D01*
X120967721Y-130491528D01*
X120970341Y-130437667D01*
X120970341Y-129870840D01*
X120968581Y-129773469D01*
X120965212Y-129738888D01*
X120958117Y-129716903D01*
X120949520Y-129705427D01*
X120937613Y-129698888D01*
X120921188Y-129696512D01*
X120874720Y-129707442D01*
X120865134Y-129683506D01*
X121052346Y-129606936D01*
X121083731Y-129606936D01*
G37*
G36*
X121948154Y-129939764D02*
G01*
X121993376Y-129952922D01*
X122033542Y-129974398D01*
X122069495Y-130004624D01*
X122098441Y-130041196D01*
X122119430Y-130083516D01*
X122132536Y-130132690D01*
X122137151Y-130190188D01*
X121704719Y-130190188D01*
X121709239Y-130260098D01*
X121722568Y-130318633D01*
X121743708Y-130367722D01*
X121772313Y-130408907D01*
X121809327Y-130444658D01*
X121847956Y-130469001D01*
X121888823Y-130483337D01*
X121932903Y-130488164D01*
X121972713Y-130484255D01*
X122008015Y-130472905D01*
X122039759Y-130454153D01*
X122066413Y-130428537D01*
X122091898Y-130390800D01*
X122115963Y-130337711D01*
X122137151Y-130351449D01*
X122121755Y-130411496D01*
X122094315Y-130468190D01*
X122053803Y-130522419D01*
X122016718Y-130556461D01*
X121976129Y-130580240D01*
X121931258Y-130594604D01*
X121880940Y-130599539D01*
X121826587Y-130594047D01*
X121777008Y-130577896D01*
X121731047Y-130550850D01*
X121687927Y-130511734D01*
X121653848Y-130465760D01*
X121628914Y-130412115D01*
X121613236Y-130349339D01*
X121607693Y-130275551D01*
X121613501Y-130195223D01*
X121624444Y-130150132D01*
X121704719Y-130150132D01*
X121994330Y-130150132D01*
X121988263Y-130094449D01*
X121979980Y-130065258D01*
X121958620Y-130030868D01*
X121929117Y-130004991D01*
X121894134Y-129988429D01*
X121858408Y-129983070D01*
X121822383Y-129987857D01*
X121788912Y-130002232D01*
X121756987Y-130027217D01*
X121732043Y-130059206D01*
X121714458Y-130099499D01*
X121704719Y-130150132D01*
X121624444Y-130150132D01*
X121629779Y-130128151D01*
X121655385Y-130072040D01*
X121690003Y-130025080D01*
X121734108Y-129985524D01*
X121782557Y-129957788D01*
X121836291Y-129940983D01*
X121896693Y-129935198D01*
X121948154Y-129939764D01*
G37*
G36*
X122403925Y-129935198D02*
G01*
X122403925Y-130075943D01*
X122449782Y-130006231D01*
X122491153Y-129964056D01*
X122529041Y-129941997D01*
X122565186Y-129935198D01*
X122599944Y-129941061D01*
X122627285Y-129957974D01*
X122645919Y-129982936D01*
X122651892Y-130010730D01*
X122647408Y-130035367D01*
X122634124Y-130055732D01*
X122614586Y-130069608D01*
X122591809Y-130074173D01*
X122568059Y-130068979D01*
X122538136Y-130050603D01*
X122509506Y-130031499D01*
X122494112Y-130027034D01*
X122482172Y-130030028D01*
X122467489Y-130040711D01*
X122438522Y-130074479D01*
X122403925Y-130132974D01*
X122403925Y-130432965D01*
X122407678Y-130481450D01*
X122416931Y-130511550D01*
X122428750Y-130528015D01*
X122448316Y-130542325D01*
X122473712Y-130551110D01*
X122513224Y-130554598D01*
X122513224Y-130580000D01*
X122192838Y-130580000D01*
X122192838Y-130554598D01*
X122237068Y-130550276D01*
X122263913Y-130539577D01*
X122278118Y-130525861D01*
X122287787Y-130504773D01*
X122291207Y-130438522D01*
X122291207Y-130196050D01*
X122289626Y-130097294D01*
X122286749Y-130065990D01*
X122280106Y-130047332D01*
X122270385Y-130035582D01*
X122257245Y-130028483D01*
X122240648Y-130025996D01*
X122219072Y-130028362D01*
X122192838Y-130036254D01*
X122185999Y-130011707D01*
X122375226Y-129935198D01*
X122403925Y-129935198D01*
G37*
G36*
X123035523Y-129939764D02*
G01*
X123080745Y-129952922D01*
X123120911Y-129974398D01*
X123156864Y-130004624D01*
X123185810Y-130041196D01*
X123206799Y-130083516D01*
X123219905Y-130132690D01*
X123224520Y-130190188D01*
X122792088Y-130190188D01*
X122796608Y-130260098D01*
X122809937Y-130318633D01*
X122831077Y-130367722D01*
X122859682Y-130408907D01*
X122896696Y-130444658D01*
X122935325Y-130469001D01*
X122976192Y-130483337D01*
X123020272Y-130488164D01*
X123060083Y-130484255D01*
X123095385Y-130472905D01*
X123127128Y-130454153D01*
X123153782Y-130428537D01*
X123179267Y-130390800D01*
X123203332Y-130337711D01*
X123224520Y-130351449D01*
X123209125Y-130411496D01*
X123181684Y-130468190D01*
X123141172Y-130522419D01*
X123104087Y-130556461D01*
X123063499Y-130580240D01*
X123018628Y-130594604D01*
X122968309Y-130599539D01*
X122913956Y-130594047D01*
X122864377Y-130577896D01*
X122818416Y-130550850D01*
X122775296Y-130511734D01*
X122741217Y-130465760D01*
X122716283Y-130412115D01*
X122700605Y-130349339D01*
X122695062Y-130275551D01*
X122700870Y-130195223D01*
X122711813Y-130150132D01*
X122792088Y-130150132D01*
X123081699Y-130150132D01*
X123075633Y-130094449D01*
X123067349Y-130065258D01*
X123045989Y-130030868D01*
X123016486Y-130004991D01*
X122981503Y-129988429D01*
X122945778Y-129983070D01*
X122909752Y-129987857D01*
X122876281Y-130002232D01*
X122844356Y-130027217D01*
X122819413Y-130059206D01*
X122801827Y-130099499D01*
X122792088Y-130150132D01*
X122711813Y-130150132D01*
X122717148Y-130128151D01*
X122742754Y-130072040D01*
X122777372Y-130025080D01*
X122821477Y-129985524D01*
X122869926Y-129957788D01*
X122923660Y-129940983D01*
X122984063Y-129935198D01*
X123035523Y-129939764D01*
G37*
G36*
X94408513Y-130392116D02*
G01*
X94422886Y-130380321D01*
X94426953Y-130368241D01*
X94424544Y-130362301D01*
X94415291Y-130355907D01*
X94413948Y-130304677D01*
X94415291Y-130278726D01*
X94420115Y-130235006D01*
X94418039Y-130218642D01*
X94436479Y-130213818D01*
X94437151Y-130207041D01*
X94431045Y-130193363D01*
X94421458Y-130168756D01*
X94435807Y-130157520D01*
X94440570Y-130136638D01*
X94426221Y-130115450D01*
X94465849Y-130088155D01*
X94463834Y-130087484D01*
X94422801Y-130073135D01*
X94441303Y-130019829D01*
X94432222Y-130003132D01*
X94415291Y-129998640D01*
X94423534Y-129961088D01*
X94421458Y-129946067D01*
X94420786Y-129924879D01*
X94418710Y-129879816D01*
X94421497Y-129863272D01*
X94429640Y-129849774D01*
X94417947Y-129826686D01*
X94414619Y-129808742D01*
X94420786Y-129785539D01*
X94411200Y-129767770D01*
X94413276Y-129756840D01*
X94416024Y-129719959D01*
X94417367Y-129702191D01*
X94408513Y-129702191D01*
X94409856Y-129650961D01*
X94418710Y-129621591D01*
X94407109Y-129586725D01*
X94385921Y-129579886D01*
X94394164Y-129562178D01*
X94415385Y-129539720D01*
X94441303Y-129521146D01*
X94475278Y-129500617D01*
X94491800Y-129487013D01*
X94503463Y-129487013D01*
X94526742Y-129518396D01*
X94536252Y-129536167D01*
X94545778Y-129557355D01*
X94556707Y-129566941D01*
X94559455Y-129588801D01*
X94570385Y-129626353D01*
X94537058Y-129634096D01*
X94530757Y-129641374D01*
X94535345Y-129650688D01*
X94554692Y-129661891D01*
X94582658Y-129649617D01*
X94584734Y-129651632D01*
X94589342Y-129682962D01*
X94597679Y-129704267D01*
X94606594Y-129724722D01*
X94606594Y-129725394D01*
X94604518Y-129747254D01*
X94609044Y-129758660D01*
X94626378Y-129771189D01*
X94633217Y-129797140D01*
X94634621Y-129804651D01*
X94633217Y-129819672D01*
X94652651Y-129835373D01*
X94657152Y-129845622D01*
X94652559Y-129856485D01*
X94633217Y-129872306D01*
X94642803Y-129905767D01*
X94648237Y-129907110D01*
X94662676Y-129891484D01*
X94670830Y-129887998D01*
X94686523Y-129890075D01*
X94688538Y-129896181D01*
X94689270Y-129905767D01*
X94689270Y-129909187D01*
X94688538Y-129911934D01*
X94694033Y-129926955D01*
X94717990Y-129972248D01*
X94725479Y-129993206D01*
X94733661Y-130023248D01*
X94734333Y-130027339D01*
X94731585Y-130045108D01*
X94721327Y-130045108D01*
X94720655Y-130048527D01*
X94727494Y-130064952D01*
X94737752Y-130061533D01*
X94746606Y-130066296D01*
X94752773Y-130091575D01*
X94769870Y-130097742D01*
X94784220Y-130131875D01*
X94798458Y-130158947D01*
X94815605Y-130202217D01*
X94827206Y-130222733D01*
X94837134Y-130245780D01*
X94844303Y-130273292D01*
X94846379Y-130282145D01*
X94844303Y-130299914D01*
X94856638Y-130314263D01*
X94867568Y-130327941D01*
X94883932Y-130332032D01*
X94895533Y-130373004D01*
X94908539Y-130377766D01*
X94938581Y-130440659D01*
X94969295Y-130508925D01*
X94982972Y-130529441D01*
X95000069Y-130556796D01*
X95008923Y-130558140D01*
X95032187Y-130519855D01*
X95053375Y-130480959D01*
X95060886Y-130465938D01*
X95072487Y-130445422D01*
X95077922Y-130423562D01*
X95101857Y-130383934D01*
X95122313Y-130368913D01*
X95131228Y-130356639D01*
X95130556Y-130352548D01*
X95123046Y-130326536D01*
X95135319Y-130309501D01*
X95144905Y-130289656D01*
X95162674Y-130291732D01*
X95169452Y-130278054D01*
X95168108Y-130263705D01*
X95167437Y-130251432D01*
X95170856Y-130230244D01*
X95202974Y-130148239D01*
X95215919Y-130105252D01*
X95237107Y-130085408D01*
X95232344Y-130064220D01*
X95236648Y-130049294D01*
X95262386Y-129989115D01*
X95276064Y-129945396D01*
X95297923Y-129900272D01*
X95305226Y-129893771D01*
X95321798Y-129890075D01*
X95312273Y-129858628D01*
X95311540Y-129851789D01*
X95317707Y-129825839D01*
X95317035Y-129812161D01*
X95387377Y-129706282D01*
X95392201Y-129676912D01*
X95412657Y-129648213D01*
X95444774Y-129626353D01*
X95451613Y-129617500D01*
X95452957Y-129616095D01*
X95443199Y-129610339D01*
X95392873Y-129602479D01*
X95375776Y-129602479D01*
X95353916Y-129571704D01*
X95364846Y-129548501D01*
X95377119Y-129542334D01*
X95399712Y-129527984D01*
X95420839Y-129519802D01*
X95457780Y-129500690D01*
X95497348Y-129491775D01*
X95502843Y-129539586D01*
X95505591Y-129556683D01*
X95506263Y-129566941D01*
X95509010Y-129585382D01*
X95506263Y-129624338D01*
X95506263Y-129647541D01*
X95502843Y-129671477D01*
X95504187Y-129691261D01*
X95503515Y-129701519D01*
X95508278Y-129713792D01*
X95493257Y-129712449D01*
X95484937Y-129714939D01*
X95482327Y-129721974D01*
X95486664Y-129729789D01*
X95504858Y-129736324D01*
X95494661Y-129758916D01*
X95497348Y-129761603D01*
X95505591Y-129761603D01*
X95510354Y-129765694D01*
X95509682Y-129786882D01*
X95509010Y-129808742D01*
X95514445Y-129862719D01*
X95514445Y-129866139D01*
X95511787Y-129875809D01*
X95499424Y-129898257D01*
X95498080Y-129920116D01*
X95502843Y-129934466D01*
X95521284Y-129932390D01*
X95528794Y-129939900D01*
X95523360Y-129976781D01*
X95527451Y-130018485D01*
X95531542Y-130142133D01*
X95532885Y-130157826D01*
X95534961Y-130185853D01*
X95532213Y-130198797D01*
X95513773Y-130197454D01*
X95513773Y-130204293D01*
X95506934Y-130225481D01*
X95521158Y-130236004D01*
X95534289Y-130240502D01*
X95539724Y-130269872D01*
X95547906Y-130322445D01*
X95552730Y-130353892D01*
X95557493Y-130362745D01*
X95547906Y-130394863D01*
X95543815Y-130412632D01*
X95569094Y-130431744D01*
X95569766Y-130455680D01*
X95569094Y-130466610D01*
X95566346Y-130482302D01*
X95573185Y-130504162D01*
X95551997Y-130508253D01*
X95543143Y-130535608D01*
X95560912Y-130545134D01*
X95568320Y-130551222D01*
X95574590Y-130569070D01*
X95578681Y-130590258D01*
X95586863Y-130605950D01*
X95597793Y-130654433D01*
X95603960Y-130721416D01*
X95572513Y-130754206D01*
X95531863Y-130776315D01*
X95493928Y-130782233D01*
X95479640Y-130786995D01*
X95467978Y-130789743D01*
X95457048Y-130784919D01*
X95467306Y-130738513D01*
X95469382Y-130723431D01*
X95463215Y-130701571D01*
X95467035Y-130692052D01*
X95481655Y-130681788D01*
X95480312Y-130664019D01*
X95463988Y-130645240D01*
X95459795Y-130631901D01*
X95461871Y-130617552D01*
X95474145Y-130569070D01*
X95459124Y-130524678D01*
X95459124Y-130523274D01*
X95461871Y-130470029D01*
X95461871Y-130469357D01*
X95455033Y-130416051D01*
X95452285Y-130396939D01*
X95467978Y-130395535D01*
X95463886Y-130368241D01*
X95460296Y-130364016D01*
X95448194Y-130360059D01*
X95440012Y-130325193D01*
X95436592Y-130284221D01*
X95437264Y-130260957D01*
X95437264Y-130260286D01*
X95437264Y-130252775D01*
X95436592Y-130250760D01*
X95444774Y-130226153D01*
X95440683Y-130206308D01*
X95437264Y-130189944D01*
X95431769Y-130177670D01*
X95427006Y-130107267D01*
X95422243Y-130080645D01*
X95427006Y-130021905D01*
X95423586Y-129999373D01*
X95473473Y-129980200D01*
X95423586Y-129967927D01*
X95430425Y-129952906D01*
X95424929Y-129931939D01*
X95409237Y-129920788D01*
X95408565Y-129919445D01*
X95413619Y-129908424D01*
X95432501Y-129901004D01*
X95464558Y-129895509D01*
X95410642Y-129865467D01*
X95409909Y-129831273D01*
X95398307Y-129813565D01*
X95392201Y-129813565D01*
X95386034Y-129831273D01*
X95374433Y-129859300D01*
X95373028Y-129879816D01*
X95355992Y-129894166D01*
X95355992Y-129902348D01*
X95340239Y-129938557D01*
X95331385Y-129962431D01*
X95321798Y-129985696D01*
X95314288Y-130010303D01*
X95299938Y-130030758D01*
X95295847Y-130053290D01*
X95290413Y-130063548D01*
X95286994Y-130089499D01*
X95257623Y-130158497D01*
X95243946Y-130198797D01*
X95229596Y-130211803D01*
X95226849Y-130231587D01*
X95209752Y-130241174D01*
X95198822Y-130295151D01*
X95180382Y-130304005D01*
X95182458Y-130324521D01*
X95175464Y-130354230D01*
X95153759Y-130379171D01*
X95155835Y-130390101D01*
X95151744Y-130398283D01*
X95138066Y-130424905D01*
X95121641Y-130455680D01*
X95103872Y-130504162D01*
X95094347Y-130526022D01*
X95085432Y-130547882D01*
X95073831Y-130566322D01*
X95066320Y-130582747D01*
X95051971Y-130618285D01*
X95015762Y-130714577D01*
X95001413Y-130714577D01*
X94995307Y-130714577D01*
X94979553Y-130715249D01*
X94967280Y-130709815D01*
X94939924Y-130651746D01*
X94913974Y-130616880D01*
X94902372Y-130587510D01*
X94894190Y-130559483D01*
X94881184Y-130557468D01*
X94863415Y-130504834D01*
X94832702Y-130448169D01*
X94825532Y-130432365D01*
X94823115Y-130414708D01*
X94829954Y-130392848D01*
X94830626Y-130389429D01*
X94821100Y-130371660D01*
X94799241Y-130379171D01*
X94781472Y-130342962D01*
X94767123Y-130315607D01*
X94760956Y-130304677D01*
X94755521Y-130286236D01*
X94732990Y-130237754D01*
X94723403Y-130229572D01*
X94700200Y-130173518D01*
X94666678Y-130108672D01*
X94669426Y-130106596D01*
X94679684Y-130103176D01*
X94670097Y-130082660D01*
X94659900Y-130060800D01*
X94647566Y-130028743D01*
X94641399Y-130026667D01*
X94627110Y-130030087D01*
X94596631Y-129966803D01*
X94590901Y-129946739D01*
X94591573Y-129933061D01*
X94574476Y-129914621D01*
X94566294Y-129899600D01*
X94564890Y-129874321D01*
X94555417Y-129859964D01*
X94550601Y-129844951D01*
X94541015Y-129818328D01*
X94532100Y-129816252D01*
X94517384Y-129788621D01*
X94504930Y-129776011D01*
X94493876Y-129772533D01*
X94485022Y-129773937D01*
X94491128Y-129810818D01*
X94495219Y-129836097D01*
X94495219Y-129867482D01*
X94500043Y-129905767D01*
X94498639Y-129919445D01*
X94497967Y-129935137D01*
X94500715Y-129980200D01*
X94500715Y-129981605D01*
X94497295Y-130002060D01*
X94487709Y-130008899D01*
X94491128Y-130032163D01*
X94481603Y-130036254D01*
X94481603Y-130053290D01*
X94499638Y-130057428D01*
X94504134Y-130065624D01*
X94503463Y-130084064D01*
X94502058Y-130097742D01*
X94502058Y-130154406D01*
X94500043Y-130179685D01*
X94500715Y-130205636D01*
X94491128Y-130222062D01*
X94495952Y-130258942D01*
X94485694Y-130263033D01*
X94482946Y-130280130D01*
X94493876Y-130310844D01*
X94493876Y-130312920D01*
X94491800Y-130329284D01*
X94489785Y-130354563D01*
X94490457Y-130370989D01*
X94491128Y-130400359D01*
X94485694Y-130434492D01*
X94481603Y-130481631D01*
X94489113Y-130517840D01*
X94476107Y-130531517D01*
X94452724Y-130549401D01*
X94447409Y-130560887D01*
X94449709Y-130569397D01*
X94459010Y-130583419D01*
X94472688Y-130566322D01*
X94478183Y-130566322D01*
X94482946Y-130571146D01*
X94480870Y-130584762D01*
X94488381Y-130605950D01*
X94489113Y-130608026D01*
X94484055Y-130616059D01*
X94459743Y-130627810D01*
X94437423Y-130639195D01*
X94432388Y-130648326D01*
X94436344Y-130655727D01*
X94453576Y-130664691D01*
X94491128Y-130677697D01*
X94487037Y-130696809D01*
X94487709Y-130710486D01*
X94470673Y-130721416D01*
X94473360Y-130735765D01*
X94471345Y-130741871D01*
X94428968Y-130756953D01*
X94407109Y-130769898D01*
X94362718Y-130784919D01*
X94354535Y-130782233D01*
X94354535Y-130780828D01*
X94353864Y-130774661D01*
X94353864Y-130773989D01*
X94367480Y-130755549D01*
X94396179Y-130733018D01*
X94416024Y-130715249D01*
X94426953Y-130694794D01*
X94437151Y-130681116D01*
X94382501Y-130647655D01*
X94387997Y-130640816D01*
X94395017Y-130629155D01*
X94398255Y-130609370D01*
X94398927Y-130569070D01*
X94404361Y-130548553D01*
X94405765Y-130538356D01*
X94402346Y-130522602D01*
X94407109Y-130506910D01*
X94400942Y-130482974D01*
X94413948Y-130430401D01*
X94408513Y-130392116D01*
G37*
G36*
X96144469Y-130040896D02*
G01*
X96161282Y-130052472D01*
X96173351Y-130072585D01*
X96195211Y-130059091D01*
X96209560Y-130074661D01*
X96223848Y-130081378D01*
X96282650Y-130138164D01*
X96297017Y-130155315D01*
X96305181Y-130169916D01*
X96316782Y-130200996D01*
X96326308Y-130225298D01*
X96321545Y-130230000D01*
X96301090Y-130223954D01*
X96275139Y-130233419D01*
X96251875Y-130229328D01*
X96231420Y-130234762D01*
X96186967Y-130205026D01*
X96154849Y-130232747D01*
X96108443Y-130224626D01*
X96082493Y-130226641D01*
X96079073Y-130223954D01*
X96019600Y-130225298D01*
X95994321Y-130227984D01*
X95962936Y-130230671D01*
X95930818Y-130236106D01*
X95902119Y-130235434D01*
X95848142Y-130249783D01*
X95841303Y-130281962D01*
X95824938Y-130304555D01*
X95843648Y-130319306D01*
X95848142Y-130325804D01*
X95861147Y-130384666D01*
X95873421Y-130391505D01*
X95870001Y-130416845D01*
X95891189Y-130422341D01*
X95899879Y-130447501D01*
X95908958Y-130460015D01*
X95921326Y-130467030D01*
X95943091Y-130472288D01*
X95948244Y-130490789D01*
X95954021Y-130497629D01*
X95978628Y-130503124D01*
X95990230Y-130520893D01*
X96003236Y-130519488D01*
X96044207Y-130536585D01*
X96061976Y-130540676D01*
X96096781Y-130532494D01*
X96140500Y-130527732D01*
X96174023Y-130518145D01*
X96206079Y-130514054D01*
X96248456Y-130490118D01*
X96283321Y-130464289D01*
X96306524Y-130430767D01*
X96313590Y-130424820D01*
X96325636Y-130422585D01*
X96343405Y-130431500D01*
X96334551Y-130464351D01*
X96298342Y-130529991D01*
X96283321Y-130525778D01*
X96260729Y-130539760D01*
X96247339Y-130546248D01*
X96230015Y-130549530D01*
X96171275Y-130563513D01*
X96135737Y-130568398D01*
X96113878Y-130575420D01*
X96073578Y-130569131D01*
X96049642Y-130573283D01*
X96038040Y-130574016D01*
X96012761Y-130576092D01*
X95962936Y-130571329D01*
X95949930Y-130569924D01*
X95935580Y-130561071D01*
X95878916Y-130542569D01*
X95855652Y-130522114D01*
X95831777Y-130507032D01*
X95815463Y-130495334D01*
X95811261Y-130489263D01*
X95798988Y-130467404D01*
X95775724Y-130441453D01*
X95782562Y-130425027D01*
X95764794Y-130386742D01*
X95761705Y-130372519D01*
X95760031Y-130328674D01*
X95769617Y-130279459D01*
X95781219Y-130248684D01*
X95804422Y-130221329D01*
X95819443Y-130189211D01*
X95839284Y-130170893D01*
X95898028Y-130170893D01*
X95898028Y-130174984D01*
X95899371Y-130176327D01*
X95949258Y-130195989D01*
X95964279Y-130211071D01*
X95990963Y-130179014D01*
X95998473Y-130176327D01*
X96031934Y-130185120D01*
X96033278Y-130185120D01*
X96072234Y-130178342D01*
X96094094Y-130174984D01*
X96105696Y-130189211D01*
X96124136Y-130185792D01*
X96161017Y-130176327D01*
X96199973Y-130179747D01*
X96203393Y-130172969D01*
X96204064Y-130166191D01*
X96195882Y-130151231D01*
X96189043Y-130143110D01*
X96173353Y-130125026D01*
X96168527Y-130122777D01*
X96145996Y-130111847D01*
X96133051Y-130096154D01*
X96065396Y-130093407D01*
X96051718Y-130092735D01*
X96028515Y-130106413D01*
X95990963Y-130115938D01*
X95940404Y-130135661D01*
X95913721Y-130158681D01*
X95898028Y-130170893D01*
X95839284Y-130170893D01*
X95872749Y-130139996D01*
X95922636Y-130109282D01*
X95973194Y-130074417D01*
X95991634Y-130070997D01*
X96043536Y-130054572D01*
X96076997Y-130051824D01*
X96121388Y-130036803D01*
X96144469Y-130040896D01*
G37*
G36*
X96498499Y-130111542D02*
G01*
X96511505Y-130089010D01*
X96546981Y-130067822D01*
X96580443Y-130049382D01*
X96591384Y-130051691D01*
X96598883Y-130058297D01*
X96601631Y-130069898D01*
X96607065Y-130091025D01*
X96605050Y-130102627D01*
X96612561Y-130116976D01*
X96649441Y-130099940D01*
X96678140Y-130090354D01*
X96706838Y-130071242D01*
X96725279Y-130063731D01*
X96741704Y-130056221D01*
X96756725Y-130058968D01*
X96758740Y-130058968D01*
X96805207Y-130044619D01*
X96825724Y-130043215D01*
X96842088Y-130046634D01*
X96856437Y-130060251D01*
X96866024Y-130062266D01*
X96885807Y-130052740D01*
X96889227Y-130052069D01*
X96898060Y-130054255D01*
X96909743Y-130062266D01*
X96918782Y-130073656D01*
X96925436Y-130091453D01*
X96884464Y-130123326D01*
X96869689Y-130139046D01*
X96862604Y-130142316D01*
X96851799Y-130138179D01*
X96833906Y-130120457D01*
X96813450Y-130121800D01*
X96784019Y-130113618D01*
X96750558Y-130105375D01*
X96741551Y-130115953D01*
X96728026Y-130120457D01*
X96704091Y-130123143D01*
X96676796Y-130131386D01*
X96665867Y-130126563D01*
X96618056Y-130163504D01*
X96602405Y-130183780D01*
X96596868Y-130218886D01*
X96596868Y-130220963D01*
X96596868Y-130242822D01*
X96597540Y-130263339D01*
X96594653Y-130271204D01*
X96581847Y-130285931D01*
X96591035Y-130298319D01*
X96593449Y-130307119D01*
X96592105Y-130318782D01*
X96602363Y-130321468D01*
X96604378Y-130341985D01*
X96607798Y-130464412D01*
X96605050Y-130471922D01*
X96587281Y-130481509D01*
X96549057Y-130491767D01*
X96553754Y-130493955D01*
X96592105Y-130500682D01*
X96603707Y-130497934D01*
X96610546Y-130528709D01*
X96606755Y-130542503D01*
X96594792Y-130553316D01*
X96559987Y-130560155D01*
X96530556Y-130577252D01*
X96521031Y-130580000D01*
X96508583Y-130576256D01*
X96504666Y-130565650D01*
X96514924Y-130526693D01*
X96516268Y-130518511D01*
X96512848Y-130487737D01*
X96515596Y-130476135D01*
X96531960Y-130471372D01*
X96532632Y-130460443D01*
X96530455Y-130451515D01*
X96522374Y-130439255D01*
X96522374Y-130422158D01*
X96518283Y-130390101D01*
X96520359Y-130351877D01*
X96540596Y-130340776D01*
X96545638Y-130330017D01*
X96543562Y-130319087D01*
X96529884Y-130321163D01*
X96518283Y-130315668D01*
X96518283Y-130285626D01*
X96518283Y-130271277D01*
X96518283Y-130252836D01*
X96518283Y-130247402D01*
X96517611Y-130235129D01*
X96517611Y-130224199D01*
X96526465Y-130194829D01*
X96516268Y-130181884D01*
X96513520Y-130137493D01*
X96510378Y-130128617D01*
X96498499Y-130111542D01*
G37*
G36*
X96909865Y-130892508D02*
G01*
X96928977Y-130934152D01*
X96948150Y-130960102D01*
X96978864Y-131005226D01*
X97002067Y-131009317D01*
X97051282Y-131027758D01*
X97068379Y-131029101D01*
X97088162Y-131028429D01*
X97104588Y-131036612D01*
X97120952Y-131027758D01*
X97138721Y-131029773D01*
X97194713Y-131014080D01*
X97219993Y-130998387D01*
X97263712Y-130971704D01*
X97289663Y-130941662D01*
X97317018Y-130923893D01*
X97335941Y-130905050D01*
X97351151Y-130871992D01*
X97369591Y-130820090D01*
X97388032Y-130799574D01*
X97384612Y-130770204D01*
X97398290Y-130701877D01*
X97399694Y-130689603D01*
X97396275Y-130665668D01*
X97405800Y-130621948D01*
X97414715Y-130589891D01*
X97408548Y-130558750D01*
X97403114Y-130487798D01*
X97402442Y-130467281D01*
X97406533Y-130445422D01*
X97411296Y-130432477D01*
X97409952Y-130422219D01*
X97404457Y-130420143D01*
X97369652Y-130438583D01*
X97353227Y-130455680D01*
X97334787Y-130468686D01*
X97313599Y-130483707D01*
X97292411Y-130495308D01*
X97263040Y-130523518D01*
X97250095Y-130531762D01*
X97193370Y-130570230D01*
X97155146Y-130577435D01*
X97103916Y-130587815D01*
X97085467Y-130584785D01*
X97043100Y-130571207D01*
X97015293Y-130555090D01*
X96991870Y-130529014D01*
X96979535Y-130500071D01*
X96974101Y-130480287D01*
X96977408Y-130471779D01*
X96991137Y-130459099D01*
X96979944Y-130440341D01*
X96976116Y-130417456D01*
X96981093Y-130398361D01*
X97002800Y-130360059D01*
X96997304Y-130340214D01*
X96997304Y-130338871D01*
X96999380Y-130319759D01*
X97017821Y-130232991D01*
X97017821Y-130207712D01*
X97030826Y-130151720D01*
X97025331Y-130138042D01*
X97008967Y-130138042D01*
X97003471Y-130131875D01*
X97003471Y-130125036D01*
X97023988Y-130101833D01*
X97063555Y-130088155D01*
X97120952Y-130055366D01*
X97135301Y-130062876D01*
X97142812Y-130079973D01*
X97130539Y-130108000D01*
X97118937Y-130159230D01*
X97099764Y-130229572D01*
X97092925Y-130269872D01*
X97085176Y-130275752D01*
X97068379Y-130278726D01*
X97059464Y-130297227D01*
X97063728Y-130303330D01*
X97084071Y-130309501D01*
X97079980Y-130343633D01*
X97071065Y-130387353D01*
X97066303Y-130432477D01*
X97062212Y-130451589D01*
X97073142Y-130475464D01*
X97087491Y-130498728D01*
X97126448Y-130517962D01*
X97140245Y-130533207D01*
X97148307Y-130536646D01*
X97158185Y-130533628D01*
X97171510Y-130522114D01*
X97203470Y-130516272D01*
X97219993Y-130509658D01*
X97294487Y-130457023D01*
X97333382Y-130420143D01*
X97368248Y-130397611D01*
X97398290Y-130338871D01*
X97409220Y-130325193D01*
X97406472Y-130304738D01*
X97404457Y-130293808D01*
X97409220Y-130282878D01*
X97406472Y-130263033D01*
X97407876Y-130246669D01*
X97399694Y-130224077D01*
X97402381Y-130175594D01*
X97398290Y-130159230D01*
X97392855Y-130133951D01*
X97375758Y-130101161D01*
X97381163Y-130090859D01*
X97402381Y-130085408D01*
X97421493Y-130066967D01*
X97426988Y-130066967D01*
X97448848Y-130064281D01*
X97473456Y-130060129D01*
X97485729Y-130080645D01*
X97425645Y-130106596D01*
X97472051Y-130121617D01*
X97481554Y-130129151D01*
X97484385Y-130138042D01*
X97481523Y-130147344D01*
X97469364Y-130163993D01*
X97439262Y-130189272D01*
X97435903Y-130192020D01*
X97441444Y-130197409D01*
X97473456Y-130212475D01*
X97485933Y-130227022D01*
X97490553Y-130237754D01*
X97490553Y-130251432D01*
X97494644Y-130291732D01*
X97485057Y-130321102D01*
X97489458Y-130341644D01*
X97503497Y-130361402D01*
X97499406Y-130398954D01*
X97502826Y-130433820D01*
X97502826Y-130434492D01*
X97493239Y-130470029D01*
X97482981Y-130495980D01*
X97482981Y-130506238D01*
X97497330Y-130517962D01*
X97491896Y-130557407D01*
X97492568Y-130567055D01*
X97495315Y-130591906D01*
X97487805Y-130613094D01*
X97487805Y-130628115D01*
X97485729Y-130647960D01*
X97489148Y-130675254D01*
X97480294Y-130698457D01*
X97475471Y-130724469D01*
X97464541Y-130748344D01*
X97465273Y-130755854D01*
X97467288Y-130772951D01*
X97455687Y-130796826D01*
X97442009Y-130832363D01*
X97422226Y-130849460D01*
X97403114Y-130874740D01*
X97391451Y-130891104D01*
X97380521Y-130903438D01*
X97336130Y-130963522D01*
X97307431Y-130982634D01*
X97293082Y-130999059D01*
X97273970Y-131011332D01*
X97263712Y-131019576D01*
X97239837Y-131026353D01*
X97222740Y-131035940D01*
X97206376Y-131041435D01*
X97161924Y-131058471D01*
X97140064Y-131063967D01*
X97097749Y-131074225D01*
X97054701Y-131065982D01*
X97015244Y-131061397D01*
X96979602Y-131047883D01*
X96946746Y-131025010D01*
X96926962Y-131023667D01*
X96916032Y-131002479D01*
X96890081Y-130990205D01*
X96879823Y-130979275D01*
X96872313Y-130953264D01*
X96881838Y-130912292D01*
X96891379Y-130897052D01*
X96904431Y-130892508D01*
X96909865Y-130892508D01*
G37*
G36*
X98394740Y-130054023D02*
G01*
X98397426Y-130068372D01*
X98413852Y-130077958D01*
X98422664Y-130072226D01*
X98430216Y-130060129D01*
X98465932Y-130071320D01*
X98495795Y-130087545D01*
X98519731Y-130103970D01*
X98533408Y-130127906D01*
X98550989Y-130143565D01*
X98579815Y-130149766D01*
X98600636Y-130190127D01*
X98609185Y-130233907D01*
X98615352Y-130283183D01*
X98604422Y-130283183D01*
X98604422Y-130291366D01*
X98590744Y-130307119D01*
X98596298Y-130317727D01*
X98609856Y-130329040D01*
X98605765Y-130370073D01*
X98595568Y-130394009D01*
X98560031Y-130469968D01*
X98522767Y-130507247D01*
X98493780Y-130523335D01*
X98456899Y-130541775D01*
X98422034Y-130558201D01*
X98389916Y-130574260D01*
X98323665Y-130578717D01*
X98275854Y-130588975D01*
X98227372Y-130588975D01*
X98205512Y-130591723D01*
X98130347Y-130580793D01*
X98115997Y-130567787D01*
X98089375Y-130562964D01*
X98073047Y-130556401D01*
X98035397Y-130533593D01*
X98010790Y-130519916D01*
X98005355Y-130502758D01*
X97999860Y-130492500D01*
X97985511Y-130482974D01*
X97980748Y-130476807D01*
X97969329Y-130452363D01*
X97965727Y-130428874D01*
X97968915Y-130418237D01*
X97980076Y-130407015D01*
X97972067Y-130397422D01*
X97958888Y-130389246D01*
X97958217Y-130386498D01*
X97959848Y-130344392D01*
X97963651Y-130320797D01*
X97964388Y-130318721D01*
X98031978Y-130318721D01*
X98037473Y-130334413D01*
X98055914Y-130351449D01*
X98052038Y-130358509D01*
X98033382Y-130371294D01*
X98033382Y-130378072D01*
X98039488Y-130384239D01*
X98053166Y-130377400D01*
X98062752Y-130412937D01*
X98098290Y-130472288D01*
X98098961Y-130476379D01*
X98092123Y-130496163D01*
X98097505Y-130503168D01*
X98110563Y-130506421D01*
X98122165Y-130499583D01*
X98182309Y-130528281D01*
X98206593Y-130537036D01*
X98230792Y-130539883D01*
X98271092Y-130539883D01*
X98291608Y-130544706D01*
X98314139Y-130548126D01*
X98349677Y-130543302D01*
X98387229Y-130535120D01*
X98433696Y-130505750D01*
X98463738Y-130493476D01*
X98489689Y-130453176D01*
X98506786Y-130419043D01*
X98526570Y-130398588D01*
X98529317Y-130385582D01*
X98519059Y-130363784D01*
X98519059Y-130363051D01*
X98521807Y-130349434D01*
X98524749Y-130319527D01*
X98529989Y-130298204D01*
X98517044Y-130257233D01*
X98506114Y-130221756D01*
X98504038Y-130193790D01*
X98501290Y-130191043D01*
X98484926Y-130191043D01*
X98454152Y-130148056D01*
X98438825Y-130129249D01*
X98425514Y-130122777D01*
X98391320Y-130109099D01*
X98381601Y-130090280D01*
X98369460Y-130085163D01*
X98348272Y-130092002D01*
X98324398Y-130086568D01*
X98277930Y-130087911D01*
X98265277Y-130091303D01*
X98242393Y-130103604D01*
X98228044Y-130093407D01*
X98212351Y-130109771D01*
X98182981Y-130124853D01*
X98178218Y-130130287D01*
X98096214Y-130199225D01*
X98090108Y-130203988D01*
X98085956Y-130227923D01*
X98072339Y-130251798D01*
X98055242Y-130283855D01*
X98055914Y-130293442D01*
X98050760Y-130306690D01*
X98031978Y-130318721D01*
X97964388Y-130318721D01*
X97982824Y-130266758D01*
X98014942Y-130207957D01*
X98046327Y-130183960D01*
X98056585Y-130163443D01*
X98066844Y-130150437D01*
X98119417Y-130122411D01*
X98133674Y-130113362D01*
X98152206Y-130096399D01*
X98234211Y-130064281D01*
X98280029Y-130053095D01*
X98353707Y-130048527D01*
X98394740Y-130054023D01*
G37*
G36*
X98773743Y-130117098D02*
G01*
X98784565Y-130096676D01*
X98808548Y-130080340D01*
X98838871Y-130059927D01*
X98855015Y-130055183D01*
X98868611Y-130057543D01*
X98874860Y-130063304D01*
X98876875Y-130102810D01*
X98879702Y-130114058D01*
X98892629Y-130139569D01*
X98918289Y-130109696D01*
X98924747Y-130105558D01*
X98948621Y-130090537D01*
X98974246Y-130071695D01*
X98983487Y-130068066D01*
X98991507Y-130071138D01*
X99001256Y-130083087D01*
X99039732Y-130062269D01*
X99075689Y-130055854D01*
X99088695Y-130057869D01*
X99102372Y-130061960D01*
X99134429Y-130052435D01*
X99172714Y-130059945D01*
X99206847Y-130065380D01*
X99220525Y-130077714D01*
X99236278Y-130080401D01*
X99253089Y-130089186D01*
X99277922Y-130118686D01*
X99287748Y-130148239D01*
X99292943Y-130218337D01*
X99259481Y-130224504D01*
X99245320Y-130231446D01*
X99242384Y-130236106D01*
X99288180Y-130261324D01*
X99292020Y-130265562D01*
X99293614Y-130275001D01*
X99280669Y-130316645D01*
X99279998Y-130320736D01*
X99282763Y-130328999D01*
X99294286Y-130342595D01*
X99292271Y-130367203D01*
X99302468Y-130402008D01*
X99303872Y-130439560D01*
X99305887Y-130472288D01*
X99303872Y-130500987D01*
X99310711Y-130526266D01*
X99284760Y-130543974D01*
X99253986Y-130556980D01*
X99223944Y-130576092D01*
X99208747Y-130556097D01*
X99204832Y-130542386D01*
X99217105Y-130488714D01*
X99218510Y-130472838D01*
X99219181Y-130462580D01*
X99232859Y-130457878D01*
X99262996Y-130452310D01*
X99267663Y-130449757D01*
X99260153Y-130444994D01*
X99241210Y-130436247D01*
X99208923Y-130427409D01*
X99214365Y-130401394D01*
X99219181Y-130392238D01*
X99239637Y-130373248D01*
X99252564Y-130357275D01*
X99256062Y-130344855D01*
X99210938Y-130325193D01*
X99213014Y-130300830D01*
X99209595Y-130264987D01*
X99211671Y-130259553D01*
X99217105Y-130239952D01*
X99206175Y-130223710D01*
X99206847Y-130189822D01*
X99195917Y-130171564D01*
X99187496Y-130159589D01*
X99184987Y-130148545D01*
X99181568Y-130144515D01*
X99163128Y-130137065D01*
X99144016Y-130104275D01*
X99137868Y-130097335D01*
X99131742Y-130095361D01*
X99120035Y-130098247D01*
X99103715Y-130109038D01*
X99078227Y-130126169D01*
X99058592Y-130130898D01*
X99030626Y-130125403D01*
X99017620Y-130138408D01*
X99017620Y-130141767D01*
X99001314Y-130113998D01*
X98988921Y-130107634D01*
X98981411Y-130110382D01*
X98960223Y-130117892D01*
X98923342Y-130136332D01*
X98893939Y-130154529D01*
X98884385Y-130163993D01*
X98876078Y-130180468D01*
X98873517Y-130195683D01*
X98874860Y-130238853D01*
X98874860Y-130240868D01*
X98874860Y-130241540D01*
X98873245Y-130252174D01*
X98869426Y-130257049D01*
X98838651Y-130279275D01*
X98833888Y-130286053D01*
X98836352Y-130292072D01*
X98846161Y-130299487D01*
X98877608Y-130317683D01*
X98880966Y-130330505D01*
X98879623Y-130344000D01*
X98881027Y-130393886D01*
X98868693Y-130414098D01*
X98867349Y-130421547D01*
X98870480Y-130433147D01*
X98881699Y-130447131D01*
X98879623Y-130449207D01*
X98881027Y-130471128D01*
X98885533Y-130509092D01*
X98891957Y-130533410D01*
X98884403Y-130545771D01*
X98878279Y-130550568D01*
X98855687Y-130554659D01*
X98846161Y-130558079D01*
X98835232Y-130562170D01*
X98824973Y-130571756D01*
X98818333Y-130577923D01*
X98809281Y-130580000D01*
X98797008Y-130570474D01*
X98791512Y-130558872D01*
X98792916Y-130546660D01*
X98797679Y-130522847D01*
X98798351Y-130471067D01*
X98804457Y-130447925D01*
X98801770Y-130431622D01*
X98798351Y-130413243D01*
X98799694Y-130399626D01*
X98800366Y-130388025D01*
X98799694Y-130362196D01*
X98799023Y-130345832D01*
X98803785Y-130323361D01*
X98822897Y-130314508D01*
X98818135Y-130304982D01*
X98796336Y-130301563D01*
X98795603Y-130280497D01*
X98798351Y-130260041D01*
X98799023Y-130251859D01*
X98791512Y-130194035D01*
X98807205Y-130185181D01*
X98792916Y-130162711D01*
X98790169Y-130147079D01*
X98786577Y-130135730D01*
X98773743Y-130117098D01*
G37*
G36*
X99717864Y-130118869D02*
G01*
X99729099Y-130102505D01*
X99754745Y-130088827D01*
X99775933Y-130075150D01*
X99784787Y-130064952D01*
X99806515Y-130067755D01*
X99814218Y-130072463D01*
X99836749Y-130127784D01*
X99837421Y-130145553D01*
X99844931Y-130169427D01*
X99849694Y-130187196D01*
X99868867Y-130198126D01*
X99878393Y-130226824D01*
X99890727Y-130265109D01*
X99894146Y-130282817D01*
X99907091Y-130294480D01*
X99916006Y-130317683D01*
X99925532Y-130331360D01*
X99948063Y-130371660D01*
X99941285Y-130394192D01*
X99962412Y-130408541D01*
X99972670Y-130424234D01*
X99989096Y-130449513D01*
X99998621Y-130469357D01*
X100007536Y-130472777D01*
X100015973Y-130468985D01*
X100023900Y-130454275D01*
X100054003Y-130398954D01*
X100060109Y-130383934D01*
X100071039Y-130364150D01*
X100090212Y-130315607D01*
X100105618Y-130310783D01*
X100113415Y-130303333D01*
X100107920Y-130275307D01*
X100112330Y-130259872D01*
X100135947Y-130210460D01*
X100138695Y-130195378D01*
X100135275Y-130171503D01*
X100155792Y-130135966D01*
X100163974Y-130101161D01*
X100171014Y-130089320D01*
X100192672Y-130073806D01*
X100238407Y-130065624D01*
X100243230Y-130070387D01*
X100224057Y-130119602D01*
X100203602Y-130163321D01*
X100186505Y-130200202D01*
X100177651Y-130216566D01*
X100145533Y-130303333D01*
X100132527Y-130327941D01*
X100122269Y-130342290D01*
X100116835Y-130360730D01*
X100109324Y-130374408D01*
X100064933Y-130455680D01*
X100047165Y-130499399D01*
X100029396Y-130511673D01*
X100038250Y-130535608D01*
X100018466Y-130546538D01*
X99978838Y-130572489D01*
X99966503Y-130582015D01*
X99955573Y-130583419D01*
X99946048Y-130566322D01*
X99940553Y-130541714D01*
X99924860Y-130526693D01*
X99918021Y-130506238D01*
X99902329Y-130476135D01*
X99883888Y-130437240D01*
X99875645Y-130422890D01*
X99873630Y-130397611D01*
X99870211Y-130384605D01*
X99864694Y-130379621D01*
X99850427Y-130374408D01*
X99850427Y-130370989D01*
X99859952Y-130355907D01*
X99855941Y-130342252D01*
X99842184Y-130328613D01*
X99820324Y-130324521D01*
X99810799Y-130295823D01*
X99799136Y-130262362D01*
X99800540Y-130256866D01*
X99804631Y-130237083D01*
X99788206Y-130224077D01*
X99770963Y-130209079D01*
X99756821Y-130189272D01*
X99717864Y-130118869D01*
G37*
G36*
X100669678Y-130056343D02*
G01*
X100706620Y-130065929D01*
X100722984Y-130068005D01*
X100760537Y-130074844D01*
X100770215Y-130078245D01*
X100785144Y-130089987D01*
X100775830Y-130100337D01*
X100773543Y-130107084D01*
X100775700Y-130114449D01*
X100781725Y-130116732D01*
X100797418Y-130111236D01*
X100816591Y-130105069D01*
X100823314Y-130115151D01*
X100826116Y-130128394D01*
X100843213Y-130140729D01*
X100844556Y-130150315D01*
X100842541Y-130177060D01*
X100851101Y-130204131D01*
X100857562Y-130214795D01*
X100860310Y-130214795D01*
X100865744Y-130247768D01*
X100868492Y-130300586D01*
X100855965Y-130310943D01*
X100852800Y-130319087D01*
X100856561Y-130327985D01*
X100871240Y-130337650D01*
X100871912Y-130352732D01*
X100869164Y-130376728D01*
X100868492Y-130391810D01*
X100876003Y-130448047D01*
X100866523Y-130460995D01*
X100863729Y-130472777D01*
X100866128Y-130483393D01*
X100875331Y-130499521D01*
X100880094Y-130512588D01*
X100887604Y-130531090D01*
X100876674Y-130548248D01*
X100855486Y-130559239D01*
X100829535Y-130570901D01*
X100813171Y-130575664D01*
X100785144Y-130584579D01*
X100770123Y-130577069D01*
X100780382Y-130531090D01*
X100722984Y-130552339D01*
X100703201Y-130556491D01*
X100684760Y-130560582D01*
X100659481Y-130557834D01*
X100634202Y-130570901D01*
X100620525Y-130572245D01*
X100565204Y-130583907D01*
X100536505Y-130581831D01*
X100507807Y-130589342D01*
X100454562Y-130580427D01*
X100425863Y-130577679D01*
X100404675Y-130568642D01*
X100369138Y-130550568D01*
X100360425Y-130540911D01*
X100352773Y-130524190D01*
X100337081Y-130518572D01*
X100330914Y-130493599D01*
X100324075Y-130463740D01*
X100324075Y-130463007D01*
X100332929Y-130442857D01*
X100347011Y-130416845D01*
X100412857Y-130416845D01*
X100418353Y-130425333D01*
X100423115Y-130463496D01*
X100434045Y-130479738D01*
X100423787Y-130498850D01*
X100416948Y-130515825D01*
X100423787Y-130529258D01*
X100442899Y-130512283D01*
X100475017Y-130530662D01*
X100502372Y-130538478D01*
X100513974Y-130553011D01*
X100535162Y-130555758D01*
X100544016Y-130556430D01*
X100562456Y-130546844D01*
X100578881Y-130553682D01*
X100593902Y-130544829D01*
X100613014Y-130548920D01*
X100649895Y-130535608D01*
X100667663Y-130527121D01*
X100682684Y-130529991D01*
X100708635Y-130518633D01*
X100738677Y-130506666D01*
X100753026Y-130485416D01*
X100776962Y-130474120D01*
X100781053Y-130451467D01*
X100791030Y-130442867D01*
X100796074Y-130431683D01*
X100782397Y-130416845D01*
X100783068Y-130399138D01*
X100783068Y-130387841D01*
X100781725Y-130355296D01*
X100781053Y-130347480D01*
X100786488Y-130322751D01*
X100770795Y-130314263D01*
X100741425Y-130314996D01*
X100714802Y-130313531D01*
X100694286Y-130314263D01*
X100681341Y-130314263D01*
X100660825Y-130303333D01*
X100645804Y-130308096D01*
X100605504Y-130312187D01*
X100591826Y-130315668D01*
X100576133Y-130311516D01*
X100574729Y-130311516D01*
X100552869Y-130324155D01*
X100517393Y-130338321D01*
X100477349Y-130359084D01*
X100454562Y-130375812D01*
X100439480Y-130397001D01*
X100432996Y-130402373D01*
X100415605Y-130409030D01*
X100412857Y-130416845D01*
X100347011Y-130416845D01*
X100352102Y-130407442D01*
X100396493Y-130364394D01*
X100439541Y-130342840D01*
X100463415Y-130330322D01*
X100476421Y-130331727D01*
X100492114Y-130313653D01*
X100533086Y-130302540D01*
X100567951Y-130286542D01*
X100608923Y-130281718D01*
X100630783Y-130274085D01*
X100643728Y-130272681D01*
X100656062Y-130271277D01*
X100682684Y-130271277D01*
X100736662Y-130264499D01*
X100766704Y-130258454D01*
X100775815Y-130247826D01*
X100778977Y-130232747D01*
X100773543Y-130211132D01*
X100809080Y-130167168D01*
X100766704Y-130153674D01*
X100746188Y-130152269D01*
X100711383Y-130111053D01*
X100659481Y-130101467D01*
X100637622Y-130101467D01*
X100617777Y-130097376D01*
X100602084Y-130098780D01*
X100589078Y-130082355D01*
X100565875Y-130097376D01*
X100544687Y-130110382D01*
X100511219Y-130126111D01*
X100485947Y-130142316D01*
X100476421Y-130148483D01*
X100464759Y-130162833D01*
X100445647Y-130167595D01*
X100420368Y-130160085D01*
X100391669Y-130151170D01*
X100375976Y-130134378D01*
X100392402Y-130121800D01*
X100408094Y-130111236D01*
X100440212Y-130103970D01*
X100460668Y-130093407D01*
X100504387Y-130080157D01*
X100531742Y-130068921D01*
X100559708Y-130068921D01*
X100590483Y-130060312D01*
X100603428Y-130059640D01*
X100627363Y-130055610D01*
X100669678Y-130056343D01*
G37*
G36*
X101956838Y-129475106D02*
G01*
X101958243Y-129488051D01*
X101958243Y-129488784D01*
X101953419Y-129518825D01*
X101953419Y-129538609D01*
X101952076Y-129550211D01*
X101952076Y-129578909D01*
X101952076Y-129598754D01*
X101952076Y-129627452D01*
X101949328Y-129641069D01*
X101943222Y-129662257D01*
X101945908Y-129712815D01*
X101932231Y-129738094D01*
X101949328Y-129778394D01*
X101943222Y-129803674D01*
X101945908Y-129823457D01*
X101941146Y-129841898D01*
X101945908Y-129872001D01*
X101947313Y-129884945D01*
X101943222Y-129896547D01*
X101928140Y-129899295D01*
X101920629Y-129922559D01*
X101921301Y-129932756D01*
X101940361Y-129948050D01*
X101945908Y-129959439D01*
X101942489Y-129999740D01*
X101941817Y-130005846D01*
X101944565Y-130044802D01*
X101945908Y-130057076D01*
X101945237Y-130061167D01*
X101943893Y-130073440D01*
X101944565Y-130089804D01*
X101935650Y-130107512D01*
X101936994Y-130143660D01*
X101937726Y-130155261D01*
X101939070Y-130195500D01*
X101943893Y-130241174D01*
X101944565Y-130255462D01*
X101947313Y-130287519D01*
X101945237Y-130320919D01*
X101955495Y-130380209D01*
X101954823Y-130406831D01*
X101965081Y-130456596D01*
X101966425Y-130485905D01*
X101975365Y-130497478D01*
X101978026Y-130508436D01*
X101978026Y-130517290D01*
X101929483Y-130525472D01*
X101878986Y-130534326D01*
X101869399Y-130526144D01*
X101837281Y-130542508D01*
X101779884Y-130554110D01*
X101711066Y-130568849D01*
X101674738Y-130572489D01*
X101613250Y-130580000D01*
X101553827Y-130577465D01*
X101514881Y-130571146D01*
X101502608Y-130551362D01*
X101477329Y-130562292D01*
X101469818Y-130554110D01*
X101467070Y-130541837D01*
X101459560Y-130530907D01*
X101439043Y-130537074D01*
X101421946Y-130530235D01*
X101382379Y-130498850D01*
X101384394Y-130481142D01*
X101381476Y-130468502D01*
X101372121Y-130456596D01*
X101355696Y-130440903D01*
X101353681Y-130427958D01*
X101343422Y-130374103D01*
X101347513Y-130346809D01*
X101350933Y-130314813D01*
X101353240Y-130310600D01*
X101422008Y-130310600D01*
X101426770Y-130336978D01*
X101429518Y-130351816D01*
X101435624Y-130368729D01*
X101441791Y-130386315D01*
X101454736Y-130413365D01*
X101454064Y-130426859D01*
X101470490Y-130439743D01*
X101476596Y-130454581D01*
X101499188Y-130485050D01*
X101525811Y-130508681D01*
X101542908Y-130525717D01*
X101561348Y-130535242D01*
X101585956Y-130552339D01*
X101595436Y-130546173D01*
X101605739Y-130517473D01*
X101630115Y-130528601D01*
X101649459Y-130531823D01*
X101708199Y-130529808D01*
X101736226Y-130529808D01*
X101796371Y-130516130D01*
X101827541Y-130509000D01*
X101838014Y-130503979D01*
X101865308Y-130468136D01*
X101860546Y-130454581D01*
X101863965Y-130436324D01*
X101863965Y-130383628D01*
X101864637Y-130340336D01*
X101859202Y-130307852D01*
X101882405Y-130299120D01*
X101878314Y-130280130D01*
X101878986Y-130266636D01*
X101863965Y-130262606D01*
X101905608Y-130228778D01*
X101864637Y-130182128D01*
X101865308Y-130168633D01*
X101860546Y-130160512D01*
X101860546Y-130137493D01*
X101844853Y-130132791D01*
X101824337Y-130140179D01*
X101816826Y-130140912D01*
X101797656Y-130138861D01*
X101788128Y-130134134D01*
X101764253Y-130112336D01*
X101717786Y-130097986D01*
X101691163Y-130080218D01*
X101661060Y-130116427D01*
X101658374Y-130116427D01*
X101653550Y-130116427D01*
X101619417Y-130126685D01*
X101600976Y-130125341D01*
X101584923Y-130130431D01*
X101562020Y-130150376D01*
X101539488Y-130146957D01*
X101523735Y-130163199D01*
X101501203Y-130176022D01*
X101480546Y-130199800D01*
X101475924Y-130217971D01*
X101457840Y-130232817D01*
X101443806Y-130249722D01*
X101425366Y-130277444D01*
X101422008Y-130310600D01*
X101353240Y-130310600D01*
X101362534Y-130293625D01*
X101393981Y-130222062D01*
X101415840Y-130205026D01*
X101439715Y-130209788D01*
X101444539Y-130205026D01*
X101437700Y-130169549D01*
X101455469Y-130158681D01*
X101494364Y-130119785D01*
X101512805Y-130106840D01*
X101526161Y-130097499D01*
X101533993Y-130095239D01*
X101557929Y-130098658D01*
X101567454Y-130106168D01*
X101598229Y-130090476D01*
X101598229Y-130072768D01*
X101629614Y-130059091D01*
X101661060Y-130048222D01*
X101684263Y-130046146D01*
X101703436Y-130040711D01*
X101719801Y-130048222D01*
X101745751Y-130065258D01*
X101759429Y-130048222D01*
X101786723Y-130055000D01*
X101834534Y-130064586D01*
X101850959Y-130074783D01*
X101858469Y-130076859D01*
X101868882Y-130074418D01*
X101883749Y-130065258D01*
X101873490Y-130050237D01*
X101869399Y-130007922D01*
X101865980Y-129994244D01*
X101907623Y-129962126D01*
X101903992Y-129955110D01*
X101883077Y-129932084D01*
X101871909Y-129911166D01*
X101867323Y-129873344D01*
X101884420Y-129864490D01*
X101876238Y-129838539D01*
X101865308Y-129795491D01*
X101863232Y-129776318D01*
X101864637Y-129723745D01*
X101870071Y-129690956D01*
X101862561Y-129651999D01*
X101866652Y-129639054D01*
X101878986Y-129631543D01*
X101871414Y-129621285D01*
X101866858Y-129618572D01*
X101852974Y-129617194D01*
X101848883Y-129615118D01*
X101846868Y-129613775D01*
X101902189Y-129577566D01*
X101887840Y-129560469D01*
X101883077Y-129528351D01*
X101877730Y-129518803D01*
X101860484Y-129509911D01*
X101832218Y-129497996D01*
X101827756Y-129493546D01*
X101835266Y-129482616D01*
X101885764Y-129468939D01*
X101904980Y-129454914D01*
X101951404Y-129443660D01*
X101956838Y-129475106D01*
G37*
G36*
X102512368Y-130040896D02*
G01*
X102529182Y-130052472D01*
X102541250Y-130072585D01*
X102563110Y-130059091D01*
X102577459Y-130074661D01*
X102591748Y-130081378D01*
X102650549Y-130138164D01*
X102664917Y-130155315D01*
X102673080Y-130169916D01*
X102684682Y-130200996D01*
X102694207Y-130225298D01*
X102689445Y-130230000D01*
X102668989Y-130223954D01*
X102643039Y-130233419D01*
X102619774Y-130229328D01*
X102599319Y-130234762D01*
X102554867Y-130205026D01*
X102522749Y-130232747D01*
X102476343Y-130224626D01*
X102450392Y-130226641D01*
X102446973Y-130223954D01*
X102387500Y-130225298D01*
X102362220Y-130227984D01*
X102330835Y-130230671D01*
X102298717Y-130236106D01*
X102270019Y-130235434D01*
X102216041Y-130249783D01*
X102209202Y-130281962D01*
X102192838Y-130304555D01*
X102211548Y-130319306D01*
X102216041Y-130325804D01*
X102229047Y-130384666D01*
X102241320Y-130391505D01*
X102237901Y-130416845D01*
X102259089Y-130422341D01*
X102267778Y-130447501D01*
X102276857Y-130460015D01*
X102289226Y-130467030D01*
X102310990Y-130472288D01*
X102316144Y-130490789D01*
X102321920Y-130497629D01*
X102346528Y-130503124D01*
X102358129Y-130520893D01*
X102371135Y-130519488D01*
X102412107Y-130536585D01*
X102429876Y-130540676D01*
X102464680Y-130532494D01*
X102508400Y-130527732D01*
X102541922Y-130518145D01*
X102573979Y-130514054D01*
X102616355Y-130490118D01*
X102651221Y-130464289D01*
X102674424Y-130430767D01*
X102681490Y-130424820D01*
X102693536Y-130422585D01*
X102711304Y-130431500D01*
X102702451Y-130464351D01*
X102666242Y-130529991D01*
X102651221Y-130525778D01*
X102628628Y-130539760D01*
X102615239Y-130546248D01*
X102597915Y-130549530D01*
X102539174Y-130563513D01*
X102503637Y-130568398D01*
X102481777Y-130575420D01*
X102441477Y-130569131D01*
X102417541Y-130573283D01*
X102405940Y-130574016D01*
X102380661Y-130576092D01*
X102330835Y-130571329D01*
X102317829Y-130569924D01*
X102303480Y-130561071D01*
X102246816Y-130542569D01*
X102223551Y-130522114D01*
X102199677Y-130507032D01*
X102183362Y-130495334D01*
X102179160Y-130489263D01*
X102166887Y-130467404D01*
X102143623Y-130441453D01*
X102150462Y-130425027D01*
X102132693Y-130386742D01*
X102129605Y-130372519D01*
X102127930Y-130328674D01*
X102137517Y-130279459D01*
X102149118Y-130248684D01*
X102172322Y-130221329D01*
X102187342Y-130189211D01*
X102207183Y-130170893D01*
X102265928Y-130170893D01*
X102265928Y-130174984D01*
X102267271Y-130176327D01*
X102317158Y-130195989D01*
X102332178Y-130211071D01*
X102358862Y-130179014D01*
X102366372Y-130176327D01*
X102399834Y-130185120D01*
X102401177Y-130185120D01*
X102440134Y-130178342D01*
X102461994Y-130174984D01*
X102473595Y-130189211D01*
X102492035Y-130185792D01*
X102528916Y-130176327D01*
X102567873Y-130179747D01*
X102571292Y-130172969D01*
X102571964Y-130166191D01*
X102563782Y-130151231D01*
X102556943Y-130143110D01*
X102541252Y-130125026D01*
X102536427Y-130122777D01*
X102513895Y-130111847D01*
X102500950Y-130096154D01*
X102433295Y-130093407D01*
X102419617Y-130092735D01*
X102396414Y-130106413D01*
X102358862Y-130115938D01*
X102308304Y-130135661D01*
X102281620Y-130158681D01*
X102265928Y-130170893D01*
X102207183Y-130170893D01*
X102240648Y-130139996D01*
X102290535Y-130109282D01*
X102341093Y-130074417D01*
X102359534Y-130070997D01*
X102411435Y-130054572D01*
X102444897Y-130051824D01*
X102489288Y-130036803D01*
X102512368Y-130040896D01*
G37*
G36*
X102859560Y-129483899D02*
G01*
X102868519Y-129473354D01*
X102887587Y-129461306D01*
X102932650Y-129438103D01*
X102951238Y-129431386D01*
X102968859Y-129429249D01*
X102985284Y-129435355D01*
X102948403Y-129453796D01*
X102922391Y-129481151D01*
X102975026Y-129531038D01*
X102978445Y-129544654D01*
X102970935Y-129567185D01*
X102964767Y-129580191D01*
X102953166Y-129585687D01*
X102947670Y-129594541D01*
X102944312Y-129606142D01*
X102946999Y-129622568D01*
X102964096Y-129616400D01*
X102977773Y-129611638D01*
X102970935Y-129731133D01*
X102972278Y-129748902D01*
X102972950Y-129764656D01*
X102969492Y-129778571D01*
X102957257Y-129795369D01*
X102960676Y-129813810D01*
X102972950Y-129828159D01*
X102977102Y-129844584D01*
X102969591Y-129878717D01*
X102973682Y-129905340D01*
X102977102Y-129944296D01*
X102969591Y-129967500D01*
X102974354Y-129996198D01*
X102972950Y-130009876D01*
X102977102Y-130031735D01*
X102975697Y-130039918D01*
X102969521Y-130076829D01*
X102967515Y-130112030D01*
X102974354Y-130142255D01*
X103011787Y-130116690D01*
X103062465Y-130071486D01*
X103091163Y-130076981D01*
X103125968Y-130062510D01*
X103164253Y-130056343D01*
X103171657Y-130058480D01*
X103182021Y-130066662D01*
X103186113Y-130081744D01*
X103202477Y-130081744D01*
X103213407Y-130065258D01*
X103221650Y-130059762D01*
X103262622Y-130062510D01*
X103328872Y-130070081D01*
X103351404Y-130095422D01*
X103361222Y-130104197D01*
X103380774Y-130114656D01*
X103370577Y-130135233D01*
X103380462Y-130139723D01*
X103394452Y-130141400D01*
X103405429Y-130160513D01*
X103408801Y-130178464D01*
X103406725Y-130225786D01*
X103402847Y-130246878D01*
X103397199Y-130257355D01*
X103389017Y-130265598D01*
X103399275Y-130292342D01*
X103385598Y-130308829D01*
X103383522Y-130314996D01*
X103401962Y-130334169D01*
X103398543Y-130346564D01*
X103399275Y-130363661D01*
X103401290Y-130404877D01*
X103401962Y-130412388D01*
X103389689Y-130437117D01*
X103398543Y-130484439D01*
X103397199Y-130543424D01*
X103397871Y-130551667D01*
X103380927Y-130559890D01*
X103359647Y-130564673D01*
X103335711Y-130578412D01*
X103309760Y-130589342D01*
X103285825Y-130568093D01*
X103300174Y-130530235D01*
X103308967Y-130503722D01*
X103311837Y-130477295D01*
X103302250Y-130444933D01*
X103304265Y-130435957D01*
X103308356Y-130410556D01*
X103321362Y-130352976D01*
X103309760Y-130346137D01*
X103317271Y-130265537D01*
X103317943Y-130257294D01*
X103317943Y-130252531D01*
X103313180Y-130219741D01*
X103315867Y-130213574D01*
X103318614Y-130203988D01*
X103318614Y-130203316D01*
X103309089Y-130180785D01*
X103292663Y-130161673D01*
X103269460Y-130154101D01*
X103237342Y-130139080D01*
X103208644Y-130138408D01*
X103163581Y-130132974D01*
X103149904Y-130133646D01*
X103116442Y-130135661D01*
X103061060Y-130143293D01*
X103052206Y-130145430D01*
X103012578Y-130166435D01*
X102988642Y-130174862D01*
X102945060Y-130217052D01*
X102938817Y-130225969D01*
X102942196Y-130234765D01*
X102954795Y-130243646D01*
X102983879Y-130252592D01*
X102980460Y-130271093D01*
X102973621Y-130346320D01*
X102960679Y-130347919D01*
X102953838Y-130351755D01*
X102953838Y-130355907D01*
X102969000Y-130376252D01*
X102975697Y-130390772D01*
X102982536Y-130449574D01*
X102985956Y-130471434D01*
X102979788Y-130501536D01*
X102983208Y-130520038D01*
X102983208Y-130531639D01*
X102983879Y-130543974D01*
X102976369Y-130557651D01*
X102933321Y-130572672D01*
X102921657Y-130578943D01*
X102900532Y-130596608D01*
X102884839Y-130582930D01*
X102894426Y-130531395D01*
X102894426Y-130511489D01*
X102903951Y-130492194D01*
X102908775Y-130475708D01*
X102905355Y-130464717D01*
X102897112Y-130447559D01*
X102897112Y-130446826D01*
X102899188Y-130411777D01*
X102899188Y-130426920D01*
X102899188Y-130379476D01*
X102899860Y-130368485D01*
X102900532Y-130360242D01*
X102899188Y-130334780D01*
X102902608Y-130283244D01*
X102900532Y-130243372D01*
X102903279Y-130230305D01*
X102921048Y-130212414D01*
X102925139Y-130201423D01*
X102923124Y-130179380D01*
X102906699Y-130184204D01*
X102900687Y-130150605D01*
X102898517Y-130109954D01*
X102901936Y-129993450D01*
X102925139Y-129990764D01*
X102913538Y-129958646D01*
X102897845Y-129947716D01*
X102900532Y-129918346D01*
X102898517Y-129895814D01*
X102891678Y-129828159D01*
X102894919Y-129813343D01*
X102904684Y-129801536D01*
X102936741Y-129774853D01*
X102936741Y-129774181D01*
X102919117Y-129763503D01*
X102888258Y-129757817D01*
X102892349Y-129732538D01*
X102900532Y-129705183D01*
X102897485Y-129695630D01*
X102886182Y-129684056D01*
X102886915Y-129656700D01*
X102886182Y-129632093D01*
X102884839Y-129601379D01*
X102888930Y-129572009D01*
X102872566Y-129513269D01*
X102873237Y-129497515D01*
X102859560Y-129483899D01*
G37*
G36*
X104001578Y-130054023D02*
G01*
X104004265Y-130068372D01*
X104020690Y-130077958D01*
X104029503Y-130072226D01*
X104037055Y-130060129D01*
X104072771Y-130071320D01*
X104102634Y-130087545D01*
X104126570Y-130103970D01*
X104140247Y-130127906D01*
X104157828Y-130143565D01*
X104186653Y-130149766D01*
X104207475Y-130190127D01*
X104216024Y-130233907D01*
X104222191Y-130283183D01*
X104211261Y-130283183D01*
X104211261Y-130291366D01*
X104197583Y-130307119D01*
X104203137Y-130317727D01*
X104216695Y-130329040D01*
X104212604Y-130370073D01*
X104202407Y-130394009D01*
X104166870Y-130469968D01*
X104129606Y-130507247D01*
X104100619Y-130523335D01*
X104063738Y-130541775D01*
X104028872Y-130558201D01*
X103996755Y-130574260D01*
X103930504Y-130578717D01*
X103882693Y-130588975D01*
X103834211Y-130588975D01*
X103812351Y-130591723D01*
X103737185Y-130580793D01*
X103722836Y-130567787D01*
X103696214Y-130562964D01*
X103679886Y-130556401D01*
X103642236Y-130533593D01*
X103617629Y-130519916D01*
X103612194Y-130502758D01*
X103606699Y-130492500D01*
X103592349Y-130482974D01*
X103587587Y-130476807D01*
X103576168Y-130452363D01*
X103572566Y-130428874D01*
X103575753Y-130418237D01*
X103586915Y-130407015D01*
X103578906Y-130397422D01*
X103565727Y-130389246D01*
X103565055Y-130386498D01*
X103566686Y-130344392D01*
X103570490Y-130320797D01*
X103571227Y-130318721D01*
X103638817Y-130318721D01*
X103644312Y-130334413D01*
X103662752Y-130351449D01*
X103658877Y-130358509D01*
X103640221Y-130371294D01*
X103640221Y-130378072D01*
X103646327Y-130384239D01*
X103660005Y-130377400D01*
X103669591Y-130412937D01*
X103705129Y-130472288D01*
X103705800Y-130476379D01*
X103698961Y-130496163D01*
X103704343Y-130503168D01*
X103717402Y-130506421D01*
X103729003Y-130499583D01*
X103789148Y-130528281D01*
X103813431Y-130537036D01*
X103837630Y-130539883D01*
X103877930Y-130539883D01*
X103898447Y-130544706D01*
X103920978Y-130548126D01*
X103956516Y-130543302D01*
X103994068Y-130535120D01*
X104040535Y-130505750D01*
X104070577Y-130493476D01*
X104096528Y-130453176D01*
X104113625Y-130419043D01*
X104133408Y-130398588D01*
X104136156Y-130385582D01*
X104125898Y-130363784D01*
X104125898Y-130363051D01*
X104128646Y-130349434D01*
X104131588Y-130319527D01*
X104136828Y-130298204D01*
X104123883Y-130257233D01*
X104112953Y-130221756D01*
X104110877Y-130193790D01*
X104108129Y-130191043D01*
X104091765Y-130191043D01*
X104060990Y-130148056D01*
X104045664Y-130129249D01*
X104032353Y-130122777D01*
X103998159Y-130109099D01*
X103988440Y-130090280D01*
X103976299Y-130085163D01*
X103955111Y-130092002D01*
X103931236Y-130086568D01*
X103884769Y-130087911D01*
X103872116Y-130091303D01*
X103849232Y-130103604D01*
X103834883Y-130093407D01*
X103819190Y-130109771D01*
X103789820Y-130124853D01*
X103785057Y-130130287D01*
X103703053Y-130199225D01*
X103696946Y-130203988D01*
X103692794Y-130227923D01*
X103679178Y-130251798D01*
X103662081Y-130283855D01*
X103662752Y-130293442D01*
X103657599Y-130306690D01*
X103638817Y-130318721D01*
X103571227Y-130318721D01*
X103589663Y-130266758D01*
X103621781Y-130207957D01*
X103653166Y-130183960D01*
X103663424Y-130163443D01*
X103673682Y-130150437D01*
X103726256Y-130122411D01*
X103740512Y-130113362D01*
X103759045Y-130096399D01*
X103841050Y-130064281D01*
X103886868Y-130053095D01*
X103960546Y-130048527D01*
X104001578Y-130054023D01*
G37*
G36*
X104375819Y-130111542D02*
G01*
X104388825Y-130089010D01*
X104424302Y-130067822D01*
X104457763Y-130049382D01*
X104468704Y-130051691D01*
X104476203Y-130058297D01*
X104478951Y-130069898D01*
X104484385Y-130091025D01*
X104482370Y-130102627D01*
X104489881Y-130116976D01*
X104526762Y-130099940D01*
X104555460Y-130090354D01*
X104584159Y-130071242D01*
X104602599Y-130063731D01*
X104619024Y-130056221D01*
X104634045Y-130058968D01*
X104636060Y-130058968D01*
X104682527Y-130044619D01*
X104703044Y-130043215D01*
X104719408Y-130046634D01*
X104733757Y-130060251D01*
X104743344Y-130062266D01*
X104763128Y-130052740D01*
X104766547Y-130052069D01*
X104775380Y-130054255D01*
X104787063Y-130062266D01*
X104796102Y-130073656D01*
X104802756Y-130091453D01*
X104761784Y-130123326D01*
X104747009Y-130139046D01*
X104739924Y-130142316D01*
X104729119Y-130138179D01*
X104711226Y-130120457D01*
X104690771Y-130121800D01*
X104661339Y-130113618D01*
X104627878Y-130105375D01*
X104618872Y-130115953D01*
X104605347Y-130120457D01*
X104581411Y-130123143D01*
X104554117Y-130131386D01*
X104543187Y-130126563D01*
X104495376Y-130163504D01*
X104479725Y-130183780D01*
X104474188Y-130218886D01*
X104474188Y-130220963D01*
X104474188Y-130242822D01*
X104474860Y-130263339D01*
X104471973Y-130271204D01*
X104459167Y-130285931D01*
X104468355Y-130298319D01*
X104470769Y-130307119D01*
X104469426Y-130318782D01*
X104479684Y-130321468D01*
X104481699Y-130341985D01*
X104485118Y-130464412D01*
X104482370Y-130471922D01*
X104464602Y-130481509D01*
X104426378Y-130491767D01*
X104431075Y-130493955D01*
X104469426Y-130500682D01*
X104481027Y-130497934D01*
X104487866Y-130528709D01*
X104484076Y-130542503D01*
X104472112Y-130553316D01*
X104437308Y-130560155D01*
X104407876Y-130577252D01*
X104398351Y-130580000D01*
X104385903Y-130576256D01*
X104381987Y-130565650D01*
X104392245Y-130526693D01*
X104393588Y-130518511D01*
X104390169Y-130487737D01*
X104392916Y-130476135D01*
X104409281Y-130471372D01*
X104409952Y-130460443D01*
X104407775Y-130451515D01*
X104399694Y-130439255D01*
X104399694Y-130422158D01*
X104395603Y-130390101D01*
X104397679Y-130351877D01*
X104417916Y-130340776D01*
X104422958Y-130330017D01*
X104420882Y-130319087D01*
X104407205Y-130321163D01*
X104395603Y-130315668D01*
X104395603Y-130285626D01*
X104395603Y-130271277D01*
X104395603Y-130252836D01*
X104395603Y-130247402D01*
X104394931Y-130235129D01*
X104394931Y-130224199D01*
X104403785Y-130194829D01*
X104393588Y-130181884D01*
X104390840Y-130137493D01*
X104387698Y-130128617D01*
X104375819Y-130111542D01*
G37*
G36*
X105192262Y-130319942D02*
G01*
X105174494Y-130332948D01*
X105132117Y-130325437D01*
X105087726Y-130328124D01*
X105078694Y-130314119D01*
X105067271Y-130304249D01*
X105054265Y-130321285D01*
X105020132Y-130328857D01*
X105005783Y-130330872D01*
X105001692Y-130330200D01*
X104975741Y-130324705D01*
X104973665Y-130326781D01*
X104960720Y-130313103D01*
X104942219Y-130317927D01*
X104925183Y-130311088D01*
X104912848Y-130306264D01*
X104881996Y-130290129D01*
X104865650Y-130270440D01*
X104860275Y-130246181D01*
X104866886Y-130211167D01*
X104888302Y-130174434D01*
X104926526Y-130138225D01*
X104940204Y-130125219D01*
X104972322Y-130106107D01*
X105044740Y-130066479D01*
X105095972Y-130049271D01*
X105130102Y-130044619D01*
X105191591Y-130059213D01*
X105227128Y-130052984D01*
X105266085Y-130057808D01*
X105277017Y-130065549D01*
X105279701Y-130071730D01*
X105272862Y-130085652D01*
X105239401Y-130106535D01*
X105202520Y-130126685D01*
X105161116Y-130124841D01*
X105137613Y-130120518D01*
X105123264Y-130097315D01*
X105119173Y-130097315D01*
X105106228Y-130110931D01*
X105089131Y-130111664D01*
X105077529Y-130110931D01*
X105066599Y-130110259D01*
X105048831Y-130114351D01*
X105028314Y-130110259D01*
X104983251Y-130137554D01*
X104968180Y-130148397D01*
X104954858Y-130164115D01*
X104945695Y-130181922D01*
X104942951Y-130197393D01*
X104945492Y-130204778D01*
X104955957Y-130216383D01*
X104979832Y-130227252D01*
X105006454Y-130242212D01*
X105005783Y-130251065D01*
X105008896Y-130262016D01*
X105017445Y-130265354D01*
X105027842Y-130261758D01*
X105041992Y-130247646D01*
X105068675Y-130249722D01*
X105107571Y-130243555D01*
X105129431Y-130245631D01*
X105162220Y-130241540D01*
X105197086Y-130251065D01*
X105221693Y-130248318D01*
X105246301Y-130265354D01*
X105281989Y-130284756D01*
X105300218Y-130299975D01*
X105312552Y-130321713D01*
X105317315Y-130344183D01*
X105326840Y-130391078D01*
X105324153Y-130414830D01*
X105318704Y-130442110D01*
X105310104Y-130454627D01*
X105298874Y-130458367D01*
X105283121Y-130456290D01*
X105274293Y-130486514D01*
X105269443Y-130495064D01*
X105229876Y-130542630D01*
X105197238Y-130550596D01*
X105172479Y-130563696D01*
X105160144Y-130572550D01*
X105143108Y-130574565D01*
X105087787Y-130589525D01*
X105057684Y-130584762D01*
X105016713Y-130595631D01*
X105000348Y-130593616D01*
X104951133Y-130588243D01*
X104919708Y-130579125D01*
X104913581Y-130575481D01*
X104891721Y-130561315D01*
X104841835Y-130526266D01*
X104826055Y-130501663D01*
X104821379Y-130479799D01*
X104836400Y-130463435D01*
X104854841Y-130446338D01*
X104884883Y-130427226D01*
X104889645Y-130429241D01*
X104901667Y-130445385D01*
X104905399Y-130462030D01*
X104902651Y-130483890D01*
X104902651Y-130484562D01*
X104906071Y-130494148D01*
X104930678Y-130509169D01*
X104942951Y-130518084D01*
X104960720Y-130533105D01*
X104985999Y-130543302D01*
X105009202Y-130555636D01*
X105035153Y-130555636D01*
X105051578Y-130559056D01*
X105096641Y-130550874D01*
X105124668Y-130545378D01*
X105151290Y-130532433D01*
X105176570Y-130522175D01*
X105189671Y-130508288D01*
X105210703Y-130477112D01*
X105226969Y-130438821D01*
X105232562Y-130394436D01*
X105226395Y-130375263D01*
X105192262Y-130319942D01*
G37*
G36*
X103573224Y-121225905D02*
G01*
X103576918Y-121204640D01*
X103588806Y-121187998D01*
X103606583Y-121177041D01*
X103628422Y-121173295D01*
X103644736Y-121176402D01*
X103660182Y-121186115D01*
X103675415Y-121204216D01*
X103703898Y-121241834D01*
X103725143Y-121261173D01*
X103757677Y-121277261D01*
X103801600Y-121288052D01*
X103860111Y-121292094D01*
X103915718Y-121288001D01*
X103967962Y-121275927D01*
X104017501Y-121255898D01*
X104060489Y-121228513D01*
X104088652Y-121198310D01*
X104104914Y-121164857D01*
X104110411Y-121126791D01*
X104105834Y-121095534D01*
X104092231Y-121067812D01*
X104068551Y-121042525D01*
X104032254Y-121019324D01*
X103986966Y-121000809D01*
X103933049Y-120988294D01*
X103868904Y-120982590D01*
X103812208Y-120976581D01*
X103763616Y-120963785D01*
X103721870Y-120944781D01*
X103686947Y-120919289D01*
X103663276Y-120890169D01*
X103649168Y-120856788D01*
X103644298Y-120817775D01*
X103648253Y-120781476D01*
X103660231Y-120746146D01*
X103680946Y-120711064D01*
X103711780Y-120675706D01*
X103754696Y-120639771D01*
X103809660Y-120605529D01*
X103863929Y-120582004D01*
X103918072Y-120568223D01*
X103972756Y-120563665D01*
X104027104Y-120567829D01*
X104092435Y-120581543D01*
X104138498Y-120597075D01*
X104164487Y-120612211D01*
X104177172Y-120626652D01*
X104180949Y-120641090D01*
X104177635Y-120662605D01*
X104168781Y-120676683D01*
X104154259Y-120685413D01*
X104131758Y-120688717D01*
X104105995Y-120686525D01*
X104055261Y-120677531D01*
X104003453Y-120668835D01*
X103970558Y-120666833D01*
X103914983Y-120672301D01*
X103867176Y-120686521D01*
X103825722Y-120709038D01*
X103797639Y-120732615D01*
X103778959Y-120757222D01*
X103768137Y-120783264D01*
X103764515Y-120811522D01*
X103768588Y-120830582D01*
X103781223Y-120847320D01*
X103805164Y-120862523D01*
X103845408Y-120875660D01*
X103882515Y-120881691D01*
X103961814Y-120888801D01*
X104023980Y-120897848D01*
X104076319Y-120914272D01*
X104120401Y-120937427D01*
X104157452Y-120967203D01*
X104185871Y-121000841D01*
X104205784Y-121037270D01*
X104217811Y-121077126D01*
X104221933Y-121121320D01*
X104217125Y-121171077D01*
X104203106Y-121215735D01*
X104179865Y-121256395D01*
X104146586Y-121293803D01*
X104101716Y-121328291D01*
X104048256Y-121357225D01*
X103990570Y-121378078D01*
X103927956Y-121390868D01*
X103859574Y-121395263D01*
X103793789Y-121390820D01*
X103733042Y-121377830D01*
X103676538Y-121356526D01*
X103628798Y-121328124D01*
X103597727Y-121297258D01*
X103579751Y-121263620D01*
X103573224Y-121225905D01*
G37*
G36*
X104639030Y-120802233D02*
G01*
X104675744Y-120814035D01*
X104708144Y-120833385D01*
X104736964Y-120860885D01*
X104762491Y-120897838D01*
X104786565Y-120953281D01*
X104801240Y-121017357D01*
X104805673Y-121091815D01*
X104800820Y-121151844D01*
X104788440Y-121205687D01*
X104768918Y-121254257D01*
X104742267Y-121298298D01*
X104711649Y-121334011D01*
X104678314Y-121360841D01*
X104641912Y-121379786D01*
X104601787Y-121391301D01*
X104557034Y-121395263D01*
X104512536Y-121391003D01*
X104471927Y-121378498D01*
X104434323Y-121357653D01*
X104399106Y-121327705D01*
X104367345Y-121288075D01*
X104343744Y-121242018D01*
X104328253Y-121188364D01*
X104321486Y-121125570D01*
X104321493Y-121125423D01*
X104429148Y-121125423D01*
X104434427Y-121176648D01*
X104449067Y-121217091D01*
X104472330Y-121249157D01*
X104498179Y-121269788D01*
X104526107Y-121281795D01*
X104557034Y-121285842D01*
X104593187Y-121281207D01*
X104625419Y-121267541D01*
X104654829Y-121244223D01*
X104680388Y-121210960D01*
X104696909Y-121170205D01*
X104704019Y-121119952D01*
X104701818Y-121043004D01*
X104690907Y-120988792D01*
X104673798Y-120951676D01*
X104651704Y-120927245D01*
X104624306Y-120912749D01*
X104589811Y-120907558D01*
X104551974Y-120912098D01*
X104519256Y-120925874D01*
X104490350Y-120949312D01*
X104464661Y-120984202D01*
X104445173Y-121026692D01*
X104433255Y-121073463D01*
X104429148Y-121125423D01*
X104321493Y-121125423D01*
X104324275Y-121064667D01*
X104335688Y-121008775D01*
X104355459Y-120957031D01*
X104383768Y-120908731D01*
X104417353Y-120868354D01*
X104454800Y-120837826D01*
X104496577Y-120816092D01*
X104543546Y-120802762D01*
X104596894Y-120798138D01*
X104639030Y-120802233D01*
G37*
G36*
X105365771Y-120961096D02*
G01*
X105360023Y-120993817D01*
X105348867Y-121013983D01*
X105333049Y-121025445D01*
X105311109Y-121029484D01*
X105290313Y-121026029D01*
X105276394Y-121016620D01*
X105267531Y-121000762D01*
X105264117Y-120975653D01*
X105262505Y-120937600D01*
X105260844Y-120891927D01*
X105204407Y-120902643D01*
X105158960Y-120919061D01*
X105122602Y-120940482D01*
X105093215Y-120966790D01*
X105066227Y-121001891D01*
X105041709Y-121047412D01*
X105042784Y-121346414D01*
X105039053Y-121371549D01*
X105029173Y-121387821D01*
X105013178Y-121397779D01*
X104988660Y-121401515D01*
X104967406Y-121397972D01*
X104953168Y-121388319D01*
X104944091Y-121372031D01*
X104940593Y-121346219D01*
X104940593Y-120961829D01*
X104941960Y-120907656D01*
X104943328Y-120853434D01*
X104946827Y-120827622D01*
X104955904Y-120811334D01*
X104970142Y-120801680D01*
X104991395Y-120798138D01*
X105013133Y-120802985D01*
X105029205Y-120817362D01*
X105040639Y-120844410D01*
X105045519Y-120890803D01*
X105090147Y-120852779D01*
X105135321Y-120824332D01*
X105181398Y-120804507D01*
X105228868Y-120792714D01*
X105278332Y-120788759D01*
X105306036Y-120792678D01*
X105327557Y-120803725D01*
X105344424Y-120822122D01*
X105355694Y-120845507D01*
X105363387Y-120878144D01*
X105366308Y-120922799D01*
X105365771Y-120961096D01*
G37*
G36*
X105903496Y-120961096D02*
G01*
X105897748Y-120993817D01*
X105886592Y-121013983D01*
X105870774Y-121025445D01*
X105848834Y-121029484D01*
X105828038Y-121026029D01*
X105814119Y-121016620D01*
X105805256Y-121000762D01*
X105801842Y-120975653D01*
X105800230Y-120937600D01*
X105798569Y-120891927D01*
X105742132Y-120902643D01*
X105696685Y-120919061D01*
X105660327Y-120940482D01*
X105630940Y-120966790D01*
X105603952Y-121001891D01*
X105579434Y-121047412D01*
X105580509Y-121346414D01*
X105576778Y-121371549D01*
X105566898Y-121387821D01*
X105550903Y-121397779D01*
X105526385Y-121401515D01*
X105505131Y-121397972D01*
X105490893Y-121388319D01*
X105481816Y-121372031D01*
X105478318Y-121346219D01*
X105478318Y-120961829D01*
X105479685Y-120907656D01*
X105481053Y-120853434D01*
X105484552Y-120827622D01*
X105493629Y-120811334D01*
X105507867Y-120801680D01*
X105529120Y-120798138D01*
X105550858Y-120802985D01*
X105566930Y-120817362D01*
X105578364Y-120844410D01*
X105583244Y-120890803D01*
X105627872Y-120852779D01*
X105673046Y-120824332D01*
X105719123Y-120804507D01*
X105766593Y-120792714D01*
X105816057Y-120788759D01*
X105843761Y-120792678D01*
X105865282Y-120803725D01*
X105882149Y-120822122D01*
X105893419Y-120845507D01*
X105901112Y-120878144D01*
X105904033Y-120922799D01*
X105903496Y-120961096D01*
G37*
G36*
X106492609Y-120876784D02*
G01*
X106303517Y-121285402D01*
X106238946Y-121428987D01*
X106196392Y-121535067D01*
X106160341Y-121641069D01*
X106147897Y-121663353D01*
X106131853Y-121675598D01*
X106111151Y-121679757D01*
X106089695Y-121675997D01*
X106071486Y-121664809D01*
X106058989Y-121648058D01*
X106054829Y-121627635D01*
X106061925Y-121588647D01*
X106094252Y-121496221D01*
X106172896Y-121313441D01*
X105977257Y-120935353D01*
X105952637Y-120895297D01*
X105941059Y-120870590D01*
X105937885Y-120853043D01*
X105942086Y-120832758D01*
X105955080Y-120814697D01*
X105973624Y-120802155D01*
X105993621Y-120798138D01*
X106016209Y-120802709D01*
X106032456Y-120815870D01*
X106090392Y-120905166D01*
X106156568Y-121026056D01*
X106231905Y-121185067D01*
X106312798Y-120994607D01*
X106357135Y-120900967D01*
X106396964Y-120826226D01*
X106410593Y-120808154D01*
X106425661Y-120798266D01*
X106442882Y-120795011D01*
X106463835Y-120798967D01*
X106482449Y-120811034D01*
X106495453Y-120828729D01*
X106499692Y-120849136D01*
X106498074Y-120861524D01*
X106492609Y-120876784D01*
G37*
G36*
X107511053Y-120657747D02*
G01*
X107477397Y-120653644D01*
X107440565Y-120649540D01*
X107377697Y-120651201D01*
X107380432Y-120716170D01*
X107376007Y-120930354D01*
X107364203Y-121094674D01*
X107347048Y-121217753D01*
X107326308Y-121307384D01*
X107307518Y-121355875D01*
X107285505Y-121389683D01*
X107260673Y-121412082D01*
X107232599Y-121425179D01*
X107200083Y-121429652D01*
X107154136Y-121425602D01*
X107107802Y-121413244D01*
X107060449Y-121391919D01*
X107011528Y-121360531D01*
X106963817Y-121318002D01*
X106932303Y-121275035D01*
X106914237Y-121230933D01*
X106908262Y-121184481D01*
X106912387Y-121152640D01*
X106922985Y-121132795D01*
X106939353Y-121121221D01*
X106963461Y-121117021D01*
X106987638Y-121121190D01*
X107004002Y-121132651D01*
X107014559Y-121152229D01*
X107018660Y-121183553D01*
X107024583Y-121211155D01*
X107044279Y-121240837D01*
X107083140Y-121274216D01*
X107125829Y-121299111D01*
X107164455Y-121312801D01*
X107200083Y-121317105D01*
X107210992Y-121312682D01*
X107222968Y-121295609D01*
X107236344Y-121255434D01*
X107250062Y-121177047D01*
X107262365Y-121041355D01*
X107268308Y-120902366D01*
X107270572Y-120713532D01*
X107267836Y-120654327D01*
X107234521Y-120654865D01*
X107170286Y-120653546D01*
X107105512Y-120652178D01*
X107083190Y-120648332D01*
X107065066Y-120637084D01*
X107052956Y-120619647D01*
X107048702Y-120596002D01*
X107053182Y-120572258D01*
X107065804Y-120555728D01*
X107088093Y-120544722D01*
X107124661Y-120540364D01*
X107179860Y-120542025D01*
X107234521Y-120543637D01*
X107337494Y-120539582D01*
X107440516Y-120535528D01*
X107493915Y-120539350D01*
X107528387Y-120548933D01*
X107549488Y-120562291D01*
X107561166Y-120578865D01*
X107565129Y-120599715D01*
X107561459Y-120620585D01*
X107550376Y-120639038D01*
X107532523Y-120653121D01*
X107511053Y-120657747D01*
G37*
G36*
X107924703Y-121398389D02*
G01*
X107869571Y-121393909D01*
X107820740Y-121380987D01*
X107777098Y-121359964D01*
X107737808Y-121330587D01*
X107703591Y-121292485D01*
X107679272Y-121249267D01*
X107664324Y-121199914D01*
X107659113Y-121142960D01*
X107663379Y-121089147D01*
X107676505Y-121033448D01*
X107699284Y-120975197D01*
X107732875Y-120913762D01*
X107770326Y-120861912D01*
X107807094Y-120825243D01*
X107843446Y-120800963D01*
X107879974Y-120787072D01*
X107917571Y-120782506D01*
X107972141Y-120788329D01*
X108037250Y-120807565D01*
X108078907Y-120827509D01*
X108103806Y-120847047D01*
X108116809Y-120866244D01*
X108120879Y-120885967D01*
X108117476Y-120905475D01*
X108107201Y-120922750D01*
X108091832Y-120934847D01*
X108073349Y-120938822D01*
X108058406Y-120936445D01*
X108045701Y-120929443D01*
X108023035Y-120910929D01*
X107999980Y-120898040D01*
X107966071Y-120889120D01*
X107917571Y-120885674D01*
X107893373Y-120890378D01*
X107867661Y-120905776D01*
X107839179Y-120935513D01*
X107807173Y-120985081D01*
X107777801Y-121047565D01*
X107762167Y-121099470D01*
X107757445Y-121142862D01*
X107760735Y-121178104D01*
X107770115Y-121208156D01*
X107785304Y-121234036D01*
X107806636Y-121256435D01*
X107839197Y-121277522D01*
X107878009Y-121290597D01*
X107924703Y-121295221D01*
X107957587Y-121291140D01*
X107994654Y-121277928D01*
X108058060Y-121244467D01*
X108081556Y-121235821D01*
X108100234Y-121239770D01*
X108116531Y-121251941D01*
X108127644Y-121269294D01*
X108131284Y-121288724D01*
X108127533Y-121305428D01*
X108115001Y-121323249D01*
X108090023Y-121343176D01*
X108047117Y-121365660D01*
X107996774Y-121385141D01*
X107956612Y-121395363D01*
X107924703Y-121398389D01*
G37*
G36*
X109063998Y-120876784D02*
G01*
X108874905Y-121285402D01*
X108810335Y-121428987D01*
X108767780Y-121535067D01*
X108731730Y-121641069D01*
X108719286Y-121663353D01*
X108703242Y-121675598D01*
X108682540Y-121679757D01*
X108661084Y-121675997D01*
X108642875Y-121664809D01*
X108630378Y-121648058D01*
X108626217Y-121627635D01*
X108633313Y-121588647D01*
X108665641Y-121496221D01*
X108744284Y-121313441D01*
X108548646Y-120935353D01*
X108524026Y-120895297D01*
X108512448Y-120870590D01*
X108509274Y-120853043D01*
X108513475Y-120832758D01*
X108526468Y-120814697D01*
X108545013Y-120802155D01*
X108565010Y-120798138D01*
X108587597Y-120802709D01*
X108603845Y-120815870D01*
X108661781Y-120905166D01*
X108727957Y-121026056D01*
X108803293Y-121185067D01*
X108884187Y-120994607D01*
X108928524Y-120900967D01*
X108968353Y-120826226D01*
X108981982Y-120808154D01*
X108997050Y-120798266D01*
X109014270Y-120795011D01*
X109035223Y-120798967D01*
X109053838Y-120811034D01*
X109066842Y-120828729D01*
X109071081Y-120849136D01*
X109069462Y-120861524D01*
X109063998Y-120876784D01*
G37*
G36*
X109478230Y-120797565D02*
G01*
X109536413Y-120816456D01*
X109573160Y-120835209D01*
X109595335Y-120853561D01*
X109607029Y-120871632D01*
X109610711Y-120890217D01*
X109608037Y-120904033D01*
X109599818Y-120916449D01*
X109591318Y-120984788D01*
X109587801Y-121106616D01*
X109590152Y-121170824D01*
X109597083Y-121213692D01*
X109606172Y-121243371D01*
X109631521Y-121309875D01*
X109644075Y-121338842D01*
X109647348Y-121348124D01*
X109643481Y-121368159D01*
X109632058Y-121384174D01*
X109615463Y-121394864D01*
X109596545Y-121398389D01*
X109584872Y-121394271D01*
X109558834Y-121374893D01*
X109536282Y-121353008D01*
X109522198Y-121335863D01*
X109470848Y-121361242D01*
X109429825Y-121377921D01*
X109391225Y-121389001D01*
X109363196Y-121392136D01*
X109299372Y-121386908D01*
X109248690Y-121372515D01*
X109208493Y-121350163D01*
X109176838Y-121319987D01*
X109154484Y-121285213D01*
X109137221Y-121240578D01*
X109125823Y-121183820D01*
X109121890Y-121116533D01*
X109229302Y-121116533D01*
X109233489Y-121175574D01*
X109244580Y-121219062D01*
X109261004Y-121250573D01*
X109285171Y-121275030D01*
X109316138Y-121289907D01*
X109356113Y-121295221D01*
X109405966Y-121290162D01*
X109445163Y-121276170D01*
X109466231Y-121262548D01*
X109500362Y-121234746D01*
X109486529Y-121099357D01*
X109482875Y-121018445D01*
X109485854Y-120967545D01*
X109494891Y-120908975D01*
X109460160Y-120893734D01*
X109436957Y-120888801D01*
X109396278Y-120893060D01*
X109358884Y-120905643D01*
X109323901Y-120926848D01*
X109290753Y-120957726D01*
X109263560Y-120993995D01*
X109244559Y-121032164D01*
X109233166Y-121072770D01*
X109229302Y-121116533D01*
X109121890Y-121116533D01*
X109121639Y-121112234D01*
X109127454Y-121047787D01*
X109144443Y-120989353D01*
X109172560Y-120935695D01*
X109212595Y-120885919D01*
X109261150Y-120844182D01*
X109312919Y-120815177D01*
X109368752Y-120797800D01*
X109429874Y-120791885D01*
X109478230Y-120797565D01*
G37*
G36*
X110147570Y-120767606D02*
G01*
X110163726Y-120779136D01*
X110174567Y-120796092D01*
X110178234Y-120816602D01*
X110176573Y-120834628D01*
X110172763Y-120865793D01*
X110220117Y-120836956D01*
X110263475Y-120817433D01*
X110307051Y-120805151D01*
X110347103Y-120801264D01*
X110390506Y-120805432D01*
X110427549Y-120817334D01*
X110459508Y-120836668D01*
X110487230Y-120863943D01*
X110511039Y-120900427D01*
X110532633Y-120954372D01*
X110546827Y-121022529D01*
X110552023Y-121108082D01*
X110547735Y-121166512D01*
X110535470Y-121217571D01*
X110515759Y-121262454D01*
X110488618Y-121302108D01*
X110452229Y-121337378D01*
X110410967Y-121362250D01*
X110363851Y-121377463D01*
X110309392Y-121382757D01*
X110253683Y-121378628D01*
X110189127Y-121365270D01*
X110188053Y-121627928D01*
X110184177Y-121650207D01*
X110173007Y-121667496D01*
X110156109Y-121678946D01*
X110134515Y-121682883D01*
X110112866Y-121678957D01*
X110095924Y-121667545D01*
X110084791Y-121650355D01*
X110080928Y-121628173D01*
X110082588Y-121409331D01*
X110082588Y-121191027D01*
X110075060Y-120990748D01*
X110183119Y-120990748D01*
X110188423Y-121115842D01*
X110190251Y-121250475D01*
X110250302Y-121267715D01*
X110309392Y-121273337D01*
X110342524Y-121269956D01*
X110370279Y-121260351D01*
X110393783Y-121244765D01*
X110413733Y-121222681D01*
X110430469Y-121191820D01*
X110441091Y-121154238D01*
X110444898Y-121108326D01*
X110441589Y-121042019D01*
X110432952Y-120993926D01*
X110420572Y-120959973D01*
X110400874Y-120931877D01*
X110376857Y-120916070D01*
X110347055Y-120910685D01*
X110298772Y-120916383D01*
X110256343Y-120933009D01*
X110226435Y-120953083D01*
X110183119Y-120990748D01*
X110075060Y-120990748D01*
X110074382Y-120972722D01*
X110066175Y-120861690D01*
X110069956Y-120824831D01*
X110080390Y-120796037D01*
X110093539Y-120777529D01*
X110109093Y-120767221D01*
X110127920Y-120763748D01*
X110147570Y-120767606D01*
G37*
G36*
X111121744Y-121045409D02*
G01*
X111122281Y-121163281D01*
X111122819Y-121281152D01*
X111124724Y-121317740D01*
X111126678Y-121354279D01*
X111122633Y-121375833D01*
X111110802Y-121392771D01*
X111093321Y-121403969D01*
X111072016Y-121407768D01*
X111047907Y-121402365D01*
X111030453Y-121386447D01*
X111018478Y-121356623D01*
X110971717Y-121376005D01*
X110919588Y-121387981D01*
X110861088Y-121392136D01*
X110814267Y-121388304D01*
X110775213Y-121377529D01*
X110742484Y-121360434D01*
X110712740Y-121333796D01*
X110692296Y-121300294D01*
X110680739Y-121258291D01*
X110664373Y-121117098D01*
X110659392Y-121000468D01*
X110663219Y-120923361D01*
X110675806Y-120830036D01*
X110685497Y-120802829D01*
X110702207Y-120787830D01*
X110727732Y-120782506D01*
X110749491Y-120786350D01*
X110767055Y-120797600D01*
X110778885Y-120814586D01*
X110782930Y-120836191D01*
X110774968Y-120916742D01*
X110767055Y-121001103D01*
X110768685Y-121089302D01*
X110773063Y-121157810D01*
X110781132Y-121219658D01*
X110791137Y-121262443D01*
X110826650Y-121277538D01*
X110861088Y-121282715D01*
X110934946Y-121277043D01*
X111015743Y-121259170D01*
X111015205Y-121147893D01*
X111014082Y-121041550D01*
X111016888Y-120927041D01*
X111024487Y-120836044D01*
X111030512Y-120812947D01*
X111041064Y-120797932D01*
X111056182Y-120788912D01*
X111077487Y-120785632D01*
X111099232Y-120789520D01*
X111116810Y-120800922D01*
X111128398Y-120818017D01*
X111131563Y-120839122D01*
X111121744Y-121045409D01*
G37*
G36*
X112090360Y-120495280D02*
G01*
X112105069Y-120504742D01*
X112114266Y-120520393D01*
X112117766Y-120544809D01*
X112113792Y-120643158D01*
X112095931Y-120880692D01*
X112091020Y-120961170D01*
X112089385Y-121041550D01*
X112094331Y-121212537D01*
X112106287Y-121316714D01*
X112107411Y-121329317D01*
X112103541Y-121349394D01*
X112092121Y-121365416D01*
X112075519Y-121376104D01*
X112056559Y-121379631D01*
X112037226Y-121374870D01*
X112020868Y-121359888D01*
X112006831Y-121330489D01*
X111966290Y-121356105D01*
X111925108Y-121374209D01*
X111881994Y-121385290D01*
X111836887Y-121389010D01*
X111781569Y-121384089D01*
X111732639Y-121369864D01*
X111688876Y-121346581D01*
X111649406Y-121313734D01*
X111616247Y-121273031D01*
X111592560Y-121227277D01*
X111577982Y-121175482D01*
X111572909Y-121116288D01*
X111573017Y-121114823D01*
X111669678Y-121114823D01*
X111675267Y-121159488D01*
X111691709Y-121199229D01*
X111719651Y-121235381D01*
X111755479Y-121263758D01*
X111794139Y-121280277D01*
X111836887Y-121285842D01*
X111880458Y-121281359D01*
X111914459Y-121268989D01*
X111935448Y-121255403D01*
X111975129Y-121223951D01*
X111991004Y-121207098D01*
X111989344Y-121113162D01*
X111989881Y-121050196D01*
X111991004Y-120986156D01*
X111966176Y-120946925D01*
X111935757Y-120920161D01*
X111898795Y-120903904D01*
X111853300Y-120898180D01*
X111807720Y-120901997D01*
X111770588Y-120912632D01*
X111740261Y-120929365D01*
X111715547Y-120952206D01*
X111696805Y-120980075D01*
X111682480Y-121015318D01*
X111673101Y-121059572D01*
X111669678Y-121114823D01*
X111573017Y-121114823D01*
X111578242Y-121043792D01*
X111593349Y-120981831D01*
X111617392Y-120928642D01*
X111650237Y-120882841D01*
X111691827Y-120844387D01*
X111738405Y-120817281D01*
X111790992Y-120800745D01*
X111851102Y-120795011D01*
X111893159Y-120797588D01*
X111925051Y-120804473D01*
X111948897Y-120814697D01*
X112000286Y-120852408D01*
X112009770Y-120639849D01*
X112018311Y-120540755D01*
X112027680Y-120512407D01*
X112043769Y-120497105D01*
X112068039Y-120491759D01*
X112090360Y-120495280D01*
G37*
G36*
X112550332Y-120795691D02*
G01*
X112599042Y-120806192D01*
X112638492Y-120822367D01*
X112669977Y-120844276D01*
X112691484Y-120870249D01*
X112704451Y-120900955D01*
X112708981Y-120937845D01*
X112705520Y-120963082D01*
X112694922Y-120987589D01*
X112676131Y-121012076D01*
X112647236Y-121036958D01*
X112611786Y-121058329D01*
X112531367Y-121098410D01*
X112322588Y-121197768D01*
X112344969Y-121225845D01*
X112370287Y-121248445D01*
X112398792Y-121266058D01*
X112430010Y-121278513D01*
X112465219Y-121286264D01*
X112505136Y-121288968D01*
X112544159Y-121285723D01*
X112593649Y-121274753D01*
X112635516Y-121259678D01*
X112661707Y-121243808D01*
X112676692Y-121227517D01*
X112690695Y-121210028D01*
X112703786Y-121201055D01*
X112716601Y-121198305D01*
X112734519Y-121201863D01*
X112750746Y-121212862D01*
X112762112Y-121228776D01*
X112765792Y-121246665D01*
X112760810Y-121273330D01*
X112745137Y-121299130D01*
X112715836Y-121325152D01*
X112667948Y-121351641D01*
X112611312Y-121372821D01*
X112557226Y-121385040D01*
X112505087Y-121389010D01*
X112443435Y-121384740D01*
X112390430Y-121372631D01*
X112344689Y-121353377D01*
X112305101Y-121327168D01*
X112268927Y-121290070D01*
X112243109Y-121246706D01*
X112227106Y-121195826D01*
X112221472Y-121135584D01*
X112224022Y-121096798D01*
X112313307Y-121096798D01*
X112481102Y-121016686D01*
X112571901Y-120967866D01*
X112622079Y-120932715D01*
X112588238Y-120909155D01*
X112545211Y-120894214D01*
X112490383Y-120888801D01*
X112448299Y-120894601D01*
X112411822Y-120911605D01*
X112379448Y-120940678D01*
X112354312Y-120977574D01*
X112331988Y-121028437D01*
X112313307Y-121096798D01*
X112224022Y-121096798D01*
X112226136Y-121064638D01*
X112239503Y-121002004D01*
X112260961Y-120946449D01*
X112290348Y-120896958D01*
X112323166Y-120858292D01*
X112359028Y-120829229D01*
X112398324Y-120808690D01*
X112441775Y-120796191D01*
X112490383Y-120791885D01*
X112550332Y-120795691D01*
G37*
G36*
X113566810Y-120941948D02*
G01*
X113547878Y-120939474D01*
X113534332Y-120932766D01*
X113524752Y-120922018D01*
X113518017Y-120904069D01*
X113510537Y-120863790D01*
X113384312Y-120901990D01*
X113340813Y-120923538D01*
X113314436Y-120944909D01*
X113300392Y-120966178D01*
X113295799Y-120988256D01*
X113328039Y-120996951D01*
X113411615Y-121015645D01*
X113472299Y-121036486D01*
X113514933Y-121058549D01*
X113554271Y-121090750D01*
X113581574Y-121128288D01*
X113598181Y-121172167D01*
X113603984Y-121224195D01*
X113599009Y-121266516D01*
X113584757Y-121302054D01*
X113561196Y-121332364D01*
X113526950Y-121358235D01*
X113482822Y-121378051D01*
X113429542Y-121390721D01*
X113365163Y-121395263D01*
X113294966Y-121389256D01*
X113228583Y-121371424D01*
X113187644Y-121352316D01*
X113162488Y-121331988D01*
X113148846Y-121310489D01*
X113144417Y-121286868D01*
X113148616Y-121266792D01*
X113161612Y-121248961D01*
X113180209Y-121236676D01*
X113200690Y-121232695D01*
X113217778Y-121237882D01*
X113244410Y-121258731D01*
X113262180Y-121268807D01*
X113303468Y-121279345D01*
X113365212Y-121285842D01*
X113409567Y-121282945D01*
X113446106Y-121274900D01*
X113476569Y-121260771D01*
X113492015Y-121244242D01*
X113496908Y-121224683D01*
X113493132Y-121198116D01*
X113482102Y-121175465D01*
X113463198Y-121155681D01*
X113434505Y-121138454D01*
X113393056Y-121124251D01*
X113336245Y-121111648D01*
X113269471Y-121092704D01*
X113232930Y-121074425D01*
X113208658Y-121050942D01*
X113193930Y-121020809D01*
X113188674Y-120981857D01*
X113193162Y-120937860D01*
X113205957Y-120900698D01*
X113226789Y-120868936D01*
X113256375Y-120841684D01*
X113296336Y-120818703D01*
X113334306Y-120804050D01*
X113401214Y-120783385D01*
X113467969Y-120762757D01*
X113504528Y-120748605D01*
X113527699Y-120741246D01*
X113553182Y-120738738D01*
X113574784Y-120742653D01*
X113591674Y-120754027D01*
X113602825Y-120771288D01*
X113606720Y-120793888D01*
X113613558Y-120840343D01*
X113620397Y-120886798D01*
X113616503Y-120909398D01*
X113605352Y-120926658D01*
X113588455Y-120938031D01*
X113566810Y-120941948D01*
G37*
G36*
X114029679Y-120802233D02*
G01*
X114066393Y-120814035D01*
X114098793Y-120833385D01*
X114127613Y-120860885D01*
X114153140Y-120897838D01*
X114177214Y-120953281D01*
X114191889Y-121017357D01*
X114196322Y-121091815D01*
X114191469Y-121151844D01*
X114179089Y-121205687D01*
X114159567Y-121254257D01*
X114132916Y-121298298D01*
X114102298Y-121334011D01*
X114068963Y-121360841D01*
X114032561Y-121379786D01*
X113992436Y-121391301D01*
X113947683Y-121395263D01*
X113903185Y-121391003D01*
X113862576Y-121378498D01*
X113824972Y-121357653D01*
X113789755Y-121327705D01*
X113757994Y-121288075D01*
X113734393Y-121242018D01*
X113718902Y-121188364D01*
X113712135Y-121125570D01*
X113712142Y-121125423D01*
X113819797Y-121125423D01*
X113825076Y-121176648D01*
X113839716Y-121217091D01*
X113862979Y-121249157D01*
X113888828Y-121269788D01*
X113916756Y-121281795D01*
X113947683Y-121285842D01*
X113983836Y-121281207D01*
X114016068Y-121267541D01*
X114045478Y-121244223D01*
X114071037Y-121210960D01*
X114087558Y-121170205D01*
X114094668Y-121119952D01*
X114092467Y-121043004D01*
X114081556Y-120988792D01*
X114064447Y-120951676D01*
X114042353Y-120927245D01*
X114014955Y-120912749D01*
X113980460Y-120907558D01*
X113942623Y-120912098D01*
X113909905Y-120925874D01*
X113880999Y-120949312D01*
X113855310Y-120984202D01*
X113835822Y-121026692D01*
X113823904Y-121073463D01*
X113819797Y-121125423D01*
X113712142Y-121125423D01*
X113714924Y-121064667D01*
X113726337Y-121008775D01*
X113746108Y-120957031D01*
X113774417Y-120908731D01*
X113808002Y-120868354D01*
X113845449Y-120837826D01*
X113887226Y-120816092D01*
X113934195Y-120802762D01*
X113987543Y-120798138D01*
X114029679Y-120802233D01*
G37*
G36*
X114750411Y-121401515D02*
G01*
X114729183Y-121398200D01*
X114714068Y-121389053D01*
X114703474Y-121373756D01*
X114697411Y-121350127D01*
X114682121Y-121230448D01*
X114676296Y-121167373D01*
X114674452Y-121110720D01*
X114676357Y-121058794D01*
X114678262Y-121006868D01*
X114673854Y-120943794D01*
X114663611Y-120909739D01*
X114650480Y-120893659D01*
X114634542Y-120888801D01*
X114606302Y-120892751D01*
X114577911Y-120905035D01*
X114548531Y-120927132D01*
X114517599Y-120961487D01*
X114487621Y-121007504D01*
X114461270Y-121062808D01*
X114438904Y-121128794D01*
X114433970Y-121182381D01*
X114430697Y-121235381D01*
X114433970Y-121284621D01*
X114437243Y-121333811D01*
X114433348Y-121356411D01*
X114422198Y-121373672D01*
X114405303Y-121385084D01*
X114383705Y-121389010D01*
X114361673Y-121385066D01*
X114344870Y-121373720D01*
X114333944Y-121356491D01*
X114330118Y-121333909D01*
X114326552Y-121284767D01*
X114323035Y-121235674D01*
X114330949Y-121079847D01*
X114338911Y-120924069D01*
X114336957Y-120872192D01*
X114335052Y-120820364D01*
X114339032Y-120798786D01*
X114350635Y-120781871D01*
X114367913Y-120770682D01*
X114389176Y-120766875D01*
X114410706Y-120770956D01*
X114426548Y-120782669D01*
X114438026Y-120803524D01*
X114444326Y-120837607D01*
X114445987Y-120901306D01*
X114487243Y-120852935D01*
X114526189Y-120818757D01*
X114563271Y-120796247D01*
X114599120Y-120783507D01*
X114634542Y-120779380D01*
X114676051Y-120784479D01*
X114709047Y-120798814D01*
X114735543Y-120822241D01*
X114756420Y-120856316D01*
X114768596Y-120891496D01*
X114777614Y-120940793D01*
X114782114Y-121008040D01*
X114782114Y-121063141D01*
X114781577Y-121113895D01*
X114784166Y-121162336D01*
X114793300Y-121230985D01*
X114802482Y-121299558D01*
X114805073Y-121347489D01*
X114801070Y-121369530D01*
X114789490Y-121386519D01*
X114772137Y-121397686D01*
X114750411Y-121401515D01*
G37*
G36*
X115402247Y-121239289D02*
G01*
X115398187Y-121261778D01*
X115386371Y-121279491D01*
X115368609Y-121291190D01*
X115345973Y-121295221D01*
X115323387Y-121291170D01*
X115306064Y-121279491D01*
X115294247Y-121261778D01*
X115290188Y-121239289D01*
X115286622Y-121209198D01*
X115283105Y-121179596D01*
X115287397Y-121158703D01*
X115300300Y-121141592D01*
X115319049Y-121130220D01*
X115341039Y-121126400D01*
X115361178Y-121130093D01*
X115377035Y-121140884D01*
X115389676Y-121160154D01*
X115398673Y-121191324D01*
X115402247Y-121239289D01*
G37*
G36*
X115392916Y-120842199D02*
G01*
X115388923Y-120864712D01*
X115377334Y-120882401D01*
X115359770Y-120894130D01*
X115337180Y-120898180D01*
X115314540Y-120894139D01*
X115296734Y-120882401D01*
X115284955Y-120864692D01*
X115280907Y-120842199D01*
X115278415Y-120822367D01*
X115275973Y-120801948D01*
X115280114Y-120780484D01*
X115292337Y-120763357D01*
X115310473Y-120751996D01*
X115332784Y-120748117D01*
X115357700Y-120753300D01*
X115375604Y-120768323D01*
X115387936Y-120795840D01*
X115392916Y-120842199D01*
G37*
G36*
X115890879Y-120536456D02*
G01*
X115884451Y-120556457D01*
X115856978Y-120592290D01*
X115807250Y-120642702D01*
X115771878Y-120691618D01*
X115739937Y-120756214D01*
X115712142Y-120839854D01*
X115695293Y-120914784D01*
X115685367Y-120987874D01*
X115682100Y-121059429D01*
X115686396Y-121157221D01*
X115698460Y-121240848D01*
X115717246Y-121312147D01*
X115741982Y-121372766D01*
X115772207Y-121424132D01*
X115807787Y-121467412D01*
X115858590Y-121506833D01*
X115877547Y-121525208D01*
X115887323Y-121541557D01*
X115890293Y-121556707D01*
X115886810Y-121573451D01*
X115876078Y-121588166D01*
X115860666Y-121598285D01*
X115843300Y-121601599D01*
X115826463Y-121598826D01*
X115803928Y-121588996D01*
X115753440Y-121555105D01*
X115709198Y-121513654D01*
X115670741Y-121463985D01*
X115637948Y-121405083D01*
X115611044Y-121335621D01*
X115590590Y-121254004D01*
X115577453Y-121158411D01*
X115572777Y-121046826D01*
X115576386Y-120973552D01*
X115587324Y-120899244D01*
X115605855Y-120823560D01*
X115632372Y-120746163D01*
X115670908Y-120662498D01*
X115713056Y-120595207D01*
X115758494Y-120541951D01*
X115807250Y-120500845D01*
X115828521Y-120488604D01*
X115841688Y-120485507D01*
X115859944Y-120489326D01*
X115876127Y-120501138D01*
X115887270Y-120517949D01*
X115890879Y-120536456D01*
G37*
X177946115Y-134508533D02*
X177184211Y-134508533D01*
X177565163Y-134127580D02*
X177565163Y-134889485D01*
X61603104Y-130713408D02*
X61984057Y-130446741D01*
X61603104Y-130256265D02*
X62403104Y-130256265D01*
X62403104Y-130256265D02*
X62403104Y-130561027D01*
X62403104Y-130561027D02*
X62365009Y-130637217D01*
X62365009Y-130637217D02*
X62326914Y-130675312D01*
X62326914Y-130675312D02*
X62250723Y-130713408D01*
X62250723Y-130713408D02*
X62136438Y-130713408D01*
X62136438Y-130713408D02*
X62060247Y-130675312D01*
X62060247Y-130675312D02*
X62022152Y-130637217D01*
X62022152Y-130637217D02*
X61984057Y-130561027D01*
X61984057Y-130561027D02*
X61984057Y-130256265D01*
X62403104Y-130980074D02*
X61603104Y-131513408D01*
X62403104Y-131513408D02*
X61603104Y-130980074D01*
X71396895Y-134112782D02*
X71396895Y-134493734D01*
X71396895Y-134493734D02*
X70596895Y-134493734D01*
X70977847Y-133846115D02*
X70977847Y-133579449D01*
X71396895Y-133465163D02*
X71396895Y-133846115D01*
X71396895Y-133846115D02*
X70596895Y-133846115D01*
X70596895Y-133846115D02*
X70596895Y-133465163D01*
X71396895Y-133122305D02*
X70596895Y-133122305D01*
X70596895Y-133122305D02*
X70596895Y-132931829D01*
X70596895Y-132931829D02*
X70634990Y-132817543D01*
X70634990Y-132817543D02*
X70711180Y-132741353D01*
X70711180Y-132741353D02*
X70787371Y-132703258D01*
X70787371Y-132703258D02*
X70939752Y-132665162D01*
X70939752Y-132665162D02*
X71054038Y-132665162D01*
X71054038Y-132665162D02*
X71206419Y-132703258D01*
X71206419Y-132703258D02*
X71282609Y-132741353D01*
X71282609Y-132741353D02*
X71358800Y-132817543D01*
X71358800Y-132817543D02*
X71396895Y-132931829D01*
X71396895Y-132931829D02*
X71396895Y-133122305D01*
X71473085Y-132512782D02*
X71473085Y-131903258D01*
X70977847Y-131712781D02*
X70977847Y-131446115D01*
X71396895Y-131331829D02*
X71396895Y-131712781D01*
X71396895Y-131712781D02*
X70596895Y-131712781D01*
X70596895Y-131712781D02*
X70596895Y-131331829D01*
X71396895Y-130988971D02*
X70863561Y-130988971D01*
X70939752Y-130988971D02*
X70901657Y-130950876D01*
X70901657Y-130950876D02*
X70863561Y-130874686D01*
X70863561Y-130874686D02*
X70863561Y-130760400D01*
X70863561Y-130760400D02*
X70901657Y-130684209D01*
X70901657Y-130684209D02*
X70977847Y-130646114D01*
X70977847Y-130646114D02*
X71396895Y-130646114D01*
X70977847Y-130646114D02*
X70901657Y-130608019D01*
X70901657Y-130608019D02*
X70863561Y-130531828D01*
X70863561Y-130531828D02*
X70863561Y-130417543D01*
X70863561Y-130417543D02*
X70901657Y-130341352D01*
X70901657Y-130341352D02*
X70977847Y-130303257D01*
X70977847Y-130303257D02*
X71396895Y-130303257D01*
X71396895Y-129922304D02*
X70596895Y-129922304D01*
X70901657Y-129922304D02*
X70863561Y-129846114D01*
X70863561Y-129846114D02*
X70863561Y-129693733D01*
X70863561Y-129693733D02*
X70901657Y-129617542D01*
X70901657Y-129617542D02*
X70939752Y-129579447D01*
X70939752Y-129579447D02*
X71015942Y-129541352D01*
X71015942Y-129541352D02*
X71244514Y-129541352D01*
X71244514Y-129541352D02*
X71320704Y-129579447D01*
X71320704Y-129579447D02*
X71358800Y-129617542D01*
X71358800Y-129617542D02*
X71396895Y-129693733D01*
X71396895Y-129693733D02*
X71396895Y-129846114D01*
X71396895Y-129846114D02*
X71358800Y-129922304D01*
X71396895Y-129084209D02*
X71358800Y-129160399D01*
X71358800Y-129160399D02*
X71320704Y-129198494D01*
X71320704Y-129198494D02*
X71244514Y-129236590D01*
X71244514Y-129236590D02*
X71015942Y-129236590D01*
X71015942Y-129236590D02*
X70939752Y-129198494D01*
X70939752Y-129198494D02*
X70901657Y-129160399D01*
X70901657Y-129160399D02*
X70863561Y-129084209D01*
X70863561Y-129084209D02*
X70863561Y-128969923D01*
X70863561Y-128969923D02*
X70901657Y-128893732D01*
X70901657Y-128893732D02*
X70939752Y-128855637D01*
X70939752Y-128855637D02*
X71015942Y-128817542D01*
X71015942Y-128817542D02*
X71244514Y-128817542D01*
X71244514Y-128817542D02*
X71320704Y-128855637D01*
X71320704Y-128855637D02*
X71358800Y-128893732D01*
X71358800Y-128893732D02*
X71396895Y-128969923D01*
X71396895Y-128969923D02*
X71396895Y-129084209D01*
X70863561Y-128131827D02*
X71396895Y-128131827D01*
X70863561Y-128474684D02*
X71282609Y-128474684D01*
X71282609Y-128474684D02*
X71358800Y-128436589D01*
X71358800Y-128436589D02*
X71396895Y-128360399D01*
X71396895Y-128360399D02*
X71396895Y-128246113D01*
X71396895Y-128246113D02*
X71358800Y-128169922D01*
X71358800Y-128169922D02*
X71320704Y-128131827D01*
X70863561Y-127865160D02*
X70863561Y-127560398D01*
X70596895Y-127750874D02*
X71282609Y-127750874D01*
X71282609Y-127750874D02*
X71358800Y-127712779D01*
X71358800Y-127712779D02*
X71396895Y-127636589D01*
X71396895Y-127636589D02*
X71396895Y-127560398D01*
X71396895Y-127293731D02*
X70596895Y-127293731D01*
X70596895Y-127293731D02*
X71168323Y-127027065D01*
X71168323Y-127027065D02*
X70596895Y-126760398D01*
X70596895Y-126760398D02*
X71396895Y-126760398D01*
X173491466Y-115446115D02*
X173491466Y-114684211D01*
X173872419Y-115065163D02*
X173110514Y-115065163D01*
X80383800Y-118781830D02*
X80421895Y-118667544D01*
X80421895Y-118667544D02*
X80421895Y-118477068D01*
X80421895Y-118477068D02*
X80383800Y-118400877D01*
X80383800Y-118400877D02*
X80345704Y-118362782D01*
X80345704Y-118362782D02*
X80269514Y-118324687D01*
X80269514Y-118324687D02*
X80193323Y-118324687D01*
X80193323Y-118324687D02*
X80117133Y-118362782D01*
X80117133Y-118362782D02*
X80079038Y-118400877D01*
X80079038Y-118400877D02*
X80040942Y-118477068D01*
X80040942Y-118477068D02*
X80002847Y-118629449D01*
X80002847Y-118629449D02*
X79964752Y-118705639D01*
X79964752Y-118705639D02*
X79926657Y-118743734D01*
X79926657Y-118743734D02*
X79850466Y-118781830D01*
X79850466Y-118781830D02*
X79774276Y-118781830D01*
X79774276Y-118781830D02*
X79698085Y-118743734D01*
X79698085Y-118743734D02*
X79659990Y-118705639D01*
X79659990Y-118705639D02*
X79621895Y-118629449D01*
X79621895Y-118629449D02*
X79621895Y-118438972D01*
X79621895Y-118438972D02*
X79659990Y-118324687D01*
X80421895Y-117981829D02*
X79621895Y-117981829D01*
X79621895Y-117981829D02*
X79621895Y-117791353D01*
X79621895Y-117791353D02*
X79659990Y-117677067D01*
X79659990Y-117677067D02*
X79736180Y-117600877D01*
X79736180Y-117600877D02*
X79812371Y-117562782D01*
X79812371Y-117562782D02*
X79964752Y-117524686D01*
X79964752Y-117524686D02*
X80079038Y-117524686D01*
X80079038Y-117524686D02*
X80231419Y-117562782D01*
X80231419Y-117562782D02*
X80307609Y-117600877D01*
X80307609Y-117600877D02*
X80383800Y-117677067D01*
X80383800Y-117677067D02*
X80421895Y-117791353D01*
X80421895Y-117791353D02*
X80421895Y-117981829D01*
X80193323Y-117219925D02*
X80193323Y-116838972D01*
X80421895Y-117296115D02*
X79621895Y-117029448D01*
X79621895Y-117029448D02*
X80421895Y-116762782D01*
X69103104Y-114256265D02*
X69903104Y-114256265D01*
X69903104Y-114256265D02*
X69903104Y-114561027D01*
X69903104Y-114561027D02*
X69865009Y-114637217D01*
X69865009Y-114637217D02*
X69826914Y-114675312D01*
X69826914Y-114675312D02*
X69750723Y-114713408D01*
X69750723Y-114713408D02*
X69636438Y-114713408D01*
X69636438Y-114713408D02*
X69560247Y-114675312D01*
X69560247Y-114675312D02*
X69522152Y-114637217D01*
X69522152Y-114637217D02*
X69484057Y-114561027D01*
X69484057Y-114561027D02*
X69484057Y-114256265D01*
X69103104Y-115170550D02*
X69141200Y-115094360D01*
X69141200Y-115094360D02*
X69179295Y-115056265D01*
X69179295Y-115056265D02*
X69255485Y-115018169D01*
X69255485Y-115018169D02*
X69484057Y-115018169D01*
X69484057Y-115018169D02*
X69560247Y-115056265D01*
X69560247Y-115056265D02*
X69598342Y-115094360D01*
X69598342Y-115094360D02*
X69636438Y-115170550D01*
X69636438Y-115170550D02*
X69636438Y-115284836D01*
X69636438Y-115284836D02*
X69598342Y-115361027D01*
X69598342Y-115361027D02*
X69560247Y-115399122D01*
X69560247Y-115399122D02*
X69484057Y-115437217D01*
X69484057Y-115437217D02*
X69255485Y-115437217D01*
X69255485Y-115437217D02*
X69179295Y-115399122D01*
X69179295Y-115399122D02*
X69141200Y-115361027D01*
X69141200Y-115361027D02*
X69103104Y-115284836D01*
X69103104Y-115284836D02*
X69103104Y-115170550D01*
X69636438Y-115703884D02*
X69103104Y-115856265D01*
X69103104Y-115856265D02*
X69484057Y-116008646D01*
X69484057Y-116008646D02*
X69103104Y-116161027D01*
X69103104Y-116161027D02*
X69636438Y-116313408D01*
X69141200Y-116922932D02*
X69103104Y-116846741D01*
X69103104Y-116846741D02*
X69103104Y-116694360D01*
X69103104Y-116694360D02*
X69141200Y-116618170D01*
X69141200Y-116618170D02*
X69217390Y-116580074D01*
X69217390Y-116580074D02*
X69522152Y-116580074D01*
X69522152Y-116580074D02*
X69598342Y-116618170D01*
X69598342Y-116618170D02*
X69636438Y-116694360D01*
X69636438Y-116694360D02*
X69636438Y-116846741D01*
X69636438Y-116846741D02*
X69598342Y-116922932D01*
X69598342Y-116922932D02*
X69522152Y-116961027D01*
X69522152Y-116961027D02*
X69445961Y-116961027D01*
X69445961Y-116961027D02*
X69369771Y-116580074D01*
X69103104Y-117303884D02*
X69636438Y-117303884D01*
X69484057Y-117303884D02*
X69560247Y-117341979D01*
X69560247Y-117341979D02*
X69598342Y-117380074D01*
X69598342Y-117380074D02*
X69636438Y-117456265D01*
X69636438Y-117456265D02*
X69636438Y-117532455D01*
X69026914Y-117608646D02*
X69026914Y-118218169D01*
X69103104Y-118408646D02*
X69636438Y-118408646D01*
X69903104Y-118408646D02*
X69865009Y-118370550D01*
X69865009Y-118370550D02*
X69826914Y-118408646D01*
X69826914Y-118408646D02*
X69865009Y-118446741D01*
X69865009Y-118446741D02*
X69903104Y-118408646D01*
X69903104Y-118408646D02*
X69826914Y-118408646D01*
X69636438Y-118789598D02*
X69103104Y-118789598D01*
X69560247Y-118789598D02*
X69598342Y-118827693D01*
X69598342Y-118827693D02*
X69636438Y-118903883D01*
X69636438Y-118903883D02*
X69636438Y-119018169D01*
X69636438Y-119018169D02*
X69598342Y-119094360D01*
X69598342Y-119094360D02*
X69522152Y-119132455D01*
X69522152Y-119132455D02*
X69103104Y-119132455D01*
X61991466Y-115196115D02*
X61991466Y-114434211D01*
X173491466Y-117946115D02*
X173491466Y-117184211D01*
X62403104Y-125141979D02*
X62403104Y-125599122D01*
X61603104Y-125370550D02*
X62403104Y-125370550D01*
X62403104Y-125789598D02*
X61603104Y-126322932D01*
X62403104Y-126322932D02*
X61603104Y-125789598D01*
X168446115Y-134508533D02*
X167684211Y-134508533D01*
X169756265Y-127074800D02*
X169899122Y-127122419D01*
X169899122Y-127122419D02*
X170137217Y-127122419D01*
X170137217Y-127122419D02*
X170232455Y-127074800D01*
X170232455Y-127074800D02*
X170280074Y-127027180D01*
X170280074Y-127027180D02*
X170327693Y-126931942D01*
X170327693Y-126931942D02*
X170327693Y-126836704D01*
X170327693Y-126836704D02*
X170280074Y-126741466D01*
X170280074Y-126741466D02*
X170232455Y-126693847D01*
X170232455Y-126693847D02*
X170137217Y-126646228D01*
X170137217Y-126646228D02*
X169946741Y-126598609D01*
X169946741Y-126598609D02*
X169851503Y-126550990D01*
X169851503Y-126550990D02*
X169803884Y-126503371D01*
X169803884Y-126503371D02*
X169756265Y-126408133D01*
X169756265Y-126408133D02*
X169756265Y-126312895D01*
X169756265Y-126312895D02*
X169803884Y-126217657D01*
X169803884Y-126217657D02*
X169851503Y-126170038D01*
X169851503Y-126170038D02*
X169946741Y-126122419D01*
X169946741Y-126122419D02*
X170184836Y-126122419D01*
X170184836Y-126122419D02*
X170327693Y-126170038D01*
X171137217Y-127074800D02*
X171041979Y-127122419D01*
X171041979Y-127122419D02*
X170851503Y-127122419D01*
X170851503Y-127122419D02*
X170756265Y-127074800D01*
X170756265Y-127074800D02*
X170708646Y-126979561D01*
X170708646Y-126979561D02*
X170708646Y-126598609D01*
X170708646Y-126598609D02*
X170756265Y-126503371D01*
X170756265Y-126503371D02*
X170851503Y-126455752D01*
X170851503Y-126455752D02*
X171041979Y-126455752D01*
X171041979Y-126455752D02*
X171137217Y-126503371D01*
X171137217Y-126503371D02*
X171184836Y-126598609D01*
X171184836Y-126598609D02*
X171184836Y-126693847D01*
X171184836Y-126693847D02*
X170708646Y-126789085D01*
X171613408Y-127122419D02*
X171613408Y-126455752D01*
X171613408Y-126646228D02*
X171661027Y-126550990D01*
X171661027Y-126550990D02*
X171708646Y-126503371D01*
X171708646Y-126503371D02*
X171803884Y-126455752D01*
X171803884Y-126455752D02*
X171899122Y-126455752D01*
X172232456Y-127122419D02*
X172232456Y-126455752D01*
X172232456Y-126122419D02*
X172184837Y-126170038D01*
X172184837Y-126170038D02*
X172232456Y-126217657D01*
X172232456Y-126217657D02*
X172280075Y-126170038D01*
X172280075Y-126170038D02*
X172232456Y-126122419D01*
X172232456Y-126122419D02*
X172232456Y-126217657D01*
X173137217Y-127122419D02*
X173137217Y-126598609D01*
X173137217Y-126598609D02*
X173089598Y-126503371D01*
X173089598Y-126503371D02*
X172994360Y-126455752D01*
X172994360Y-126455752D02*
X172803884Y-126455752D01*
X172803884Y-126455752D02*
X172708646Y-126503371D01*
X173137217Y-127074800D02*
X173041979Y-127122419D01*
X173041979Y-127122419D02*
X172803884Y-127122419D01*
X172803884Y-127122419D02*
X172708646Y-127074800D01*
X172708646Y-127074800D02*
X172661027Y-126979561D01*
X172661027Y-126979561D02*
X172661027Y-126884323D01*
X172661027Y-126884323D02*
X172708646Y-126789085D01*
X172708646Y-126789085D02*
X172803884Y-126741466D01*
X172803884Y-126741466D02*
X173041979Y-126741466D01*
X173041979Y-126741466D02*
X173137217Y-126693847D01*
X173756265Y-127122419D02*
X173661027Y-127074800D01*
X173661027Y-127074800D02*
X173613408Y-126979561D01*
X173613408Y-126979561D02*
X173613408Y-126122419D01*
X173899123Y-127217657D02*
X174661027Y-127217657D01*
X175232456Y-126598609D02*
X174899123Y-126598609D01*
X174899123Y-127122419D02*
X174899123Y-126122419D01*
X174899123Y-126122419D02*
X175375313Y-126122419D01*
X173141200Y-119468169D02*
X173103104Y-119582455D01*
X173103104Y-119582455D02*
X173103104Y-119772931D01*
X173103104Y-119772931D02*
X173141200Y-119849122D01*
X173141200Y-119849122D02*
X173179295Y-119887217D01*
X173179295Y-119887217D02*
X173255485Y-119925312D01*
X173255485Y-119925312D02*
X173331676Y-119925312D01*
X173331676Y-119925312D02*
X173407866Y-119887217D01*
X173407866Y-119887217D02*
X173445961Y-119849122D01*
X173445961Y-119849122D02*
X173484057Y-119772931D01*
X173484057Y-119772931D02*
X173522152Y-119620550D01*
X173522152Y-119620550D02*
X173560247Y-119544360D01*
X173560247Y-119544360D02*
X173598342Y-119506265D01*
X173598342Y-119506265D02*
X173674533Y-119468169D01*
X173674533Y-119468169D02*
X173750723Y-119468169D01*
X173750723Y-119468169D02*
X173826914Y-119506265D01*
X173826914Y-119506265D02*
X173865009Y-119544360D01*
X173865009Y-119544360D02*
X173903104Y-119620550D01*
X173903104Y-119620550D02*
X173903104Y-119811027D01*
X173903104Y-119811027D02*
X173865009Y-119925312D01*
X173103104Y-120268170D02*
X173903104Y-120268170D01*
X173903104Y-120268170D02*
X173903104Y-120458646D01*
X173903104Y-120458646D02*
X173865009Y-120572932D01*
X173865009Y-120572932D02*
X173788819Y-120649122D01*
X173788819Y-120649122D02*
X173712628Y-120687217D01*
X173712628Y-120687217D02*
X173560247Y-120725313D01*
X173560247Y-120725313D02*
X173445961Y-120725313D01*
X173445961Y-120725313D02*
X173293580Y-120687217D01*
X173293580Y-120687217D02*
X173217390Y-120649122D01*
X173217390Y-120649122D02*
X173141200Y-120572932D01*
X173141200Y-120572932D02*
X173103104Y-120458646D01*
X173103104Y-120458646D02*
X173103104Y-120268170D01*
X173331676Y-121030074D02*
X173331676Y-121411027D01*
X173103104Y-120953884D02*
X173903104Y-121220551D01*
X173903104Y-121220551D02*
X173103104Y-121487217D01*
X155741466Y-114946115D02*
X155741466Y-114184211D01*
X156122419Y-114565163D02*
X155360514Y-114565163D01*
X173141200Y-121968169D02*
X173103104Y-122082455D01*
X173103104Y-122082455D02*
X173103104Y-122272931D01*
X173103104Y-122272931D02*
X173141200Y-122349122D01*
X173141200Y-122349122D02*
X173179295Y-122387217D01*
X173179295Y-122387217D02*
X173255485Y-122425312D01*
X173255485Y-122425312D02*
X173331676Y-122425312D01*
X173331676Y-122425312D02*
X173407866Y-122387217D01*
X173407866Y-122387217D02*
X173445961Y-122349122D01*
X173445961Y-122349122D02*
X173484057Y-122272931D01*
X173484057Y-122272931D02*
X173522152Y-122120550D01*
X173522152Y-122120550D02*
X173560247Y-122044360D01*
X173560247Y-122044360D02*
X173598342Y-122006265D01*
X173598342Y-122006265D02*
X173674533Y-121968169D01*
X173674533Y-121968169D02*
X173750723Y-121968169D01*
X173750723Y-121968169D02*
X173826914Y-122006265D01*
X173826914Y-122006265D02*
X173865009Y-122044360D01*
X173865009Y-122044360D02*
X173903104Y-122120550D01*
X173903104Y-122120550D02*
X173903104Y-122311027D01*
X173903104Y-122311027D02*
X173865009Y-122425312D01*
X173179295Y-123225313D02*
X173141200Y-123187217D01*
X173141200Y-123187217D02*
X173103104Y-123072932D01*
X173103104Y-123072932D02*
X173103104Y-122996741D01*
X173103104Y-122996741D02*
X173141200Y-122882455D01*
X173141200Y-122882455D02*
X173217390Y-122806265D01*
X173217390Y-122806265D02*
X173293580Y-122768170D01*
X173293580Y-122768170D02*
X173445961Y-122730074D01*
X173445961Y-122730074D02*
X173560247Y-122730074D01*
X173560247Y-122730074D02*
X173712628Y-122768170D01*
X173712628Y-122768170D02*
X173788819Y-122806265D01*
X173788819Y-122806265D02*
X173865009Y-122882455D01*
X173865009Y-122882455D02*
X173903104Y-122996741D01*
X173903104Y-122996741D02*
X173903104Y-123072932D01*
X173903104Y-123072932D02*
X173865009Y-123187217D01*
X173865009Y-123187217D02*
X173826914Y-123225313D01*
X173103104Y-123949122D02*
X173103104Y-123568170D01*
X173103104Y-123568170D02*
X173903104Y-123568170D01*
X155716466Y-126196115D02*
X155716466Y-125434211D01*
X156097419Y-125815163D02*
X155335514Y-125815163D01*
X78741466Y-134196115D02*
X78741466Y-133434211D01*
X79122419Y-133815163D02*
X78360514Y-133815163D01*
X79146895Y-131743734D02*
X78346895Y-131743734D01*
X78346895Y-131743734D02*
X78346895Y-131553258D01*
X78346895Y-131553258D02*
X78384990Y-131438972D01*
X78384990Y-131438972D02*
X78461180Y-131362782D01*
X78461180Y-131362782D02*
X78537371Y-131324687D01*
X78537371Y-131324687D02*
X78689752Y-131286591D01*
X78689752Y-131286591D02*
X78804038Y-131286591D01*
X78804038Y-131286591D02*
X78956419Y-131324687D01*
X78956419Y-131324687D02*
X79032609Y-131362782D01*
X79032609Y-131362782D02*
X79108800Y-131438972D01*
X79108800Y-131438972D02*
X79146895Y-131553258D01*
X79146895Y-131553258D02*
X79146895Y-131743734D01*
X78346895Y-130791353D02*
X78346895Y-130638972D01*
X78346895Y-130638972D02*
X78384990Y-130562782D01*
X78384990Y-130562782D02*
X78461180Y-130486591D01*
X78461180Y-130486591D02*
X78613561Y-130448496D01*
X78613561Y-130448496D02*
X78880228Y-130448496D01*
X78880228Y-130448496D02*
X79032609Y-130486591D01*
X79032609Y-130486591D02*
X79108800Y-130562782D01*
X79108800Y-130562782D02*
X79146895Y-130638972D01*
X79146895Y-130638972D02*
X79146895Y-130791353D01*
X79146895Y-130791353D02*
X79108800Y-130867544D01*
X79108800Y-130867544D02*
X79032609Y-130943734D01*
X79032609Y-130943734D02*
X78880228Y-130981830D01*
X78880228Y-130981830D02*
X78613561Y-130981830D01*
X78613561Y-130981830D02*
X78461180Y-130943734D01*
X78461180Y-130943734D02*
X78384990Y-130867544D01*
X78384990Y-130867544D02*
X78346895Y-130791353D01*
X155741466Y-120446115D02*
X155741466Y-119684211D01*
X78741466Y-129196115D02*
X78741466Y-128434211D01*
X80016466Y-122696115D02*
X80016466Y-121934211D01*
X80397419Y-122315163D02*
X79635514Y-122315163D01*
X155404295Y-130713408D02*
X155366200Y-130675312D01*
X155366200Y-130675312D02*
X155328104Y-130561027D01*
X155328104Y-130561027D02*
X155328104Y-130484836D01*
X155328104Y-130484836D02*
X155366200Y-130370550D01*
X155366200Y-130370550D02*
X155442390Y-130294360D01*
X155442390Y-130294360D02*
X155518580Y-130256265D01*
X155518580Y-130256265D02*
X155670961Y-130218169D01*
X155670961Y-130218169D02*
X155785247Y-130218169D01*
X155785247Y-130218169D02*
X155937628Y-130256265D01*
X155937628Y-130256265D02*
X156013819Y-130294360D01*
X156013819Y-130294360D02*
X156090009Y-130370550D01*
X156090009Y-130370550D02*
X156128104Y-130484836D01*
X156128104Y-130484836D02*
X156128104Y-130561027D01*
X156128104Y-130561027D02*
X156090009Y-130675312D01*
X156090009Y-130675312D02*
X156051914Y-130713408D01*
X156128104Y-131208646D02*
X156128104Y-131361027D01*
X156128104Y-131361027D02*
X156090009Y-131437217D01*
X156090009Y-131437217D02*
X156013819Y-131513408D01*
X156013819Y-131513408D02*
X155861438Y-131551503D01*
X155861438Y-131551503D02*
X155594771Y-131551503D01*
X155594771Y-131551503D02*
X155442390Y-131513408D01*
X155442390Y-131513408D02*
X155366200Y-131437217D01*
X155366200Y-131437217D02*
X155328104Y-131361027D01*
X155328104Y-131361027D02*
X155328104Y-131208646D01*
X155328104Y-131208646D02*
X155366200Y-131132455D01*
X155366200Y-131132455D02*
X155442390Y-131056265D01*
X155442390Y-131056265D02*
X155594771Y-131018169D01*
X155594771Y-131018169D02*
X155861438Y-131018169D01*
X155861438Y-131018169D02*
X156013819Y-131056265D01*
X156013819Y-131056265D02*
X156090009Y-131132455D01*
X156090009Y-131132455D02*
X156128104Y-131208646D01*
X61991466Y-117946115D02*
X61991466Y-117184211D01*
X62372419Y-117565163D02*
X61610514Y-117565163D01*
X155353104Y-117006265D02*
X156153104Y-117006265D01*
X156153104Y-117006265D02*
X156153104Y-117196741D01*
X156153104Y-117196741D02*
X156115009Y-117311027D01*
X156115009Y-117311027D02*
X156038819Y-117387217D01*
X156038819Y-117387217D02*
X155962628Y-117425312D01*
X155962628Y-117425312D02*
X155810247Y-117463408D01*
X155810247Y-117463408D02*
X155695961Y-117463408D01*
X155695961Y-117463408D02*
X155543580Y-117425312D01*
X155543580Y-117425312D02*
X155467390Y-117387217D01*
X155467390Y-117387217D02*
X155391200Y-117311027D01*
X155391200Y-117311027D02*
X155353104Y-117196741D01*
X155353104Y-117196741D02*
X155353104Y-117006265D01*
X156153104Y-117958646D02*
X156153104Y-118111027D01*
X156153104Y-118111027D02*
X156115009Y-118187217D01*
X156115009Y-118187217D02*
X156038819Y-118263408D01*
X156038819Y-118263408D02*
X155886438Y-118301503D01*
X155886438Y-118301503D02*
X155619771Y-118301503D01*
X155619771Y-118301503D02*
X155467390Y-118263408D01*
X155467390Y-118263408D02*
X155391200Y-118187217D01*
X155391200Y-118187217D02*
X155353104Y-118111027D01*
X155353104Y-118111027D02*
X155353104Y-117958646D01*
X155353104Y-117958646D02*
X155391200Y-117882455D01*
X155391200Y-117882455D02*
X155467390Y-117806265D01*
X155467390Y-117806265D02*
X155619771Y-117768169D01*
X155619771Y-117768169D02*
X155886438Y-117768169D01*
X155886438Y-117768169D02*
X156038819Y-117806265D01*
X156038819Y-117806265D02*
X156115009Y-117882455D01*
X156115009Y-117882455D02*
X156153104Y-117958646D01*
X172946115Y-134508533D02*
X172184211Y-134508533D01*
X170463408Y-134896895D02*
X170196741Y-134515942D01*
X170006265Y-134896895D02*
X170006265Y-134096895D01*
X170006265Y-134096895D02*
X170311027Y-134096895D01*
X170311027Y-134096895D02*
X170387217Y-134134990D01*
X170387217Y-134134990D02*
X170425312Y-134173085D01*
X170425312Y-134173085D02*
X170463408Y-134249276D01*
X170463408Y-134249276D02*
X170463408Y-134363561D01*
X170463408Y-134363561D02*
X170425312Y-134439752D01*
X170425312Y-134439752D02*
X170387217Y-134477847D01*
X170387217Y-134477847D02*
X170311027Y-134515942D01*
X170311027Y-134515942D02*
X170006265Y-134515942D01*
X170730074Y-134096895D02*
X171263408Y-134896895D01*
X171263408Y-134096895D02*
X170730074Y-134896895D01*
X61991466Y-123696115D02*
X61991466Y-122934211D01*
X62372419Y-123315163D02*
X61610514Y-123315163D01*
X80016466Y-120696115D02*
X80016466Y-119934211D01*
X69141200Y-125968169D02*
X69103104Y-126082455D01*
X69103104Y-126082455D02*
X69103104Y-126272931D01*
X69103104Y-126272931D02*
X69141200Y-126349122D01*
X69141200Y-126349122D02*
X69179295Y-126387217D01*
X69179295Y-126387217D02*
X69255485Y-126425312D01*
X69255485Y-126425312D02*
X69331676Y-126425312D01*
X69331676Y-126425312D02*
X69407866Y-126387217D01*
X69407866Y-126387217D02*
X69445961Y-126349122D01*
X69445961Y-126349122D02*
X69484057Y-126272931D01*
X69484057Y-126272931D02*
X69522152Y-126120550D01*
X69522152Y-126120550D02*
X69560247Y-126044360D01*
X69560247Y-126044360D02*
X69598342Y-126006265D01*
X69598342Y-126006265D02*
X69674533Y-125968169D01*
X69674533Y-125968169D02*
X69750723Y-125968169D01*
X69750723Y-125968169D02*
X69826914Y-126006265D01*
X69826914Y-126006265D02*
X69865009Y-126044360D01*
X69865009Y-126044360D02*
X69903104Y-126120550D01*
X69903104Y-126120550D02*
X69903104Y-126311027D01*
X69903104Y-126311027D02*
X69865009Y-126425312D01*
X69141200Y-127072932D02*
X69103104Y-126996741D01*
X69103104Y-126996741D02*
X69103104Y-126844360D01*
X69103104Y-126844360D02*
X69141200Y-126768170D01*
X69141200Y-126768170D02*
X69217390Y-126730074D01*
X69217390Y-126730074D02*
X69522152Y-126730074D01*
X69522152Y-126730074D02*
X69598342Y-126768170D01*
X69598342Y-126768170D02*
X69636438Y-126844360D01*
X69636438Y-126844360D02*
X69636438Y-126996741D01*
X69636438Y-126996741D02*
X69598342Y-127072932D01*
X69598342Y-127072932D02*
X69522152Y-127111027D01*
X69522152Y-127111027D02*
X69445961Y-127111027D01*
X69445961Y-127111027D02*
X69369771Y-126730074D01*
X69103104Y-127453884D02*
X69636438Y-127453884D01*
X69484057Y-127453884D02*
X69560247Y-127491979D01*
X69560247Y-127491979D02*
X69598342Y-127530074D01*
X69598342Y-127530074D02*
X69636438Y-127606265D01*
X69636438Y-127606265D02*
X69636438Y-127682455D01*
X69103104Y-127949122D02*
X69636438Y-127949122D01*
X69903104Y-127949122D02*
X69865009Y-127911026D01*
X69865009Y-127911026D02*
X69826914Y-127949122D01*
X69826914Y-127949122D02*
X69865009Y-127987217D01*
X69865009Y-127987217D02*
X69903104Y-127949122D01*
X69903104Y-127949122D02*
X69826914Y-127949122D01*
X69103104Y-128672931D02*
X69522152Y-128672931D01*
X69522152Y-128672931D02*
X69598342Y-128634836D01*
X69598342Y-128634836D02*
X69636438Y-128558645D01*
X69636438Y-128558645D02*
X69636438Y-128406264D01*
X69636438Y-128406264D02*
X69598342Y-128330074D01*
X69141200Y-128672931D02*
X69103104Y-128596740D01*
X69103104Y-128596740D02*
X69103104Y-128406264D01*
X69103104Y-128406264D02*
X69141200Y-128330074D01*
X69141200Y-128330074D02*
X69217390Y-128291978D01*
X69217390Y-128291978D02*
X69293580Y-128291978D01*
X69293580Y-128291978D02*
X69369771Y-128330074D01*
X69369771Y-128330074D02*
X69407866Y-128406264D01*
X69407866Y-128406264D02*
X69407866Y-128596740D01*
X69407866Y-128596740D02*
X69445961Y-128672931D01*
X69103104Y-129168169D02*
X69141200Y-129091979D01*
X69141200Y-129091979D02*
X69217390Y-129053884D01*
X69217390Y-129053884D02*
X69903104Y-129053884D01*
X69026914Y-129282456D02*
X69026914Y-129891979D01*
X69103104Y-130082456D02*
X69903104Y-130082456D01*
X69903104Y-130082456D02*
X69331676Y-130349122D01*
X69331676Y-130349122D02*
X69903104Y-130615789D01*
X69903104Y-130615789D02*
X69103104Y-130615789D01*
X181127580Y-116803884D02*
X182127580Y-116803884D01*
X181651390Y-116803884D02*
X181651390Y-117375312D01*
X181127580Y-117375312D02*
X182127580Y-117375312D01*
X181127580Y-118280074D02*
X181651390Y-118280074D01*
X181651390Y-118280074D02*
X181746628Y-118232455D01*
X181746628Y-118232455D02*
X181794247Y-118137217D01*
X181794247Y-118137217D02*
X181794247Y-117946741D01*
X181794247Y-117946741D02*
X181746628Y-117851503D01*
X181175200Y-118280074D02*
X181127580Y-118184836D01*
X181127580Y-118184836D02*
X181127580Y-117946741D01*
X181127580Y-117946741D02*
X181175200Y-117851503D01*
X181175200Y-117851503D02*
X181270438Y-117803884D01*
X181270438Y-117803884D02*
X181365676Y-117803884D01*
X181365676Y-117803884D02*
X181460914Y-117851503D01*
X181460914Y-117851503D02*
X181508533Y-117946741D01*
X181508533Y-117946741D02*
X181508533Y-118184836D01*
X181508533Y-118184836D02*
X181556152Y-118280074D01*
X181794247Y-118756265D02*
X180794247Y-118756265D01*
X181746628Y-118756265D02*
X181794247Y-118851503D01*
X181794247Y-118851503D02*
X181794247Y-119041979D01*
X181794247Y-119041979D02*
X181746628Y-119137217D01*
X181746628Y-119137217D02*
X181699009Y-119184836D01*
X181699009Y-119184836D02*
X181603771Y-119232455D01*
X181603771Y-119232455D02*
X181318057Y-119232455D01*
X181318057Y-119232455D02*
X181222819Y-119184836D01*
X181222819Y-119184836D02*
X181175200Y-119137217D01*
X181175200Y-119137217D02*
X181127580Y-119041979D01*
X181127580Y-119041979D02*
X181127580Y-118851503D01*
X181127580Y-118851503D02*
X181175200Y-118756265D01*
X181794247Y-119518170D02*
X181794247Y-119899122D01*
X182127580Y-119661027D02*
X181270438Y-119661027D01*
X181270438Y-119661027D02*
X181175200Y-119708646D01*
X181175200Y-119708646D02*
X181127580Y-119803884D01*
X181127580Y-119803884D02*
X181127580Y-119899122D01*
X181127580Y-120232456D02*
X181794247Y-120232456D01*
X182127580Y-120232456D02*
X182079961Y-120184837D01*
X182079961Y-120184837D02*
X182032342Y-120232456D01*
X182032342Y-120232456D02*
X182079961Y-120280075D01*
X182079961Y-120280075D02*
X182127580Y-120232456D01*
X182127580Y-120232456D02*
X182032342Y-120232456D01*
X181175200Y-121137217D02*
X181127580Y-121041979D01*
X181127580Y-121041979D02*
X181127580Y-120851503D01*
X181127580Y-120851503D02*
X181175200Y-120756265D01*
X181175200Y-120756265D02*
X181222819Y-120708646D01*
X181222819Y-120708646D02*
X181318057Y-120661027D01*
X181318057Y-120661027D02*
X181603771Y-120661027D01*
X181603771Y-120661027D02*
X181699009Y-120708646D01*
X181699009Y-120708646D02*
X181746628Y-120756265D01*
X181746628Y-120756265D02*
X181794247Y-120851503D01*
X181794247Y-120851503D02*
X181794247Y-121041979D01*
X181794247Y-121041979D02*
X181746628Y-121137217D01*
X181032342Y-121327694D02*
X181032342Y-122089598D01*
X181651390Y-122661027D02*
X181651390Y-122327694D01*
X181127580Y-122327694D02*
X182127580Y-122327694D01*
X182127580Y-122327694D02*
X182127580Y-122803884D01*
X163352580Y-127780074D02*
X163352580Y-127303884D01*
X163352580Y-127303884D02*
X164352580Y-127303884D01*
X163876390Y-128113408D02*
X163876390Y-128446741D01*
X163352580Y-128589598D02*
X163352580Y-128113408D01*
X163352580Y-128113408D02*
X164352580Y-128113408D01*
X164352580Y-128113408D02*
X164352580Y-128589598D01*
X163352580Y-129018170D02*
X164352580Y-129018170D01*
X164352580Y-129018170D02*
X164352580Y-129256265D01*
X164352580Y-129256265D02*
X164304961Y-129399122D01*
X164304961Y-129399122D02*
X164209723Y-129494360D01*
X164209723Y-129494360D02*
X164114485Y-129541979D01*
X164114485Y-129541979D02*
X163924009Y-129589598D01*
X163924009Y-129589598D02*
X163781152Y-129589598D01*
X163781152Y-129589598D02*
X163590676Y-129541979D01*
X163590676Y-129541979D02*
X163495438Y-129494360D01*
X163495438Y-129494360D02*
X163400200Y-129399122D01*
X163400200Y-129399122D02*
X163352580Y-129256265D01*
X163352580Y-129256265D02*
X163352580Y-129018170D01*
X163257342Y-129780075D02*
X163257342Y-130541979D01*
X164352580Y-130637218D02*
X164352580Y-131208646D01*
X163352580Y-130922932D02*
X164352580Y-130922932D01*
X164352580Y-131541980D02*
X163543057Y-131541980D01*
X163543057Y-131541980D02*
X163447819Y-131589599D01*
X163447819Y-131589599D02*
X163400200Y-131637218D01*
X163400200Y-131637218D02*
X163352580Y-131732456D01*
X163352580Y-131732456D02*
X163352580Y-131922932D01*
X163352580Y-131922932D02*
X163400200Y-132018170D01*
X163400200Y-132018170D02*
X163447819Y-132065789D01*
X163447819Y-132065789D02*
X163543057Y-132113408D01*
X163543057Y-132113408D02*
X164352580Y-132113408D01*
X163876390Y-132922932D02*
X163828771Y-133065789D01*
X163828771Y-133065789D02*
X163781152Y-133113408D01*
X163781152Y-133113408D02*
X163685914Y-133161027D01*
X163685914Y-133161027D02*
X163543057Y-133161027D01*
X163543057Y-133161027D02*
X163447819Y-133113408D01*
X163447819Y-133113408D02*
X163400200Y-133065789D01*
X163400200Y-133065789D02*
X163352580Y-132970551D01*
X163352580Y-132970551D02*
X163352580Y-132589599D01*
X163352580Y-132589599D02*
X164352580Y-132589599D01*
X164352580Y-132589599D02*
X164352580Y-132922932D01*
X164352580Y-132922932D02*
X164304961Y-133018170D01*
X164304961Y-133018170D02*
X164257342Y-133065789D01*
X164257342Y-133065789D02*
X164162104Y-133113408D01*
X164162104Y-133113408D02*
X164066866Y-133113408D01*
X164066866Y-133113408D02*
X163971628Y-133065789D01*
X163971628Y-133065789D02*
X163924009Y-133018170D01*
X163924009Y-133018170D02*
X163876390Y-132922932D01*
X163876390Y-132922932D02*
X163876390Y-132589599D01*
X163876390Y-133589599D02*
X163876390Y-133922932D01*
X163352580Y-134065789D02*
X163352580Y-133589599D01*
X163352580Y-133589599D02*
X164352580Y-133589599D01*
X164352580Y-133589599D02*
X164352580Y-134065789D01*
X72396895Y-121243734D02*
X71596895Y-121243734D01*
X71977847Y-121243734D02*
X71977847Y-120786591D01*
X72396895Y-120786591D02*
X71596895Y-120786591D01*
X72396895Y-120062782D02*
X71977847Y-120062782D01*
X71977847Y-120062782D02*
X71901657Y-120100877D01*
X71901657Y-120100877D02*
X71863561Y-120177068D01*
X71863561Y-120177068D02*
X71863561Y-120329449D01*
X71863561Y-120329449D02*
X71901657Y-120405639D01*
X72358800Y-120062782D02*
X72396895Y-120138973D01*
X72396895Y-120138973D02*
X72396895Y-120329449D01*
X72396895Y-120329449D02*
X72358800Y-120405639D01*
X72358800Y-120405639D02*
X72282609Y-120443735D01*
X72282609Y-120443735D02*
X72206419Y-120443735D01*
X72206419Y-120443735D02*
X72130228Y-120405639D01*
X72130228Y-120405639D02*
X72092133Y-120329449D01*
X72092133Y-120329449D02*
X72092133Y-120138973D01*
X72092133Y-120138973D02*
X72054038Y-120062782D01*
X71863561Y-119681829D02*
X72663561Y-119681829D01*
X71901657Y-119681829D02*
X71863561Y-119605639D01*
X71863561Y-119605639D02*
X71863561Y-119453258D01*
X71863561Y-119453258D02*
X71901657Y-119377067D01*
X71901657Y-119377067D02*
X71939752Y-119338972D01*
X71939752Y-119338972D02*
X72015942Y-119300877D01*
X72015942Y-119300877D02*
X72244514Y-119300877D01*
X72244514Y-119300877D02*
X72320704Y-119338972D01*
X72320704Y-119338972D02*
X72358800Y-119377067D01*
X72358800Y-119377067D02*
X72396895Y-119453258D01*
X72396895Y-119453258D02*
X72396895Y-119605639D01*
X72396895Y-119605639D02*
X72358800Y-119681829D01*
X71863561Y-119072305D02*
X71863561Y-118767543D01*
X71596895Y-118958019D02*
X72282609Y-118958019D01*
X72282609Y-118958019D02*
X72358800Y-118919924D01*
X72358800Y-118919924D02*
X72396895Y-118843734D01*
X72396895Y-118843734D02*
X72396895Y-118767543D01*
X72396895Y-118500876D02*
X71863561Y-118500876D01*
X71596895Y-118500876D02*
X71634990Y-118538972D01*
X71634990Y-118538972D02*
X71673085Y-118500876D01*
X71673085Y-118500876D02*
X71634990Y-118462781D01*
X71634990Y-118462781D02*
X71596895Y-118500876D01*
X71596895Y-118500876D02*
X71673085Y-118500876D01*
X72358800Y-117777067D02*
X72396895Y-117853258D01*
X72396895Y-117853258D02*
X72396895Y-118005639D01*
X72396895Y-118005639D02*
X72358800Y-118081829D01*
X72358800Y-118081829D02*
X72320704Y-118119924D01*
X72320704Y-118119924D02*
X72244514Y-118158020D01*
X72244514Y-118158020D02*
X72015942Y-118158020D01*
X72015942Y-118158020D02*
X71939752Y-118119924D01*
X71939752Y-118119924D02*
X71901657Y-118081829D01*
X71901657Y-118081829D02*
X71863561Y-118005639D01*
X71863561Y-118005639D02*
X71863561Y-117853258D01*
X71863561Y-117853258D02*
X71901657Y-117777067D01*
X72473085Y-117624687D02*
X72473085Y-117015163D01*
X72396895Y-116824686D02*
X71596895Y-116824686D01*
X71596895Y-116824686D02*
X72168323Y-116558020D01*
X72168323Y-116558020D02*
X71596895Y-116291353D01*
X71596895Y-116291353D02*
X72396895Y-116291353D01*
X61991466Y-133696115D02*
X61991466Y-132934211D01*
X155716466Y-133696115D02*
X155716466Y-132934211D01*
X80383800Y-116281830D02*
X80421895Y-116167544D01*
X80421895Y-116167544D02*
X80421895Y-115977068D01*
X80421895Y-115977068D02*
X80383800Y-115900877D01*
X80383800Y-115900877D02*
X80345704Y-115862782D01*
X80345704Y-115862782D02*
X80269514Y-115824687D01*
X80269514Y-115824687D02*
X80193323Y-115824687D01*
X80193323Y-115824687D02*
X80117133Y-115862782D01*
X80117133Y-115862782D02*
X80079038Y-115900877D01*
X80079038Y-115900877D02*
X80040942Y-115977068D01*
X80040942Y-115977068D02*
X80002847Y-116129449D01*
X80002847Y-116129449D02*
X79964752Y-116205639D01*
X79964752Y-116205639D02*
X79926657Y-116243734D01*
X79926657Y-116243734D02*
X79850466Y-116281830D01*
X79850466Y-116281830D02*
X79774276Y-116281830D01*
X79774276Y-116281830D02*
X79698085Y-116243734D01*
X79698085Y-116243734D02*
X79659990Y-116205639D01*
X79659990Y-116205639D02*
X79621895Y-116129449D01*
X79621895Y-116129449D02*
X79621895Y-115938972D01*
X79621895Y-115938972D02*
X79659990Y-115824687D01*
X80345704Y-115024686D02*
X80383800Y-115062782D01*
X80383800Y-115062782D02*
X80421895Y-115177067D01*
X80421895Y-115177067D02*
X80421895Y-115253258D01*
X80421895Y-115253258D02*
X80383800Y-115367544D01*
X80383800Y-115367544D02*
X80307609Y-115443734D01*
X80307609Y-115443734D02*
X80231419Y-115481829D01*
X80231419Y-115481829D02*
X80079038Y-115519925D01*
X80079038Y-115519925D02*
X79964752Y-115519925D01*
X79964752Y-115519925D02*
X79812371Y-115481829D01*
X79812371Y-115481829D02*
X79736180Y-115443734D01*
X79736180Y-115443734D02*
X79659990Y-115367544D01*
X79659990Y-115367544D02*
X79621895Y-115253258D01*
X79621895Y-115253258D02*
X79621895Y-115177067D01*
X79621895Y-115177067D02*
X79659990Y-115062782D01*
X79659990Y-115062782D02*
X79698085Y-115024686D01*
X80421895Y-114300877D02*
X80421895Y-114681829D01*
X80421895Y-114681829D02*
X79621895Y-114681829D01*
X162878104Y-114137217D02*
X162878104Y-113756265D01*
X162878104Y-113756265D02*
X163678104Y-113756265D01*
X163297152Y-114403884D02*
X163297152Y-114670550D01*
X162878104Y-114784836D02*
X162878104Y-114403884D01*
X162878104Y-114403884D02*
X163678104Y-114403884D01*
X163678104Y-114403884D02*
X163678104Y-114784836D01*
X162878104Y-115127694D02*
X163678104Y-115127694D01*
X163678104Y-115127694D02*
X163678104Y-115318170D01*
X163678104Y-115318170D02*
X163640009Y-115432456D01*
X163640009Y-115432456D02*
X163563819Y-115508646D01*
X163563819Y-115508646D02*
X163487628Y-115546741D01*
X163487628Y-115546741D02*
X163335247Y-115584837D01*
X163335247Y-115584837D02*
X163220961Y-115584837D01*
X163220961Y-115584837D02*
X163068580Y-115546741D01*
X163068580Y-115546741D02*
X162992390Y-115508646D01*
X162992390Y-115508646D02*
X162916200Y-115432456D01*
X162916200Y-115432456D02*
X162878104Y-115318170D01*
X162878104Y-115318170D02*
X162878104Y-115127694D01*
X162801914Y-115737218D02*
X162801914Y-116346741D01*
X163297152Y-116537218D02*
X163297152Y-116803884D01*
X162878104Y-116918170D02*
X162878104Y-116537218D01*
X162878104Y-116537218D02*
X163678104Y-116537218D01*
X163678104Y-116537218D02*
X163678104Y-116918170D01*
X162878104Y-117261028D02*
X163411438Y-117261028D01*
X163335247Y-117261028D02*
X163373342Y-117299123D01*
X163373342Y-117299123D02*
X163411438Y-117375313D01*
X163411438Y-117375313D02*
X163411438Y-117489599D01*
X163411438Y-117489599D02*
X163373342Y-117565790D01*
X163373342Y-117565790D02*
X163297152Y-117603885D01*
X163297152Y-117603885D02*
X162878104Y-117603885D01*
X163297152Y-117603885D02*
X163373342Y-117641980D01*
X163373342Y-117641980D02*
X163411438Y-117718171D01*
X163411438Y-117718171D02*
X163411438Y-117832456D01*
X163411438Y-117832456D02*
X163373342Y-117908647D01*
X163373342Y-117908647D02*
X163297152Y-117946742D01*
X163297152Y-117946742D02*
X162878104Y-117946742D01*
X162878104Y-118327695D02*
X163678104Y-118327695D01*
X163373342Y-118327695D02*
X163411438Y-118403885D01*
X163411438Y-118403885D02*
X163411438Y-118556266D01*
X163411438Y-118556266D02*
X163373342Y-118632457D01*
X163373342Y-118632457D02*
X163335247Y-118670552D01*
X163335247Y-118670552D02*
X163259057Y-118708647D01*
X163259057Y-118708647D02*
X163030485Y-118708647D01*
X163030485Y-118708647D02*
X162954295Y-118670552D01*
X162954295Y-118670552D02*
X162916200Y-118632457D01*
X162916200Y-118632457D02*
X162878104Y-118556266D01*
X162878104Y-118556266D02*
X162878104Y-118403885D01*
X162878104Y-118403885D02*
X162916200Y-118327695D01*
X162878104Y-119165790D02*
X162916200Y-119089600D01*
X162916200Y-119089600D02*
X162954295Y-119051505D01*
X162954295Y-119051505D02*
X163030485Y-119013409D01*
X163030485Y-119013409D02*
X163259057Y-119013409D01*
X163259057Y-119013409D02*
X163335247Y-119051505D01*
X163335247Y-119051505D02*
X163373342Y-119089600D01*
X163373342Y-119089600D02*
X163411438Y-119165790D01*
X163411438Y-119165790D02*
X163411438Y-119280076D01*
X163411438Y-119280076D02*
X163373342Y-119356267D01*
X163373342Y-119356267D02*
X163335247Y-119394362D01*
X163335247Y-119394362D02*
X163259057Y-119432457D01*
X163259057Y-119432457D02*
X163030485Y-119432457D01*
X163030485Y-119432457D02*
X162954295Y-119394362D01*
X162954295Y-119394362D02*
X162916200Y-119356267D01*
X162916200Y-119356267D02*
X162878104Y-119280076D01*
X162878104Y-119280076D02*
X162878104Y-119165790D01*
X163411438Y-120118172D02*
X162878104Y-120118172D01*
X163411438Y-119775315D02*
X162992390Y-119775315D01*
X162992390Y-119775315D02*
X162916200Y-119813410D01*
X162916200Y-119813410D02*
X162878104Y-119889600D01*
X162878104Y-119889600D02*
X162878104Y-120003886D01*
X162878104Y-120003886D02*
X162916200Y-120080077D01*
X162916200Y-120080077D02*
X162954295Y-120118172D01*
X163411438Y-120384839D02*
X163411438Y-120689601D01*
X163678104Y-120499125D02*
X162992390Y-120499125D01*
X162992390Y-120499125D02*
X162916200Y-120537220D01*
X162916200Y-120537220D02*
X162878104Y-120613410D01*
X162878104Y-120613410D02*
X162878104Y-120689601D01*
X163297152Y-121222934D02*
X163297152Y-120956268D01*
X162878104Y-120956268D02*
X163678104Y-120956268D01*
X163678104Y-120956268D02*
X163678104Y-121337220D01*
X155328104Y-128256265D02*
X156128104Y-128256265D01*
X156128104Y-128256265D02*
X156128104Y-128446741D01*
X156128104Y-128446741D02*
X156090009Y-128561027D01*
X156090009Y-128561027D02*
X156013819Y-128637217D01*
X156013819Y-128637217D02*
X155937628Y-128675312D01*
X155937628Y-128675312D02*
X155785247Y-128713408D01*
X155785247Y-128713408D02*
X155670961Y-128713408D01*
X155670961Y-128713408D02*
X155518580Y-128675312D01*
X155518580Y-128675312D02*
X155442390Y-128637217D01*
X155442390Y-128637217D02*
X155366200Y-128561027D01*
X155366200Y-128561027D02*
X155328104Y-128446741D01*
X155328104Y-128446741D02*
X155328104Y-128256265D01*
X156128104Y-129208646D02*
X156128104Y-129361027D01*
X156128104Y-129361027D02*
X156090009Y-129437217D01*
X156090009Y-129437217D02*
X156013819Y-129513408D01*
X156013819Y-129513408D02*
X155861438Y-129551503D01*
X155861438Y-129551503D02*
X155594771Y-129551503D01*
X155594771Y-129551503D02*
X155442390Y-129513408D01*
X155442390Y-129513408D02*
X155366200Y-129437217D01*
X155366200Y-129437217D02*
X155328104Y-129361027D01*
X155328104Y-129361027D02*
X155328104Y-129208646D01*
X155328104Y-129208646D02*
X155366200Y-129132455D01*
X155366200Y-129132455D02*
X155442390Y-129056265D01*
X155442390Y-129056265D02*
X155594771Y-129018169D01*
X155594771Y-129018169D02*
X155861438Y-129018169D01*
X155861438Y-129018169D02*
X156013819Y-129056265D01*
X156013819Y-129056265D02*
X156090009Y-129132455D01*
X156090009Y-129132455D02*
X156128104Y-129208646D01*
X174891979Y-134096895D02*
X175349122Y-134096895D01*
X175120550Y-134896895D02*
X175120550Y-134096895D01*
X175539598Y-134096895D02*
X176072932Y-134896895D01*
X176072932Y-134096895D02*
X175539598Y-134896895D01*
X61991466Y-128696115D02*
X61991466Y-127934211D01*
D11*
X148833333Y-129359580D02*
X148785714Y-129407200D01*
X148785714Y-129407200D02*
X148642857Y-129454819D01*
X148642857Y-129454819D02*
X148547619Y-129454819D01*
X148547619Y-129454819D02*
X148404762Y-129407200D01*
X148404762Y-129407200D02*
X148309524Y-129311961D01*
X148309524Y-129311961D02*
X148261905Y-129216723D01*
X148261905Y-129216723D02*
X148214286Y-129026247D01*
X148214286Y-129026247D02*
X148214286Y-128883390D01*
X148214286Y-128883390D02*
X148261905Y-128692914D01*
X148261905Y-128692914D02*
X148309524Y-128597676D01*
X148309524Y-128597676D02*
X148404762Y-128502438D01*
X148404762Y-128502438D02*
X148547619Y-128454819D01*
X148547619Y-128454819D02*
X148642857Y-128454819D01*
X148642857Y-128454819D02*
X148785714Y-128502438D01*
X148785714Y-128502438D02*
X148833333Y-128550057D01*
X149785714Y-129454819D02*
X149214286Y-129454819D01*
X149500000Y-129454819D02*
X149500000Y-128454819D01*
X149500000Y-128454819D02*
X149404762Y-128597676D01*
X149404762Y-128597676D02*
X149309524Y-128692914D01*
X149309524Y-128692914D02*
X149214286Y-128740533D01*
X148233333Y-117759580D02*
X148185714Y-117807200D01*
X148185714Y-117807200D02*
X148042857Y-117854819D01*
X148042857Y-117854819D02*
X147947619Y-117854819D01*
X147947619Y-117854819D02*
X147804762Y-117807200D01*
X147804762Y-117807200D02*
X147709524Y-117711961D01*
X147709524Y-117711961D02*
X147661905Y-117616723D01*
X147661905Y-117616723D02*
X147614286Y-117426247D01*
X147614286Y-117426247D02*
X147614286Y-117283390D01*
X147614286Y-117283390D02*
X147661905Y-117092914D01*
X147661905Y-117092914D02*
X147709524Y-116997676D01*
X147709524Y-116997676D02*
X147804762Y-116902438D01*
X147804762Y-116902438D02*
X147947619Y-116854819D01*
X147947619Y-116854819D02*
X148042857Y-116854819D01*
X148042857Y-116854819D02*
X148185714Y-116902438D01*
X148185714Y-116902438D02*
X148233333Y-116950057D01*
X148566667Y-116854819D02*
X149185714Y-116854819D01*
X149185714Y-116854819D02*
X148852381Y-117235771D01*
X148852381Y-117235771D02*
X148995238Y-117235771D01*
X148995238Y-117235771D02*
X149090476Y-117283390D01*
X149090476Y-117283390D02*
X149138095Y-117331009D01*
X149138095Y-117331009D02*
X149185714Y-117426247D01*
X149185714Y-117426247D02*
X149185714Y-117664342D01*
X149185714Y-117664342D02*
X149138095Y-117759580D01*
X149138095Y-117759580D02*
X149090476Y-117807200D01*
X149090476Y-117807200D02*
X148995238Y-117854819D01*
X148995238Y-117854819D02*
X148709524Y-117854819D01*
X148709524Y-117854819D02*
X148614286Y-117807200D01*
X148614286Y-117807200D02*
X148566667Y-117759580D01*
D10*
X111123809Y-112864895D02*
X110857142Y-112483942D01*
X110666666Y-112864895D02*
X110666666Y-112064895D01*
X110666666Y-112064895D02*
X110971428Y-112064895D01*
X110971428Y-112064895D02*
X111047618Y-112102990D01*
X111047618Y-112102990D02*
X111085713Y-112141085D01*
X111085713Y-112141085D02*
X111123809Y-112217276D01*
X111123809Y-112217276D02*
X111123809Y-112331561D01*
X111123809Y-112331561D02*
X111085713Y-112407752D01*
X111085713Y-112407752D02*
X111047618Y-112445847D01*
X111047618Y-112445847D02*
X110971428Y-112483942D01*
X110971428Y-112483942D02*
X110666666Y-112483942D01*
X111923809Y-112788704D02*
X111885713Y-112826800D01*
X111885713Y-112826800D02*
X111771428Y-112864895D01*
X111771428Y-112864895D02*
X111695237Y-112864895D01*
X111695237Y-112864895D02*
X111580951Y-112826800D01*
X111580951Y-112826800D02*
X111504761Y-112750609D01*
X111504761Y-112750609D02*
X111466666Y-112674419D01*
X111466666Y-112674419D02*
X111428570Y-112522038D01*
X111428570Y-112522038D02*
X111428570Y-112407752D01*
X111428570Y-112407752D02*
X111466666Y-112255371D01*
X111466666Y-112255371D02*
X111504761Y-112179180D01*
X111504761Y-112179180D02*
X111580951Y-112102990D01*
X111580951Y-112102990D02*
X111695237Y-112064895D01*
X111695237Y-112064895D02*
X111771428Y-112064895D01*
X111771428Y-112064895D02*
X111885713Y-112102990D01*
X111885713Y-112102990D02*
X111923809Y-112141085D01*
X112380951Y-112864895D02*
X112304761Y-112826800D01*
X112304761Y-112826800D02*
X112266666Y-112788704D01*
X112266666Y-112788704D02*
X112228570Y-112712514D01*
X112228570Y-112712514D02*
X112228570Y-112483942D01*
X112228570Y-112483942D02*
X112266666Y-112407752D01*
X112266666Y-112407752D02*
X112304761Y-112369657D01*
X112304761Y-112369657D02*
X112380951Y-112331561D01*
X112380951Y-112331561D02*
X112495237Y-112331561D01*
X112495237Y-112331561D02*
X112571428Y-112369657D01*
X112571428Y-112369657D02*
X112609523Y-112407752D01*
X112609523Y-112407752D02*
X112647618Y-112483942D01*
X112647618Y-112483942D02*
X112647618Y-112712514D01*
X112647618Y-112712514D02*
X112609523Y-112788704D01*
X112609523Y-112788704D02*
X112571428Y-112826800D01*
X112571428Y-112826800D02*
X112495237Y-112864895D01*
X112495237Y-112864895D02*
X112380951Y-112864895D01*
X112990476Y-112331561D02*
X112990476Y-112864895D01*
X112990476Y-112407752D02*
X113028571Y-112369657D01*
X113028571Y-112369657D02*
X113104761Y-112331561D01*
X113104761Y-112331561D02*
X113219047Y-112331561D01*
X113219047Y-112331561D02*
X113295238Y-112369657D01*
X113295238Y-112369657D02*
X113333333Y-112445847D01*
X113333333Y-112445847D02*
X113333333Y-112864895D01*
X114623809Y-112864895D02*
X114242857Y-112864895D01*
X114242857Y-112864895D02*
X114242857Y-112064895D01*
X115347619Y-112788704D02*
X115309523Y-112826800D01*
X115309523Y-112826800D02*
X115195238Y-112864895D01*
X115195238Y-112864895D02*
X115119047Y-112864895D01*
X115119047Y-112864895D02*
X115004761Y-112826800D01*
X115004761Y-112826800D02*
X114928571Y-112750609D01*
X114928571Y-112750609D02*
X114890476Y-112674419D01*
X114890476Y-112674419D02*
X114852380Y-112522038D01*
X114852380Y-112522038D02*
X114852380Y-112407752D01*
X114852380Y-112407752D02*
X114890476Y-112255371D01*
X114890476Y-112255371D02*
X114928571Y-112179180D01*
X114928571Y-112179180D02*
X115004761Y-112102990D01*
X115004761Y-112102990D02*
X115119047Y-112064895D01*
X115119047Y-112064895D02*
X115195238Y-112064895D01*
X115195238Y-112064895D02*
X115309523Y-112102990D01*
X115309523Y-112102990D02*
X115347619Y-112141085D01*
X115804761Y-112864895D02*
X115728571Y-112826800D01*
X115728571Y-112826800D02*
X115690476Y-112788704D01*
X115690476Y-112788704D02*
X115652380Y-112712514D01*
X115652380Y-112712514D02*
X115652380Y-112483942D01*
X115652380Y-112483942D02*
X115690476Y-112407752D01*
X115690476Y-112407752D02*
X115728571Y-112369657D01*
X115728571Y-112369657D02*
X115804761Y-112331561D01*
X115804761Y-112331561D02*
X115919047Y-112331561D01*
X115919047Y-112331561D02*
X115995238Y-112369657D01*
X115995238Y-112369657D02*
X116033333Y-112407752D01*
X116033333Y-112407752D02*
X116071428Y-112483942D01*
X116071428Y-112483942D02*
X116071428Y-112712514D01*
X116071428Y-112712514D02*
X116033333Y-112788704D01*
X116033333Y-112788704D02*
X115995238Y-112826800D01*
X115995238Y-112826800D02*
X115919047Y-112864895D01*
X115919047Y-112864895D02*
X115804761Y-112864895D01*
X116414286Y-112331561D02*
X116414286Y-112864895D01*
X116414286Y-112407752D02*
X116452381Y-112369657D01*
X116452381Y-112369657D02*
X116528571Y-112331561D01*
X116528571Y-112331561D02*
X116642857Y-112331561D01*
X116642857Y-112331561D02*
X116719048Y-112369657D01*
X116719048Y-112369657D02*
X116757143Y-112445847D01*
X116757143Y-112445847D02*
X116757143Y-112864895D01*
X117816667Y-112864895D02*
X117816667Y-112064895D01*
X117816667Y-112445847D02*
X118273810Y-112445847D01*
X118273810Y-112864895D02*
X118273810Y-112064895D01*
X118921428Y-112445847D02*
X119035714Y-112483942D01*
X119035714Y-112483942D02*
X119073809Y-112522038D01*
X119073809Y-112522038D02*
X119111905Y-112598228D01*
X119111905Y-112598228D02*
X119111905Y-112712514D01*
X119111905Y-112712514D02*
X119073809Y-112788704D01*
X119073809Y-112788704D02*
X119035714Y-112826800D01*
X119035714Y-112826800D02*
X118959524Y-112864895D01*
X118959524Y-112864895D02*
X118654762Y-112864895D01*
X118654762Y-112864895D02*
X118654762Y-112064895D01*
X118654762Y-112064895D02*
X118921428Y-112064895D01*
X118921428Y-112064895D02*
X118997619Y-112102990D01*
X118997619Y-112102990D02*
X119035714Y-112141085D01*
X119035714Y-112141085D02*
X119073809Y-112217276D01*
X119073809Y-112217276D02*
X119073809Y-112293466D01*
X119073809Y-112293466D02*
X119035714Y-112369657D01*
X119035714Y-112369657D02*
X118997619Y-112407752D01*
X118997619Y-112407752D02*
X118921428Y-112445847D01*
X118921428Y-112445847D02*
X118654762Y-112445847D01*
X119340476Y-112064895D02*
X119797619Y-112064895D01*
X119569047Y-112864895D02*
X119569047Y-112064895D01*
D11*
X140023333Y-124804819D02*
X139690000Y-124328628D01*
X139451905Y-124804819D02*
X139451905Y-123804819D01*
X139451905Y-123804819D02*
X139832857Y-123804819D01*
X139832857Y-123804819D02*
X139928095Y-123852438D01*
X139928095Y-123852438D02*
X139975714Y-123900057D01*
X139975714Y-123900057D02*
X140023333Y-123995295D01*
X140023333Y-123995295D02*
X140023333Y-124138152D01*
X140023333Y-124138152D02*
X139975714Y-124233390D01*
X139975714Y-124233390D02*
X139928095Y-124281009D01*
X139928095Y-124281009D02*
X139832857Y-124328628D01*
X139832857Y-124328628D02*
X139451905Y-124328628D01*
X140975714Y-124804819D02*
X140404286Y-124804819D01*
X140690000Y-124804819D02*
X140690000Y-123804819D01*
X140690000Y-123804819D02*
X140594762Y-123947676D01*
X140594762Y-123947676D02*
X140499524Y-124042914D01*
X140499524Y-124042914D02*
X140404286Y-124090533D01*
X168583333Y-118909580D02*
X168535714Y-118957200D01*
X168535714Y-118957200D02*
X168392857Y-119004819D01*
X168392857Y-119004819D02*
X168297619Y-119004819D01*
X168297619Y-119004819D02*
X168154762Y-118957200D01*
X168154762Y-118957200D02*
X168059524Y-118861961D01*
X168059524Y-118861961D02*
X168011905Y-118766723D01*
X168011905Y-118766723D02*
X167964286Y-118576247D01*
X167964286Y-118576247D02*
X167964286Y-118433390D01*
X167964286Y-118433390D02*
X168011905Y-118242914D01*
X168011905Y-118242914D02*
X168059524Y-118147676D01*
X168059524Y-118147676D02*
X168154762Y-118052438D01*
X168154762Y-118052438D02*
X168297619Y-118004819D01*
X168297619Y-118004819D02*
X168392857Y-118004819D01*
X168392857Y-118004819D02*
X168535714Y-118052438D01*
X168535714Y-118052438D02*
X168583333Y-118100057D01*
X169488095Y-118004819D02*
X169011905Y-118004819D01*
X169011905Y-118004819D02*
X168964286Y-118481009D01*
X168964286Y-118481009D02*
X169011905Y-118433390D01*
X169011905Y-118433390D02*
X169107143Y-118385771D01*
X169107143Y-118385771D02*
X169345238Y-118385771D01*
X169345238Y-118385771D02*
X169440476Y-118433390D01*
X169440476Y-118433390D02*
X169488095Y-118481009D01*
X169488095Y-118481009D02*
X169535714Y-118576247D01*
X169535714Y-118576247D02*
X169535714Y-118814342D01*
X169535714Y-118814342D02*
X169488095Y-118909580D01*
X169488095Y-118909580D02*
X169440476Y-118957200D01*
X169440476Y-118957200D02*
X169345238Y-119004819D01*
X169345238Y-119004819D02*
X169107143Y-119004819D01*
X169107143Y-119004819D02*
X169011905Y-118957200D01*
X169011905Y-118957200D02*
X168964286Y-118909580D01*
X132233095Y-132904819D02*
X132233095Y-133714342D01*
X132233095Y-133714342D02*
X132280714Y-133809580D01*
X132280714Y-133809580D02*
X132328333Y-133857200D01*
X132328333Y-133857200D02*
X132423571Y-133904819D01*
X132423571Y-133904819D02*
X132614047Y-133904819D01*
X132614047Y-133904819D02*
X132709285Y-133857200D01*
X132709285Y-133857200D02*
X132756904Y-133809580D01*
X132756904Y-133809580D02*
X132804523Y-133714342D01*
X132804523Y-133714342D02*
X132804523Y-132904819D01*
X133233095Y-133000057D02*
X133280714Y-132952438D01*
X133280714Y-132952438D02*
X133375952Y-132904819D01*
X133375952Y-132904819D02*
X133614047Y-132904819D01*
X133614047Y-132904819D02*
X133709285Y-132952438D01*
X133709285Y-132952438D02*
X133756904Y-133000057D01*
X133756904Y-133000057D02*
X133804523Y-133095295D01*
X133804523Y-133095295D02*
X133804523Y-133190533D01*
X133804523Y-133190533D02*
X133756904Y-133333390D01*
X133756904Y-133333390D02*
X133185476Y-133904819D01*
X133185476Y-133904819D02*
X133804523Y-133904819D01*
X128233333Y-114454819D02*
X127900000Y-113978628D01*
X127661905Y-114454819D02*
X127661905Y-113454819D01*
X127661905Y-113454819D02*
X128042857Y-113454819D01*
X128042857Y-113454819D02*
X128138095Y-113502438D01*
X128138095Y-113502438D02*
X128185714Y-113550057D01*
X128185714Y-113550057D02*
X128233333Y-113645295D01*
X128233333Y-113645295D02*
X128233333Y-113788152D01*
X128233333Y-113788152D02*
X128185714Y-113883390D01*
X128185714Y-113883390D02*
X128138095Y-113931009D01*
X128138095Y-113931009D02*
X128042857Y-113978628D01*
X128042857Y-113978628D02*
X127661905Y-113978628D01*
X128566667Y-113454819D02*
X129185714Y-113454819D01*
X129185714Y-113454819D02*
X128852381Y-113835771D01*
X128852381Y-113835771D02*
X128995238Y-113835771D01*
X128995238Y-113835771D02*
X129090476Y-113883390D01*
X129090476Y-113883390D02*
X129138095Y-113931009D01*
X129138095Y-113931009D02*
X129185714Y-114026247D01*
X129185714Y-114026247D02*
X129185714Y-114264342D01*
X129185714Y-114264342D02*
X129138095Y-114359580D01*
X129138095Y-114359580D02*
X129090476Y-114407200D01*
X129090476Y-114407200D02*
X128995238Y-114454819D01*
X128995238Y-114454819D02*
X128709524Y-114454819D01*
X128709524Y-114454819D02*
X128614286Y-114407200D01*
X128614286Y-114407200D02*
X128566667Y-114359580D01*
X140023333Y-129304819D02*
X139690000Y-128828628D01*
X139451905Y-129304819D02*
X139451905Y-128304819D01*
X139451905Y-128304819D02*
X139832857Y-128304819D01*
X139832857Y-128304819D02*
X139928095Y-128352438D01*
X139928095Y-128352438D02*
X139975714Y-128400057D01*
X139975714Y-128400057D02*
X140023333Y-128495295D01*
X140023333Y-128495295D02*
X140023333Y-128638152D01*
X140023333Y-128638152D02*
X139975714Y-128733390D01*
X139975714Y-128733390D02*
X139928095Y-128781009D01*
X139928095Y-128781009D02*
X139832857Y-128828628D01*
X139832857Y-128828628D02*
X139451905Y-128828628D01*
X140404286Y-128400057D02*
X140451905Y-128352438D01*
X140451905Y-128352438D02*
X140547143Y-128304819D01*
X140547143Y-128304819D02*
X140785238Y-128304819D01*
X140785238Y-128304819D02*
X140880476Y-128352438D01*
X140880476Y-128352438D02*
X140928095Y-128400057D01*
X140928095Y-128400057D02*
X140975714Y-128495295D01*
X140975714Y-128495295D02*
X140975714Y-128590533D01*
X140975714Y-128590533D02*
X140928095Y-128733390D01*
X140928095Y-128733390D02*
X140356667Y-129304819D01*
X140356667Y-129304819D02*
X140975714Y-129304819D01*
X85083333Y-130109580D02*
X85035714Y-130157200D01*
X85035714Y-130157200D02*
X84892857Y-130204819D01*
X84892857Y-130204819D02*
X84797619Y-130204819D01*
X84797619Y-130204819D02*
X84654762Y-130157200D01*
X84654762Y-130157200D02*
X84559524Y-130061961D01*
X84559524Y-130061961D02*
X84511905Y-129966723D01*
X84511905Y-129966723D02*
X84464286Y-129776247D01*
X84464286Y-129776247D02*
X84464286Y-129633390D01*
X84464286Y-129633390D02*
X84511905Y-129442914D01*
X84511905Y-129442914D02*
X84559524Y-129347676D01*
X84559524Y-129347676D02*
X84654762Y-129252438D01*
X84654762Y-129252438D02*
X84797619Y-129204819D01*
X84797619Y-129204819D02*
X84892857Y-129204819D01*
X84892857Y-129204819D02*
X85035714Y-129252438D01*
X85035714Y-129252438D02*
X85083333Y-129300057D01*
X85464286Y-129300057D02*
X85511905Y-129252438D01*
X85511905Y-129252438D02*
X85607143Y-129204819D01*
X85607143Y-129204819D02*
X85845238Y-129204819D01*
X85845238Y-129204819D02*
X85940476Y-129252438D01*
X85940476Y-129252438D02*
X85988095Y-129300057D01*
X85988095Y-129300057D02*
X86035714Y-129395295D01*
X86035714Y-129395295D02*
X86035714Y-129490533D01*
X86035714Y-129490533D02*
X85988095Y-129633390D01*
X85988095Y-129633390D02*
X85416667Y-130204819D01*
X85416667Y-130204819D02*
X86035714Y-130204819D01*
X125288152Y-125761904D02*
X125954819Y-125761904D01*
X125288152Y-126190475D02*
X125811961Y-126190475D01*
X125811961Y-126190475D02*
X125907200Y-126142856D01*
X125907200Y-126142856D02*
X125954819Y-126047618D01*
X125954819Y-126047618D02*
X125954819Y-125904761D01*
X125954819Y-125904761D02*
X125907200Y-125809523D01*
X125907200Y-125809523D02*
X125859580Y-125761904D01*
X125954819Y-124761904D02*
X125954819Y-125333332D01*
X125954819Y-125047618D02*
X124954819Y-125047618D01*
X124954819Y-125047618D02*
X125097676Y-125142856D01*
X125097676Y-125142856D02*
X125192914Y-125238094D01*
X125192914Y-125238094D02*
X125240533Y-125333332D01*
X140023333Y-120304819D02*
X139690000Y-119828628D01*
X139451905Y-120304819D02*
X139451905Y-119304819D01*
X139451905Y-119304819D02*
X139832857Y-119304819D01*
X139832857Y-119304819D02*
X139928095Y-119352438D01*
X139928095Y-119352438D02*
X139975714Y-119400057D01*
X139975714Y-119400057D02*
X140023333Y-119495295D01*
X140023333Y-119495295D02*
X140023333Y-119638152D01*
X140023333Y-119638152D02*
X139975714Y-119733390D01*
X139975714Y-119733390D02*
X139928095Y-119781009D01*
X139928095Y-119781009D02*
X139832857Y-119828628D01*
X139832857Y-119828628D02*
X139451905Y-119828628D01*
X140880476Y-119638152D02*
X140880476Y-120304819D01*
X140642381Y-119257200D02*
X140404286Y-119971485D01*
X140404286Y-119971485D02*
X141023333Y-119971485D01*
X84583333Y-118109580D02*
X84535714Y-118157200D01*
X84535714Y-118157200D02*
X84392857Y-118204819D01*
X84392857Y-118204819D02*
X84297619Y-118204819D01*
X84297619Y-118204819D02*
X84154762Y-118157200D01*
X84154762Y-118157200D02*
X84059524Y-118061961D01*
X84059524Y-118061961D02*
X84011905Y-117966723D01*
X84011905Y-117966723D02*
X83964286Y-117776247D01*
X83964286Y-117776247D02*
X83964286Y-117633390D01*
X83964286Y-117633390D02*
X84011905Y-117442914D01*
X84011905Y-117442914D02*
X84059524Y-117347676D01*
X84059524Y-117347676D02*
X84154762Y-117252438D01*
X84154762Y-117252438D02*
X84297619Y-117204819D01*
X84297619Y-117204819D02*
X84392857Y-117204819D01*
X84392857Y-117204819D02*
X84535714Y-117252438D01*
X84535714Y-117252438D02*
X84583333Y-117300057D01*
X85440476Y-117538152D02*
X85440476Y-118204819D01*
X85202381Y-117157200D02*
X84964286Y-117871485D01*
X84964286Y-117871485D02*
X85583333Y-117871485D01*
D12*
%TO.C,C1*%
X142150000Y-126240000D02*
X143400000Y-126240000D01*
X142775000Y-125615000D02*
X142775000Y-126865000D01*
X143640000Y-124704437D02*
X143640000Y-127490000D01*
X143640000Y-124704437D02*
X144704437Y-123640000D01*
X143640000Y-133295563D02*
X143640000Y-130510000D01*
X143640000Y-133295563D02*
X144704437Y-134360000D01*
X144704437Y-123640000D02*
X154360000Y-123640000D01*
X144704437Y-134360000D02*
X154360000Y-134360000D01*
X154360000Y-123640000D02*
X154360000Y-127490000D01*
X154360000Y-134360000D02*
X154360000Y-130510000D01*
%TO.C,C3*%
X153760000Y-122760000D02*
X153760000Y-118910000D01*
X153760000Y-112040000D02*
X153760000Y-115890000D01*
X144104437Y-122760000D02*
X153760000Y-122760000D01*
X144104437Y-112040000D02*
X153760000Y-112040000D01*
X143040000Y-121695563D02*
X144104437Y-122760000D01*
X143040000Y-121695563D02*
X143040000Y-118910000D01*
X143040000Y-113104437D02*
X144104437Y-112040000D01*
X143040000Y-113104437D02*
X143040000Y-115890000D01*
X142175000Y-114015000D02*
X142175000Y-115265000D01*
X141550000Y-114640000D02*
X142800000Y-114640000D01*
D10*
%TO.C,RCon*%
X113140000Y-113750000D02*
G75*
G02*
X113040000Y-113750000I-50000J0D01*
G01*
X113040000Y-113750000D02*
G75*
G02*
X113140000Y-113750000I50000J0D01*
G01*
D12*
%TO.C,PWR*%
X71353641Y-114120000D02*
X71046359Y-114120000D01*
X71353641Y-114880000D02*
X71046359Y-114880000D01*
D10*
%TO.C,D1*%
X70160000Y-113250000D02*
G75*
G02*
X70060000Y-113250000I-50000J0D01*
G01*
X70060000Y-113250000D02*
G75*
G02*
X70160000Y-113250000I50000J0D01*
G01*
%TO.C,LCon*%
X116640000Y-113750000D02*
G75*
G02*
X116540000Y-113750000I-50000J0D01*
G01*
X116540000Y-113750000D02*
G75*
G02*
X116640000Y-113750000I50000J0D01*
G01*
D12*
%TO.C,R8*%
X112153641Y-115130000D02*
X111846359Y-115130000D01*
X112153641Y-114370000D02*
X111846359Y-114370000D01*
%TO.C,R7*%
X115653641Y-115130000D02*
X115346359Y-115130000D01*
X115653641Y-114370000D02*
X115346359Y-114370000D01*
%TO.C,R6*%
X118903641Y-115130000D02*
X118596359Y-115130000D01*
X118903641Y-114370000D02*
X118596359Y-114370000D01*
D10*
%TO.C,HBT*%
X119905000Y-113750000D02*
G75*
G02*
X119805000Y-113750000I-50000J0D01*
G01*
X119805000Y-113750000D02*
G75*
G02*
X119905000Y-113750000I50000J0D01*
G01*
D12*
%TO.C,R1*%
X139962936Y-125265000D02*
X140417064Y-125265000D01*
X139962936Y-126735000D02*
X140417064Y-126735000D01*
%TO.C,J4*%
X156475000Y-135100000D02*
X156475000Y-136350000D01*
X156475000Y-136350000D02*
X157725000Y-136350000D01*
X156765000Y-123440000D02*
X156765000Y-136060000D01*
X156765000Y-136060000D02*
X162735000Y-136060000D01*
X156775000Y-123450000D02*
X156775000Y-125250000D01*
X156775000Y-125250000D02*
X157525000Y-125250000D01*
X156775000Y-126750000D02*
X156775000Y-132750000D01*
X156775000Y-132750000D02*
X157525000Y-132750000D01*
X156775000Y-134250000D02*
X156775000Y-136050000D01*
X156775000Y-136050000D02*
X157525000Y-136050000D01*
X157525000Y-123450000D02*
X156775000Y-123450000D01*
X157525000Y-125250000D02*
X157525000Y-123450000D01*
X157525000Y-126750000D02*
X156775000Y-126750000D01*
X157525000Y-132750000D02*
X157525000Y-126750000D01*
X157525000Y-134250000D02*
X156775000Y-134250000D01*
X157525000Y-136050000D02*
X157525000Y-134250000D01*
X159025000Y-123450000D02*
X159025000Y-124200000D01*
X159025000Y-124200000D02*
X161975000Y-124200000D01*
X159025000Y-135300000D02*
X161975000Y-135300000D01*
X159025000Y-136050000D02*
X159025000Y-135300000D01*
X161975000Y-124200000D02*
X161975000Y-129750000D01*
X161975000Y-135300000D02*
X161975000Y-129750000D01*
X162735000Y-123440000D02*
X156765000Y-123440000D01*
X162735000Y-136060000D02*
X162735000Y-123440000D01*
%TO.C,C5*%
X165340000Y-116204437D02*
X165340000Y-121960000D01*
X165340000Y-121960000D02*
X167690000Y-121960000D01*
X166404437Y-115140000D02*
X165340000Y-116204437D01*
X166404437Y-115140000D02*
X167690000Y-115140000D01*
X170597500Y-114112500D02*
X170597500Y-114900000D01*
X170991250Y-114506250D02*
X170203750Y-114506250D01*
X171095563Y-115140000D02*
X169810000Y-115140000D01*
X171095563Y-115140000D02*
X172160000Y-116204437D01*
X172160000Y-116204437D02*
X172160000Y-121960000D01*
X172160000Y-121960000D02*
X169810000Y-121960000D01*
%TO.C,U2*%
X130345000Y-114550000D02*
X130345000Y-132450000D01*
X130345000Y-132450000D02*
X131995000Y-132450000D01*
X133995000Y-132450000D02*
X135645000Y-132450000D01*
X135645000Y-114550000D02*
X130345000Y-114550000D01*
X135645000Y-132450000D02*
X135645000Y-114550000D01*
X131995000Y-132450000D02*
G75*
G02*
X133995000Y-132450000I1000000J0D01*
G01*
%TO.C,R3*%
X125827064Y-114735000D02*
X125372936Y-114735000D01*
X125827064Y-113265000D02*
X125372936Y-113265000D01*
%TO.C,J6*%
X174250000Y-124350000D02*
X174250000Y-125600000D01*
X174250000Y-125600000D02*
X175500000Y-125600000D01*
X174540000Y-112690000D02*
X174540000Y-125310000D01*
X174540000Y-125310000D02*
X180510000Y-125310000D01*
X174550000Y-112700000D02*
X174550000Y-114500000D01*
X174550000Y-114500000D02*
X175300000Y-114500000D01*
X174550000Y-116000000D02*
X174550000Y-122000000D01*
X174550000Y-122000000D02*
X175300000Y-122000000D01*
X174550000Y-123500000D02*
X174550000Y-125300000D01*
X174550000Y-125300000D02*
X175300000Y-125300000D01*
X175300000Y-112700000D02*
X174550000Y-112700000D01*
X175300000Y-114500000D02*
X175300000Y-112700000D01*
X175300000Y-116000000D02*
X174550000Y-116000000D01*
X175300000Y-122000000D02*
X175300000Y-116000000D01*
X175300000Y-123500000D02*
X174550000Y-123500000D01*
X175300000Y-125300000D02*
X175300000Y-123500000D01*
X176800000Y-112700000D02*
X176800000Y-113450000D01*
X176800000Y-113450000D02*
X179750000Y-113450000D01*
X176800000Y-124550000D02*
X179750000Y-124550000D01*
X176800000Y-125300000D02*
X176800000Y-124550000D01*
X179750000Y-113450000D02*
X179750000Y-119000000D01*
X179750000Y-124550000D02*
X179750000Y-119000000D01*
X180510000Y-112690000D02*
X174540000Y-112690000D01*
X180510000Y-125310000D02*
X180510000Y-112690000D01*
%TO.C,R2*%
X139962936Y-129765000D02*
X140417064Y-129765000D01*
X139962936Y-131235000D02*
X140417064Y-131235000D01*
%TO.C,J8*%
X165190000Y-127490000D02*
X165190000Y-133460000D01*
X165190000Y-133460000D02*
X180310000Y-133460000D01*
X165200000Y-131200000D02*
X165950000Y-131200000D01*
X165200000Y-132700000D02*
X165200000Y-133450000D01*
X165200000Y-133450000D02*
X167000000Y-133450000D01*
X165950000Y-128250000D02*
X172750000Y-128250000D01*
X165950000Y-131200000D02*
X165950000Y-128250000D01*
X167000000Y-132700000D02*
X165200000Y-132700000D01*
X167000000Y-133450000D02*
X167000000Y-132700000D01*
X168500000Y-132700000D02*
X168500000Y-133450000D01*
X168500000Y-133450000D02*
X177000000Y-133450000D01*
X177000000Y-132700000D02*
X168500000Y-132700000D01*
X177000000Y-133450000D02*
X177000000Y-132700000D01*
X178500000Y-132700000D02*
X178500000Y-133450000D01*
X178500000Y-133450000D02*
X180300000Y-133450000D01*
X179350000Y-133750000D02*
X180600000Y-133750000D01*
X179550000Y-128250000D02*
X172750000Y-128250000D01*
X179550000Y-131200000D02*
X179550000Y-128250000D01*
X180300000Y-131200000D02*
X179550000Y-131200000D01*
X180300000Y-132700000D02*
X178500000Y-132700000D01*
X180300000Y-133450000D02*
X180300000Y-132700000D01*
X180310000Y-127490000D02*
X165190000Y-127490000D01*
X180310000Y-133460000D02*
X180310000Y-127490000D01*
X180600000Y-133750000D02*
X180600000Y-132500000D01*
%TO.C,J3*%
X156000000Y-121350000D02*
X156000000Y-122600000D01*
X156000000Y-122600000D02*
X157250000Y-122600000D01*
X156290000Y-112190000D02*
X156290000Y-122310000D01*
X156290000Y-122310000D02*
X162260000Y-122310000D01*
X156300000Y-112200000D02*
X156300000Y-114000000D01*
X156300000Y-114000000D02*
X157050000Y-114000000D01*
X156300000Y-115500000D02*
X156300000Y-119000000D01*
X156300000Y-119000000D02*
X157050000Y-119000000D01*
X156300000Y-120500000D02*
X156300000Y-122300000D01*
X156300000Y-122300000D02*
X157050000Y-122300000D01*
X157050000Y-112200000D02*
X156300000Y-112200000D01*
X157050000Y-114000000D02*
X157050000Y-112200000D01*
X157050000Y-115500000D02*
X156300000Y-115500000D01*
X157050000Y-119000000D02*
X157050000Y-115500000D01*
X157050000Y-120500000D02*
X156300000Y-120500000D01*
X157050000Y-122300000D02*
X157050000Y-120500000D01*
X158550000Y-112200000D02*
X158550000Y-112950000D01*
X158550000Y-112950000D02*
X161500000Y-112950000D01*
X158550000Y-121550000D02*
X161500000Y-121550000D01*
X158550000Y-122300000D02*
X158550000Y-121550000D01*
X161500000Y-112950000D02*
X161500000Y-117250000D01*
X161500000Y-121550000D02*
X161500000Y-117250000D01*
X162260000Y-112190000D02*
X156290000Y-112190000D01*
X162260000Y-122310000D02*
X162260000Y-112190000D01*
%TO.C,C2*%
X90610000Y-134045563D02*
X90610000Y-124390000D01*
X90610000Y-124390000D02*
X86760000Y-124390000D01*
X89545563Y-135110000D02*
X90610000Y-134045563D01*
X89545563Y-135110000D02*
X86760000Y-135110000D01*
X82490000Y-136600000D02*
X82490000Y-135350000D01*
X81865000Y-135975000D02*
X83115000Y-135975000D01*
X80954437Y-135110000D02*
X83740000Y-135110000D01*
X80954437Y-135110000D02*
X79890000Y-134045563D01*
X79890000Y-134045563D02*
X79890000Y-124390000D01*
X79890000Y-124390000D02*
X83740000Y-124390000D01*
%TO.C,J2*%
X71990000Y-126440000D02*
X71990000Y-136560000D01*
X71990000Y-136560000D02*
X77960000Y-136560000D01*
X72750000Y-127200000D02*
X72750000Y-131500000D01*
X72750000Y-135800000D02*
X72750000Y-131500000D01*
X75700000Y-126450000D02*
X75700000Y-127200000D01*
X75700000Y-127200000D02*
X72750000Y-127200000D01*
X75700000Y-135800000D02*
X72750000Y-135800000D01*
X75700000Y-136550000D02*
X75700000Y-135800000D01*
X77200000Y-126450000D02*
X77200000Y-128250000D01*
X77200000Y-128250000D02*
X77950000Y-128250000D01*
X77200000Y-129750000D02*
X77200000Y-133250000D01*
X77200000Y-133250000D02*
X77950000Y-133250000D01*
X77200000Y-134750000D02*
X77200000Y-136550000D01*
X77200000Y-136550000D02*
X77950000Y-136550000D01*
X77950000Y-126450000D02*
X77200000Y-126450000D01*
X77950000Y-128250000D02*
X77950000Y-126450000D01*
X77950000Y-129750000D02*
X77200000Y-129750000D01*
X77950000Y-133250000D02*
X77950000Y-129750000D01*
X77950000Y-134750000D02*
X77200000Y-134750000D01*
X77950000Y-136550000D02*
X77950000Y-134750000D01*
X77960000Y-126440000D02*
X71990000Y-126440000D01*
X77960000Y-136560000D02*
X77960000Y-126440000D01*
X78250000Y-126150000D02*
X77000000Y-126150000D01*
X78250000Y-127400000D02*
X78250000Y-126150000D01*
%TO.C,J1*%
X62500000Y-118850000D02*
X62500000Y-120100000D01*
X62500000Y-120100000D02*
X63750000Y-120100000D01*
X62790000Y-112190000D02*
X62790000Y-119810000D01*
X62790000Y-119810000D02*
X68760000Y-119810000D01*
X62800000Y-112200000D02*
X62800000Y-114000000D01*
X62800000Y-114000000D02*
X63550000Y-114000000D01*
X62800000Y-115500000D02*
X62800000Y-116500000D01*
X62800000Y-116500000D02*
X63550000Y-116500000D01*
X62800000Y-118000000D02*
X62800000Y-119800000D01*
X62800000Y-119800000D02*
X63550000Y-119800000D01*
X63550000Y-112200000D02*
X62800000Y-112200000D01*
X63550000Y-114000000D02*
X63550000Y-112200000D01*
X63550000Y-115500000D02*
X62800000Y-115500000D01*
X63550000Y-116500000D02*
X63550000Y-115500000D01*
X63550000Y-118000000D02*
X62800000Y-118000000D01*
X63550000Y-119800000D02*
X63550000Y-118000000D01*
X65050000Y-112200000D02*
X65050000Y-112950000D01*
X65050000Y-112950000D02*
X68000000Y-112950000D01*
X65050000Y-119050000D02*
X68000000Y-119050000D01*
X65050000Y-119800000D02*
X65050000Y-119050000D01*
X68000000Y-112950000D02*
X68000000Y-116000000D01*
X68000000Y-119050000D02*
X68000000Y-116000000D01*
X68760000Y-112190000D02*
X62790000Y-112190000D01*
X68760000Y-119810000D02*
X68760000Y-112190000D01*
%TO.C,J5*%
X73015000Y-112440000D02*
X73015000Y-125060000D01*
X73015000Y-125060000D02*
X78985000Y-125060000D01*
X73775000Y-113200000D02*
X73775000Y-118750000D01*
X73775000Y-124300000D02*
X73775000Y-118750000D01*
X76725000Y-112450000D02*
X76725000Y-113200000D01*
X76725000Y-113200000D02*
X73775000Y-113200000D01*
X76725000Y-124300000D02*
X73775000Y-124300000D01*
X76725000Y-125050000D02*
X76725000Y-124300000D01*
X78225000Y-112450000D02*
X78225000Y-114250000D01*
X78225000Y-114250000D02*
X78975000Y-114250000D01*
X78225000Y-115750000D02*
X78225000Y-121750000D01*
X78225000Y-121750000D02*
X78975000Y-121750000D01*
X78225000Y-123250000D02*
X78225000Y-125050000D01*
X78225000Y-125050000D02*
X78975000Y-125050000D01*
X78975000Y-112450000D02*
X78225000Y-112450000D01*
X78975000Y-114250000D02*
X78975000Y-112450000D01*
X78975000Y-115750000D02*
X78225000Y-115750000D01*
X78975000Y-121750000D02*
X78975000Y-115750000D01*
X78975000Y-123250000D02*
X78225000Y-123250000D01*
X78975000Y-125050000D02*
X78975000Y-123250000D01*
X78985000Y-112440000D02*
X73015000Y-112440000D01*
X78985000Y-125060000D02*
X78985000Y-112440000D01*
X79275000Y-112150000D02*
X78025000Y-112150000D01*
X79275000Y-113400000D02*
X79275000Y-112150000D01*
%TO.C,J7*%
X62500000Y-135350000D02*
X62500000Y-136600000D01*
X62500000Y-136600000D02*
X63750000Y-136600000D01*
X62790000Y-121190000D02*
X62790000Y-136310000D01*
X62790000Y-136310000D02*
X68760000Y-136310000D01*
X62800000Y-121200000D02*
X62800000Y-123000000D01*
X62800000Y-123000000D02*
X63550000Y-123000000D01*
X62800000Y-124500000D02*
X62800000Y-133000000D01*
X62800000Y-133000000D02*
X63550000Y-133000000D01*
X62800000Y-134500000D02*
X62800000Y-136300000D01*
X62800000Y-136300000D02*
X63550000Y-136300000D01*
X63550000Y-121200000D02*
X62800000Y-121200000D01*
X63550000Y-123000000D02*
X63550000Y-121200000D01*
X63550000Y-124500000D02*
X62800000Y-124500000D01*
X63550000Y-133000000D02*
X63550000Y-124500000D01*
X63550000Y-134500000D02*
X62800000Y-134500000D01*
X63550000Y-136300000D02*
X63550000Y-134500000D01*
X65050000Y-121200000D02*
X65050000Y-121950000D01*
X65050000Y-121950000D02*
X68000000Y-121950000D01*
X65050000Y-135550000D02*
X68000000Y-135550000D01*
X65050000Y-136300000D02*
X65050000Y-135550000D01*
X68000000Y-121950000D02*
X68000000Y-128750000D01*
X68000000Y-135550000D02*
X68000000Y-128750000D01*
X68760000Y-121190000D02*
X62790000Y-121190000D01*
X68760000Y-136310000D02*
X68760000Y-121190000D01*
%TO.C,u1*%
X91690000Y-115775000D02*
X91690000Y-135224999D01*
X91690000Y-135224999D02*
X127310000Y-135225000D01*
X126950000Y-122258334D02*
X127310000Y-122258334D01*
X126950000Y-128741666D02*
X126950000Y-122258334D01*
X127310000Y-115775001D02*
X91690000Y-115775000D01*
X127310000Y-122258334D02*
X127310000Y-115775001D01*
X127310000Y-128741666D02*
X126950000Y-128741666D01*
X127310000Y-135225000D02*
X127310000Y-128741666D01*
%TO.C,R4*%
X139962936Y-120765000D02*
X140417064Y-120765000D01*
X139962936Y-122235000D02*
X140417064Y-122235000D01*
%TO.C,C4*%
X81340000Y-114340000D02*
X83690000Y-114340000D01*
X81340000Y-120095563D02*
X81340000Y-114340000D01*
X82404437Y-121160000D02*
X81340000Y-120095563D01*
X82404437Y-121160000D02*
X83690000Y-121160000D01*
X82508750Y-121793750D02*
X83296250Y-121793750D01*
X82902500Y-122187500D02*
X82902500Y-121400000D01*
X87095563Y-121160000D02*
X85810000Y-121160000D01*
X87095563Y-121160000D02*
X88160000Y-120095563D01*
X88160000Y-114340000D02*
X85810000Y-114340000D01*
X88160000Y-120095563D02*
X88160000Y-114340000D01*
%TD*%
M02*
