M48
; DRILL file {KiCad 9.0.7} date 2026-01-14T19:54:13-0500
; FORMAT={-:-/ absolute / metric / decimal}
; #@! TF.CreationDate,2026-01-14T19:54:13-05:00
; #@! TF.GenerationSoftware,Kicad,Pcbnew,9.0.7
; #@! TF.FileFunction,Plated,1,4,PTH
FMAT,2
METRIC
; #@! TA.AperFunction,Plated,PTH,ViaDrill
T1C0.300
; #@! TA.AperFunction,Plated,PTH,ViaDrill
T2C0.500
; #@! TA.AperFunction,Plated,PTH,ComponentDrill
T3C0.800
; #@! TA.AperFunction,Plated,PTH,ComponentDrill
T4C0.950
; #@! TA.AperFunction,Plated,PTH,ComponentDrill
T5C1.000
%
G90
G05
T1
X96.4Y-128.8
X97.8Y-115.0
X101.8Y-123.4
X122.2Y-115.0
X140.0Y-127.8
X144.8Y-131.8
X156.4Y-131.0
X169.4Y-128.6
X177.2Y-112.0
X179.6Y-112.8
T2
X70.8Y-112.2
X70.8Y-116.0
X77.8Y-134.2
X78.0Y-128.8
X78.6Y-119.8
X121.0Y-114.0
X156.4Y-114.6
X156.4Y-119.8
X156.8Y-133.6
X157.0Y-126.0
X174.6Y-117.8
T3
X92.99Y-117.775
X92.99Y-133.225
X95.53Y-117.775
X95.53Y-133.225
X98.07Y-117.775
X98.07Y-133.225
X100.61Y-117.775
X100.61Y-133.225
X103.15Y-117.775
X103.15Y-133.225
X105.69Y-117.775
X105.69Y-133.225
X108.23Y-117.775
X108.23Y-133.225
X110.77Y-117.775
X110.77Y-133.225
X113.31Y-117.775
X113.31Y-133.225
X115.85Y-117.775
X115.85Y-133.225
X118.39Y-117.775
X118.39Y-133.225
X120.93Y-117.775
X120.93Y-133.225
X123.47Y-117.775
X123.47Y-133.225
X126.01Y-117.775
X126.01Y-133.225
X129.185Y-115.88
X129.185Y-118.42
X129.185Y-120.96
X129.185Y-123.5
X129.185Y-126.04
X129.185Y-128.58
X129.185Y-131.12
X136.805Y-115.88
X136.805Y-118.42
X136.805Y-120.96
X136.805Y-123.5
X136.805Y-126.04
X136.805Y-128.58
X136.805Y-131.12
T4
X65.25Y-123.75
X65.25Y-126.25
X65.25Y-128.75
X65.25Y-131.25
X65.25Y-133.75
X75.5Y-129.0
X75.5Y-131.5
X75.5Y-134.0
X76.525Y-115.0
X76.525Y-117.5
X76.525Y-120.0
X76.525Y-122.5
X158.75Y-114.75
X158.75Y-117.25
X158.75Y-119.75
X159.225Y-126.0
X159.225Y-128.5
X159.225Y-131.0
X159.225Y-133.5
X167.75Y-131.0
X170.25Y-131.0
X172.75Y-131.0
X175.25Y-131.0
X177.0Y-115.25
X177.0Y-117.75
X177.0Y-120.25
X177.0Y-122.75
X177.75Y-131.0
T5
X65.25Y-114.75
X65.25Y-117.25
M30
